<svg width="795" height="994" viewBox="0 0 795 994" fill="none" xmlns="http://www.w3.org/2000/svg">
<path d="M226.368 699.798L464.252 -21.3124C502.657 -137.731 628.166 -200.97 744.583 -162.57L1465.69 75.3142C1582.11 113.72 1645.35 239.229 1606.95 355.645L1369.07 1076.76C1330.66 1193.17 1205.15 1256.41 1088.74 1218.01L367.624 980.124C251.207 941.724 187.962 816.217 226.368 699.798Z" stroke="url(#paint0_linear_1527_4141)" stroke-width="5" stroke-miterlimit="10"/>
<path d="M234.746 692.482L471.212 -10.9542C509.39 -124.522 632.398 -185.635 745.965 -147.457L1449.4 89.0091C1562.97 127.187 1624.08 250.195 1585.9 363.763L1349.44 1067.2C1311.26 1180.77 1188.25 1241.88 1074.68 1203.7L371.248 967.236C257.682 929.063 196.568 806.05 234.746 692.482Z" stroke="url(#paint1_linear_1527_4141)" stroke-width="4.8148" stroke-miterlimit="10"/>
<path d="M243.12 685.173L478.171 -0.596324C516.118 -111.306 636.63 -170.295 747.34 -132.348L1433.11 102.709C1543.82 140.656 1602.81 261.168 1564.86 371.878L1329.81 1057.65C1291.86 1168.36 1171.35 1227.35 1060.64 1189.4L374.873 954.347C264.163 916.401 205.175 795.889 243.12 685.173Z" stroke="url(#paint2_linear_1527_4141)" stroke-width="4.6296" stroke-miterlimit="10"/>
<path d="M251.5 677.862L485.133 9.76733C522.852 -98.0923 640.865 -154.949 748.723 -117.235L1416.82 116.398C1524.68 154.118 1581.53 272.13 1543.82 379.988L1310.19 1048.08C1272.47 1155.94 1154.45 1212.8 1046.6 1175.09L378.502 941.452C270.636 903.734 213.78 785.722 251.5 677.862Z" stroke="url(#paint3_linear_1527_4141)" stroke-width="4.4444" stroke-miterlimit="10"/>
<path d="M259.874 670.553L492.095 20.1309C529.581 -84.8767 645.098 -139.608 750.107 -102.116L1400.53 130.104C1505.54 167.591 1560.27 283.108 1522.78 388.117L1290.56 1038.54C1253.06 1143.55 1137.55 1198.28 1032.54 1160.79L382.121 928.565C277.118 891.071 222.387 775.56 259.874 670.553Z" stroke="url(#paint4_linear_1527_4141)" stroke-width="4.2593" stroke-miterlimit="10"/>
<path d="M268.253 663.243L499.054 30.4895C536.315 -71.6619 649.336 -124.269 751.487 -87.008L1384.24 143.793C1486.39 181.053 1539 294.074 1501.74 396.226L1270.94 1028.98C1233.68 1131.13 1120.66 1183.74 1018.5 1146.48L385.751 915.676C283.592 878.411 230.987 765.396 268.253 663.243Z" stroke="url(#paint5_linear_1527_4141)" stroke-width="4.0741" stroke-miterlimit="10"/>
<path d="M276.628 655.933L506.016 40.853C543.049 -58.4478 653.571 -108.923 752.87 -71.8951L1367.95 157.493C1467.25 194.526 1517.73 305.048 1480.7 404.347L1251.31 1019.43C1214.28 1118.73 1103.76 1169.2 1004.46 1132.18L389.374 902.782C290.074 865.748 239.594 755.234 276.628 655.933Z" stroke="url(#paint6_linear_1527_4141)" stroke-width="3.8889" stroke-miterlimit="10"/>
<path d="M285.002 648.624L512.969 51.2125C549.776 -45.2378 657.796 -93.5867 754.24 -56.7789L1351.65 171.189C1448.1 207.99 1496.45 316.015 1459.64 412.46L1231.68 1009.87C1194.87 1106.32 1086.85 1154.67 990.404 1117.86L392.993 889.895C296.548 853.087 248.2 745.067 285.002 648.624Z" stroke="url(#paint7_linear_1527_4141)" stroke-width="3.7037" stroke-miterlimit="10"/>
<path d="M293.38 641.308L519.935 61.569C556.51 -32.0236 662.034 -78.2477 755.627 -41.6729L1335.37 184.882C1428.96 221.457 1475.18 326.982 1438.61 420.574L1212.05 1000.31C1175.48 1093.91 1069.95 1140.13 976.36 1103.55L396.622 877C303.029 840.425 256.807 734.906 293.38 641.308Z" stroke="url(#paint8_linear_1527_4141)" stroke-width="3.5185" stroke-miterlimit="10"/>
<path d="M301.754 633.998L526.89 71.9339C563.238 -18.8082 666.263 -62.9004 757.003 -26.5585L1319.07 198.578C1409.81 234.926 1453.9 337.95 1417.56 428.691L1192.42 990.755C1156.08 1081.5 1053.05 1125.59 962.31 1089.25L400.246 864.111C309.504 827.763 265.412 724.739 301.754 633.998Z" stroke="url(#paint9_linear_1527_4141)" stroke-width="3.3333" stroke-miterlimit="10"/>
<path d="M310.134 626.687L533.851 82.292C569.966 -5.59802 670.495 -47.5656 758.386 -11.4452L1302.78 212.272C1390.67 248.386 1432.64 348.915 1396.52 436.807L1172.8 981.202C1136.69 1069.09 1036.16 1111.06 948.267 1074.94L403.872 851.223C315.986 815.101 274.014 714.579 310.134 626.687Z" stroke="url(#paint10_linear_1527_4141)" stroke-width="3.1481" stroke-miterlimit="10"/>
<path d="M318.508 619.378L540.812 92.6557C576.701 7.6218 674.729 -32.2195 759.768 3.66785L1286.49 225.972C1371.52 261.861 1411.37 359.888 1375.48 444.928L1153.17 971.65C1117.29 1056.68 1019.26 1096.53 934.219 1060.64L407.496 838.334C322.461 802.44 282.619 704.412 318.508 619.378Z" stroke="url(#paint11_linear_1527_4141)" stroke-width="2.963" stroke-miterlimit="10"/>
<path d="M326.888 612.067L547.773 103.019C583.435 20.8361 678.963 -16.8733 761.145 18.7826L1270.19 239.668C1352.38 275.33 1390.09 370.858 1354.43 453.04L1133.54 962.088C1097.88 1044.27 1002.35 1081.98 920.172 1046.32L411.124 825.439C328.941 789.777 291.226 694.251 326.888 612.067Z" stroke="url(#paint12_linear_1527_4141)" stroke-width="2.7778" stroke-miterlimit="10"/>
<path d="M335.262 604.758L554.733 113.378C590.162 34.0464 683.2 -1.53992 762.527 33.896L1253.91 253.367C1333.24 288.796 1368.83 381.834 1333.39 461.161L1113.92 952.542C1078.49 1031.87 985.451 1067.46 906.124 1032.02L414.744 812.552C335.417 777.116 299.832 684.084 335.262 604.758Z" stroke="url(#paint13_linear_1527_4141)" stroke-width="2.5926" stroke-miterlimit="10"/>
<path d="M343.64 597.442L561.693 123.736C596.896 47.2606 687.433 13.8005 763.908 49.0035L1237.61 267.056C1314.09 302.259 1347.55 392.796 1312.35 469.271L1094.29 942.978C1059.09 1019.45 968.554 1052.91 892.079 1017.71L418.372 799.657C341.897 764.454 308.439 673.923 343.64 597.442Z" stroke="url(#paint14_linear_1527_4141)" stroke-width="2.4074" stroke-miterlimit="10"/>
<path d="M352.014 590.133L568.653 134.094C603.628 60.4691 691.665 29.1409 765.288 64.1109L1221.33 280.75C1294.95 315.725 1326.28 403.762 1291.31 477.385L1074.67 933.425C1039.7 1007.05 951.659 1038.38 878.036 1003.41L421.997 786.769C348.372 751.793 317.044 663.756 352.014 590.133Z" stroke="url(#paint15_linear_1527_4141)" stroke-width="2.2222" stroke-miterlimit="10"/>
<path d="M360.394 582.822L575.614 144.458C610.357 73.6851 695.898 44.4815 766.672 79.23L1205.04 294.45C1275.81 329.193 1305.01 414.734 1270.26 485.508L1055.04 923.873C1020.3 994.646 934.76 1023.85 863.986 989.101L425.621 773.88C354.853 739.131 325.645 653.596 360.394 582.822Z" stroke="url(#paint16_linear_1527_4141)" stroke-width="2.037" stroke-miterlimit="10"/>
<path d="M368.768 575.513L582.576 154.822C617.093 86.9052 700.133 59.8279 768.049 94.3449L1188.74 308.152C1256.66 342.669 1283.73 425.71 1249.22 493.626L1035.41 914.318C1000.89 982.234 917.853 1009.31 849.936 974.794L429.245 760.987C361.328 726.47 334.251 643.43 368.768 575.513Z" stroke="url(#paint17_linear_1527_4141)" stroke-width="1.8519" stroke-miterlimit="10"/>
<path d="M377.148 568.202L589.536 165.179C623.826 100.113 704.366 75.1679 769.43 109.452L1172.45 321.84C1237.52 356.129 1262.46 436.67 1228.18 501.734L1015.79 904.757C981.503 969.823 900.963 994.768 835.898 960.484L432.875 748.096C367.81 713.807 342.858 633.268 377.148 568.202Z" stroke="url(#paint18_linear_1527_4141)" stroke-width="1.6667" stroke-miterlimit="10"/>
<path d="M385.522 560.893L596.497 175.543C630.554 113.329 708.598 90.5082 770.814 124.571L1156.16 335.546C1218.38 369.602 1241.2 447.647 1207.14 509.862L996.161 895.213C962.104 957.426 884.06 980.247 821.844 946.185L436.494 735.21C374.284 701.146 351.464 623.101 385.522 560.893Z" stroke="url(#paint19_linear_1527_4141)" stroke-width="1.4815" stroke-miterlimit="10"/>
<path d="M393.902 553.583L603.457 185.901C637.288 126.544 712.831 105.849 772.195 139.679L1139.88 349.234C1199.23 383.065 1219.93 458.608 1186.1 517.971L976.543 885.653C942.712 945.01 867.169 965.705 807.806 931.875L440.124 722.32C380.765 688.483 360.071 612.94 393.902 553.583Z" stroke="url(#paint20_linear_1527_4141)" stroke-width="1.2963" stroke-miterlimit="10"/>
<path d="M402.274 546.268L610.411 196.261C644.015 139.754 717.064 121.19 773.564 154.789L1123.57 362.926C1180.08 396.53 1198.64 469.579 1165.04 526.079L956.906 876.086C923.302 932.593 850.253 951.157 793.753 917.557L443.746 709.421C387.24 675.823 368.676 602.773 402.274 546.268Z" stroke="url(#paint21_linear_1527_4141)" stroke-width="1.1111" stroke-miterlimit="10"/>
<path d="M410.654 538.957L617.378 206.623C650.749 152.968 721.302 136.528 774.953 169.906L1107.29 376.63C1160.94 410.001 1177.38 480.555 1144 534.205L937.28 866.539C903.909 920.194 833.355 936.634 779.705 903.256L447.371 696.532C393.721 663.16 377.278 592.613 410.654 538.957Z" stroke="url(#paint22_linear_1527_4141)" stroke-width="0.9259" stroke-miterlimit="10"/>
<path d="M419.028 531.648L624.332 216.983C657.477 166.184 725.529 151.871 776.328 185.016L1090.99 390.32C1141.79 423.465 1156.11 491.517 1122.96 542.316L917.656 856.982C884.511 907.78 816.459 922.094 765.66 888.948L450.995 683.645C400.196 650.499 385.883 582.447 419.028 531.648Z" stroke="url(#paint23_linear_1527_4141)" stroke-width="0.7407" stroke-miterlimit="10"/>
<path d="M427.407 524.337L631.299 227.345C664.216 179.397 729.769 167.215 777.716 200.127L1074.71 404.019C1122.66 436.936 1134.84 502.489 1101.93 550.436L898.035 847.428C865.117 895.377 799.564 907.558 751.617 874.646L454.625 670.755C406.677 637.837 394.49 572.286 427.407 524.337Z" stroke="url(#paint24_linear_1527_4141)" stroke-width="0.5556" stroke-miterlimit="10"/>
<path d="M435.782 517.027L638.253 237.704C670.938 192.607 733.995 182.551 779.093 215.241L1058.42 417.713C1103.51 450.397 1113.57 513.454 1080.88 558.552L878.408 837.876C845.723 882.972 782.666 893.029 737.568 860.338L458.244 657.867C413.152 625.175 403.096 562.118 435.782 517.027Z" stroke="url(#paint25_linear_1527_4141)" stroke-width="0.3704" stroke-miterlimit="10"/>
<path d="M444.162 509.717L645.22 248.066C677.679 205.826 738.235 197.896 780.475 230.355L1042.13 431.414C1084.37 463.873 1092.3 524.428 1059.84 566.668L858.779 828.319C826.32 870.559 765.764 878.49 723.524 846.031L461.873 644.972C419.633 612.513 411.703 551.957 444.162 509.717Z" stroke="url(#paint26_linear_1527_4141)" stroke-width="0.1852" stroke-miterlimit="10"/>
<defs>
<linearGradient id="paint0_linear_1527_4141" x1="727.656" y1="1100.53" x2="1105.58" y2="-44.9884" gradientUnits="userSpaceOnUse">
<stop stop-color="#52D3D8"/>
<stop offset="0.4749" stop-color="#52D3D8" stop-opacity="0"/>
</linearGradient>
<linearGradient id="paint1_linear_1527_4141" x1="742.334" y1="1109.31" x2="1078.24" y2="-53.0887" gradientUnits="userSpaceOnUse">
<stop stop-color="#52D3D8"/>
<stop offset="0.4749" stop-color="#52D3D8" stop-opacity="0"/>
</linearGradient>
<linearGradient id="paint2_linear_1527_4141" x1="758.829" y1="1117.08" x2="1049.09" y2="-60.1878" gradientUnits="userSpaceOnUse">
<stop stop-color="#52D3D8"/>
<stop offset="0.4749" stop-color="#52D3D8" stop-opacity="0"/>
</linearGradient>
<linearGradient id="paint3_linear_1527_4141" x1="777.123" y1="1123.76" x2="1018.13" y2="-65.8549" gradientUnits="userSpaceOnUse">
<stop stop-color="#52D3D8"/>
<stop offset="0.4749" stop-color="#52D3D8" stop-opacity="0"/>
</linearGradient>
<linearGradient id="paint4_linear_1527_4141" x1="797.252" y1="1128.56" x2="985.337" y2="-69.9715" gradientUnits="userSpaceOnUse">
<stop stop-color="#52D3D8"/>
<stop offset="0.4749" stop-color="#52D3D8" stop-opacity="0"/>
</linearGradient>
<linearGradient id="paint5_linear_1527_4141" x1="819.036" y1="1131.53" x2="950.886" y2="-71.929" gradientUnits="userSpaceOnUse">
<stop stop-color="#52D3D8"/>
<stop offset="0.4749" stop-color="#52D3D8" stop-opacity="0"/>
</linearGradient>
<linearGradient id="paint6_linear_1527_4141" x1="842.357" y1="1131.83" x2="914.904" y2="-71.5558" gradientUnits="userSpaceOnUse">
<stop stop-color="#52D3D8"/>
<stop offset="0.4749" stop-color="#52D3D8" stop-opacity="0"/>
</linearGradient>
<linearGradient id="paint7_linear_1527_4141" x1="866.888" y1="1129.3" x2="877.711" y2="-68.3493" gradientUnits="userSpaceOnUse">
<stop stop-color="#52D3D8"/>
<stop offset="0.4749" stop-color="#52D3D8" stop-opacity="0"/>
</linearGradient>
<linearGradient id="paint8_linear_1527_4141" x1="892.195" y1="1123.82" x2="839.741" y2="-61.8496" gradientUnits="userSpaceOnUse">
<stop stop-color="#52D3D8"/>
<stop offset="0.4749" stop-color="#52D3D8" stop-opacity="0"/>
</linearGradient>
<linearGradient id="paint9_linear_1527_4141" x1="917.849" y1="1114.62" x2="801.421" y2="-51.9712" gradientUnits="userSpaceOnUse">
<stop stop-color="#52D3D8"/>
<stop offset="0.4749" stop-color="#52D3D8" stop-opacity="0"/>
</linearGradient>
<linearGradient id="paint10_linear_1527_4141" x1="943.189" y1="1101.96" x2="763.424" y2="-38.3099" gradientUnits="userSpaceOnUse">
<stop stop-color="#52D3D8"/>
<stop offset="0.4749" stop-color="#52D3D8" stop-opacity="0"/>
</linearGradient>
<linearGradient id="paint11_linear_1527_4141" x1="967.616" y1="1085.33" x2="726.331" y2="-20.9981" gradientUnits="userSpaceOnUse">
<stop stop-color="#52D3D8"/>
<stop offset="0.4749" stop-color="#52D3D8" stop-opacity="0"/>
</linearGradient>
<linearGradient id="paint12_linear_1527_4141" x1="990.4" y1="1065.03" x2="690.878" y2="-0.013777" gradientUnits="userSpaceOnUse">
<stop stop-color="#52D3D8"/>
<stop offset="0.4749" stop-color="#52D3D8" stop-opacity="0"/>
</linearGradient>
<linearGradient id="paint13_linear_1527_4141" x1="1010.83" y1="1041.52" x2="657.794" y2="24.5035" gradientUnits="userSpaceOnUse">
<stop stop-color="#52D3D8"/>
<stop offset="0.4749" stop-color="#52D3D8" stop-opacity="0"/>
</linearGradient>
<linearGradient id="paint14_linear_1527_4141" x1="1028.34" y1="1014.75" x2="627.618" y2="51.9536" gradientUnits="userSpaceOnUse">
<stop stop-color="#52D3D8"/>
<stop offset="0.4749" stop-color="#52D3D8" stop-opacity="0"/>
</linearGradient>
<linearGradient id="paint15_linear_1527_4141" x1="1042.37" y1="985.483" x2="600.912" y2="81.9057" gradientUnits="userSpaceOnUse">
<stop stop-color="#52D3D8"/>
<stop offset="0.4749" stop-color="#52D3D8" stop-opacity="0"/>
</linearGradient>
<linearGradient id="paint16_linear_1527_4141" x1="1052.54" y1="954.556" x2="578.097" y2="113.838" gradientUnits="userSpaceOnUse">
<stop stop-color="#52D3D8"/>
<stop offset="0.4749" stop-color="#52D3D8" stop-opacity="0"/>
</linearGradient>
<linearGradient id="paint17_linear_1527_4141" x1="1058.66" y1="922.224" x2="559.304" y2="146.852" gradientUnits="userSpaceOnUse">
<stop stop-color="#52D3D8"/>
<stop offset="0.4749" stop-color="#52D3D8" stop-opacity="0"/>
</linearGradient>
<linearGradient id="paint18_linear_1527_4141" x1="1060.64" y1="889.601" x2="544.672" y2="180.481" gradientUnits="userSpaceOnUse">
<stop stop-color="#52D3D8"/>
<stop offset="0.4749" stop-color="#52D3D8" stop-opacity="0"/>
</linearGradient>
<linearGradient id="paint19_linear_1527_4141" x1="1058.63" y1="856.916" x2="534.011" y2="213.847" gradientUnits="userSpaceOnUse">
<stop stop-color="#52D3D8"/>
<stop offset="0.4749" stop-color="#52D3D8" stop-opacity="0"/>
</linearGradient>
<linearGradient id="paint20_linear_1527_4141" x1="1052.83" y1="824.958" x2="527.135" y2="246.486" gradientUnits="userSpaceOnUse">
<stop stop-color="#52D3D8"/>
<stop offset="0.4749" stop-color="#52D3D8" stop-opacity="0"/>
</linearGradient>
<linearGradient id="paint21_linear_1527_4141" x1="1043.56" y1="794.41" x2="523.759" y2="278.043" gradientUnits="userSpaceOnUse">
<stop stop-color="#52D3D8"/>
<stop offset="0.4749" stop-color="#52D3D8" stop-opacity="0"/>
</linearGradient>
<linearGradient id="paint22_linear_1527_4141" x1="1031.24" y1="765.239" x2="523.408" y2="307.892" gradientUnits="userSpaceOnUse">
<stop stop-color="#52D3D8"/>
<stop offset="0.4749" stop-color="#52D3D8" stop-opacity="0"/>
</linearGradient>
<linearGradient id="paint23_linear_1527_4141" x1="1016.26" y1="737.92" x2="525.702" y2="335.891" gradientUnits="userSpaceOnUse">
<stop stop-color="#52D3D8"/>
<stop offset="0.4749" stop-color="#52D3D8" stop-opacity="0"/>
</linearGradient>
<linearGradient id="paint24_linear_1527_4141" x1="999.073" y1="712.815" x2="530.253" y2="362.007" gradientUnits="userSpaceOnUse">
<stop stop-color="#52D3D8"/>
<stop offset="0.4749" stop-color="#52D3D8" stop-opacity="0"/>
</linearGradient>
<linearGradient id="paint25_linear_1527_4141" x1="987.679" y1="694.825" x2="528.967" y2="380.672" gradientUnits="userSpaceOnUse">
<stop stop-color="#52D3D8"/>
<stop offset="0.4749" stop-color="#52D3D8" stop-opacity="0"/>
</linearGradient>
<linearGradient id="paint26_linear_1527_4141" x1="985.958" y1="685.253" x2="518.054" y2="391.26" gradientUnits="userSpaceOnUse">
<stop stop-color="#52D3D8"/>
<stop offset="0.4749" stop-color="#52D3D8" stop-opacity="0"/>
</linearGradient>
</defs>
</svg>
