<svg width="869" height="994" viewBox="0 0 869 994" fill="none" xmlns="http://www.w3.org/2000/svg">
<g opacity="0.15">
<path d="M219.718 648.628L208.109 704.479L187.025 695.412L183.47 693.865L194.049 643.11C195.319 636.851 200.944 632.469 207.329 632.773L207.409 632.733C215.51 633.136 221.341 640.711 219.731 648.655L219.718 648.628Z" fill="url(#paint0_linear_1527_4016)"/>
<path d="M335.171 877.935C333.892 879.932 332.155 881.49 330.12 882.528C326.763 884.241 322.737 884.447 319.076 882.888L270.414 861.885L271.194 858.127L275.867 835.752L329.259 858.776C336.701 862.002 339.519 871.114 335.185 877.962L335.171 877.935Z" fill="url(#paint1_linear_1527_4016)"/>
<path d="M363.426 805.025L287.44 772.259L287.456 773.595C287.501 777.469 287.108 781.399 286.302 785.305L283.431 799.067L353.217 829.149C359.11 831.687 365.865 829.584 369.326 824.224C373.66 817.376 370.829 808.237 363.386 805.012L363.426 805.025ZM271.205 635.731L271.126 635.771C264.727 635.44 259.101 639.823 257.805 646.095L242.596 719.372L246.096 720.879L254.688 724.593C258.79 726.364 262.604 728.551 265.918 731.127C266.199 731.353 266.508 731.565 266.763 731.805L283.447 651.627C285.097 643.696 279.253 636.161 271.218 635.757L271.205 635.731Z" fill="url(#paint2_linear_1527_4016)"/>
<path d="M267.967 773.661C268.009 776.159 267.759 778.672 267.231 781.226L265.166 791.15L263.252 800.392L257.536 827.902L255.609 837.117L252.083 854.035L250.169 863.277L237.478 924.383C236.208 930.642 230.582 935.024 224.197 934.72L224.09 934.707C216.016 934.358 210.172 926.756 211.808 918.865L225.558 852.717L227.472 843.475L231.024 826.543L232.925 817.342L239.069 787.798L240.681 780.055C241.272 777.099 240.96 774.268 239.827 771.722L239.704 771.482C239.567 771.148 239.404 770.828 239.188 770.535C239.187 770.469 239.12 770.402 239.079 770.322C237.723 767.99 235.534 766.117 232.808 764.954L225.246 761.689L198.616 750.176L189.998 746.475L174.018 739.576L165.386 735.848L102.334 708.647C94.8915 705.422 92.06 696.282 96.3943 689.435C97.674 687.438 99.4108 685.88 101.42 684.855C104.777 683.142 108.829 682.923 112.503 684.509L170.799 709.635L179.43 713.363L195.437 720.249L204.055 723.949L229.936 735.105L238.554 738.806L247.065 742.494C249.711 743.63 252.186 745.021 254.306 746.695C262.995 753.014 267.974 762.838 268.006 773.607L267.967 773.661Z" fill="url(#paint3_linear_1527_4016)"/>
<path d="M267.967 773.661C268.009 776.159 267.759 778.672 267.231 781.226L265.166 791.15L263.252 800.392L257.536 827.902L255.609 837.117L252.083 854.035L250.169 863.277L237.478 924.383C236.208 930.642 230.582 935.024 224.197 934.72L224.09 934.707C216.016 934.358 210.172 926.756 211.808 918.865L225.558 852.717L227.472 843.475L231.024 826.543L232.925 817.342L239.069 787.798L240.681 780.055C241.272 777.099 240.96 774.268 239.827 771.722L239.704 771.482C239.567 771.148 239.404 770.828 239.188 770.535C239.187 770.469 239.12 770.402 239.079 770.322C237.723 767.99 235.534 766.117 232.808 764.954L225.246 761.689L198.616 750.176L189.998 746.475L174.018 739.576L165.386 735.848L102.334 708.647C94.8915 705.422 92.06 696.282 96.3943 689.435C97.674 687.438 99.4108 685.88 101.42 684.855C104.777 683.142 108.829 682.923 112.503 684.509L170.799 709.635L179.43 713.363L195.437 720.249L204.055 723.949L229.936 735.105L238.554 738.806L247.065 742.494C249.711 743.63 252.186 745.021 254.306 746.695C262.995 753.014 267.974 762.838 268.006 773.607L267.967 773.661Z" fill="url(#paint4_linear_1527_4016)"/>
<path d="M267.967 773.661C268.009 776.159 267.759 778.672 267.231 781.226L265.166 791.15L263.252 800.392L257.536 827.902L255.609 837.117L252.083 854.035L250.169 863.277L237.478 924.383C236.208 930.642 230.582 935.024 224.197 934.72L224.09 934.707C216.016 934.358 210.172 926.756 211.808 918.865L225.558 852.717L227.472 843.475L231.024 826.543L232.925 817.342L239.069 787.798L240.681 780.055C241.272 777.099 240.96 774.268 239.827 771.722L239.704 771.482C239.567 771.148 239.404 770.828 239.188 770.535C239.187 770.469 239.12 770.402 239.079 770.322C237.723 767.99 235.534 766.117 232.808 764.954L225.246 761.689L198.616 750.176L189.998 746.475L174.018 739.576L165.386 735.848L102.334 708.647C94.8915 705.422 92.06 696.282 96.3943 689.435C97.674 687.438 99.4108 685.88 101.42 684.855C104.777 683.142 108.829 682.923 112.503 684.509L170.799 709.635L179.43 713.363L195.437 720.249L204.055 723.949L229.936 735.105L238.554 738.806L247.065 742.494C249.711 743.63 252.186 745.021 254.306 746.695C262.995 753.014 267.974 762.838 268.006 773.607L267.967 773.661Z" fill="url(#paint5_linear_1527_4016)"/>
<path d="M192.461 797.13C195.673 803.489 196.664 810.979 195.064 818.616L192.999 828.54L173.762 921.343C172.452 927.589 166.826 931.971 160.455 931.693L160.348 931.68C152.301 931.317 146.43 923.729 148.119 915.811L168.554 817.391C169.51 812.737 167.823 808.255 164.15 805.694L162.191 804.14C159.245 802.283 151.048 798.166 148.75 797.188L68.1267 762.386C60.6441 759.148 57.8527 750.022 62.187 743.174C63.4931 741.164 65.2299 739.606 67.2388 738.581C70.5957 736.868 74.6215 736.662 78.2823 738.222L162.994 774.768C163.421 774.953 164.664 775.495 166.361 776.276C170.812 778.339 178.368 782.112 182.61 785.659C186.457 788.367 189.555 791.826 191.754 795.744C191.959 796.211 192.19 796.664 192.474 797.09L192.461 797.13Z" fill="url(#paint6_linear_1527_4016)"/>
<path d="M379.459 466.821L367.85 522.671L346.766 513.604L343.211 512.057L353.789 461.302C355.06 455.043 360.685 450.661 367.07 450.965L367.15 450.925C375.251 451.328 381.082 458.903 379.472 466.847L379.459 466.821Z" fill="url(#paint7_linear_1527_4016)"/>
<path d="M494.912 696.127C493.633 698.124 491.896 699.682 489.861 700.721C486.504 702.433 482.478 702.639 478.817 701.08L430.155 680.077L430.935 676.319L435.608 653.944L489 676.969C496.442 680.194 499.26 689.306 494.926 696.154L494.912 696.127Z" fill="url(#paint8_linear_1527_4016)"/>
<path d="M523.167 623.217L447.181 590.451L447.197 591.787C447.242 595.661 446.849 599.591 446.043 603.497L443.172 617.259L512.958 647.342C518.85 649.879 525.606 647.777 529.067 642.416C533.401 635.568 530.57 626.429 523.127 623.204L523.167 623.217ZM430.946 453.923L430.866 453.963C424.468 453.633 418.842 458.015 417.546 464.287L402.336 537.564L405.837 539.071L414.429 542.785C418.531 544.556 422.345 546.743 425.659 549.319C425.94 549.545 426.249 549.758 426.504 549.997L443.188 469.819C444.838 461.888 438.994 454.353 430.959 453.95L430.946 453.923Z" fill="url(#paint9_linear_1527_4016)"/>
<path d="M427.708 591.853C427.75 594.351 427.5 596.864 426.972 599.419L424.907 609.342L422.993 618.584L417.277 646.094L415.35 655.309L411.824 672.228L409.91 681.469L397.219 742.575C395.948 748.834 390.323 753.217 383.938 752.912L383.831 752.9C375.757 752.55 369.913 744.948 371.549 737.057L385.299 670.909L387.212 661.667L390.765 644.735L392.666 635.534L398.81 605.991L400.422 598.247C401.013 595.291 400.701 592.46 399.568 589.914L399.445 589.674C399.308 589.34 399.145 589.02 398.929 588.727C398.928 588.661 398.861 588.594 398.82 588.514C397.464 586.182 395.275 584.309 392.549 583.146L384.987 579.881L358.357 568.368L349.739 564.668L333.759 557.768L325.127 554.041L262.075 526.839C254.632 523.614 251.801 514.475 256.135 507.627C257.415 505.63 259.152 504.072 261.161 503.047C264.518 501.334 268.57 501.115 272.244 502.701L330.54 527.827L339.171 531.555L355.178 538.441L363.796 542.142L389.677 553.297L398.295 556.998L406.806 560.686C409.452 561.822 411.927 563.214 414.047 564.887C422.736 571.206 427.715 581.03 427.747 591.799L427.708 591.853Z" fill="url(#paint10_linear_1527_4016)"/>
<path d="M427.708 591.853C427.75 594.351 427.5 596.864 426.972 599.419L424.907 609.342L422.993 618.584L417.277 646.094L415.35 655.309L411.824 672.228L409.91 681.469L397.219 742.575C395.948 748.834 390.323 753.217 383.938 752.912L383.831 752.9C375.757 752.55 369.913 744.948 371.549 737.057L385.299 670.909L387.212 661.667L390.765 644.735L392.666 635.534L398.81 605.991L400.422 598.247C401.013 595.291 400.701 592.46 399.568 589.914L399.445 589.674C399.308 589.34 399.145 589.02 398.929 588.727C398.928 588.661 398.861 588.594 398.82 588.514C397.464 586.182 395.275 584.309 392.549 583.146L384.987 579.881L358.357 568.368L349.739 564.668L333.759 557.768L325.127 554.041L262.075 526.839C254.632 523.614 251.801 514.475 256.135 507.627C257.415 505.63 259.152 504.072 261.161 503.047C264.518 501.334 268.57 501.115 272.244 502.701L330.54 527.827L339.171 531.555L355.178 538.441L363.796 542.142L389.677 553.297L398.295 556.998L406.806 560.686C409.452 561.822 411.927 563.214 414.047 564.887C422.736 571.206 427.715 581.03 427.747 591.799L427.708 591.853Z" fill="url(#paint11_linear_1527_4016)"/>
<path d="M427.708 591.853C427.75 594.351 427.5 596.864 426.972 599.419L424.907 609.342L422.993 618.584L417.277 646.094L415.35 655.309L411.824 672.228L409.91 681.469L397.219 742.575C395.948 748.834 390.323 753.217 383.938 752.912L383.831 752.9C375.757 752.55 369.913 744.948 371.549 737.057L385.299 670.909L387.212 661.667L390.765 644.735L392.666 635.534L398.81 605.991L400.422 598.247C401.013 595.291 400.701 592.46 399.568 589.914L399.445 589.674C399.308 589.34 399.145 589.02 398.929 588.727C398.928 588.661 398.861 588.594 398.82 588.514C397.464 586.182 395.275 584.309 392.549 583.146L384.987 579.881L358.357 568.368L349.739 564.668L333.759 557.768L325.127 554.041L262.075 526.839C254.632 523.614 251.801 514.475 256.135 507.627C257.415 505.63 259.152 504.072 261.161 503.047C264.518 501.334 268.57 501.115 272.244 502.701L330.54 527.827L339.171 531.555L355.178 538.441L363.796 542.142L389.677 553.297L398.295 556.998L406.806 560.686C409.452 561.822 411.927 563.214 414.047 564.887C422.736 571.206 427.715 581.03 427.747 591.799L427.708 591.853Z" fill="url(#paint12_linear_1527_4016)"/>
<path d="M352.202 615.322C355.414 621.681 356.405 629.172 354.805 636.808L352.74 646.732L333.503 739.535C332.193 745.781 326.567 750.163 320.196 749.885L320.089 749.873C312.042 749.509 306.171 741.921 307.86 734.003L328.295 635.583C329.251 630.929 327.564 626.448 323.891 623.886L321.932 622.332C318.986 620.475 310.789 616.358 308.491 615.38L227.868 580.578C220.385 577.34 217.594 568.214 221.928 561.366C223.234 559.356 224.971 557.798 226.98 556.773C230.337 555.06 234.363 554.855 238.023 556.414L322.735 592.96C323.162 593.146 324.405 593.687 326.102 594.468C330.553 596.531 338.109 600.304 342.351 603.851C346.198 606.559 349.296 610.018 351.495 613.936C351.7 614.403 351.931 614.856 352.215 615.282L352.202 615.322Z" fill="url(#paint13_linear_1527_4016)"/>
<path d="M263.052 141.434L251.443 197.285L230.359 188.218L226.804 186.671L237.382 135.916C238.653 129.657 244.278 125.275 250.663 125.579L250.743 125.539C258.844 125.942 264.675 133.517 263.065 141.461L263.052 141.434Z" fill="url(#paint14_linear_1527_4016)"/>
<path d="M378.505 370.741C377.226 372.738 375.489 374.296 373.454 375.334C370.097 377.047 366.071 377.253 362.41 375.693L313.748 354.691L314.528 350.933L319.201 328.558L372.593 351.582C380.035 354.808 382.853 363.92 378.519 370.768L378.505 370.741Z" fill="url(#paint15_linear_1527_4016)"/>
<path d="M406.76 297.831L330.774 265.065L330.79 266.401C330.835 270.275 330.442 274.205 329.636 278.11L326.765 291.873L396.551 321.955C402.443 324.493 409.199 322.39 412.66 317.03C416.994 310.182 414.163 301.043 406.72 297.818L406.76 297.831ZM314.539 128.537L314.46 128.577C308.061 128.246 302.435 132.628 301.139 138.901L285.929 212.178L289.43 213.685L298.022 217.399C302.124 219.17 305.938 221.357 309.252 223.933C309.533 224.159 309.842 224.371 310.097 224.611L326.781 144.432C328.431 136.502 322.587 128.967 314.552 128.563L314.539 128.537Z" fill="url(#paint16_linear_1527_4016)"/>
<path d="M311.301 266.466C311.343 268.965 311.093 271.478 310.565 274.032L308.5 283.956L306.586 293.197L300.87 320.708L298.943 329.923L295.417 346.841L293.503 356.083L280.812 417.189C279.542 423.448 273.916 427.83 267.531 427.526L267.424 427.513C259.35 427.164 253.506 419.562 255.142 411.671L268.892 345.523L270.806 336.281L274.358 319.349L276.259 310.148L282.403 280.604L284.015 272.861C284.606 269.905 284.294 267.074 283.161 264.527L283.038 264.287C282.901 263.954 282.738 263.634 282.522 263.341C282.521 263.274 282.454 263.208 282.413 263.128C281.057 260.796 278.868 258.923 276.142 257.759L268.58 254.495L241.95 242.982L233.332 239.281L217.352 232.382L208.72 228.654L145.668 201.453C138.225 198.227 135.394 189.088 139.728 182.241C141.008 180.244 142.745 178.686 144.754 177.661C148.111 175.948 152.163 175.729 155.837 177.315L214.133 202.441L222.764 206.169L238.771 213.055L247.389 216.755L273.27 227.911L281.888 231.612L290.399 235.299C293.045 236.436 295.52 237.827 297.64 239.501C306.329 245.82 311.308 255.644 311.34 266.413L311.301 266.466Z" fill="url(#paint17_linear_1527_4016)"/>
<path d="M311.301 266.466C311.343 268.965 311.093 271.478 310.565 274.032L308.5 283.956L306.586 293.197L300.87 320.708L298.943 329.923L295.417 346.841L293.503 356.083L280.812 417.189C279.542 423.448 273.916 427.83 267.531 427.526L267.424 427.513C259.35 427.164 253.506 419.562 255.142 411.671L268.892 345.523L270.806 336.281L274.358 319.349L276.259 310.148L282.403 280.604L284.015 272.861C284.606 269.905 284.294 267.074 283.161 264.527L283.038 264.287C282.901 263.954 282.738 263.634 282.522 263.341C282.521 263.274 282.454 263.208 282.413 263.128C281.057 260.796 278.868 258.923 276.142 257.759L268.58 254.495L241.95 242.982L233.332 239.281L217.352 232.382L208.72 228.654L145.668 201.453C138.225 198.227 135.394 189.088 139.728 182.241C141.008 180.244 142.745 178.686 144.754 177.661C148.111 175.948 152.163 175.729 155.837 177.315L214.133 202.441L222.764 206.169L238.771 213.055L247.389 216.755L273.27 227.911L281.888 231.612L290.399 235.299C293.045 236.436 295.52 237.827 297.64 239.501C306.329 245.82 311.308 255.644 311.34 266.413L311.301 266.466Z" fill="url(#paint18_linear_1527_4016)"/>
<path d="M311.301 266.466C311.343 268.965 311.093 271.478 310.565 274.032L308.5 283.956L306.586 293.197L300.87 320.708L298.943 329.923L295.417 346.841L293.503 356.083L280.812 417.189C279.542 423.448 273.916 427.83 267.531 427.526L267.424 427.513C259.35 427.164 253.506 419.562 255.142 411.671L268.892 345.523L270.806 336.281L274.358 319.349L276.259 310.148L282.403 280.604L284.015 272.861C284.606 269.905 284.294 267.074 283.161 264.527L283.038 264.287C282.901 263.954 282.738 263.634 282.522 263.341C282.521 263.274 282.454 263.208 282.413 263.128C281.057 260.796 278.868 258.923 276.142 257.759L268.58 254.495L241.95 242.982L233.332 239.281L217.352 232.382L208.72 228.654L145.668 201.453C138.225 198.227 135.394 189.088 139.728 182.241C141.008 180.244 142.745 178.686 144.754 177.661C148.111 175.948 152.163 175.729 155.837 177.315L214.133 202.441L222.764 206.169L238.771 213.055L247.389 216.755L273.27 227.911L281.888 231.612L290.399 235.299C293.045 236.436 295.52 237.827 297.64 239.501C306.329 245.82 311.308 255.644 311.34 266.413L311.301 266.466Z" fill="url(#paint19_linear_1527_4016)"/>
<path d="M235.795 289.936C239.007 296.294 239.998 303.785 238.398 311.422L236.333 321.346L217.096 414.149C215.786 420.394 210.16 424.777 203.789 424.499L203.682 424.486C195.635 424.123 189.764 416.535 191.453 408.617L211.888 310.197C212.844 305.543 211.157 301.061 207.484 298.5L205.525 296.946C202.579 295.089 194.382 290.972 192.084 289.994L111.461 255.192C103.978 251.954 101.187 242.828 105.521 235.98C106.827 233.97 108.564 232.412 110.573 231.387C113.93 229.674 117.956 229.468 121.616 231.028L206.328 267.574C206.755 267.759 207.998 268.301 209.695 269.082C214.146 271.145 221.702 274.918 225.944 278.465C229.791 281.173 232.889 284.632 235.088 288.55C235.293 289.017 235.524 289.47 235.808 289.896L235.795 289.936Z" fill="url(#paint20_linear_1527_4016)"/>
<path d="M556.193 275.667L544.584 331.517L523.5 322.45L519.946 320.904L530.524 270.149C531.794 263.89 537.42 259.508 543.805 259.812L543.884 259.771C551.985 260.174 557.816 267.749 556.207 275.693L556.193 275.667Z" fill="url(#paint21_linear_1527_4016)"/>
<path d="M671.647 504.974C670.367 506.97 668.631 508.528 666.595 509.567C663.238 511.279 659.213 511.485 655.552 509.926L606.889 488.923L607.67 485.165L612.342 462.79L665.735 485.815C673.177 489.04 675.995 498.152 671.661 505L671.647 504.974Z" fill="url(#paint22_linear_1527_4016)"/>
<path d="M699.902 432.063L623.916 399.297L623.931 400.633C623.976 404.508 623.583 408.438 622.778 412.343L619.906 426.105L689.693 456.188C695.585 458.725 702.341 456.623 705.802 451.262C710.136 444.414 707.305 435.275 699.862 432.05L699.902 432.063ZM607.68 262.769L607.601 262.81C601.203 262.479 595.577 266.861 594.28 273.133L579.071 346.41L582.572 347.917L591.163 351.631C595.265 353.402 599.08 355.589 602.393 358.166C602.675 358.391 602.983 358.604 603.239 358.843L619.923 278.665C621.573 270.734 615.729 263.199 607.694 262.796L607.68 262.769Z" fill="url(#paint23_linear_1527_4016)"/>
<path d="M604.443 400.699C604.485 403.197 604.235 405.71 603.706 408.265L601.641 418.188L599.728 427.43L594.011 454.94L592.084 464.155L588.558 481.074L586.645 490.315L573.953 551.422C572.683 557.681 567.057 562.063 560.672 561.759L560.566 561.746C552.492 561.396 546.647 553.794 548.284 545.904L562.034 479.755L563.947 470.514L567.5 453.582L569.4 444.38L575.545 414.837L577.157 407.093C577.747 404.138 577.435 401.306 576.302 398.76L576.18 398.52C576.043 398.187 575.88 397.867 575.664 397.574C575.663 397.507 575.596 397.44 575.555 397.36C574.198 395.029 572.01 393.155 569.284 391.992L561.721 388.727L535.092 377.214L526.474 373.514L510.494 366.614L501.862 362.887L438.81 335.685C431.367 332.46 428.536 323.321 432.87 316.473C434.15 314.476 435.886 312.918 437.895 311.893C441.252 310.181 445.304 309.961 448.979 311.547L507.274 336.674L515.906 340.401L531.913 347.287L540.531 350.988L566.412 362.143L575.029 365.844L583.541 369.532C586.186 370.669 588.662 372.06 590.782 373.733C599.47 380.053 604.45 389.876 604.482 400.645L604.443 400.699Z" fill="url(#paint24_linear_1527_4016)"/>
<path d="M604.443 400.699C604.485 403.197 604.235 405.71 603.706 408.265L601.641 418.188L599.728 427.43L594.011 454.94L592.084 464.155L588.558 481.074L586.645 490.315L573.953 551.422C572.683 557.681 567.057 562.063 560.672 561.759L560.566 561.746C552.492 561.396 546.647 553.794 548.284 545.904L562.034 479.755L563.947 470.514L567.5 453.582L569.4 444.38L575.545 414.837L577.157 407.093C577.747 404.138 577.435 401.306 576.302 398.76L576.18 398.52C576.043 398.187 575.88 397.867 575.664 397.574C575.663 397.507 575.596 397.44 575.555 397.36C574.198 395.029 572.01 393.155 569.284 391.992L561.721 388.727L535.092 377.214L526.474 373.514L510.494 366.614L501.862 362.887L438.81 335.685C431.367 332.46 428.536 323.321 432.87 316.473C434.15 314.476 435.886 312.918 437.895 311.893C441.252 310.181 445.304 309.961 448.979 311.547L507.274 336.674L515.906 340.401L531.913 347.287L540.531 350.988L566.412 362.143L575.029 365.844L583.541 369.532C586.186 370.669 588.662 372.06 590.782 373.733C599.47 380.053 604.45 389.876 604.482 400.645L604.443 400.699Z" fill="url(#paint25_linear_1527_4016)"/>
<path d="M604.443 400.699C604.485 403.197 604.235 405.71 603.706 408.265L601.641 418.188L599.728 427.43L594.011 454.94L592.084 464.155L588.558 481.074L586.645 490.315L573.953 551.422C572.683 557.681 567.057 562.063 560.672 561.759L560.566 561.746C552.492 561.396 546.647 553.794 548.284 545.904L562.034 479.755L563.947 470.514L567.5 453.582L569.4 444.38L575.545 414.837L577.157 407.093C577.747 404.138 577.435 401.306 576.302 398.76L576.18 398.52C576.043 398.187 575.88 397.867 575.664 397.574C575.663 397.507 575.596 397.44 575.555 397.36C574.198 395.029 572.01 393.155 569.284 391.992L561.721 388.727L535.092 377.214L526.474 373.514L510.494 366.614L501.862 362.887L438.81 335.685C431.367 332.46 428.536 323.321 432.87 316.473C434.15 314.476 435.886 312.918 437.895 311.893C441.252 310.181 445.304 309.961 448.979 311.547L507.274 336.674L515.906 340.401L531.913 347.287L540.531 350.988L566.412 362.143L575.029 365.844L583.541 369.532C586.186 370.669 588.662 372.06 590.782 373.733C599.47 380.053 604.45 389.876 604.482 400.645L604.443 400.699Z" fill="url(#paint26_linear_1527_4016)"/>
<path d="M528.937 424.169C532.148 430.527 533.139 438.018 531.539 445.654L529.474 455.578L510.238 548.381C508.928 554.627 503.302 559.009 496.93 558.732L496.824 558.719C488.777 558.356 482.905 550.767 484.595 542.85L505.029 444.429C505.986 439.775 504.298 435.294 500.626 432.732L498.667 431.178C495.721 429.321 487.523 425.205 485.225 424.227L404.602 389.425C397.12 386.186 394.328 377.06 398.663 370.212C399.969 368.202 401.705 366.644 403.714 365.619C407.071 363.907 411.097 363.701 414.758 365.26L499.469 401.807C499.897 401.992 501.14 402.534 502.837 403.314C507.288 405.378 514.843 409.15 519.085 412.698C522.932 415.405 526.03 418.865 528.23 422.782C528.434 423.249 528.666 423.702 528.95 424.129L528.937 424.169Z" fill="url(#paint27_linear_1527_4016)"/>
<path d="M466.976 -27.6304L455.367 28.22L434.283 19.1531L430.729 17.6065L441.307 -33.1485C442.577 -39.4075 448.203 -43.7896 454.588 -43.4855L454.667 -43.5259C462.768 -43.123 468.599 -35.5478 466.99 -27.6038L466.976 -27.6304Z" fill="url(#paint28_linear_1527_4016)"/>
<path d="M582.43 201.677C581.15 203.673 579.414 205.231 577.378 206.27C574.021 207.982 569.995 208.188 566.335 206.629L517.672 185.626L518.453 181.868L523.125 159.493L576.518 182.518C583.96 185.743 586.778 194.855 582.444 201.703L582.43 201.677Z" fill="url(#paint29_linear_1527_4016)"/>
<path d="M610.685 128.766L534.699 96L534.714 97.336C534.759 101.211 534.366 105.141 533.561 109.046L530.689 122.808L600.476 152.891C606.368 155.428 613.124 153.326 616.585 147.965C620.919 141.117 618.087 131.978 610.645 128.753L610.685 128.766ZM518.463 -40.528L518.384 -40.4876C511.986 -40.8183 506.36 -36.4362 505.063 -30.1638L489.854 43.1131L493.355 44.6198L501.946 48.334C506.048 50.1052 509.862 52.2919 513.176 54.8684C513.458 55.0943 513.766 55.3066 514.022 55.5459L530.706 -24.6322C532.356 -32.5631 526.512 -40.0981 518.477 -40.5014L518.463 -40.528Z" fill="url(#paint30_linear_1527_4016)"/>
<path d="M515.226 97.4018C515.268 99.9001 515.018 102.413 514.489 104.968L512.424 114.891L510.511 124.133L504.794 151.643L502.867 160.858L499.341 177.777L497.428 187.018L484.736 248.125C483.466 254.383 477.84 258.766 471.455 258.461L471.349 258.449C463.275 258.099 457.43 250.497 459.067 242.606L472.817 176.458L474.73 167.216L478.283 150.285L480.183 141.083L486.328 111.54L487.94 103.796C488.53 100.84 488.218 98.0094 487.085 95.4627L486.963 95.2228C486.826 94.8894 486.663 94.5695 486.447 94.2766C486.446 94.2098 486.379 94.1433 486.338 94.0633C484.981 91.7315 482.793 89.8578 480.067 88.6948L472.504 85.43L445.875 73.9173L437.257 70.2166L421.277 63.317L412.645 59.5896L349.593 32.388C342.15 29.1628 339.319 20.0237 343.653 13.1758C344.933 11.179 346.669 9.62099 348.678 8.59613C352.035 6.88353 356.087 6.66412 359.762 8.25023L418.057 33.3765L426.689 37.1039L442.696 43.99L451.314 47.6907L477.195 58.8462L485.812 62.5469L494.324 66.2347C496.969 67.3714 499.445 68.7627 501.565 70.4363C510.253 76.7554 515.233 86.5792 515.265 97.3482L515.226 97.4018Z" fill="url(#paint31_linear_1527_4016)"/>
<path d="M515.226 97.4018C515.268 99.9001 515.018 102.413 514.489 104.968L512.424 114.891L510.511 124.133L504.794 151.643L502.867 160.858L499.341 177.777L497.428 187.018L484.736 248.125C483.466 254.383 477.84 258.766 471.455 258.461L471.349 258.449C463.275 258.099 457.43 250.497 459.067 242.606L472.817 176.458L474.73 167.216L478.283 150.285L480.183 141.083L486.328 111.54L487.94 103.796C488.53 100.84 488.218 98.0094 487.085 95.4627L486.963 95.2228C486.826 94.8894 486.663 94.5695 486.447 94.2766C486.446 94.2098 486.379 94.1433 486.338 94.0633C484.981 91.7315 482.793 89.8578 480.067 88.6948L472.504 85.43L445.875 73.9173L437.257 70.2166L421.277 63.317L412.645 59.5896L349.593 32.388C342.15 29.1628 339.319 20.0237 343.653 13.1758C344.933 11.179 346.669 9.62099 348.678 8.59613C352.035 6.88353 356.087 6.66412 359.762 8.25023L418.057 33.3765L426.689 37.1039L442.696 43.99L451.314 47.6907L477.195 58.8462L485.812 62.5469L494.324 66.2347C496.969 67.3714 499.445 68.7627 501.565 70.4363C510.253 76.7554 515.233 86.5792 515.265 97.3482L515.226 97.4018Z" fill="url(#paint32_linear_1527_4016)"/>
<path d="M515.226 97.4018C515.268 99.9001 515.018 102.413 514.489 104.968L512.424 114.891L510.511 124.133L504.794 151.643L502.867 160.858L499.341 177.777L497.428 187.018L484.736 248.125C483.466 254.383 477.84 258.766 471.455 258.461L471.349 258.449C463.275 258.099 457.43 250.497 459.067 242.606L472.817 176.458L474.73 167.216L478.283 150.285L480.183 141.083L486.328 111.54L487.94 103.796C488.53 100.84 488.218 98.0094 487.085 95.4627L486.963 95.2228C486.826 94.8894 486.663 94.5695 486.447 94.2766C486.446 94.2098 486.379 94.1433 486.338 94.0633C484.981 91.7315 482.793 89.8578 480.067 88.6948L472.504 85.43L445.875 73.9173L437.257 70.2166L421.277 63.317L412.645 59.5896L349.593 32.388C342.15 29.1628 339.319 20.0237 343.653 13.1758C344.933 11.179 346.669 9.62099 348.678 8.59613C352.035 6.88353 356.087 6.66412 359.762 8.25023L418.057 33.3765L426.689 37.1039L442.696 43.99L451.314 47.6907L477.195 58.8462L485.812 62.5469L494.324 66.2347C496.969 67.3714 499.445 68.7627 501.565 70.4363C510.253 76.7554 515.233 86.5792 515.265 97.3482L515.226 97.4018Z" fill="url(#paint33_linear_1527_4016)"/>
<path d="M439.72 120.872C442.931 127.23 443.922 134.721 442.322 142.357L440.257 152.281L421.021 245.084C419.711 251.33 414.085 255.712 407.713 255.434L407.607 255.422C399.559 255.058 393.688 247.47 395.378 239.552L415.812 141.132C416.769 136.478 415.081 131.997 411.409 129.435L409.45 127.881C406.504 126.024 398.306 121.907 396.008 120.929L315.385 86.1275C307.903 82.8891 305.111 73.7632 309.446 66.9153C310.752 64.9051 312.488 63.347 314.497 62.3222C317.854 60.6096 321.88 60.4036 325.541 61.9631L410.252 98.5095C410.68 98.6946 411.923 99.2366 413.62 100.017C418.071 102.08 425.626 105.853 429.868 109.4C433.715 112.108 436.813 115.567 439.012 119.485C439.217 119.952 439.449 120.405 439.733 120.831L439.72 120.872Z" fill="url(#paint34_linear_1527_4016)"/>
<path d="M698.091 566.22L686.482 622.07L665.398 613.003L661.843 611.457L672.422 560.702C673.692 554.443 679.318 550.061 685.702 550.365L685.782 550.324C693.883 550.727 699.714 558.303 698.104 566.247L698.091 566.22Z" fill="url(#paint35_linear_1527_4016)"/>
<path d="M813.545 795.527C812.265 797.524 810.528 799.082 808.493 800.12C805.136 801.833 801.11 802.039 797.449 800.479L748.787 779.476L749.567 775.718L754.24 753.343L807.632 776.368C815.075 779.593 817.892 788.706 813.558 795.554L813.545 795.527Z" fill="url(#paint36_linear_1527_4016)"/>
<path d="M841.8 722.616L765.813 689.85L765.829 691.186C765.874 695.061 765.481 698.991 764.675 702.896L761.804 716.658L831.59 746.741C837.483 749.279 844.238 747.176 847.699 741.815C852.033 734.968 849.202 725.828 841.759 722.603L841.8 722.616ZM749.578 553.322L749.499 553.363C743.1 553.032 737.474 557.414 736.178 563.687L720.969 636.963L724.469 638.47L733.061 642.184C737.163 643.956 740.977 646.142 744.291 648.719C744.572 648.945 744.881 649.157 745.136 649.396L761.821 569.218C763.47 561.287 757.626 553.752 749.591 553.349L749.578 553.322Z" fill="url(#paint37_linear_1527_4016)"/>
<path d="M746.34 691.252C746.382 693.75 746.132 696.264 745.604 698.818L743.539 708.742L741.625 717.983L735.909 745.494L733.982 754.709L730.456 771.627L728.542 780.868L715.851 841.975C714.581 848.234 708.955 852.616 702.57 852.312L702.463 852.299C694.389 851.949 688.545 844.348 690.181 836.457L703.931 770.308L705.845 761.067L709.397 744.135L711.298 734.934L717.442 705.39L719.054 697.646C719.645 694.691 719.333 691.86 718.2 689.313L718.077 689.073C717.941 688.74 717.777 688.42 717.561 688.127C717.56 688.06 717.493 687.994 717.452 687.914C716.096 685.582 713.907 683.708 711.181 682.545L703.619 679.28L676.989 667.768L668.371 664.067L652.391 657.167L643.76 653.44L580.707 626.238C573.265 623.013 570.433 613.874 574.767 607.026C576.047 605.029 577.784 603.471 579.793 602.446C583.15 600.734 587.202 600.514 590.876 602.101L649.172 627.227L657.803 630.954L673.81 637.84L682.428 641.541L708.309 652.697L716.927 656.397L725.438 660.085C728.084 661.222 730.559 662.613 732.679 664.287C741.368 670.606 746.347 680.43 746.379 691.199L746.34 691.252Z" fill="url(#paint38_linear_1527_4016)"/>
<path d="M746.34 691.252C746.382 693.75 746.132 696.264 745.604 698.818L743.539 708.742L741.625 717.983L735.909 745.494L733.982 754.709L730.456 771.627L728.542 780.868L715.851 841.975C714.581 848.234 708.955 852.616 702.57 852.312L702.463 852.299C694.389 851.949 688.545 844.348 690.181 836.457L703.931 770.308L705.845 761.067L709.397 744.135L711.298 734.934L717.442 705.39L719.054 697.646C719.645 694.691 719.333 691.86 718.2 689.313L718.077 689.073C717.941 688.74 717.777 688.42 717.561 688.127C717.56 688.06 717.493 687.994 717.452 687.914C716.096 685.582 713.907 683.708 711.181 682.545L703.619 679.28L676.989 667.768L668.371 664.067L652.391 657.167L643.76 653.44L580.707 626.238C573.265 623.013 570.433 613.874 574.767 607.026C576.047 605.029 577.784 603.471 579.793 602.446C583.15 600.734 587.202 600.514 590.876 602.101L649.172 627.227L657.803 630.954L673.81 637.84L682.428 641.541L708.309 652.697L716.927 656.397L725.438 660.085C728.084 661.222 730.559 662.613 732.679 664.287C741.368 670.606 746.347 680.43 746.379 691.199L746.34 691.252Z" fill="url(#paint39_linear_1527_4016)"/>
<path d="M746.34 691.252C746.382 693.75 746.132 696.264 745.604 698.818L743.539 708.742L741.625 717.983L735.909 745.494L733.982 754.709L730.456 771.627L728.542 780.868L715.851 841.975C714.581 848.234 708.955 852.616 702.57 852.312L702.463 852.299C694.389 851.949 688.545 844.348 690.181 836.457L703.931 770.308L705.845 761.067L709.397 744.135L711.298 734.934L717.442 705.39L719.054 697.646C719.645 694.691 719.333 691.86 718.2 689.313L718.077 689.073C717.941 688.74 717.777 688.42 717.561 688.127C717.56 688.06 717.493 687.994 717.452 687.914C716.096 685.582 713.907 683.708 711.181 682.545L703.619 679.28L676.989 667.768L668.371 664.067L652.391 657.167L643.76 653.44L580.707 626.238C573.265 623.013 570.433 613.874 574.767 607.026C576.047 605.029 577.784 603.471 579.793 602.446C583.15 600.734 587.202 600.514 590.876 602.101L649.172 627.227L657.803 630.954L673.81 637.84L682.428 641.541L708.309 652.697L716.927 656.397L725.438 660.085C728.084 661.222 730.559 662.613 732.679 664.287C741.368 670.606 746.347 680.43 746.379 691.199L746.34 691.252Z" fill="url(#paint40_linear_1527_4016)"/>
<path d="M670.834 714.722C674.046 721.08 675.037 728.571 673.437 736.208L671.372 746.131L652.135 838.934C650.825 845.18 645.199 849.562 638.828 849.285L638.721 849.272C630.674 848.909 624.803 841.32 626.492 833.403L646.927 734.983C647.883 730.328 646.196 725.847 642.523 723.285L640.564 721.731C637.618 719.875 629.421 715.758 627.123 714.78L546.5 679.978C539.017 676.739 536.226 667.614 540.56 660.766C541.866 658.755 543.603 657.197 545.612 656.173C548.969 654.46 552.995 654.254 556.655 655.813L641.367 692.36C641.794 692.545 643.037 693.087 644.734 693.867C649.186 695.931 656.741 699.703 660.983 703.251C664.83 705.958 667.928 709.418 670.127 713.336C670.332 713.802 670.563 714.256 670.847 714.682L670.834 714.722Z" fill="url(#paint41_linear_1527_4016)"/>
<path d="M524.755 751.426L513.146 807.277L492.062 798.21L488.507 796.663L499.086 745.908C500.356 739.649 505.982 735.267 512.366 735.571L512.446 735.531C520.547 735.934 526.378 743.509 524.768 751.453L524.755 751.426Z" fill="url(#paint42_linear_1527_4016)"/>
<path d="M640.209 980.733C638.929 982.73 637.192 984.288 635.157 985.327C631.8 987.039 627.774 987.245 624.113 985.686L575.451 964.683L576.231 960.925L580.904 938.55L634.296 961.575C641.739 964.8 644.556 973.912 640.222 980.76L640.209 980.733Z" fill="url(#paint43_linear_1527_4016)"/>
<path d="M668.464 907.823L592.477 875.057L592.493 876.393C592.538 880.267 592.145 884.197 591.339 888.103L588.468 901.865L658.254 931.947C664.147 934.485 670.902 932.383 674.363 927.022C678.697 920.174 675.866 911.035 668.424 907.81L668.464 907.823ZM576.242 738.529L576.163 738.569C569.764 738.239 564.138 742.621 562.842 748.893L547.633 822.17L551.133 823.677L559.725 827.391C563.827 829.162 567.641 831.349 570.955 833.925C571.237 834.151 571.545 834.363 571.8 834.603L588.485 754.425C590.134 746.494 584.29 738.959 576.256 738.556L576.242 738.529Z" fill="url(#paint44_linear_1527_4016)"/>
<path d="M573.004 876.459C573.047 878.957 572.796 881.47 572.268 884.025L570.203 893.948L568.289 903.19L562.573 930.7L560.646 939.915L557.12 956.833L555.206 966.075L542.515 1027.18C541.245 1033.44 535.619 1037.82 529.234 1037.52L529.127 1037.51C521.054 1037.16 515.209 1029.55 516.845 1021.66L530.595 955.515L532.509 946.273L536.061 929.341L537.962 920.14L544.107 890.597L545.718 882.853C546.309 879.897 545.997 877.066 544.864 874.52L544.741 874.28C544.605 873.946 544.441 873.626 544.225 873.333C544.224 873.267 544.157 873.2 544.116 873.12C542.76 870.788 540.571 868.915 537.846 867.752L530.283 864.487L503.653 852.974L495.035 849.274L479.055 842.374L470.424 838.647L407.371 811.445C399.929 808.22 397.097 799.081 401.431 792.233C402.711 790.236 404.448 788.678 406.457 787.653C409.814 785.94 413.866 785.721 417.54 787.307L475.836 812.433L484.467 816.161L500.474 823.047L509.092 826.748L534.973 837.903L543.591 841.604L552.102 845.292C554.748 846.428 557.224 847.82 559.343 849.493C568.032 855.812 573.012 865.636 573.043 876.405L573.004 876.459Z" fill="url(#paint45_linear_1527_4016)"/>
<path d="M573.004 876.459C573.047 878.957 572.796 881.47 572.268 884.025L570.203 893.948L568.289 903.19L562.573 930.7L560.646 939.915L557.12 956.833L555.206 966.075L542.515 1027.18C541.245 1033.44 535.619 1037.82 529.234 1037.52L529.127 1037.51C521.054 1037.16 515.209 1029.55 516.845 1021.66L530.595 955.515L532.509 946.273L536.061 929.341L537.962 920.14L544.107 890.597L545.718 882.853C546.309 879.897 545.997 877.066 544.864 874.52L544.741 874.28C544.605 873.946 544.441 873.626 544.225 873.333C544.224 873.267 544.157 873.2 544.116 873.12C542.76 870.788 540.571 868.915 537.846 867.752L530.283 864.487L503.653 852.974L495.035 849.274L479.055 842.374L470.424 838.647L407.371 811.445C399.929 808.22 397.097 799.081 401.431 792.233C402.711 790.236 404.448 788.678 406.457 787.653C409.814 785.94 413.866 785.721 417.54 787.307L475.836 812.433L484.467 816.161L500.474 823.047L509.092 826.748L534.973 837.903L543.591 841.604L552.102 845.292C554.748 846.428 557.224 847.82 559.343 849.493C568.032 855.812 573.012 865.636 573.043 876.405L573.004 876.459Z" fill="url(#paint46_linear_1527_4016)"/>
<path d="M573.004 876.459C573.047 878.957 572.796 881.47 572.268 884.025L570.203 893.948L568.289 903.19L562.573 930.7L560.646 939.915L557.12 956.833L555.206 966.075L542.515 1027.18C541.245 1033.44 535.619 1037.82 529.234 1037.52L529.127 1037.51C521.054 1037.16 515.209 1029.55 516.845 1021.66L530.595 955.515L532.509 946.273L536.061 929.341L537.962 920.14L544.107 890.597L545.718 882.853C546.309 879.897 545.997 877.066 544.864 874.52L544.741 874.28C544.605 873.946 544.441 873.626 544.225 873.333C544.224 873.267 544.157 873.2 544.116 873.12C542.76 870.788 540.571 868.915 537.846 867.752L530.283 864.487L503.653 852.974L495.035 849.274L479.055 842.374L470.424 838.647L407.371 811.445C399.929 808.22 397.097 799.081 401.431 792.233C402.711 790.236 404.448 788.678 406.457 787.653C409.814 785.94 413.866 785.721 417.54 787.307L475.836 812.433L484.467 816.161L500.474 823.047L509.092 826.748L534.973 837.903L543.591 841.604L552.102 845.292C554.748 846.428 557.224 847.82 559.343 849.493C568.032 855.812 573.012 865.636 573.043 876.405L573.004 876.459Z" fill="url(#paint47_linear_1527_4016)"/>
<path d="M497.498 899.928C500.71 906.287 501.701 913.778 500.101 921.414L498.036 931.338L478.799 1024.14C477.489 1030.39 471.863 1034.77 465.492 1034.49L465.385 1034.48C457.338 1034.12 451.467 1026.53 453.156 1018.61L473.591 920.189C474.547 915.535 472.86 911.053 469.188 908.492L467.228 906.938C464.282 905.081 456.085 900.964 453.787 899.986L373.164 865.184C365.681 861.946 362.89 852.82 367.224 845.972C368.53 843.962 370.267 842.404 372.276 841.379C375.633 839.666 379.659 839.461 383.319 841.02L468.031 877.566C468.458 877.751 469.701 878.293 471.399 879.074C475.85 881.137 483.405 884.91 487.647 888.457C491.494 891.165 494.592 894.624 496.791 898.542C496.996 899.009 497.227 899.462 497.511 899.888L497.498 899.928Z" fill="url(#paint48_linear_1527_4016)"/>
<path d="M94.814 328.34L83.2048 384.19L62.1208 375.124L58.5665 373.577L69.1447 322.822C70.4148 316.563 76.0407 312.181 82.4256 312.485L82.5049 312.445C90.6059 312.847 96.437 320.423 94.8276 328.367L94.814 328.34Z" fill="url(#paint49_linear_1527_4016)"/>
<path d="M210.268 557.647C208.988 559.644 207.251 561.202 205.216 562.24C201.859 563.953 197.833 564.159 194.172 562.599L145.51 541.596L146.291 537.838L150.963 515.463L204.355 538.488C211.798 541.713 214.616 550.826 210.281 557.674L210.268 557.647Z" fill="url(#paint50_linear_1527_4016)"/>
<path d="M238.523 484.736L162.536 451.97L162.552 453.306C162.597 457.181 162.204 461.111 161.398 465.016L158.527 478.778L228.313 508.861C234.206 511.399 240.961 509.296 244.422 503.935C248.757 497.088 245.925 487.949 238.483 484.723L238.523 484.736ZM146.301 315.442L146.222 315.483C139.823 315.152 134.197 319.534 132.901 325.807L117.692 399.084L121.192 400.59L129.784 404.305C133.886 406.076 137.7 408.262 141.014 410.839C141.296 411.065 141.604 411.277 141.859 411.516L158.544 331.338C160.193 323.407 154.349 315.872 146.315 315.469L146.301 315.442Z" fill="url(#paint51_linear_1527_4016)"/>
<path d="M143.063 453.372C143.106 455.871 142.856 458.384 142.327 460.938L140.262 470.862L138.348 480.103L132.632 507.614L130.705 516.829L127.179 533.747L125.265 542.989L112.574 604.095C111.304 610.354 105.678 614.736 99.293 614.432L99.1864 614.419C91.1126 614.069 85.2679 606.468 86.9045 598.577L100.654 532.428L102.568 523.187L106.12 506.255L108.021 497.054L114.166 467.51L115.777 459.767C116.368 456.811 116.056 453.98 114.923 451.433L114.8 451.193C114.664 450.86 114.5 450.54 114.284 450.247C114.284 450.18 114.216 450.114 114.175 450.034C112.819 447.702 110.63 445.828 107.905 444.665L100.342 441.401L73.7124 429.888L65.0945 426.187L49.1142 419.287L40.4827 415.56L-22.5698 388.358C-30.0123 385.133 -32.8438 375.994 -28.5095 369.146C-27.2298 367.149 -25.493 365.591 -23.4842 364.567C-20.1273 362.854 -16.075 362.635 -12.4006 364.221L45.895 389.347L54.5265 393.074L70.5333 399.96L79.1512 403.661L105.032 414.817L113.65 418.517L122.161 422.205C124.807 423.342 127.283 424.733 129.403 426.407C138.091 432.726 143.071 442.55 143.103 453.319L143.063 453.372Z" fill="url(#paint52_linear_1527_4016)"/>
<path d="M143.063 453.372C143.106 455.871 142.856 458.384 142.327 460.938L140.262 470.862L138.348 480.103L132.632 507.614L130.705 516.829L127.179 533.747L125.265 542.989L112.574 604.095C111.304 610.354 105.678 614.736 99.293 614.432L99.1864 614.419C91.1126 614.069 85.2679 606.468 86.9045 598.577L100.654 532.428L102.568 523.187L106.12 506.255L108.021 497.054L114.166 467.51L115.777 459.767C116.368 456.811 116.056 453.98 114.923 451.433L114.8 451.193C114.664 450.86 114.5 450.54 114.284 450.247C114.284 450.18 114.216 450.114 114.175 450.034C112.819 447.702 110.63 445.828 107.905 444.665L100.342 441.401L73.7124 429.888L65.0945 426.187L49.1142 419.287L40.4827 415.56L-22.5698 388.358C-30.0123 385.133 -32.8438 375.994 -28.5095 369.146C-27.2298 367.149 -25.493 365.591 -23.4842 364.567C-20.1273 362.854 -16.075 362.635 -12.4006 364.221L45.895 389.347L54.5265 393.074L70.5333 399.96L79.1512 403.661L105.032 414.817L113.65 418.517L122.161 422.205C124.807 423.342 127.283 424.733 129.403 426.407C138.091 432.726 143.071 442.55 143.103 453.319L143.063 453.372Z" fill="url(#paint53_linear_1527_4016)"/>
<path d="M143.063 453.372C143.106 455.871 142.856 458.384 142.327 460.938L140.262 470.862L138.348 480.103L132.632 507.614L130.705 516.829L127.179 533.747L125.265 542.989L112.574 604.095C111.304 610.354 105.678 614.736 99.293 614.432L99.1864 614.419C91.1126 614.069 85.2679 606.468 86.9045 598.577L100.654 532.428L102.568 523.187L106.12 506.255L108.021 497.054L114.166 467.51L115.777 459.767C116.368 456.811 116.056 453.98 114.923 451.433L114.8 451.193C114.664 450.86 114.5 450.54 114.284 450.247C114.284 450.18 114.216 450.114 114.175 450.034C112.819 447.702 110.63 445.828 107.905 444.665L100.342 441.401L73.7124 429.888L65.0945 426.187L49.1142 419.287L40.4827 415.56L-22.5698 388.358C-30.0123 385.133 -32.8438 375.994 -28.5095 369.146C-27.2298 367.149 -25.493 365.591 -23.4842 364.567C-20.1273 362.854 -16.075 362.635 -12.4006 364.221L45.895 389.347L54.5265 393.074L70.5333 399.96L79.1512 403.661L105.032 414.817L113.65 418.517L122.161 422.205C124.807 423.342 127.283 424.733 129.403 426.407C138.091 432.726 143.071 442.55 143.103 453.319L143.063 453.372Z" fill="url(#paint54_linear_1527_4016)"/>
<path d="M67.5576 476.842C70.7689 483.2 71.7598 490.691 70.1601 498.328L68.095 508.251L48.8583 601.054C47.5482 607.3 41.9223 611.682 35.551 611.405L35.4445 611.392C27.3971 611.029 21.5259 603.441 23.2155 595.523L43.6499 497.103C44.6063 492.448 42.919 487.967 39.2466 485.406L37.2876 483.851C34.3412 481.995 26.1439 477.878 23.8459 476.9L-56.7771 442.098C-64.2597 438.86 -67.0511 429.734 -62.7168 422.886C-61.4107 420.876 -59.6739 419.317 -57.665 418.293C-54.3081 416.58 -50.2823 416.374 -46.6215 417.934L38.0899 454.48C38.5175 454.665 39.7602 455.207 41.4576 455.987C45.9087 458.051 53.4639 461.823 57.7061 465.371C61.5531 468.079 64.651 471.538 66.8501 475.456C67.055 475.922 67.2862 476.376 67.5704 476.802L67.5576 476.842Z" fill="url(#paint55_linear_1527_4016)"/>
</g>
<defs>
<linearGradient id="paint0_linear_1527_4016" x1="187.712" y1="640.862" x2="217.677" y2="699.598" gradientUnits="userSpaceOnUse">
<stop stop-color="#52D3D8"/>
<stop offset="1" stop-color="#52D3D8" stop-opacity="0"/>
</linearGradient>
<linearGradient id="paint1_linear_1527_4016" x1="286.282" y1="830.438" x2="316.422" y2="889.517" gradientUnits="userSpaceOnUse">
<stop stop-color="#52D3D8"/>
<stop offset="1" stop-color="#52D3D8" stop-opacity="0"/>
</linearGradient>
<linearGradient id="paint2_linear_1527_4016" x1="245.783" y1="646.756" x2="343.947" y2="839.171" gradientUnits="userSpaceOnUse">
<stop stop-color="#52D3D8"/>
<stop offset="1" stop-color="#52D3D8" stop-opacity="0"/>
</linearGradient>
<linearGradient id="paint3_linear_1527_4016" x1="145.37" y1="662.433" x2="272.651" y2="911.92" gradientUnits="userSpaceOnUse">
<stop stop-color="#52D3D8"/>
<stop offset="1" stop-color="#52D3D8" stop-opacity="0"/>
</linearGradient>
<linearGradient id="paint4_linear_1527_4016" x1="145.37" y1="662.433" x2="272.651" y2="911.92" gradientUnits="userSpaceOnUse">
<stop stop-color="#52D3D8"/>
<stop offset="1" stop-color="#52D3D8" stop-opacity="0"/>
</linearGradient>
<linearGradient id="paint5_linear_1527_4016" x1="145.37" y1="662.433" x2="272.651" y2="911.92" gradientUnits="userSpaceOnUse">
<stop stop-color="#52D3D8"/>
<stop offset="1" stop-color="#52D3D8" stop-opacity="0"/>
</linearGradient>
<linearGradient id="paint6_linear_1527_4016" x1="99.2557" y1="722.247" x2="197.448" y2="914.717" gradientUnits="userSpaceOnUse">
<stop stop-color="#52D3D8"/>
<stop offset="1" stop-color="#52D3D8" stop-opacity="0"/>
</linearGradient>
<linearGradient id="paint7_linear_1527_4016" x1="347.453" y1="459.054" x2="377.417" y2="517.79" gradientUnits="userSpaceOnUse">
<stop stop-color="#52D3D8"/>
<stop offset="1" stop-color="#52D3D8" stop-opacity="0"/>
</linearGradient>
<linearGradient id="paint8_linear_1527_4016" x1="446.023" y1="648.631" x2="476.163" y2="707.709" gradientUnits="userSpaceOnUse">
<stop stop-color="#52D3D8"/>
<stop offset="1" stop-color="#52D3D8" stop-opacity="0"/>
</linearGradient>
<linearGradient id="paint9_linear_1527_4016" x1="405.524" y1="464.948" x2="503.688" y2="657.363" gradientUnits="userSpaceOnUse">
<stop stop-color="#52D3D8"/>
<stop offset="1" stop-color="#52D3D8" stop-opacity="0"/>
</linearGradient>
<linearGradient id="paint10_linear_1527_4016" x1="305.111" y1="480.625" x2="432.392" y2="730.112" gradientUnits="userSpaceOnUse">
<stop stop-color="#52D3D8"/>
<stop offset="1" stop-color="#52D3D8" stop-opacity="0"/>
</linearGradient>
<linearGradient id="paint11_linear_1527_4016" x1="305.111" y1="480.625" x2="432.392" y2="730.112" gradientUnits="userSpaceOnUse">
<stop stop-color="#52D3D8"/>
<stop offset="1" stop-color="#52D3D8" stop-opacity="0"/>
</linearGradient>
<linearGradient id="paint12_linear_1527_4016" x1="305.111" y1="480.625" x2="432.392" y2="730.112" gradientUnits="userSpaceOnUse">
<stop stop-color="#52D3D8"/>
<stop offset="1" stop-color="#52D3D8" stop-opacity="0"/>
</linearGradient>
<linearGradient id="paint13_linear_1527_4016" x1="258.997" y1="540.439" x2="357.189" y2="732.909" gradientUnits="userSpaceOnUse">
<stop stop-color="#52D3D8"/>
<stop offset="1" stop-color="#52D3D8" stop-opacity="0"/>
</linearGradient>
<linearGradient id="paint14_linear_1527_4016" x1="231.046" y1="133.668" x2="261.01" y2="192.403" gradientUnits="userSpaceOnUse">
<stop stop-color="#52D3D8"/>
<stop offset="1" stop-color="#52D3D8" stop-opacity="0"/>
</linearGradient>
<linearGradient id="paint15_linear_1527_4016" x1="329.616" y1="323.244" x2="359.756" y2="382.323" gradientUnits="userSpaceOnUse">
<stop stop-color="#52D3D8"/>
<stop offset="1" stop-color="#52D3D8" stop-opacity="0"/>
</linearGradient>
<linearGradient id="paint16_linear_1527_4016" x1="289.117" y1="139.562" x2="387.281" y2="331.977" gradientUnits="userSpaceOnUse">
<stop stop-color="#52D3D8"/>
<stop offset="1" stop-color="#52D3D8" stop-opacity="0"/>
</linearGradient>
<linearGradient id="paint17_linear_1527_4016" x1="188.704" y1="155.239" x2="315.985" y2="404.726" gradientUnits="userSpaceOnUse">
<stop stop-color="#52D3D8"/>
<stop offset="1" stop-color="#52D3D8" stop-opacity="0"/>
</linearGradient>
<linearGradient id="paint18_linear_1527_4016" x1="188.704" y1="155.239" x2="315.985" y2="404.726" gradientUnits="userSpaceOnUse">
<stop stop-color="#52D3D8"/>
<stop offset="1" stop-color="#52D3D8" stop-opacity="0"/>
</linearGradient>
<linearGradient id="paint19_linear_1527_4016" x1="188.704" y1="155.239" x2="315.985" y2="404.726" gradientUnits="userSpaceOnUse">
<stop stop-color="#52D3D8"/>
<stop offset="1" stop-color="#52D3D8" stop-opacity="0"/>
</linearGradient>
<linearGradient id="paint20_linear_1527_4016" x1="142.59" y1="215.053" x2="240.782" y2="407.523" gradientUnits="userSpaceOnUse">
<stop stop-color="#52D3D8"/>
<stop offset="1" stop-color="#52D3D8" stop-opacity="0"/>
</linearGradient>
<linearGradient id="paint21_linear_1527_4016" x1="524.187" y1="267.901" x2="554.152" y2="326.636" gradientUnits="userSpaceOnUse">
<stop stop-color="#52D3D8"/>
<stop offset="1" stop-color="#52D3D8" stop-opacity="0"/>
</linearGradient>
<linearGradient id="paint22_linear_1527_4016" x1="622.757" y1="457.477" x2="652.897" y2="516.555" gradientUnits="userSpaceOnUse">
<stop stop-color="#52D3D8"/>
<stop offset="1" stop-color="#52D3D8" stop-opacity="0"/>
</linearGradient>
<linearGradient id="paint23_linear_1527_4016" x1="582.258" y1="273.794" x2="680.423" y2="466.21" gradientUnits="userSpaceOnUse">
<stop stop-color="#52D3D8"/>
<stop offset="1" stop-color="#52D3D8" stop-opacity="0"/>
</linearGradient>
<linearGradient id="paint24_linear_1527_4016" x1="481.846" y1="289.471" x2="609.126" y2="538.958" gradientUnits="userSpaceOnUse">
<stop stop-color="#52D3D8"/>
<stop offset="1" stop-color="#52D3D8" stop-opacity="0"/>
</linearGradient>
<linearGradient id="paint25_linear_1527_4016" x1="481.846" y1="289.471" x2="609.126" y2="538.958" gradientUnits="userSpaceOnUse">
<stop stop-color="#52D3D8"/>
<stop offset="1" stop-color="#52D3D8" stop-opacity="0"/>
</linearGradient>
<linearGradient id="paint26_linear_1527_4016" x1="481.846" y1="289.471" x2="609.126" y2="538.958" gradientUnits="userSpaceOnUse">
<stop stop-color="#52D3D8"/>
<stop offset="1" stop-color="#52D3D8" stop-opacity="0"/>
</linearGradient>
<linearGradient id="paint27_linear_1527_4016" x1="435.731" y1="349.285" x2="533.923" y2="541.755" gradientUnits="userSpaceOnUse">
<stop stop-color="#52D3D8"/>
<stop offset="1" stop-color="#52D3D8" stop-opacity="0"/>
</linearGradient>
<linearGradient id="paint28_linear_1527_4016" x1="434.97" y1="-35.3966" x2="464.935" y2="23.3388" gradientUnits="userSpaceOnUse">
<stop stop-color="#52D3D8"/>
<stop offset="1" stop-color="#52D3D8" stop-opacity="0"/>
</linearGradient>
<linearGradient id="paint29_linear_1527_4016" x1="533.54" y1="154.18" x2="563.68" y2="213.258" gradientUnits="userSpaceOnUse">
<stop stop-color="#52D3D8"/>
<stop offset="1" stop-color="#52D3D8" stop-opacity="0"/>
</linearGradient>
<linearGradient id="paint30_linear_1527_4016" x1="493.041" y1="-29.5029" x2="591.206" y2="162.912" gradientUnits="userSpaceOnUse">
<stop stop-color="#52D3D8"/>
<stop offset="1" stop-color="#52D3D8" stop-opacity="0"/>
</linearGradient>
<linearGradient id="paint31_linear_1527_4016" x1="392.628" y1="-13.8259" x2="519.909" y2="235.661" gradientUnits="userSpaceOnUse">
<stop stop-color="#52D3D8"/>
<stop offset="1" stop-color="#52D3D8" stop-opacity="0"/>
</linearGradient>
<linearGradient id="paint32_linear_1527_4016" x1="392.628" y1="-13.8259" x2="519.909" y2="235.661" gradientUnits="userSpaceOnUse">
<stop stop-color="#52D3D8"/>
<stop offset="1" stop-color="#52D3D8" stop-opacity="0"/>
</linearGradient>
<linearGradient id="paint33_linear_1527_4016" x1="392.628" y1="-13.8259" x2="519.909" y2="235.661" gradientUnits="userSpaceOnUse">
<stop stop-color="#52D3D8"/>
<stop offset="1" stop-color="#52D3D8" stop-opacity="0"/>
</linearGradient>
<linearGradient id="paint34_linear_1527_4016" x1="346.514" y1="45.9881" x2="444.706" y2="238.458" gradientUnits="userSpaceOnUse">
<stop stop-color="#52D3D8"/>
<stop offset="1" stop-color="#52D3D8" stop-opacity="0"/>
</linearGradient>
<linearGradient id="paint35_linear_1527_4016" x1="666.085" y1="558.454" x2="696.05" y2="617.189" gradientUnits="userSpaceOnUse">
<stop stop-color="#52D3D8"/>
<stop offset="1" stop-color="#52D3D8" stop-opacity="0"/>
</linearGradient>
<linearGradient id="paint36_linear_1527_4016" x1="764.655" y1="748.03" x2="794.795" y2="807.108" gradientUnits="userSpaceOnUse">
<stop stop-color="#52D3D8"/>
<stop offset="1" stop-color="#52D3D8" stop-opacity="0"/>
</linearGradient>
<linearGradient id="paint37_linear_1527_4016" x1="724.156" y1="564.347" x2="822.32" y2="756.763" gradientUnits="userSpaceOnUse">
<stop stop-color="#52D3D8"/>
<stop offset="1" stop-color="#52D3D8" stop-opacity="0"/>
</linearGradient>
<linearGradient id="paint38_linear_1527_4016" x1="623.743" y1="580.024" x2="751.024" y2="829.512" gradientUnits="userSpaceOnUse">
<stop stop-color="#52D3D8"/>
<stop offset="1" stop-color="#52D3D8" stop-opacity="0"/>
</linearGradient>
<linearGradient id="paint39_linear_1527_4016" x1="623.743" y1="580.024" x2="751.024" y2="829.512" gradientUnits="userSpaceOnUse">
<stop stop-color="#52D3D8"/>
<stop offset="1" stop-color="#52D3D8" stop-opacity="0"/>
</linearGradient>
<linearGradient id="paint40_linear_1527_4016" x1="623.743" y1="580.024" x2="751.024" y2="829.512" gradientUnits="userSpaceOnUse">
<stop stop-color="#52D3D8"/>
<stop offset="1" stop-color="#52D3D8" stop-opacity="0"/>
</linearGradient>
<linearGradient id="paint41_linear_1527_4016" x1="577.629" y1="639.838" x2="675.821" y2="832.308" gradientUnits="userSpaceOnUse">
<stop stop-color="#52D3D8"/>
<stop offset="1" stop-color="#52D3D8" stop-opacity="0"/>
</linearGradient>
<linearGradient id="paint42_linear_1527_4016" x1="492.749" y1="743.66" x2="522.714" y2="802.396" gradientUnits="userSpaceOnUse">
<stop stop-color="#52D3D8"/>
<stop offset="1" stop-color="#52D3D8" stop-opacity="0"/>
</linearGradient>
<linearGradient id="paint43_linear_1527_4016" x1="591.319" y1="933.236" x2="621.459" y2="992.315" gradientUnits="userSpaceOnUse">
<stop stop-color="#52D3D8"/>
<stop offset="1" stop-color="#52D3D8" stop-opacity="0"/>
</linearGradient>
<linearGradient id="paint44_linear_1527_4016" x1="550.82" y1="749.554" x2="648.984" y2="941.969" gradientUnits="userSpaceOnUse">
<stop stop-color="#52D3D8"/>
<stop offset="1" stop-color="#52D3D8" stop-opacity="0"/>
</linearGradient>
<linearGradient id="paint45_linear_1527_4016" x1="450.407" y1="765.231" x2="577.688" y2="1014.72" gradientUnits="userSpaceOnUse">
<stop stop-color="#52D3D8"/>
<stop offset="1" stop-color="#52D3D8" stop-opacity="0"/>
</linearGradient>
<linearGradient id="paint46_linear_1527_4016" x1="450.407" y1="765.231" x2="577.688" y2="1014.72" gradientUnits="userSpaceOnUse">
<stop stop-color="#52D3D8"/>
<stop offset="1" stop-color="#52D3D8" stop-opacity="0"/>
</linearGradient>
<linearGradient id="paint47_linear_1527_4016" x1="450.407" y1="765.231" x2="577.688" y2="1014.72" gradientUnits="userSpaceOnUse">
<stop stop-color="#52D3D8"/>
<stop offset="1" stop-color="#52D3D8" stop-opacity="0"/>
</linearGradient>
<linearGradient id="paint48_linear_1527_4016" x1="404.293" y1="825.045" x2="502.485" y2="1017.51" gradientUnits="userSpaceOnUse">
<stop stop-color="#52D3D8"/>
<stop offset="1" stop-color="#52D3D8" stop-opacity="0"/>
</linearGradient>
<linearGradient id="paint49_linear_1527_4016" x1="62.8078" y1="320.574" x2="92.7727" y2="379.309" gradientUnits="userSpaceOnUse">
<stop stop-color="#52D3D8"/>
<stop offset="1" stop-color="#52D3D8" stop-opacity="0"/>
</linearGradient>
<linearGradient id="paint50_linear_1527_4016" x1="161.378" y1="510.15" x2="191.518" y2="569.228" gradientUnits="userSpaceOnUse">
<stop stop-color="#52D3D8"/>
<stop offset="1" stop-color="#52D3D8" stop-opacity="0"/>
</linearGradient>
<linearGradient id="paint51_linear_1527_4016" x1="120.879" y1="326.468" x2="219.043" y2="518.883" gradientUnits="userSpaceOnUse">
<stop stop-color="#52D3D8"/>
<stop offset="1" stop-color="#52D3D8" stop-opacity="0"/>
</linearGradient>
<linearGradient id="paint52_linear_1527_4016" x1="20.4661" y1="342.145" x2="147.747" y2="591.632" gradientUnits="userSpaceOnUse">
<stop stop-color="#52D3D8"/>
<stop offset="1" stop-color="#52D3D8" stop-opacity="0"/>
</linearGradient>
<linearGradient id="paint53_linear_1527_4016" x1="20.4661" y1="342.145" x2="147.747" y2="591.632" gradientUnits="userSpaceOnUse">
<stop stop-color="#52D3D8"/>
<stop offset="1" stop-color="#52D3D8" stop-opacity="0"/>
</linearGradient>
<linearGradient id="paint54_linear_1527_4016" x1="20.4661" y1="342.145" x2="147.747" y2="591.632" gradientUnits="userSpaceOnUse">
<stop stop-color="#52D3D8"/>
<stop offset="1" stop-color="#52D3D8" stop-opacity="0"/>
</linearGradient>
<linearGradient id="paint55_linear_1527_4016" x1="-25.6481" y1="401.959" x2="72.544" y2="594.428" gradientUnits="userSpaceOnUse">
<stop stop-color="#52D3D8"/>
<stop offset="1" stop-color="#52D3D8" stop-opacity="0"/>
</linearGradient>
</defs>
</svg>
