<svg width="208" height="40" viewBox="0 0 208 40" fill="none" xmlns="http://www.w3.org/2000/svg">
<g clip-path="url(#clip0_483_4722)">
<path d="M55.5195 19.3331L43.9676 8.51219H51.4494L59.2177 15.8316L66.9859 8.51219H74.4678L62.9158 19.3331L75.605 31.2912H68.2856L59.2177 22.8004L50.1497 31.2912H42.8303L55.5195 19.3331Z" fill="#254396"/>
<path d="M78.3499 8.51646H83.1083V31.2912H78.3499V8.51646Z" fill="#254396"/>
<path d="M87.6658 11.1244C87.6658 10.7354 87.7299 10.3805 87.8539 10.0599C87.9779 9.73921 88.1575 9.46559 88.3883 9.23472C88.6192 9.00386 88.8928 8.82429 89.2135 8.70031C89.5341 8.57632 89.889 8.51219 90.278 8.51219H92.2062C92.39 8.51219 92.5739 8.53784 92.7534 8.58487C92.933 8.63618 93.1083 8.70458 93.275 8.79436C93.4418 8.88415 93.5914 8.99103 93.7325 9.11501C93.8736 9.239 93.9933 9.37581 94.1002 9.52972L103.976 24.4891L113.852 9.52972C113.955 9.37581 114.079 9.239 114.216 9.11501C114.357 8.99103 114.511 8.88415 114.673 8.79436C114.836 8.70458 115.011 8.63618 115.195 8.58487C115.374 8.53784 115.558 8.51219 115.742 8.51219H117.662C118.051 8.51219 118.405 8.57632 118.726 8.70031C119.047 8.82429 119.32 9.00386 119.551 9.23472C119.782 9.46559 119.962 9.73921 120.086 10.0599C120.21 10.3805 120.274 10.7354 120.274 11.1244L120.291 31.2912H115.532V15.7076L106.135 29.829C106.02 30.0043 105.887 30.1881 105.733 30.3805C105.579 30.5772 105.408 30.7567 105.225 30.9192C105.041 31.0817 104.844 31.2185 104.63 31.3254C104.417 31.4322 104.198 31.4878 103.963 31.4878C103.728 31.4878 103.519 31.4322 103.305 31.3254C103.091 31.2185 102.895 31.0817 102.711 30.9192C102.527 30.7567 102.36 30.5772 102.206 30.3805C102.052 30.1838 101.92 30 101.809 29.829L92.4071 15.6905V31.2912H87.6487L87.6658 11.1244Z" fill="#254396"/>
<path d="M130.603 8.51646H153.185V12.8688H130.693C130.329 12.8688 130.013 12.9329 129.744 13.0654C129.474 13.1937 129.252 13.369 129.077 13.587C128.901 13.805 128.769 14.0487 128.683 14.3224C128.598 14.596 128.555 14.8782 128.559 15.1646C128.559 15.4511 128.606 15.7332 128.696 16.0068C128.786 16.2805 128.918 16.5284 129.098 16.7422C129.277 16.9602 129.5 17.1313 129.765 17.2638C130.03 17.3921 130.338 17.4605 130.693 17.4605L147.14 17.4861C147.905 17.4861 148.602 17.5759 149.235 17.7555C149.867 17.935 150.432 18.183 150.941 18.4994C151.445 18.8157 151.885 19.192 152.262 19.6238C152.638 20.0599 152.95 20.5301 153.202 21.0432C153.45 21.5562 153.638 22.0949 153.762 22.6635C153.886 23.2322 153.95 23.805 153.95 24.3908C153.955 24.9594 153.895 25.5237 153.771 26.0881C153.647 26.6481 153.459 27.1868 153.211 27.6999C152.963 28.2129 152.651 28.6875 152.27 29.1278C151.894 29.5682 151.449 29.9487 150.945 30.2651C150.44 30.5815 149.867 30.838 149.235 31.0218C148.598 31.2056 147.905 31.2997 147.144 31.2997H124.613V26.9474H147.054C147.413 26.9474 147.726 26.8662 147.995 26.6994C148.264 26.5327 148.487 26.3232 148.666 26.0753C148.846 25.823 148.978 25.5451 149.068 25.2458C149.158 24.9466 149.201 24.6601 149.201 24.395C149.201 24.1514 149.158 23.8991 149.068 23.6426C148.978 23.3861 148.846 23.1509 148.666 22.9457C148.487 22.7405 148.264 22.5695 147.995 22.4369C147.726 22.3044 147.413 22.236 147.054 22.236L130.607 22.2104C129.696 22.2104 128.876 22.0821 128.149 21.8298C127.422 21.5776 126.781 21.227 126.238 20.7909C125.695 20.3506 125.237 19.8375 124.874 19.2561C124.51 18.6747 124.241 18.0505 124.062 17.3921C123.882 16.7337 123.792 16.0581 123.792 15.3655C123.792 14.6729 123.886 13.9974 124.07 13.339C124.254 12.6806 124.528 12.0607 124.891 11.475C125.254 10.8893 125.708 10.3805 126.251 9.94015C126.798 9.49979 127.431 9.15349 128.157 8.89697C128.884 8.64045 129.701 8.51646 130.607 8.51646H130.603Z" fill="#254396"/>
<path d="M157.901 19.2091H168.675C169.081 19.2091 169.449 19.2604 169.786 19.3544C170.12 19.4528 170.423 19.5853 170.693 19.7563C170.962 19.9273 171.197 20.1283 171.398 20.3591C171.599 20.5943 171.766 20.8465 171.898 21.1159C172.031 21.3852 172.129 21.6717 172.198 21.9709C172.262 22.2702 172.296 22.5695 172.292 22.873C172.292 23.1809 172.257 23.4844 172.193 23.788C172.129 24.0915 172.027 24.378 171.898 24.6473C171.766 24.9166 171.599 25.1689 171.398 25.3998C171.197 25.6306 170.966 25.8273 170.697 25.9983C170.432 26.165 170.128 26.2976 169.795 26.3916C169.461 26.4857 169.089 26.5327 168.683 26.5327H159.047V31.2869H156.524V20.59C156.524 20.3805 156.554 20.1924 156.618 20.0257C156.682 19.8589 156.781 19.7093 156.9 19.5896C157.02 19.4656 157.17 19.3715 157.336 19.3074C157.503 19.2433 157.696 19.2091 157.901 19.2091ZM168.628 24.2283C168.816 24.2283 168.978 24.1898 169.119 24.1129C169.26 24.0359 169.38 23.9333 169.474 23.8051C169.568 23.6768 169.641 23.5357 169.688 23.3732C169.735 23.2108 169.761 23.044 169.761 22.873C169.761 22.702 169.739 22.5353 169.696 22.3728C169.654 22.2104 169.581 22.065 169.487 21.941C169.393 21.817 169.277 21.7101 169.132 21.6332C168.991 21.5562 168.82 21.5178 168.628 21.5178H159.038V24.2283H168.628Z" fill="#254396"/>
<path d="M175.507 19.2091H186.281C186.687 19.2091 187.054 19.2604 187.392 19.3544C187.726 19.4528 188.029 19.5853 188.299 19.7563C188.568 19.9273 188.803 20.1283 189.004 20.3591C189.205 20.5943 189.372 20.8465 189.504 21.1159C189.637 21.3852 189.735 21.6717 189.803 21.9709C189.868 22.2702 189.902 22.5695 189.898 22.873C189.898 23.1809 189.863 23.4844 189.799 23.788C189.735 24.0915 189.632 24.378 189.504 24.6473C189.372 24.9166 189.205 25.1689 189.004 25.3998C188.803 25.6306 188.572 25.8273 188.303 25.9983C188.038 26.165 187.734 26.2976 187.401 26.3916C187.067 26.4857 186.695 26.5327 186.289 26.5327H186.242L190.124 31.2869H186.995L183.113 26.5327H176.653V31.2869H174.13V20.59C174.13 20.3805 174.16 20.1924 174.224 20.0257C174.288 19.8589 174.387 19.7093 174.506 19.5896C174.626 19.4656 174.776 19.3715 174.942 19.3074C175.109 19.2433 175.302 19.2091 175.507 19.2091ZM186.234 24.2283C186.422 24.2283 186.584 24.1898 186.725 24.1129C186.866 24.0359 186.986 23.9333 187.08 23.8051C187.174 23.6768 187.247 23.5357 187.294 23.3732C187.341 23.2108 187.367 23.044 187.367 22.873C187.367 22.702 187.345 22.5353 187.302 22.3728C187.26 22.2104 187.187 22.065 187.093 21.941C186.999 21.817 186.883 21.7101 186.738 21.6332C186.597 21.5562 186.426 21.5178 186.234 21.5178H176.644V24.2283H186.234Z" fill="#254396"/>
<path d="M192.753 30.0983C192.377 29.7349 192.082 29.3117 191.877 28.8371C191.668 28.3625 191.565 27.8452 191.565 27.2937V23.2022C191.565 22.6507 191.668 22.1419 191.873 21.6759C192.078 21.2099 192.373 20.7824 192.758 20.3976C193.143 20.0128 193.57 19.7178 194.036 19.5126C194.502 19.3074 195.011 19.2048 195.562 19.2048H203.036C203.583 19.2048 204.092 19.3074 204.562 19.5126C205.028 19.7178 205.455 20.0128 205.84 20.3976C206.225 20.7824 206.52 21.2099 206.725 21.6759C206.93 22.1419 207.033 22.6507 207.033 23.2022V27.2937C207.033 27.8452 206.93 28.3583 206.721 28.8371C206.511 29.3117 206.221 29.7349 205.845 30.0983C205.665 30.2736 205.468 30.4361 205.255 30.5814C205.041 30.7268 204.814 30.8551 204.579 30.9577C204.34 31.0603 204.096 31.1415 203.835 31.2014C203.579 31.257 203.314 31.2869 203.04 31.2869H195.567C195.293 31.2869 195.028 31.257 194.771 31.2014C194.515 31.1415 194.267 31.0603 194.028 30.9577C193.788 30.8508 193.566 30.7268 193.352 30.5814C193.138 30.4318 192.942 30.2736 192.762 30.0983H192.753ZM194.083 27.5075C194.083 27.6999 194.126 27.8794 194.207 28.059C194.288 28.2343 194.399 28.3925 194.536 28.5293C194.673 28.6661 194.831 28.7773 195.007 28.8585C195.182 28.944 195.366 28.9825 195.558 28.9825H203.031C203.219 28.9825 203.403 28.9397 203.583 28.8585C203.762 28.7773 203.916 28.6661 204.053 28.5293C204.19 28.3925 204.301 28.2343 204.382 28.059C204.464 27.8794 204.506 27.6999 204.506 27.5075V22.9927C204.506 22.7875 204.468 22.5994 204.391 22.4156C204.314 22.236 204.211 22.0778 204.075 21.9453C203.938 21.8127 203.784 21.7059 203.604 21.6289C203.425 21.5519 203.232 21.5135 203.027 21.5135H195.554C195.349 21.5135 195.156 21.5519 194.977 21.6289C194.797 21.7059 194.639 21.8085 194.506 21.9453C194.374 22.0778 194.267 22.236 194.19 22.4156C194.113 22.5951 194.075 22.7875 194.075 22.9927V27.5075H194.083Z" fill="#254396"/>
<path d="M27.3407 3.06969L22.1932 9.42283L20.0812 6.90039L19.7263 6.47286L24.4078 0.701158C24.9807 -0.0128225 25.9897 -0.205212 26.7892 0.247973H26.802C27.8152 0.825142 28.0675 2.1676 27.3407 3.07397V3.06969Z" fill="#254396"/>
<path d="M27.1399 39.7435C26.8449 39.9145 26.52 40 26.1908 40C25.6478 40 25.1177 39.7649 24.75 39.3288L19.8804 33.4972L20.2267 33.0697L22.2917 30.5259L27.6358 36.9218C28.3797 37.8153 28.1446 39.1578 27.1399 39.7478V39.7435Z" fill="#254396"/>
<path d="M35.5409 32.3001L27.9351 23.198L27.8496 23.369C27.6017 23.8649 27.2938 24.3395 26.9347 24.7841L25.6649 26.3489L32.6508 34.7071C33.2408 35.4126 34.2455 35.5836 35.0407 35.1261C36.0454 34.5361 36.2806 33.1894 35.5367 32.2959L35.5409 32.3001ZM34.7928 4.77128H34.7799C33.9804 4.31382 32.9715 4.50621 32.3943 5.22019L25.6436 13.5571L25.9941 13.9761L26.8535 15.0064C27.2639 15.4981 27.6102 16.0239 27.8667 16.5669C27.8881 16.6139 27.9138 16.661 27.9309 16.708L35.3229 7.58872C36.054 6.68663 35.7975 5.34845 34.7928 4.77555V4.77128Z" fill="#254396"/>
<path d="M25.3441 22.112C25.1859 22.4327 24.9892 22.7362 24.7541 23.0269L23.8392 24.1556L22.9884 25.2074L20.4531 28.3369L19.6023 29.3844L18.0418 31.3083L17.191 32.36L11.5604 39.3117C10.9875 40.0257 9.97854 40.218 9.17905 39.7649L9.16622 39.7563C8.15297 39.1877 7.90073 37.841 8.62753 36.9431L14.7242 29.4186L15.5749 28.3668L17.1397 26.4429L17.9862 25.3955L20.7096 22.0351L21.4236 21.1543C21.6929 20.8166 21.8383 20.4361 21.8597 20.0385V20C21.864 19.9487 21.864 19.8974 21.8554 19.8461C21.8597 19.8375 21.8554 19.8247 21.8554 19.8119C21.834 19.4271 21.6758 19.0466 21.4022 18.7217L20.6455 17.8153L17.982 14.6216L17.1183 13.5913L15.5194 11.6759L14.6557 10.6413L8.34536 3.08679C7.60145 2.19324 7.8366 0.846516 8.8413 0.25652C9.1363 0.0855066 9.46122 0 9.78615 0C10.3291 0 10.8635 0.235143 11.2312 0.675502L17.067 7.65712L17.9307 8.69175L19.5339 10.6071L20.3975 11.6375L22.9884 14.7371L23.852 15.7674L24.7028 16.7892C24.9678 17.1056 25.1944 17.4434 25.3569 17.7939C26.0581 19.162 26.0538 20.7354 25.3526 22.1077L25.3441 22.112Z" fill="#254396"/>
<path d="M25.3441 22.112C25.1859 22.4327 24.9892 22.7362 24.7541 23.0269L23.8392 24.1556L22.9884 25.2074L20.4531 28.3369L19.6023 29.3844L18.0418 31.3083L17.191 32.36L11.5604 39.3117C10.9875 40.0257 9.97854 40.218 9.17905 39.7649L9.16622 39.7563C8.15297 39.1877 7.90073 37.841 8.62753 36.9431L14.7242 29.4186L15.5749 28.3668L17.1397 26.4429L17.9862 25.3955L20.7096 22.0351L21.4236 21.1543C21.6929 20.8166 21.8383 20.4361 21.8597 20.0385V20C21.864 19.9487 21.864 19.8974 21.8554 19.8461C21.8597 19.8375 21.8554 19.8247 21.8554 19.8119C21.834 19.4271 21.6758 19.0466 21.4022 18.7217L20.6455 17.8153L17.982 14.6216L17.1183 13.5913L15.5194 11.6759L14.6557 10.6413L8.34536 3.08679C7.60145 2.19324 7.8366 0.846516 8.8413 0.25652C9.1363 0.0855066 9.46122 0 9.78615 0C10.3291 0 10.8635 0.235143 11.2312 0.675502L17.067 7.65712L17.9307 8.69175L19.5339 10.6071L20.3975 11.6375L22.9884 14.7371L23.852 15.7674L24.7028 16.7892C24.9678 17.1056 25.1944 17.4434 25.3569 17.7939C26.0581 19.162 26.0538 20.7354 25.3526 22.1077L25.3441 22.112Z" fill="#254396"/>
<path d="M25.3441 22.112C25.1859 22.4327 24.9892 22.7362 24.7541 23.0269L23.8392 24.1556L22.9884 25.2074L20.4531 28.3369L19.6023 29.3844L18.0418 31.3083L17.191 32.36L11.5604 39.3117C10.9875 40.0257 9.97854 40.218 9.17905 39.7649L9.16622 39.7563C8.15297 39.1877 7.90073 37.841 8.62753 36.9431L14.7242 29.4186L15.5749 28.3668L17.1397 26.4429L17.9862 25.3955L20.7096 22.0351L21.4236 21.1543C21.6929 20.8166 21.8383 20.4361 21.8597 20.0385V20C21.864 19.9487 21.864 19.8974 21.8554 19.8461C21.8597 19.8375 21.8554 19.8247 21.8554 19.8119C21.834 19.4271 21.6758 19.0466 21.4022 18.7217L20.6455 17.8153L17.982 14.6216L17.1183 13.5913L15.5194 11.6759L14.6557 10.6413L8.34536 3.08679C7.60145 2.19324 7.8366 0.846516 8.8413 0.25652C9.1363 0.0855066 9.46122 0 9.78615 0C10.3291 0 10.8635 0.235143 11.2312 0.675502L17.067 7.65712L17.9307 8.69175L19.5339 10.6071L20.3975 11.6375L22.9884 14.7371L23.852 15.7674L24.7028 16.7892C24.9678 17.1056 25.1944 17.4434 25.3569 17.7939C26.0581 19.162 26.0538 20.7354 25.3526 22.1077L25.3441 22.112Z" fill="#254396"/>
<path d="M14.1171 20.1967C14.1129 21.2142 13.7495 22.2317 13.044 23.0996L12.1291 24.2283L3.58272 34.7884C3.00555 35.4981 1.99658 35.6905 1.19709 35.2416L1.18426 35.233C0.175284 34.6644 -0.0812357 33.3177 0.654121 32.4198L9.7221 21.2227C10.1496 20.6926 10.2266 20.0128 9.92304 19.4485L9.7734 19.1236C9.51688 18.696 8.7345 17.64 8.50363 17.3664L0.436079 7.70414C-0.312104 6.80632 -0.072685 5.46387 0.932018 4.87387C1.23129 4.70286 1.55622 4.61736 1.88114 4.61736C2.42411 4.61736 2.95425 4.8525 3.32193 5.28858L11.7999 15.4382C11.8427 15.4895 11.9666 15.6392 12.1334 15.8487C12.5695 16.4002 13.292 17.3707 13.6041 18.0975C13.9205 18.6917 14.0915 19.333 14.1171 19.9743C14.1129 20.047 14.1129 20.1197 14.1214 20.1924L14.1171 20.1967Z" fill="#254396"/>
</g>
<defs>
<clipPath id="clip0_483_4722">
<rect width="207.029" height="40" fill="white"/>
</clipPath>
</defs>
</svg>
