<svg width="233" height="45" viewBox="0 0 233 45" fill="none" xmlns="http://www.w3.org/2000/svg">
<g clip-path="url(#clip0_1527_4229)">
<path d="M62.4846 21.7496L49.4835 9.57617H57.9039L66.6467 17.8105L75.3895 9.57617H83.8099L70.8088 21.7496L85.0898 35.2025H76.8523L66.6467 25.6504L56.4412 35.2025H48.2036L62.4846 21.7496Z" fill="white"/>
<path d="M88.179 9.58081H93.5343V35.2023H88.179V9.58081Z" fill="white"/>
<path d="M98.6635 12.5149C98.6635 12.0772 98.7357 11.678 98.8753 11.3173C99.0148 10.9566 99.2169 10.6487 99.4767 10.389C99.7365 10.1293 100.044 9.92728 100.405 9.7878C100.766 9.64832 101.166 9.57617 101.603 9.57617H103.774C103.98 9.57617 104.187 9.60503 104.389 9.65794C104.592 9.71565 104.789 9.79261 104.976 9.89362C105.164 9.99462 105.333 10.1149 105.491 10.2543C105.65 10.3938 105.785 10.5477 105.905 10.7209L117.02 27.5502L128.135 10.7209C128.25 10.5477 128.39 10.3938 128.544 10.2543C128.703 10.1149 128.876 9.99462 129.059 9.89362C129.242 9.79261 129.439 9.71565 129.646 9.65794C129.848 9.60503 130.055 9.57617 130.262 9.57617H132.422C132.86 9.57617 133.259 9.64832 133.62 9.7878C133.981 9.92728 134.289 10.1293 134.549 10.389C134.809 10.6487 135.011 10.9566 135.15 11.3173C135.29 11.678 135.362 12.0772 135.362 12.5149L135.381 35.2025H130.026V17.671L119.45 33.5576C119.32 33.7548 119.171 33.9616 118.998 34.178C118.824 34.3993 118.632 34.6013 118.425 34.7841C118.218 34.9668 117.997 35.1207 117.756 35.241C117.516 35.3612 117.27 35.4238 117.006 35.4238C116.741 35.4238 116.505 35.3612 116.265 35.241C116.024 35.1207 115.803 34.9668 115.596 34.7841C115.389 34.6013 115.201 34.3993 115.028 34.178C114.855 33.9568 114.706 33.75 114.581 33.5576L104 17.6517V35.2025H98.6443L98.6635 12.5149Z" fill="white"/>
<path d="M146.987 9.58081H172.402V14.4771H147.088C146.679 14.4771 146.323 14.5493 146.02 14.6984C145.717 14.8427 145.467 15.0399 145.269 15.2852C145.072 15.5305 144.923 15.8046 144.827 16.1124C144.731 16.4203 144.682 16.7377 144.687 17.06C144.687 17.3822 144.74 17.6997 144.841 18.0075C144.942 18.3153 145.091 18.5943 145.294 18.8348C145.496 19.0801 145.746 19.2725 146.044 19.4216C146.342 19.5658 146.689 19.6428 147.088 19.6428L165.599 19.6717C166.46 19.6717 167.244 19.7727 167.956 19.9747C168.669 20.1767 169.304 20.4557 169.876 20.8116C170.444 21.1675 170.94 21.5908 171.363 22.0765C171.787 22.5671 172.138 23.0962 172.422 23.6734C172.701 24.2505 172.912 24.8566 173.052 25.4963C173.192 26.136 173.264 26.7805 173.264 27.4394C173.269 28.0791 173.201 28.714 173.062 29.3489C172.922 29.979 172.71 30.585 172.431 31.1622C172.152 31.7393 171.801 32.2732 171.373 32.7686C170.949 33.264 170.449 33.6921 169.881 34.048C169.313 34.4039 168.669 34.6925 167.956 34.8993C167.24 35.1061 166.46 35.212 165.604 35.212H140.246V30.3156H165.503C165.907 30.3156 166.258 30.2242 166.561 30.0367C166.864 29.8491 167.114 29.6134 167.317 29.3344C167.519 29.0507 167.668 28.738 167.769 28.4014C167.87 28.0647 167.918 27.7424 167.918 27.4442C167.918 27.1701 167.87 26.8863 167.769 26.5977C167.668 26.3091 167.519 26.0446 167.317 25.8137C167.114 25.5828 166.864 25.3905 166.561 25.2413C166.258 25.0922 165.907 25.0153 165.503 25.0153L146.992 24.9864C145.967 24.9864 145.043 24.8421 144.225 24.5584C143.407 24.2746 142.686 23.8802 142.075 23.3896C141.463 22.8942 140.949 22.317 140.54 21.6629C140.131 21.0088 139.827 20.3065 139.625 19.5658C139.423 18.8251 139.322 18.0652 139.322 17.286C139.322 16.5068 139.428 15.7469 139.635 15.0062C139.842 14.2655 140.15 13.5681 140.559 12.9092C140.968 12.2502 141.478 11.6779 142.089 11.1825C142.705 10.6871 143.417 10.2975 144.235 10.0089C145.053 9.72029 145.972 9.58081 146.992 9.58081H146.987Z" fill="white"/>
<path d="M177.709 21.6104H189.834C190.292 21.6104 190.705 21.6681 191.085 21.7739C191.461 21.8845 191.802 22.0336 192.106 22.226C192.409 22.4184 192.673 22.6444 192.899 22.9042C193.126 23.1687 193.313 23.4525 193.462 23.7555C193.612 24.0585 193.722 24.3808 193.799 24.7174C193.871 25.0541 193.91 25.3908 193.905 25.7323C193.905 26.0786 193.867 26.4201 193.794 26.7616C193.722 27.1031 193.607 27.4253 193.462 27.7284C193.313 28.0314 193.126 28.3151 192.899 28.5749C192.673 28.8346 192.413 29.0558 192.11 29.2482C191.812 29.4358 191.47 29.5849 191.095 29.6907C190.72 29.7965 190.301 29.8495 189.844 29.8495H178.999V35.1979H176.16V23.1639C176.16 22.9282 176.193 22.7166 176.266 22.529C176.338 22.3414 176.448 22.1731 176.583 22.0384C176.718 21.8989 176.886 21.7931 177.074 21.721C177.262 21.6488 177.478 21.6104 177.709 21.6104ZM189.782 27.257C189.993 27.257 190.176 27.2137 190.335 27.1271C190.494 27.0406 190.628 26.9251 190.734 26.7808C190.84 26.6365 190.922 26.4778 190.975 26.295C191.028 26.1123 191.057 25.9247 191.057 25.7323C191.057 25.5399 191.033 25.3523 190.984 25.1696C190.936 24.9868 190.854 24.8233 190.749 24.6838C190.643 24.5443 190.513 24.4241 190.349 24.3375C190.19 24.2509 189.998 24.2076 189.782 24.2076H178.989V27.257H189.782Z" fill="white"/>
<path d="M197.524 21.6099H209.649C210.106 21.6099 210.52 21.6676 210.9 21.7734C211.276 21.884 211.617 22.0331 211.92 22.2255C212.224 22.4179 212.488 22.644 212.714 22.9037C212.941 23.1682 213.128 23.452 213.277 23.755C213.427 24.058 213.537 24.3803 213.614 24.717C213.686 25.0536 213.725 25.3903 213.72 25.7318C213.72 26.0781 213.682 26.4196 213.609 26.7611C213.537 27.1026 213.422 27.4248 213.277 27.7279C213.128 28.0309 212.941 28.3147 212.714 28.5744C212.488 28.8341 212.228 29.0554 211.925 29.2477C211.627 29.4353 211.285 29.5844 210.91 29.6902C210.535 29.7961 210.116 29.849 209.659 29.849H209.606L213.975 35.1974H210.453L206.084 29.849H198.813V35.1974H195.975V23.1634C195.975 22.9277 196.008 22.7161 196.08 22.5285C196.153 22.3409 196.263 22.1726 196.398 22.0379C196.533 21.8984 196.701 21.7926 196.889 21.7205C197.076 21.6483 197.293 21.6099 197.524 21.6099ZM209.596 27.2565C209.808 27.2565 209.991 27.2132 210.15 27.1266C210.309 27.0401 210.443 26.9246 210.549 26.7803C210.655 26.636 210.737 26.4773 210.79 26.2946C210.843 26.1118 210.872 25.9242 210.872 25.7318C210.872 25.5394 210.847 25.3518 210.799 25.1691C210.751 24.9863 210.669 24.8228 210.564 24.6833C210.458 24.5438 210.328 24.4236 210.164 24.337C210.005 24.2504 209.813 24.2071 209.596 24.2071H198.804V27.2565H209.596Z" fill="white"/>
<path d="M216.935 33.8605C216.511 33.4516 216.179 32.9755 215.948 32.4416C215.712 31.9077 215.597 31.3257 215.597 30.7053V26.1023C215.597 25.4819 215.712 24.9095 215.943 24.3853C216.174 23.861 216.506 23.38 216.939 22.9471C217.372 22.5143 217.854 22.1824 218.378 21.9515C218.903 21.7207 219.475 21.6052 220.096 21.6052H228.507C229.123 21.6052 229.695 21.7207 230.224 21.9515C230.749 22.1824 231.23 22.5143 231.663 22.9471C232.096 23.38 232.428 23.861 232.659 24.3853C232.89 24.9095 233.006 25.4819 233.006 26.1023V30.7053C233.006 31.3257 232.89 31.9029 232.654 32.4416C232.418 32.9755 232.091 33.4516 231.668 33.8605C231.466 34.0577 231.244 34.2404 231.004 34.404C230.763 34.5675 230.508 34.7118 230.244 34.8272C229.974 34.9427 229.7 35.034 229.406 35.1014C229.118 35.1639 228.819 35.1976 228.511 35.1976H220.101C219.793 35.1976 219.494 35.1639 219.206 35.1014C218.917 35.034 218.638 34.9427 218.368 34.8272C218.099 34.707 217.849 34.5675 217.608 34.404C217.368 34.2356 217.146 34.0577 216.944 33.8605H216.935ZM218.431 30.9458C218.431 31.1622 218.479 31.3642 218.571 31.5662C218.662 31.7634 218.787 31.9414 218.941 32.0953C219.095 32.2492 219.273 32.3743 219.47 32.4656C219.668 32.5618 219.874 32.6051 220.091 32.6051H228.502C228.714 32.6051 228.92 32.557 229.123 32.4656C229.325 32.3743 229.498 32.2492 229.652 32.0953C229.806 31.9414 229.931 31.7634 230.022 31.5662C230.114 31.3642 230.162 31.1622 230.162 30.9458V25.8667C230.162 25.6358 230.119 25.4242 230.032 25.2173C229.945 25.0153 229.83 24.8374 229.676 24.6883C229.522 24.5392 229.349 24.4189 229.147 24.3324C228.944 24.2458 228.728 24.2025 228.497 24.2025H220.086C219.855 24.2025 219.639 24.2458 219.437 24.3324C219.235 24.4189 219.057 24.5344 218.907 24.6883C218.758 24.8374 218.638 25.0153 218.551 25.2173C218.465 25.4194 218.421 25.6358 218.421 25.8667V30.9458H218.431Z" fill="white"/>
<path d="M30.7703 3.45385L24.977 10.6011L22.6001 7.76339L22.2007 7.28241L27.4695 0.789253C28.1142 -0.0139752 29.2498 -0.230414 30.1496 0.279419H30.164C31.3044 0.928735 31.5882 2.439 30.7703 3.45866V3.45385Z" fill="white"/>
<path d="M30.5445 44.7116C30.2125 44.904 29.8468 45.0002 29.4763 45.0002C28.8652 45.0002 28.2686 44.7357 27.8548 44.2451L22.3743 37.6846L22.764 37.2036L25.088 34.3418L31.1026 41.5372C31.9399 42.5424 31.6752 44.0527 30.5445 44.7164V44.7116Z" fill="white"/>
<path d="M39.9994 36.3379L31.4394 26.098L31.3432 26.2904C31.0641 26.8483 30.7177 27.3822 30.3135 27.8824L28.8844 29.6428L36.7467 39.0458C37.4107 39.8394 38.5414 40.0318 39.4364 39.5172C40.5671 38.8534 40.8318 37.3383 39.9945 36.3331L39.9994 36.3379ZM39.1573 5.36796H39.1429C38.2431 4.85331 37.1075 5.06975 36.458 5.87298L28.8604 15.252L29.2549 15.7233L30.2221 16.8825C30.684 17.4356 31.0737 18.0272 31.3624 18.638C31.3865 18.691 31.4153 18.7439 31.4346 18.7968L39.754 8.53758C40.5768 7.52272 40.2881 6.01727 39.1573 5.37277V5.36796Z" fill="white"/>
<path d="M28.5234 24.8763C28.3454 25.237 28.1241 25.5785 27.8594 25.9055L26.8297 27.1753L25.8722 28.3585L23.0189 31.8793L22.0614 33.0576L20.3051 35.222L19.3476 36.4052L13.0106 44.2259C12.3659 45.0291 11.2303 45.2455 10.3305 44.7357L10.3161 44.7261C9.17574 44.0864 8.89185 42.5713 9.70984 41.5613L16.5713 33.0961L17.5288 31.9129L19.2899 29.7485L20.2426 28.5701L23.3076 24.7897L24.1111 23.7989C24.4143 23.4189 24.5779 22.9908 24.6019 22.5435V22.5002C24.6067 22.4425 24.6067 22.3848 24.5971 22.3271C24.6019 22.3175 24.5971 22.303 24.5971 22.2886C24.5731 21.8557 24.395 21.4277 24.0871 21.0621L23.2354 20.0425L20.2378 16.4496L19.2658 15.2904L17.4662 13.1357L16.4943 11.9717L9.39227 3.47288C8.55504 2.46764 8.81968 0.952574 9.95042 0.288829C10.2824 0.0964391 10.6481 0.000244141 11.0138 0.000244141C11.6249 0.000244141 12.2263 0.26478 12.6401 0.760184L19.2081 8.6145L20.18 9.77846L21.9844 11.9332L22.9563 13.0924L25.8722 16.5794L26.8442 17.7386L27.8017 18.8881C28.1 19.244 28.355 19.624 28.5379 20.0184C29.327 21.5575 29.3222 23.3275 28.5331 24.8714L28.5234 24.8763Z" fill="white"/>
<path d="M28.5234 24.8763C28.3454 25.237 28.1241 25.5785 27.8594 25.9055L26.8297 27.1753L25.8722 28.3585L23.0189 31.8793L22.0614 33.0576L20.3051 35.222L19.3476 36.4052L13.0106 44.2259C12.3659 45.0291 11.2303 45.2455 10.3305 44.7357L10.3161 44.7261C9.17574 44.0864 8.89185 42.5713 9.70984 41.5613L16.5713 33.0961L17.5288 31.9129L19.2899 29.7485L20.2426 28.5701L23.3076 24.7897L24.1111 23.7989C24.4143 23.4189 24.5779 22.9908 24.6019 22.5435V22.5002C24.6067 22.4425 24.6067 22.3848 24.5971 22.3271C24.6019 22.3175 24.5971 22.303 24.5971 22.2886C24.5731 21.8557 24.395 21.4277 24.0871 21.0621L23.2354 20.0425L20.2378 16.4496L19.2658 15.2904L17.4662 13.1357L16.4943 11.9717L9.39227 3.47288C8.55504 2.46764 8.81968 0.952574 9.95042 0.288829C10.2824 0.0964391 10.6481 0.000244141 11.0138 0.000244141C11.6249 0.000244141 12.2263 0.26478 12.6401 0.760184L19.2081 8.6145L20.18 9.77846L21.9844 11.9332L22.9563 13.0924L25.8722 16.5794L26.8442 17.7386L27.8017 18.8881C28.1 19.244 28.355 19.624 28.5379 20.0184C29.327 21.5575 29.3222 23.3275 28.5331 24.8714L28.5234 24.8763Z" fill="white"/>
<path d="M28.5234 24.8763C28.3454 25.237 28.1241 25.5785 27.8594 25.9055L26.8297 27.1753L25.8722 28.3585L23.0189 31.8793L22.0614 33.0576L20.3051 35.222L19.3476 36.4052L13.0106 44.2259C12.3659 45.0291 11.2303 45.2455 10.3305 44.7357L10.3161 44.7261C9.17574 44.0864 8.89185 42.5713 9.70984 41.5613L16.5713 33.0961L17.5288 31.9129L19.2899 29.7485L20.2426 28.5701L23.3076 24.7897L24.1111 23.7989C24.4143 23.4189 24.5779 22.9908 24.6019 22.5435V22.5002C24.6067 22.4425 24.6067 22.3848 24.5971 22.3271C24.6019 22.3175 24.5971 22.303 24.5971 22.2886C24.5731 21.8557 24.395 21.4277 24.0871 21.0621L23.2354 20.0425L20.2378 16.4496L19.2658 15.2904L17.4662 13.1357L16.4943 11.9717L9.39227 3.47288C8.55504 2.46764 8.81968 0.952574 9.95042 0.288829C10.2824 0.0964391 10.6481 0.000244141 11.0138 0.000244141C11.6249 0.000244141 12.2263 0.26478 12.6401 0.760184L19.2081 8.6145L20.18 9.77846L21.9844 11.9332L22.9563 13.0924L25.8722 16.5794L26.8442 17.7386L27.8017 18.8881C28.1 19.244 28.355 19.624 28.5379 20.0184C29.327 21.5575 29.3222 23.3275 28.5331 24.8714L28.5234 24.8763Z" fill="white"/>
<path d="M15.8881 22.7215C15.8833 23.8663 15.4743 25.011 14.6804 25.9874L13.6507 27.2571L4.03217 39.1372C3.3826 39.9356 2.24704 40.1521 1.34726 39.647L1.33283 39.6374C0.197274 38.9977 -0.0914257 37.4827 0.736181 36.4726L10.9417 23.8759C11.4229 23.2795 11.5095 22.5147 11.1679 21.8798L10.9995 21.5143C10.7108 21.0333 9.83023 19.8453 9.5704 19.5375L0.490786 8.66746C-0.351256 7.65742 -0.0818023 6.14715 1.04894 5.48341C1.38576 5.29102 1.75144 5.19482 2.11713 5.19482C2.72821 5.19482 3.32486 5.45936 3.73866 5.94995L13.2802 17.3683C13.3283 17.426 13.4678 17.5944 13.6555 17.83C14.1463 18.4505 14.9595 19.5423 15.3107 20.36C15.6668 21.0285 15.8592 21.75 15.8881 22.4714C15.8833 22.5532 15.8833 22.635 15.8929 22.7167L15.8881 22.7215Z" fill="white"/>
</g>
<defs>
<clipPath id="clip0_1527_4229">
<rect width="233" height="45" fill="white"/>
</clipPath>
</defs>
</svg>
