<svg width="21" height="20" viewBox="0 0 21 20" fill="none" xmlns="http://www.w3.org/2000/svg">
<g clip-path="url(#clip0_3316_4433)">
<path d="M6.7983 7.11853C7.76753 7.11853 8.55435 6.32952 8.55435 5.36249C8.55435 4.39546 7.76534 3.60645 6.7983 3.60645C5.83127 3.60645 5.04226 4.39546 5.04226 5.36249C5.04226 6.32952 5.83127 7.11853 6.7983 7.11853ZM6.7983 4.45699C7.2972 4.45699 7.7038 4.86359 7.7038 5.36249C7.7038 5.86139 7.2972 6.26798 6.7983 6.26798C6.2994 6.26798 5.89281 5.86139 5.89281 5.36249C5.89281 4.86359 6.2994 4.45699 6.7983 4.45699Z" fill="#AAAAAA"/>
<path d="M21.5851 10.356L20.8554 9.62632C20.3631 9.13401 19.5653 9.13401 19.073 9.62632L18.306 10.3934V2.38896C18.306 1.18896 17.328 0.210938 16.128 0.210938H4.13237C2.93237 0.210938 1.95435 1.18896 1.95435 2.38896V14.3824C1.95435 15.5824 2.93237 16.5604 4.13237 16.5604H12.3697C12.3609 16.5824 12.35 16.6043 12.3412 16.6263L11.5719 18.6241C11.4598 18.9164 11.5126 19.2571 11.7346 19.4791C11.9543 19.6988 12.2686 19.7648 12.5587 19.6549L14.5873 18.8725C14.8752 18.7626 15.1368 18.5912 15.3543 18.3736L21.5873 12.1406C22.0796 11.6483 22.0796 10.8505 21.5873 10.3582L21.5851 10.356ZM2.8049 2.38896C2.8049 1.65709 3.4005 1.06368 4.13017 1.06368H16.1236C16.8554 1.06368 17.4489 1.65929 17.4489 2.38896V9.13401L15.3038 6.98896C14.6642 6.3494 13.6225 6.3494 12.9829 6.98896L8.56534 11.4065L7.19171 10.0329C6.81588 9.65709 6.31918 9.4505 5.78731 9.4505C5.25545 9.4505 4.75874 9.65709 4.38292 10.0329L2.8005 11.6153V2.38896H2.8049ZM4.13017 15.7076C3.3983 15.7076 2.8049 15.112 2.8049 14.3824V12.8219L4.98951 10.6373C5.2027 10.4241 5.48841 10.3054 5.79171 10.3054C6.09501 10.3054 6.37852 10.4241 6.59391 10.6373L7.96753 12.0109L11.6664 15.7098H4.13237L4.13017 15.7076ZM9.16753 12.0087L13.5851 7.59116C13.7346 7.44171 13.9324 7.36039 14.1434 7.36039C14.3543 7.36039 14.5521 7.44171 14.7016 7.59116L17.4489 10.3384V11.2461L12.9873 15.7076H12.8664L9.16753 12.0087ZM12.4159 18.7912L13.0335 17.189L14.0181 18.1736L12.4159 18.7912ZM14.7829 17.734L13.473 16.4241L18.6423 11.2549L19.9521 12.5648L14.7829 17.734ZM20.9807 11.5362L20.5543 11.9626L19.2445 10.6527L19.6708 10.2263C19.8313 10.0659 20.0906 10.0659 20.2489 10.2263L20.9785 10.956C21.139 11.1164 21.139 11.3758 20.9785 11.534L20.9807 11.5362Z" fill="#AAAAAA"/>
</g>
<defs>
<clipPath id="clip0_3316_4433">
<rect width="20" height="19.4945" fill="white" transform="translate(0.651855 0.210938)"/>
</clipPath>
</defs>
</svg>
