<svg width="11" height="13" viewBox="0 0 11 13" fill="none" xmlns="http://www.w3.org/2000/svg">
<path d="M0.933873 12.958V0.718008H5.43387C8.02587 0.718008 9.66387 1.99601 9.66387 4.04801C9.66387 5.18201 9.08787 6.06401 8.02587 6.51401C9.53787 6.96401 10.3479 8.02601 10.3479 9.46601C10.3479 11.68 8.74587 12.958 6.04587 12.958H0.933873ZM5.37987 2.32001H2.94987V5.92001H5.34387C6.78387 5.92001 7.59387 5.20001 7.59387 4.15601C7.59387 3.02201 6.76587 2.32001 5.37987 2.32001ZM5.79387 7.48601H2.94987V11.356H5.99187C7.41387 11.356 8.27787 10.582 8.27787 9.41201C8.27787 8.24201 7.35987 7.48601 5.79387 7.48601Z" fill="#AAAAAA"/>
</svg>
