<svg width="14" height="15" viewBox="0 0 14 15" fill="none" xmlns="http://www.w3.org/2000/svg">
<path d="M12 3.16602L11.5868 9.84941C11.4813 11.557 11.4285 12.4108 11.0005 13.0246C10.7889 13.3281 10.5164 13.5842 10.2005 13.7767C9.56141 14.166 8.70599 14.166 6.99516 14.166C5.28208 14.166 4.42554 14.166 3.78604 13.776C3.46987 13.5831 3.19733 13.3266 2.98579 13.0226C2.55792 12.4077 2.5063 11.5528 2.40307 9.84278L2 3.16602" stroke="#AAAAAA" stroke-width="1.5" stroke-linecap="round"/>
<path d="M5 7.32324H9" stroke="#AAAAAA" stroke-width="1.5" stroke-linecap="round"/>
<path d="M6 9.93555H8" stroke="#AAAAAA" stroke-width="1.5" stroke-linecap="round"/>
<path d="M1 3.16634H13M9.70369 3.16634L9.24858 2.22749C8.94626 1.60385 8.7951 1.29202 8.53435 1.09755C8.47651 1.05441 8.41527 1.01604 8.35122 0.982808C8.06248 0.833008 7.71595 0.833008 7.02289 0.833008C6.31243 0.833008 5.95719 0.833008 5.66366 0.989088C5.59861 1.02368 5.53653 1.0636 5.47807 1.10845C5.2143 1.31081 5.06696 1.63404 4.77228 2.28051L4.36849 3.16634" stroke="#AAAAAA" stroke-width="1.5" stroke-linecap="round"/>
</svg>
