<svg width="15" height="15" viewBox="0 0 15 15" fill="none" xmlns="http://www.w3.org/2000/svg">
<path d="M8.88239 2.08998C9.37918 1.55173 9.62758 1.28261 9.89153 1.12563C10.5284 0.746847 11.3126 0.735068 11.9602 1.09456C12.2285 1.24354 12.4845 1.50509 12.9966 2.02818C13.5087 2.55128 13.7647 2.81282 13.9106 3.08696C14.2625 3.74842 14.2509 4.54954 13.8801 5.20014C13.7265 5.46978 13.463 5.72352 12.9361 6.23101L6.667 12.2692C5.6685 13.2309 5.16925 13.7118 4.54529 13.9555C3.92133 14.1992 3.23539 14.1813 1.86349 14.1454L1.67684 14.1405C1.25919 14.1296 1.05036 14.1241 0.928976 13.9864C0.807587 13.8486 0.82416 13.6359 0.857305 13.2105L0.875303 12.9794C0.968591 11.782 1.01523 11.1833 1.24906 10.6452C1.48288 10.107 1.88621 9.66998 2.69287 8.79601L8.88239 2.08998Z" stroke="#AAAAAA" stroke-width="1.5" stroke-linejoin="round"/>
<path d="M8.1665 2.16602L12.8332 6.83268" stroke="#AAAAAA" stroke-width="1.5" stroke-linejoin="round"/>
<path d="M8.83325 14.166L14.1666 14.166" stroke="#AAAAAA" stroke-width="1.5" stroke-linecap="round" stroke-linejoin="round"/>
</svg>
