<svg width="20" height="22" viewBox="0 0 20 22" fill="none" xmlns="http://www.w3.org/2000/svg">
<path d="M18.9209 10.25V9.25C18.9209 5.47876 18.9209 3.59315 17.6804 2.42157C16.4399 1.25 14.4434 1.25 10.4503 1.25L9.39149 1.25C5.39841 1.25 3.40188 1.25 2.16139 2.42157C0.920899 3.59315 0.920899 5.47876 0.920899 9.25L0.920898 13.25C0.920898 17.0212 0.920898 18.9069 2.16139 20.0784C3.40188 21.25 5.39841 21.25 9.39149 21.25H9.9209" stroke="#54545B" stroke-width="1.5" stroke-linecap="round"/>
<path d="M5.9209 6.25H13.9209" stroke="#54545B" stroke-width="1.5" stroke-linecap="round"/>
<path d="M5.9209 11.25H10.9209" stroke="#54545B" stroke-width="1.5" stroke-linecap="round"/>
<path d="M18.9209 19.8971L18.9209 16.25C18.9209 14.8206 17.5778 13.25 15.9209 13.25C14.264 13.25 12.9209 14.8206 12.9209 16.25L12.9209 19.75C12.9209 20.5297 13.6535 21.25 14.5573 21.25C15.461 21.25 16.1936 20.5297 16.1936 19.75L16.1936 17.0147" stroke="#54545B" stroke-width="1.5" stroke-linecap="round"/>
</svg>
