<svg width="19" height="20" viewBox="0 0 19 20" fill="none" xmlns="http://www.w3.org/2000/svg">
<path d="M17.9852 5.70833C18.3994 5.70833 18.7352 5.37255 18.7352 4.95833C18.7352 4.54412 18.3994 4.20833 17.9852 4.20833V5.70833ZM11.3185 4.20833C10.9043 4.20833 10.5685 4.54412 10.5685 4.95833C10.5685 5.37255 10.9043 5.70833 11.3185 5.70833V4.20833ZM15.4019 1.625C15.4019 1.21079 15.0661 0.875 14.6519 0.875C14.2376 0.875 13.9019 1.21079 13.9019 1.625H15.4019ZM13.9019 8.29167C13.9019 8.70588 14.2376 9.04167 14.6519 9.04167C15.0661 9.04167 15.4019 8.70588 15.4019 8.29167H13.9019ZM17.9852 4.20833H14.6519V5.70833H17.9852V4.20833ZM14.6519 4.20833H11.3185V5.70833H14.6519V4.20833ZM13.9019 1.625V4.95833H15.4019V1.625H13.9019ZM13.9019 4.95833V8.29167H15.4019V4.95833H13.9019Z" fill="#AAAAAA"/>
<path d="M9.23519 2.45801C5.50324 2.45801 3.63726 2.45801 2.47789 3.61738C1.31852 4.77675 1.31852 6.64272 1.31852 10.3747C1.31852 14.1066 1.31852 15.9726 2.47789 17.132C3.63726 18.2913 5.50324 18.2913 9.23519 18.2913C12.9671 18.2913 14.8331 18.2913 15.9925 17.132C17.1519 15.9726 17.1519 14.1066 17.1519 10.3747V9.95801" stroke="#AAAAAA" stroke-width="1.5" stroke-linecap="round"/>
<path d="M1.31852 11.7379C1.83437 11.6629 2.35589 11.6259 2.87829 11.6272C5.08824 11.5805 7.24405 12.2691 8.96109 13.5702C10.5535 14.7768 11.6725 16.4374 12.1519 18.2917" stroke="#AAAAAA" stroke-width="1.5" stroke-linejoin="round"/>
<path d="M17.1519 14.0388C16.1723 13.5427 15.1592 13.291 14.1404 13.292C12.5973 13.286 11.0698 13.8531 9.65186 14.9587" stroke="#AAAAAA" stroke-width="1.5" stroke-linejoin="round"/>
</svg>
