<svg width="19" height="20" viewBox="0 0 19 20" fill="none" xmlns="http://www.w3.org/2000/svg">
<path d="M10.4852 2.45994C10.0934 2.45801 9.67741 2.45801 9.23519 2.45801C5.50324 2.45801 3.63726 2.45801 2.47789 3.61738C1.31852 4.77675 1.31852 6.64272 1.31852 10.3747C1.31852 14.1066 1.31852 15.9726 2.47789 17.132C3.63726 18.2913 5.50324 18.2913 9.23519 18.2913C12.9671 18.2913 14.8331 18.2913 15.9925 17.132C17.1079 16.0166 17.1502 14.2472 17.1518 10.7913" stroke="#AAAAAA" stroke-width="1.5" stroke-linecap="round"/>
<path d="M1.31852 11.7379C1.83437 11.6629 2.35589 11.6259 2.87828 11.6272C5.08823 11.5805 7.24405 12.2691 8.96108 13.5702C10.5535 14.7768 11.6725 16.4374 12.1519 18.2917" stroke="#AAAAAA" stroke-width="1.5" stroke-linejoin="round"/>
<path d="M17.1519 14.0388C16.1723 13.5427 15.1592 13.291 14.1404 13.292C12.5973 13.286 11.0698 13.8531 9.65186 14.9587" stroke="#AAAAAA" stroke-width="1.5" stroke-linejoin="round"/>
<path d="M13.8185 3.70833C14.2281 3.28692 15.3183 1.625 15.9019 1.625M17.9852 3.70833C17.5756 3.28692 16.4854 1.625 15.9019 1.625M15.9019 1.625V8.29167" stroke="#AAAAAA" stroke-width="1.5" stroke-linecap="round" stroke-linejoin="round"/>
</svg>
