<svg width="17" height="18" viewBox="0 0 17 18" fill="none" xmlns="http://www.w3.org/2000/svg">
<path d="M1.11987 3.95801L9.45321 3.95801" stroke="#AAAAAA" stroke-width="1.5" stroke-linecap="round"/>
<path d="M1.11987 8.95801L9.45321 8.95801" stroke="#AAAAAA" stroke-width="1.5" stroke-linecap="round"/>
<path d="M1.11987 13.958L9.45321 13.958" stroke="#AAAAAA" stroke-width="1.5" stroke-linecap="round"/>
<path d="M13.6199 11.458H14.8699C15.1022 11.458 15.2184 11.458 15.315 11.4772C15.7117 11.5561 16.0218 11.8662 16.1007 12.2629C16.1199 12.3595 16.1199 12.4757 16.1199 12.708C16.1199 12.9403 16.1199 13.0565 16.1007 13.1531C16.0218 13.5498 15.7117 13.8599 15.315 13.9388C15.2184 13.958 15.1022 13.958 14.8699 13.958C14.6375 13.958 14.5214 13.958 14.4248 13.9772C14.0281 14.0561 13.718 14.3662 13.6391 14.7629C13.6199 14.8595 13.6199 14.9757 13.6199 15.208V15.958C13.6199 16.1937 13.6199 16.3116 13.6931 16.3848C13.7663 16.458 13.8842 16.458 14.1199 16.458H16.1199" stroke="#AAAAAA" stroke-width="1.5" stroke-linecap="round" stroke-linejoin="round"/>
<path d="M13.6199 1.45801H14.6199C14.7579 1.45801 14.8699 1.56994 14.8699 1.70801V6.45801M14.8699 6.45801H13.6199M14.8699 6.45801H16.1199" stroke="#AAAAAA" stroke-width="1.5" stroke-linecap="round" stroke-linejoin="round"/>
</svg>
