<svg width="21" height="21" viewBox="0 0 21 21" fill="none" xmlns="http://www.w3.org/2000/svg">
<path d="M10.6519 20.958C5.13786 20.958 0.651855 16.472 0.651855 10.958C0.651855 5.44401 5.13786 0.958008 10.6519 0.958008C12.4832 0.958008 13.6519 2.14267 13.6519 2.95801C13.6519 3.40201 13.0162 4.01034 11.3342 5.51001C10.4185 6.32634 8.93519 7.64901 8.68719 8.17467C9.05252 8.26767 10.0752 8.27501 10.9892 8.28134C11.3069 8.28367 11.6422 8.28601 11.9899 8.29101C12.1235 8.29301 12.2435 8.37501 12.2939 8.49901C12.3442 8.62334 12.3152 8.76534 12.2205 8.86001L11.4565 9.62467L11.9815 10.1497L13.5792 8.50268C13.6442 8.43534 13.7342 8.39634 13.8285 8.40167C17.2025 8.50501 20.6519 8.88934 20.6519 10.958C20.6519 14.281 18.9762 17.3753 16.1695 19.2357C14.4682 20.3623 12.5605 20.958 10.6519 20.958ZM10.6519 1.62467C5.50519 1.62467 1.31852 5.81134 1.31852 10.958C1.31852 16.1047 5.50519 20.2913 10.6519 20.2913C12.4292 20.2913 14.2099 19.7343 15.8012 18.6803C18.4212 16.9437 19.9852 14.0567 19.9852 10.958C19.9852 9.30867 15.6132 9.12467 13.9552 9.07234L12.2245 10.8567C12.1622 10.9207 12.0772 10.9573 11.9879 10.958C11.8952 10.952 11.8129 10.9233 11.7495 10.8603L10.7495 9.86034C10.6192 9.73001 10.6192 9.51934 10.7495 9.38901L11.1885 8.94967C11.1199 8.94934 11.0519 8.94868 10.9849 8.94834C8.86352 8.93301 7.98519 8.92667 7.98519 8.29134C7.98519 7.67067 8.91552 6.77301 10.8905 5.01234C11.7399 4.25501 12.9032 3.21801 12.9885 2.92801C12.9852 2.57101 12.1675 1.62467 10.6519 1.62467Z" fill="#AAAAAA"/>
<path d="M19.319 2.29362C18.9333 1.90362 18.3526 1.84829 18.024 2.17129L10.7616 9.37695L9.34696 10.5556C9.12829 10.738 8.99496 11.0063 8.98196 11.291C8.96929 11.5756 9.07729 11.8546 9.27896 12.0563L9.55362 12.3306C9.74429 12.5213 10.004 12.6286 10.273 12.6286C10.2883 12.6286 10.3036 12.6283 10.319 12.6276C10.6036 12.6146 10.8716 12.4816 11.054 12.2626L12.2326 10.8483L14.0543 8.97029L19.4376 3.58695C19.4383 3.58629 19.439 3.58562 19.4396 3.58495C19.7623 3.25662 19.7066 2.67629 19.319 2.29362ZM10.5416 11.8363C10.478 11.9126 10.388 11.9573 10.2886 11.9616C10.1906 11.9686 10.0956 11.93 10.025 11.8593L9.75029 11.585C9.67996 11.5146 9.64363 11.421 9.64796 11.3213C9.65263 11.2216 9.69696 11.1316 9.77396 11.068L10.964 10.0746L11.5343 10.645L10.5416 11.8363ZM18.9646 3.11695L13.5793 8.50262L11.997 10.1336C11.9223 10.0563 11.84 9.97295 11.741 9.87395C11.6386 9.77129 11.5526 9.68629 11.4733 9.60995L18.4923 2.64562C18.5356 2.60429 18.701 2.61629 18.8476 2.76529C18.993 2.90862 19.006 3.07395 18.9646 3.11695Z" fill="#AAAAAA"/>
<path d="M8.98535 4.625C8.43402 4.625 7.98535 4.17633 7.98535 3.625C7.98535 3.07367 8.43402 2.625 8.98535 2.625C9.53668 2.625 9.98535 3.07367 9.98535 3.625C9.98535 4.17633 9.53668 4.625 8.98535 4.625ZM8.98535 3.29167C8.80135 3.29167 8.65202 3.44133 8.65202 3.625C8.65202 3.80867 8.80135 3.95833 8.98535 3.95833C9.16935 3.95833 9.31868 3.80867 9.31868 3.625C9.31868 3.44133 9.16935 3.29167 8.98535 3.29167Z" fill="#AAAAAA"/>
<path d="M5.98535 6.95768C5.25002 6.95768 4.65202 6.35968 4.65202 5.62435C4.65202 4.88902 5.25002 4.29102 5.98535 4.29102C6.72068 4.29102 7.31868 4.88902 7.31868 5.62435C7.31868 6.35968 6.72068 6.95768 5.98535 6.95768ZM5.98535 4.95768C5.61768 4.95768 5.31868 5.25668 5.31868 5.62435C5.31868 5.99202 5.61768 6.29102 5.98535 6.29102C6.35268 6.29102 6.65202 5.99202 6.65202 5.62435C6.65202 5.25668 6.35268 4.95768 5.98535 4.95768Z" fill="#AAAAAA"/>
<path d="M3.98535 9.95768C3.25002 9.95768 2.65202 9.35968 2.65202 8.62435C2.65202 7.88902 3.25002 7.29102 3.98535 7.29102C4.72068 7.29102 5.31868 7.88902 5.31868 8.62435C5.31868 9.35968 4.72068 9.95768 3.98535 9.95768ZM3.98535 7.95768C3.61768 7.95768 3.31868 8.25668 3.31868 8.62435C3.31868 8.99202 3.61768 9.29102 3.98535 9.29102C4.35268 9.29102 4.65202 8.99202 4.65202 8.62435C4.65202 8.25668 4.35268 7.95768 3.98535 7.95768Z" fill="#AAAAAA"/>
<path d="M7.65202 18.9583C6.73302 18.9583 5.98535 18.2107 5.98535 17.2917C5.98535 16.3727 6.73302 15.625 7.65202 15.625C8.57102 15.625 9.31868 16.3727 9.31868 17.2917C9.31868 18.2107 8.57102 18.9583 7.65202 18.9583ZM7.65202 16.2917C7.10068 16.2917 6.65202 16.7403 6.65202 17.2917C6.65202 17.843 7.10068 18.2917 7.65202 18.2917C8.20335 18.2917 8.65202 17.843 8.65202 17.2917C8.65202 16.7403 8.20335 16.2917 7.65202 16.2917Z" fill="#AAAAAA"/>
<path d="M4.31868 14.958C3.21568 14.958 2.31868 14.061 2.31868 12.958C2.31868 11.855 3.21568 10.958 4.31868 10.958C5.42168 10.958 6.31868 11.855 6.31868 12.958C6.31868 14.061 5.42168 14.958 4.31868 14.958ZM4.31868 11.6247C3.58335 11.6247 2.98535 12.2227 2.98535 12.958C2.98535 13.6933 3.58335 14.2913 4.31868 14.2913C5.05401 14.2913 5.65201 13.6933 5.65201 12.958C5.65201 12.2227 5.05401 11.6247 4.31868 11.6247Z" fill="#AAAAAA"/>
<path d="M12.652 18.958C11.549 18.958 10.652 18.061 10.652 16.958C10.652 15.855 11.549 14.958 12.652 14.958C13.755 14.958 14.652 15.855 14.652 16.958C14.652 18.061 13.755 18.958 12.652 18.958ZM12.652 15.6247C11.9167 15.6247 11.3187 16.2227 11.3187 16.958C11.3187 17.6933 11.9167 18.2913 12.652 18.2913C13.3873 18.2913 13.9853 17.6933 13.9853 16.958C13.9853 16.2227 13.3873 15.6247 12.652 15.6247Z" fill="#AAAAAA"/>
<path d="M16.652 15.6247C15.3657 15.6247 14.3187 14.578 14.3187 13.2913C14.3187 12.0047 15.3657 10.958 16.652 10.958C17.9383 10.958 18.9853 12.0047 18.9853 13.2913C18.9853 14.578 17.9383 15.6247 16.652 15.6247ZM16.652 11.6247C15.733 11.6247 14.9853 12.3723 14.9853 13.2913C14.9853 14.2103 15.733 14.958 16.652 14.958C17.571 14.958 18.3187 14.2103 18.3187 13.2913C18.3187 12.3723 17.571 11.6247 16.652 11.6247Z" fill="#AAAAAA"/>
</svg>
