<svg width="14" height="11" viewBox="0 0 14 11" fill="none" xmlns="http://www.w3.org/2000/svg">
<path d="M12.5674 4.94323C12.7447 5.19192 12.8334 5.31626 12.8334 5.50033C12.8334 5.68439 12.7447 5.80873 12.5674 6.05742C11.7705 7.17482 9.73546 9.58366 7.00008 9.58366C4.2647 9.58366 2.22964 7.17482 1.43277 6.05742C1.25542 5.80873 1.16675 5.68439 1.16675 5.50033C1.16675 5.31626 1.25542 5.19192 1.43277 4.94323C2.22964 3.82583 4.2647 1.41699 7.00008 1.41699C9.73546 1.41699 11.7705 3.82583 12.5674 4.94323Z" stroke="#AAAAAA" stroke-width="1.5"/>
<path d="M8.75 5.5C8.75 4.5335 7.9665 3.75 7 3.75C6.0335 3.75 5.25 4.5335 5.25 5.5C5.25 6.4665 6.0335 7.25 7 7.25C7.9665 7.25 8.75 6.4665 8.75 5.5Z" stroke="#AAAAAA" stroke-width="1.5"/>
</svg>
