<svg width="417" height="274" viewBox="0 0 417 274" fill="none" xmlns="http://www.w3.org/2000/svg">
<g clip-path="url(#clip0_483_4297)">
<path d="M283.217 95.5641C274.801 95.5641 267.976 88.739 267.976 80.3237C267.976 71.9083 274.801 65.0832 283.217 65.0832H316.971C325.413 65.0832 332.602 58.5166 332.907 50.0814C333.225 41.222 326.135 33.9398 317.349 33.9398H117.964C109.118 33.9398 101.948 41.1094 101.948 49.9555C101.948 58.8015 109.118 65.9712 117.964 65.9712H147.212C155.482 65.9712 162.526 72.4053 162.824 80.6682C163.135 89.3487 156.191 96.4785 147.577 96.4785H31.8557C18.0995 96.4785 6.94751 107.631 6.94751 121.387C6.94751 135.143 18.0995 146.295 31.8557 146.295H220.625L323.822 146.01H394.949C408.877 146.01 420.175 134.719 420.175 120.784C420.175 106.855 408.884 95.5575 394.949 95.5575H283.21L283.217 95.5641Z" stroke="#B6C8EF" stroke-width="0.662627" stroke-linecap="round" stroke-linejoin="round"/>
<path d="M132.217 37.2131C129.222 34.3506 127.347 30.3152 127.347 25.8425C127.347 17.1554 134.391 10.1183 143.071 10.1183C151.751 10.1183 158.795 17.162 158.795 25.8425C158.795 34.5229 151.751 41.5666 143.071 41.5666C140.255 41.5666 137.611 40.8245 135.325 39.5257L135.338 39.539L130.627 42.163L132.191 37.1999L132.204 37.2131H132.217Z" fill="white" stroke="#B6C8EF" stroke-width="0.662627" stroke-miterlimit="10"/>
<path d="M150.731 32.3031L135.636 32.1242L133.947 21.277L152.189 21.2438L150.731 32.3031Z" fill="#9FBDFD"/>
<path d="M152.189 21.2438L133.947 21.277L143.051 13.7561L152.189 21.2438Z" fill="#9FBDFD"/>
<path d="M149.156 20.1785L136.705 20.2002L136.723 30.7161L149.174 30.6944L149.156 20.1785Z" fill="white"/>
<path d="M133.947 21.277L133.966 33.1314L143.078 27.6051L133.947 21.277Z" fill="#E3F1FC"/>
<path d="M152.189 21.2438L152.209 33.1049L143.078 27.605L152.189 21.2438Z" fill="#E3F1FC"/>
<path d="M152.209 33.1048L133.967 33.1313L143.071 25.6172L152.209 33.1048Z" fill="#E3F1FC"/>
<path d="M133.967 33.1313L143.071 25.6172L152.209 33.1048" stroke="#9FBDFD" stroke-width="0.331314" stroke-linejoin="round"/>
<path d="M144.383 26.6906L152.189 21.2438" stroke="#9FBDFD" stroke-width="0.331314" stroke-linejoin="round"/>
<path d="M141.766 26.6973L133.947 21.277" stroke="#9FBDFD" stroke-width="0.331314" stroke-linejoin="round"/>
<path d="M143.078 0.331314V5.85763" stroke="#B6C8EF" stroke-width="0.662627" stroke-linecap="round" stroke-linejoin="round"/>
<path d="M117.719 25.6901H123.245" stroke="#B6C8EF" stroke-width="0.662627" stroke-linecap="round" stroke-linejoin="round"/>
<path d="M162.91 25.6901H168.436" stroke="#B6C8EF" stroke-width="0.662627" stroke-linecap="round" stroke-linejoin="round"/>
<path d="M129.05 11.6689L125.147 7.75937" stroke="#B6C8EF" stroke-width="0.662627" stroke-linecap="round" stroke-linejoin="round"/>
<path d="M157.099 11.6689L161.008 7.75937" stroke="#B6C8EF" stroke-width="0.662627" stroke-linecap="round" stroke-linejoin="round"/>
<path d="M268.314 55.6143C272.687 51.4331 275.424 45.5424 275.424 39.0155C275.424 26.3328 265.14 16.0555 252.464 16.0555C239.788 16.0555 229.504 26.3394 229.504 39.0155C229.504 51.6915 239.788 61.9755 252.464 61.9755C256.579 61.9755 260.435 60.8888 263.775 58.9937L263.755 59.0136L270.633 62.8436L268.347 55.5944L268.327 55.6143H268.314Z" fill="white" stroke="#B6C8EF" stroke-width="0.662627" stroke-miterlimit="10"/>
<path d="M252.457 1.75597V9.82677" stroke="#B6C8EF" stroke-width="0.662627" stroke-linecap="round" stroke-linejoin="round"/>
<path d="M289.485 38.7836H281.414" stroke="#B6C8EF" stroke-width="0.662627" stroke-linecap="round" stroke-linejoin="round"/>
<path d="M223.501 38.7836H215.43" stroke="#B6C8EF" stroke-width="0.662627" stroke-linecap="round" stroke-linejoin="round"/>
<path d="M272.932 18.3084L278.644 12.6032" stroke="#B6C8EF" stroke-width="0.662627" stroke-linecap="round" stroke-linejoin="round"/>
<path d="M231.982 18.3084L226.277 12.6032" stroke="#B6C8EF" stroke-width="0.662627" stroke-linecap="round" stroke-linejoin="round"/>
<path d="M241.126 34.7283C241.126 28.4731 246.196 23.3974 252.457 23.3974C258.719 23.3974 263.788 28.4665 263.788 34.7283C263.788 37.2198 262.98 39.5257 261.615 41.4009C259.998 43.8394 255.797 46.5893 255.797 48.2393V50.1211C255.797 50.4988 255.492 50.8036 255.115 50.8036H249.8C249.423 50.8036 249.118 50.4988 249.118 50.1211V48.2393C249.118 46.5893 244.917 43.8394 243.3 41.4009C241.935 39.5323 241.126 37.2264 241.126 34.7283Z" fill="#FFCD5C"/>
<path d="M253.743 50.6115C253.73 50.3265 253.524 45.7809 253.889 41.7919C253.445 41.8449 252.968 41.8714 252.457 41.8714C251.947 41.8714 251.47 41.8449 251.026 41.7919C251.39 45.7743 251.185 50.3265 251.172 50.6115H250.973C250.973 50.5319 251.185 45.8273 250.814 41.7654C247.454 41.2949 245.95 39.3932 245.679 37.5975C245.52 36.5505 245.877 35.5036 246.533 35.1126C246.931 34.8741 247.408 34.8277 247.918 34.9735C248.72 35.2054 249.482 35.8945 249.953 36.8156C250.503 37.8824 250.821 39.6582 251.006 41.5865C251.457 41.6395 251.94 41.6726 252.457 41.6726C252.974 41.6726 253.458 41.6461 253.908 41.5865C254.094 39.6582 254.419 37.889 254.962 36.8156C255.433 35.8879 256.195 35.1988 256.996 34.9735C257.507 34.8277 257.984 34.8741 258.381 35.1126C259.031 35.5036 259.388 36.5505 259.236 37.5975C258.964 39.3932 257.46 41.2949 254.101 41.7654C253.73 45.8273 253.942 50.5319 253.942 50.5982H253.743V50.6115ZM257.566 35.0927C257.407 35.0927 257.235 35.1192 257.063 35.1656C256.314 35.3777 255.598 36.0337 255.154 36.9083C254.631 37.9354 254.313 39.6649 254.127 41.56C257.348 41.0961 258.785 39.2805 259.044 37.571C259.19 36.6168 258.865 35.6295 258.288 35.2849C258.076 35.159 257.831 35.0927 257.573 35.0927H257.566ZM247.355 35.0927C247.097 35.0927 246.851 35.159 246.639 35.2849C246.063 35.6295 245.738 36.6102 245.884 37.571C246.142 39.2872 247.58 41.0961 250.801 41.56C250.615 39.6715 250.304 37.9354 249.774 36.9083C249.323 36.0337 248.607 35.3777 247.865 35.1656C247.693 35.1126 247.521 35.0927 247.362 35.0927H247.355Z" fill="white"/>
<path d="M261.9 35.3777C261.542 35.3777 261.25 35.0861 261.25 34.7283C261.25 30.6995 258.527 27.1942 254.624 26.2069C254.273 26.1208 254.067 25.7629 254.154 25.4184C254.24 25.0672 254.598 24.8618 254.942 24.9479C259.422 26.081 262.549 30.1032 262.549 34.7349C262.549 35.0927 262.258 35.3843 261.9 35.3843V35.3777Z" fill="#FFEE99"/>
<path d="M252.239 25.266C252.239 25.6238 252.53 25.9153 252.888 25.9153C253.246 25.9153 253.538 25.6238 253.538 25.266C253.538 24.9082 253.246 24.6166 252.888 24.6166C252.53 24.6166 252.239 24.9082 252.239 25.266Z" fill="#FFEE99"/>
<g style="mix-blend-mode:multiply" opacity="0.55">
<path d="M263.762 35.3975C263.139 40.0426 259.389 44.8532 252.457 44.8532C245.526 44.8532 241.915 39.8173 241.153 35.3975C241.286 37.6306 242.061 39.698 243.307 41.4009C244.923 43.8394 249.124 46.5893 249.124 48.2393V50.1211C249.124 50.4988 249.429 50.8036 249.807 50.8036H255.121C255.499 50.8036 255.804 50.4988 255.804 50.1211V48.2393C255.804 46.5893 260.005 43.8394 261.622 41.4009C262.861 39.698 263.643 37.6372 263.775 35.3975H263.762Z" fill="#FFCD5C"/>
</g>
<path d="M256.062 49.041H248.853V52.4801C248.853 53.0433 249.012 53.5933 249.31 54.0637C249.88 54.9583 250.867 55.5017 251.927 55.5017H252.988C254.048 55.5017 255.035 54.9583 255.605 54.0637C255.903 53.5867 256.062 53.0433 256.062 52.4801V49.041Z" fill="#28364C"/>
<path d="M256.062 51.3536C256.062 51.3536 256.022 51.3536 256.003 51.3536L248.793 50.353C248.548 50.3199 248.376 50.0946 248.409 49.8428C248.442 49.591 248.674 49.4254 248.919 49.4585L256.128 50.4591C256.374 50.4922 256.546 50.7175 256.513 50.9693C256.48 51.1946 256.288 51.3602 256.069 51.3602L256.062 51.3536Z" fill="#475577"/>
<path d="M256.062 52.924C256.062 52.924 256.022 52.924 256.003 52.924L248.793 51.9235C248.548 51.8903 248.376 51.665 248.409 51.4132C248.442 51.1681 248.674 50.9958 248.919 51.0289L256.128 52.0295C256.374 52.0626 256.546 52.2879 256.513 52.5397C256.48 52.765 256.288 52.9307 256.069 52.9307L256.062 52.924Z" fill="#475577"/>
<path d="M255.777 54.4746C255.777 54.4746 255.737 54.4746 255.717 54.4746L248.886 53.527C248.641 53.4939 248.468 53.2686 248.501 53.0168C248.535 52.7716 248.766 52.5994 249.012 52.6325L255.843 53.58C256.088 53.6132 256.261 53.8385 256.228 54.0903C256.194 54.3156 256.002 54.4812 255.784 54.4812L255.777 54.4746Z" fill="#475577"/>
<path d="M340.368 80.3038C340.368 81.5032 339.394 82.4706 338.201 82.4706C337.009 82.4706 336.035 81.4965 336.035 80.3038C336.035 79.1111 337.009 78.137 338.201 78.137C339.394 78.137 340.368 79.1111 340.368 80.3038Z" stroke="#B6C8EF" stroke-width="0.662627" stroke-linecap="round" stroke-linejoin="round"/>
<path d="M191.801 9.71412C191.801 10.9135 190.827 11.8809 189.634 11.8809C188.441 11.8809 187.467 10.9069 187.467 9.71412C187.467 8.52139 188.441 7.54733 189.634 7.54733C190.827 7.54733 191.801 8.52139 191.801 9.71412Z" stroke="#B6C8EF" stroke-width="0.662627" stroke-linecap="round" stroke-linejoin="round"/>
<path d="M215.735 58.3708C215.735 59.5702 214.761 60.5376 213.568 60.5376C212.375 60.5376 211.401 59.5636 211.401 58.3708C211.401 57.1781 212.375 56.2041 213.568 56.2041C214.761 56.2041 215.735 57.1781 215.735 58.3708Z" stroke="#B6C8EF" stroke-width="0.662627" stroke-linecap="round" stroke-linejoin="round"/>
<path d="M404.676 43.9918C404.676 45.1912 403.702 46.1586 402.509 46.1586C401.317 46.1586 400.343 45.1846 400.343 43.9918C400.343 42.7991 401.317 41.825 402.509 41.825C403.702 41.825 404.676 42.7991 404.676 43.9918Z" stroke="#B6C8EF" stroke-width="0.662627" stroke-linecap="round" stroke-linejoin="round"/>
<path d="M39.2769 81.1983C39.2769 82.3977 38.3029 83.3651 37.1102 83.3651C35.9174 83.3651 34.9434 82.3911 34.9434 81.1983C34.9434 80.0056 35.9174 79.0316 37.1102 79.0316C38.3029 79.0316 39.2769 80.0056 39.2769 81.1983Z" stroke="#B6C8EF" stroke-width="0.662627" stroke-linecap="round" stroke-linejoin="round"/>
<path d="M3.81329 91.1709L-1.58713 92.6154C-2.04434 92.7347 -2.13711 93.4371 -1.75278 93.8081L2.13684 97.5586C2.4549 97.87 2.91211 97.7441 3.03801 97.3201L4.54217 92.1317C4.69458 91.6148 4.26387 91.0582 3.80666 91.1775L3.81329 91.1709Z" stroke="#B6C8EF" stroke-width="0.662627" stroke-linecap="round" stroke-linejoin="round"/>
<path d="M408.506 113.78L403.974 110.506C403.589 110.228 402.993 110.599 402.946 111.136L402.503 116.523C402.469 116.967 402.847 117.245 403.258 117.066L408.228 114.952C408.725 114.74 408.884 114.058 408.499 113.78H408.506Z" stroke="#B6C8EF" stroke-width="0.662627" stroke-linecap="round" stroke-linejoin="round"/>
<path d="M19.8025 125.8H39.0054" stroke="#B6C8EF" stroke-width="0.662627" stroke-linecap="round" stroke-linejoin="round"/>
<path d="M238.463 77.6268H255.333" stroke="#B6C8EF" stroke-width="0.662627" stroke-linecap="round" stroke-linejoin="round"/>
<path d="M360.346 104.225H372.247" stroke="#B6C8EF" stroke-width="0.662627" stroke-linecap="round" stroke-linejoin="round"/>
<path d="M375.103 104.225H381.06" stroke="#B6C8EF" stroke-width="0.662627" stroke-linecap="round" stroke-linejoin="round"/>
<path d="M159.941 58.3708H171.398" stroke="#B6C8EF" stroke-width="0.662627" stroke-linecap="round" stroke-linejoin="round"/>
<path d="M169.092 63.705H178.078" stroke="#B6C8EF" stroke-width="0.662627" stroke-linecap="round" stroke-linejoin="round"/>
<path d="M73.2102 41.8515H82.487" stroke="#B6C8EF" stroke-width="0.662627" stroke-linecap="round" stroke-linejoin="round"/>
<path d="M80.552 38.5185H86.4825" stroke="#B6C8EF" stroke-width="0.662627" stroke-linecap="round" stroke-linejoin="round"/>
<path d="M32.4651 130.326H41.7419" stroke="#B6C8EF" stroke-width="0.662627" stroke-linecap="round" stroke-linejoin="round"/>
<path d="M57.8105 48.9019V52.6921" stroke="#B6C8EF" stroke-width="0.662627" stroke-linecap="round" stroke-linejoin="round"/>
<path d="M59.7124 50.797H55.9155" stroke="#B6C8EF" stroke-width="0.662627" stroke-linecap="round" stroke-linejoin="round"/>
<path d="M59.7124 50.797H55.9155" stroke="#B6C8EF" stroke-width="0.662627" stroke-linecap="round" stroke-linejoin="round"/>
<path d="M230.418 92.5425V96.3394" stroke="#B6C8EF" stroke-width="0.662627" stroke-linecap="round" stroke-linejoin="round"/>
<path d="M232.32 94.4377H228.523" stroke="#B6C8EF" stroke-width="0.662627" stroke-linecap="round" stroke-linejoin="round"/>
<path d="M232.32 94.4377H228.523" stroke="#B6C8EF" stroke-width="0.662627" stroke-linecap="round" stroke-linejoin="round"/>
<path d="M317.169 8.22321V12.0201" stroke="#B6C8EF" stroke-width="0.662627" stroke-linecap="round" stroke-linejoin="round"/>
<path d="M319.065 10.1183H315.274" stroke="#B6C8EF" stroke-width="0.662627" stroke-linecap="round" stroke-linejoin="round"/>
<path d="M319.065 10.1183H315.274" stroke="#B6C8EF" stroke-width="0.662627" stroke-linecap="round" stroke-linejoin="round"/>
<path d="M389.972 85.9891V89.7794" stroke="#B6C8EF" stroke-width="0.662627" stroke-linecap="round" stroke-linejoin="round"/>
<path d="M391.868 87.8842H388.077" stroke="#B6C8EF" stroke-width="0.662627" stroke-linecap="round" stroke-linejoin="round"/>
<path d="M391.868 87.8842H388.077" stroke="#B6C8EF" stroke-width="0.662627" stroke-linecap="round" stroke-linejoin="round"/>
<path d="M100 23.7618C100 23.7618 99.9207 23.7618 99.9075 23.7618H58.6192C52.1255 23.7618 50.1177 23.5564 43.6306 23.7419C43.5577 19.7397 44.6709 15.9693 46.5859 13.9549C48.1563 12.2984 50.8598 11.3906 53.073 11.9737C55.8693 12.7158 57.7644 14.5844 59.58 15.9759C60.2228 10.4629 62.4956 5.4468 64.9473 4.34684C69.1616 2.45835 73.5614 5.45343 75.5361 8.35574C77.1661 10.7478 78.0541 13.5971 78.3854 16.4729C81.0292 13.5507 86.9465 11.3177 89.0735 15.9561C89.9085 17.7783 89.8422 19.8656 89.7561 21.8667C93.2216 20.9324 97.0913 21.6613 100 23.7684V23.7618Z" fill="#E3F1FC"/>
<path d="M334.239 70.9409C335.166 67.1705 343.933 61.6641 348.618 64.9838C348.836 60.4979 350.93 55.6408 356.099 52.8379C362.447 49.3989 368.536 56.2372 369.895 60.5575C371.154 56.5751 377.555 51.2078 382.697 55.7336C387.454 59.9214 387.931 66.9386 387.434 70.9342H334.239V70.9409Z" fill="#E3F1FC"/>
<path d="M312.299 198.371L324.147 120.658C324.438 118.769 326.062 117.371 327.977 117.371H380.271L366.939 203.201C366.038 209.019 361.188 213.114 355.198 213.114H276.617C274.443 213.114 272.687 211.352 272.687 209.185C272.687 207.011 274.45 205.255 276.617 205.255H304.175C308.323 205.255 311.683 202.413 312.299 198.377V198.371Z" fill="#C7D2EF"/>
<path d="M364.945 198.371L376.839 120.366C377.104 118.61 378.568 117.371 380.377 117.371H380.483C383.015 117.371 385.089 119.743 384.704 122.202L372.121 203.201C371.22 209.019 366.369 213.114 360.379 213.114H303.387C301.213 213.114 299.457 211.352 299.457 209.185C299.457 207.011 301.22 205.255 303.387 205.255H356.814C360.962 205.255 364.322 202.413 364.938 198.377L364.945 198.371Z" fill="#E3EDFF"/>
<path d="M327.294 213.114V260.638" stroke="#114093" stroke-width="0.662627" stroke-miterlimit="10"/>
<path d="M352.076 264.547C352.076 262.387 350.327 260.644 348.174 260.644H306.415C304.255 260.644 302.512 262.394 302.512 264.547" stroke="#114093" stroke-width="0.662627" stroke-miterlimit="10"/>
<path d="M331.568 264.547C331.568 262.387 329.819 260.644 327.665 260.644" stroke="#114093" stroke-width="0.662627" stroke-miterlimit="10"/>
<path d="M348.134 268.49C348.134 270.67 349.896 272.433 352.076 272.433C354.256 272.433 356.019 270.67 356.019 268.49C356.019 266.31 354.256 264.547 352.076 264.547C349.896 264.547 348.134 266.31 348.134 268.49Z" fill="#E3EDFF"/>
<g opacity="0.45">
<path d="M350.632 268.49C350.632 269.292 351.281 269.941 352.083 269.941C352.885 269.941 353.534 269.292 353.534 268.49C353.534 267.688 352.885 267.039 352.083 267.039C351.281 267.039 350.632 267.688 350.632 268.49Z" fill="#B7C2CE"/>
</g>
<path d="M327.619 268.49C327.619 270.67 329.381 272.433 331.562 272.433C333.742 272.433 335.504 270.67 335.504 268.49C335.504 266.31 333.742 264.547 331.562 264.547C329.381 264.547 327.619 266.31 327.619 268.49Z" fill="#E3EDFF"/>
<g opacity="0.45">
<path d="M330.117 268.49C330.117 269.292 330.766 269.941 331.568 269.941C332.37 269.941 333.019 269.292 333.019 268.49C333.019 267.688 332.37 267.039 331.568 267.039C330.766 267.039 330.117 267.688 330.117 268.49Z" fill="#B7C2CE"/>
</g>
<path d="M298.563 268.49C298.563 270.67 300.325 272.433 302.505 272.433C304.685 272.433 306.448 270.67 306.448 268.49C306.448 266.31 304.685 264.547 302.505 264.547C300.325 264.547 298.563 266.31 298.563 268.49Z" fill="#E3EDFF"/>
<g opacity="0.45">
<path d="M301.061 268.49C301.061 269.292 301.71 269.941 302.512 269.941C303.314 269.941 303.963 269.292 303.963 268.49C303.963 267.688 303.314 267.039 302.512 267.039C301.71 267.039 301.061 267.688 301.061 268.49Z" fill="#B7C2CE"/>
</g>
<path d="M199.195 198.371L187.348 120.658C187.056 118.769 185.433 117.371 183.518 117.371H131.223L144.555 203.201C145.456 209.019 150.307 213.114 156.297 213.114H234.878C237.051 213.114 238.807 211.352 238.807 209.185C238.807 207.011 237.045 205.255 234.878 205.255H207.319C203.171 205.255 199.812 202.413 199.195 198.377V198.371Z" fill="#C7D2EF"/>
<path d="M146.556 198.371L134.662 120.366C134.397 118.61 132.933 117.371 131.124 117.371H131.018C128.487 117.371 126.412 119.743 126.797 122.202L139.38 203.201C140.281 209.019 145.132 213.114 151.122 213.114H208.114C210.288 213.114 212.044 211.352 212.044 209.185C212.044 207.011 210.281 205.255 208.114 205.255H154.687C150.539 205.255 147.179 202.413 146.563 198.377L146.556 198.371Z" fill="#E3EDFF"/>
<path d="M184.207 213.114V260.638" stroke="#114093" stroke-width="0.662627" stroke-miterlimit="10"/>
<path d="M159.418 264.547C159.418 262.387 161.167 260.644 163.321 260.644H205.08C207.24 260.644 208.982 262.394 208.982 264.547" stroke="#114093" stroke-width="0.662627" stroke-miterlimit="10"/>
<path d="M179.933 264.547C179.933 262.387 181.682 260.644 183.836 260.644" stroke="#114093" stroke-width="0.662627" stroke-miterlimit="10"/>
<path d="M163.367 268.49C163.367 270.67 161.605 272.433 159.425 272.433C157.245 272.433 155.482 270.67 155.482 268.49C155.482 266.31 157.245 264.547 159.425 264.547C161.605 264.547 163.367 266.31 163.367 268.49Z" fill="#E3EDFF"/>
<g opacity="0.45">
<path d="M160.869 268.49C160.869 269.292 160.22 269.941 159.418 269.941C158.616 269.941 157.967 269.292 157.967 268.49C157.967 267.688 158.616 267.039 159.418 267.039C160.22 267.039 160.869 267.688 160.869 268.49Z" fill="#B7C2CE"/>
</g>
<path d="M183.875 268.49C183.875 270.67 182.113 272.433 179.933 272.433C177.753 272.433 175.99 270.67 175.99 268.49C175.99 266.31 177.753 264.547 179.933 264.547C182.113 264.547 183.875 266.31 183.875 268.49Z" fill="#E3EDFF"/>
<g opacity="0.45">
<path d="M181.384 268.49C181.384 269.292 180.735 269.941 179.933 269.941C179.131 269.941 178.482 269.292 178.482 268.49C178.482 267.688 179.131 267.039 179.933 267.039C180.735 267.039 181.384 267.688 181.384 268.49Z" fill="#B7C2CE"/>
</g>
<path d="M212.932 268.49C212.932 270.67 211.169 272.433 208.989 272.433C206.809 272.433 205.047 270.67 205.047 268.49C205.047 266.31 206.809 264.547 208.989 264.547C211.169 264.547 212.932 266.31 212.932 268.49Z" fill="#E3EDFF"/>
<g opacity="0.45">
<path d="M210.44 268.49C210.44 269.292 209.791 269.941 208.989 269.941C208.187 269.941 207.538 269.292 207.538 268.49C207.538 267.688 208.187 267.039 208.989 267.039C209.791 267.039 210.44 267.688 210.44 268.49Z" fill="#B7C2CE"/>
</g>
<path d="M225.157 240.858L226.973 262.811L226.781 270.014L255.015 269.868C255.704 269.868 256.261 269.305 256.254 268.616C256.254 268.099 255.93 267.635 255.446 267.456L243.267 261.857L242.564 238.977" fill="#F9A895"/>
<path d="M257.487 269.563C257.195 268.662 256.665 267.642 256.135 267.416L243.227 261.857C236.11 264.739 226.9 262.54 226.9 262.54L225.257 272.26C225.257 272.585 225.522 272.843 225.84 272.837H257.275C257.904 272.837 257.5 269.597 257.493 269.57L257.487 269.563Z" fill="#FF8D27"/>
<path d="M246.017 262.414C245.295 263.355 244.678 264.382 244.195 265.468" stroke="#DD5E17" stroke-width="0.49697" stroke-miterlimit="10"/>
<path d="M247.647 263.381C246.898 264.421 246.6 265.018 246.149 265.979" stroke="#DD5E17" stroke-width="0.49697" stroke-miterlimit="10"/>
<path d="M249.019 264.097C248.508 264.779 248.011 265.727 247.614 266.482" stroke="#DD5E17" stroke-width="0.49697" stroke-miterlimit="10"/>
<path d="M225.422 270.736L257.619 270.571" stroke="#DD5E17" stroke-width="0.49697" stroke-miterlimit="10"/>
<path d="M226.317 265.985C226.317 265.985 233.884 266.138 234.533 270.696" stroke="#DD5E17" stroke-width="0.49697" stroke-miterlimit="10"/>
<path d="M253.491 266.277C253.491 266.277 251.404 269.239 250.993 270.61" stroke="#DD5E17" stroke-width="0.49697" stroke-miterlimit="10"/>
<path d="M211.772 240.858L212.156 262.811L211.964 270.014L240.199 269.868C240.888 269.868 241.444 269.305 241.438 268.616C241.438 268.099 241.113 267.635 240.629 267.456L228.45 261.857L229.179 238.977" fill="#FFCBBB"/>
<path d="M242.677 269.563C242.385 268.662 241.855 267.642 241.325 267.416L228.417 261.857C221.301 264.739 212.09 262.54 212.09 262.54L210.447 272.26C210.447 272.585 210.712 272.843 211.03 272.837H242.465C243.094 272.837 242.69 269.597 242.684 269.57L242.677 269.563Z" fill="#FFB548"/>
<path d="M231.207 262.414C230.485 263.355 229.868 264.382 229.385 265.468" stroke="#ED841B" stroke-width="0.49697" stroke-miterlimit="10"/>
<path d="M232.83 263.381C232.082 264.421 231.783 265.018 231.333 265.979" stroke="#ED841B" stroke-width="0.49697" stroke-miterlimit="10"/>
<path d="M234.209 264.097C233.698 264.779 233.202 265.727 232.804 266.482" stroke="#ED841B" stroke-width="0.49697" stroke-miterlimit="10"/>
<path d="M210.606 270.736L242.81 270.571" stroke="#ED841B" stroke-width="0.49697" stroke-miterlimit="10"/>
<path d="M211.5 265.985C211.5 265.985 219.068 266.138 219.717 270.696" stroke="#ED841B" stroke-width="0.49697" stroke-miterlimit="10"/>
<path d="M238.675 266.277C238.675 266.277 236.587 269.239 236.177 270.61" stroke="#ED841B" stroke-width="0.49697" stroke-miterlimit="10"/>
<path d="M167.893 171.885C167.893 171.885 162.857 191.3 169.795 200.902C172.849 205.13 178.084 205.249 183.133 205.249H212.938C215.443 205.249 217.537 207.17 217.749 209.662L221.778 256.735H245.964C245.964 256.735 243.545 216.215 242.896 208.171C242.372 201.664 241.186 192.864 238.642 187.172C235.222 179.532 228.828 175.623 222.334 175.623H211.143C210.573 175.623 210.109 175.159 210.109 174.589V172.157" fill="#1A53E2"/>
<path d="M222.083 251.725H245.646" stroke="#2A36C6" stroke-width="0.49697" stroke-miterlimit="10"/>
<path d="M153.58 171.885C153.58 171.885 148.544 191.3 155.482 200.902C158.537 205.13 163.771 205.249 168.821 205.249H198.626C201.13 205.249 203.224 207.17 203.436 209.662L207.465 256.735H231.651C231.651 256.735 229.034 216.229 228.583 208.171C228.126 200.107 227.456 192.566 224.329 187.172C219.432 178.744 210.864 175.755 201.442 175.755H183.637V171.051" fill="#4868EF"/>
<path d="M157.973 173.403C157.973 173.403 154.852 190.969 159.736 196.708C162.373 199.809 167.237 199.961 170.921 199.961H203.284C205.689 199.961 207.69 201.81 207.882 204.208L212.037 256.742" stroke="#1D2EA8" stroke-width="0.49697" stroke-miterlimit="10"/>
<path d="M207.028 251.725H231.32" stroke="#1D2EA8" stroke-width="0.49697" stroke-miterlimit="10"/>
<path d="M169.39 174.476C166.998 179.956 157.225 179.532 157.225 179.532" stroke="#1D2EA8" stroke-width="0.49697" stroke-miterlimit="10"/>
<path d="M176.852 93.828C176.832 93.5099 176.441 93.3377 176.129 93.384C175.679 93.4437 175.301 93.7882 175.102 94.1924C174.897 94.5966 174.844 95.0605 174.831 95.5111C174.817 95.9352 174.844 96.3725 175.036 96.7436C175.381 97.4062 176.282 97.7176 176.964 97.4128" fill="#F9BBAF"/>
<path d="M177.355 88.368C177.355 88.368 174.731 98.3736 176.176 100.428C178.336 103.502 183.471 103.741 185.638 102.316C187.454 101.124 188.945 94.7491 188.945 93.0925C188.945 88.5999 179.721 86.0024 177.362 88.3613L177.355 88.368Z" fill="#FFCBBB"/>
<path d="M177.289 92.0058C177.249 92.0986 177.216 92.1913 177.183 92.2907C177.15 92.3901 177.117 92.4829 177.09 92.5756C177.071 92.6419 177.084 92.7148 177.117 92.7744C177.15 92.8274 177.21 92.8805 177.276 92.8937C177.422 92.9268 177.554 92.8473 177.601 92.7082C177.634 92.6154 177.654 92.516 177.674 92.4166C177.693 92.3172 177.72 92.2178 177.733 92.1184C177.746 92.0588 177.74 91.9992 177.713 91.9461C177.687 91.8998 177.634 91.8534 177.574 91.8401C177.514 91.8269 177.448 91.8269 177.402 91.86L177.355 91.8931C177.355 91.8931 177.309 91.9528 177.296 91.9925L177.289 92.0058Z" fill="#00276F"/>
<path d="M178.349 90.9853C178.349 90.9853 177.673 90.051 176.673 90.7667" stroke="#00276F" stroke-width="0.331314" stroke-linecap="round" stroke-linejoin="round"/>
<path d="M182.61 93.2316C182.577 93.3244 182.544 93.4238 182.517 93.5166C182.491 93.6093 182.457 93.7087 182.438 93.8081C182.424 93.881 182.424 93.9473 182.464 94.0069C182.497 94.0599 182.557 94.1129 182.623 94.1262C182.689 94.1394 182.762 94.1394 182.822 94.0997C182.882 94.0599 182.921 94.0135 182.941 93.9406C182.968 93.8413 182.981 93.7419 183.001 93.6358C183.021 93.5166 183.041 93.3973 183.054 93.278C183.054 93.225 183.027 93.1521 182.988 93.119C182.948 93.0859 182.908 93.066 182.855 93.0594C182.736 93.0461 182.643 93.1124 182.603 93.225L182.61 93.2316Z" fill="#00276F"/>
<path d="M182.378 91.4757C182.378 91.4757 183.478 91.1112 184.598 92.4232" stroke="#00276F" stroke-width="0.331314" stroke-linecap="round" stroke-linejoin="round"/>
<path d="M178.965 101.607L178.077 109.174C178.077 109.174 178.462 112.488 183.425 112.488C188.388 112.488 191.946 108.943 191.946 108.943L190.217 95.9683" fill="#FFCBBB"/>
<path d="M179.25 102.866C179.25 102.866 182.696 103.542 185.068 102.27C186.937 101.263 187.613 98.9369 187.613 98.9369" stroke="#F7A794" stroke-width="0.662627" stroke-miterlimit="10"/>
<path d="M180.118 92.5955C180.118 92.5955 178.462 94.9081 178.627 95.4448C178.853 96.1671 180.118 95.9815 180.118 95.9815" stroke="#F7A794" stroke-width="0.331314" stroke-linejoin="round"/>
<path d="M185.459 95.4316C185.015 96.2201 183.902 96.7833 182.683 96.9158C180.456 97.161 177.958 96.187 175.738 96.4255C175.241 96.4785 175.208 98.7712 175.221 99.5001C175.228 100.368 175.414 101.289 175.858 102.038C176.288 102.767 177.09 103.198 177.885 103.476C179.575 104.052 181.397 104.072 183.14 103.774C183.995 103.628 184.73 103.542 185.472 103.092C186.221 102.634 186.904 102.137 187.473 101.461C188.116 100.699 188.62 99.7718 189.461 99.2085C190.449 98.5459 191.509 98.5923 192.065 97.3532C192.403 96.5978 192.443 95.7496 192.483 94.928C192.556 93.3045 192.536 91.6745 192.443 90.0378C192.205 86.0355 188.951 84.2199 185.671 83.8223C184.193 83.6434 182.046 83.5904 180.562 83.5374C179.363 83.4977 177.713 83.0073 176.613 83.6103C174.691 84.6639 175.354 88.0035 177.295 88.6198C179.422 89.289 182.722 88.5535 184.936 88.8318C186.479 89.024 186.473 91.2504 186.506 91.5154C186.691 92.9931 186.128 94.2587 185.466 95.4316H185.459Z" fill="#011E3B"/>
<path d="M180.635 98.579L177.296 98.1815C177.296 98.1815 176.746 100.587 178.76 100.746C180.622 100.898 180.635 98.579 180.635 98.579Z" fill="white"/>
<path d="M189.07 94.325C189.448 94.4708 189.74 94.7954 189.932 95.1665C190.833 96.9291 188.732 99.2947 186.864 98.4863C186.175 98.1881 186.433 96.3592 187.785 94.5967C188.083 94.2057 188.693 94.1792 189.07 94.3184V94.325Z" fill="#FFCBBB"/>
<path d="M217.53 131.313C217.53 131.313 220.307 145.838 222.354 150.728C224.402 155.618 235.607 155.154 235.607 155.154L232.042 164.941C232.042 164.941 213.395 166.724 209.433 160.17C203.794 150.834 204.066 134.182 204.066 134.182" fill="#FFCBBB"/>
<path d="M227.9 155.36C227.9 155.36 241.789 154.816 242.101 155.439C242.412 156.062 239.735 156.108 240.093 156.579C240.444 157.043 246.606 156.771 246.759 157.48C246.958 158.441 241.378 158.547 241.378 158.547C241.378 158.547 247.494 158.739 247.428 159.62C247.382 160.243 242.704 160.316 240.921 160.568C242.889 160.541 246.083 160.879 246.017 161.529C245.957 162.171 242.77 162.284 240.338 162.503C241.869 162.503 244.658 162.668 244.625 163.271C244.592 163.868 233.586 164.722 226.29 165.213" fill="#FFCBBB"/>
<path d="M191.814 106.948C213.806 110.818 219.127 133.725 219.127 133.725L203.483 138.84L194.769 116.543" fill="#FFB548"/>
<path d="M192.834 106.948C192.834 106.948 205.298 111.348 208.393 125.707C211.487 140.066 211.646 158.116 210.063 173.873C184.518 177.014 152.513 174.715 152.513 174.715C152.513 174.715 150.645 134.865 159.358 122.613C168.072 110.361 177.123 107.505 177.123 107.505L185.36 110.619L192.834 106.948Z" fill="#FFB548"/>
<path d="M176.182 164.014H204.834V165.617H174.579C174.579 164.729 175.294 164.014 176.182 164.014Z" fill="#91A9D8"/>
<path d="M239.755 165.617H199.5L207.2 140.881C207.597 139.616 208.77 138.748 210.095 138.748H246.494C247.302 138.748 247.878 139.529 247.64 140.305L239.761 165.617H239.755Z" fill="#91A9D8"/>
<path d="M241.564 165.617H201.309L209.009 140.881C209.406 139.616 210.579 138.748 211.905 138.748H248.303C249.111 138.748 249.687 139.529 249.449 140.305L241.57 165.617H241.564Z" fill="#C7D2EF"/>
<path d="M229.683 152.583C229.444 153.736 228.046 154.67 226.555 154.67C225.064 154.67 224.05 153.736 224.282 152.583C224.521 151.43 225.919 150.496 227.41 150.496C228.901 150.496 229.915 151.43 229.683 152.583Z" fill="#91A9D8"/>
<path d="M168.688 136.428C168.688 136.428 163.447 148.554 164.315 150.695C165.183 152.835 187.619 154.359 187.619 154.359L186.91 165.418C186.91 165.418 161.797 165.617 150.93 165.617C137.134 165.617 149.922 132.287 149.922 132.287" fill="#FFCBBB"/>
<path d="M180.589 153.809C180.589 153.809 197.254 154.71 197.559 155.492C197.863 156.274 194.656 156.029 195.027 156.625C195.398 157.222 202.8 157.586 202.893 158.447C203.025 159.62 196.339 159.117 196.339 159.117C196.339 159.117 203.635 160.031 203.456 161.078C203.33 161.82 197.731 161.376 195.571 161.482C197.923 161.674 201.707 162.43 201.561 163.198C201.415 163.96 197.598 163.742 194.663 163.729C196.492 163.907 199.805 164.411 199.706 165.127C199.599 165.842 186.34 165.63 177.567 165.392" fill="#FFCBBB"/>
<path d="M177.56 107.929C153.626 106.471 147.736 134.58 147.736 134.58L169.45 138.847L173.048 124.216" fill="#FFB548"/>
<path d="M178.482 105.742C181.198 108.459 185.36 110.619 185.36 110.619C185.333 110.692 183.995 113.296 182.57 115.754C182.57 115.754 177.103 111.427 175.122 107.882C175.122 107.882 177.686 106.087 178.482 105.742Z" fill="white"/>
<path d="M185.36 110.619L188.64 115.317C188.64 115.317 191.655 113.627 193.901 107.293C193.901 107.293 192.682 105.649 191.416 104.947C189.925 106.928 185.353 110.626 185.353 110.626L185.36 110.619Z" fill="white"/>
<path d="M168.814 138.714L173.028 127.635" stroke="#E2690E" stroke-width="0.662627" stroke-miterlimit="10"/>
<path d="M210.42 136.508C209.261 128.483 206.047 121.426 206.047 121.426" stroke="#E2690E" stroke-width="0.662627" stroke-miterlimit="10"/>
<path d="M291.937 170.494V273.069" stroke="#114093" stroke-width="0.662627" stroke-miterlimit="10"/>
<path d="M126.744 170.494V273.069" stroke="#114093" stroke-width="0.662627" stroke-miterlimit="10"/>
<g opacity="0.55">
<path d="M251.258 155.134C251.258 155.134 251.655 155.061 251.815 154.836C252.146 154.372 251.596 153.882 251.238 153.65C250.774 153.358 250.145 153.252 249.919 152.689C249.668 152.046 250.105 151.344 250.628 150.993C251.072 150.701 251.596 150.549 252.093 150.363C252.649 150.158 253.213 149.82 253.537 149.297C253.942 148.647 253.862 147.812 253.915 147.077C254.12 144.208 257.056 142.79 259.527 142.73C260.76 142.703 262.648 143.141 263.47 144.102C263.742 144.426 263.954 144.804 264.033 145.221C264.153 145.871 263.907 146.467 263.483 146.951C263.059 147.435 262.476 147.719 262.012 148.157C261.535 148.607 261.873 149.084 261.767 149.621C261.648 150.218 261.244 150.476 260.727 150.761C259.634 151.371 258.341 151.523 257.149 151.854C256.778 151.96 256.4 152.086 256.102 152.325C255.711 152.636 255.492 153.107 255.194 153.511C254.657 154.246 253.842 154.77 252.948 154.949" fill="url(#paint0_linear_483_4297)"/>
</g>
<path d="M258.123 162.35H255.784V161.23H258.123C258.878 161.23 259.494 160.614 259.494 159.859V157.931C259.494 157.175 258.878 156.566 258.123 156.566H255.784V155.446H258.123C259.494 155.446 260.608 156.559 260.608 157.931V159.859C260.608 161.23 259.494 162.344 258.123 162.344V162.35Z" fill="#E8EAEF"/>
<path d="M248.091 153.869H257.54V161.23C257.54 163.47 255.724 165.286 253.485 165.286H252.146C249.906 165.286 248.091 163.47 248.091 161.23V153.869Z" fill="#E8EAEF"/>
<path d="M246.56 163.695C246.56 163.695 246.653 165.915 250.105 165.915H255.525C258.978 165.915 259.07 163.695 259.07 163.695H246.56Z" fill="#CFDAE5"/>
<path d="M297.536 165.617H119.408V171.534H297.536V165.617Z" fill="#F0F6FF"/>
<path d="M264.928 165.597L262.98 165.61L254.359 139.847C254.16 139.357 254.511 138.827 255.042 138.82C255.552 138.82 256.016 139.125 256.208 139.596L264.928 165.591V165.597Z" fill="#7D97D3"/>
<path d="M295.939 164.014H263.941V165.617H297.542C297.542 164.729 296.827 164.014 295.939 164.014Z" fill="#7D97D3"/>
<path d="M93.8642 75.2413L94.6262 82.8615C94.6262 82.8615 94.0166 85.0151 89.8022 85.4855C84.6934 86.0488 82.4802 82.1591 82.4802 82.1591L83.5139 75.0823" fill="#F49C84"/>
<path d="M96.7201 65.8121C96.7201 65.8121 99.7285 75.3606 95.4611 77.872C91.5914 80.1514 85.1175 76.5997 84.7398 75.3937C84.3621 74.1878 82.6459 63.9038 85.1109 63.1351C89.4909 61.7635 95.4413 61.7039 96.7201 65.8121Z" fill="#F49C84"/>
<path d="M94.1425 78.8394C94.1425 78.8394 90.0873 79.893 87.0657 77.2226" stroke="#C45F47" stroke-width="0.49697" stroke-miterlimit="10"/>
<path d="M99.5032 60.372C98.9996 59.5106 98.1382 58.8479 97.1508 58.6491C96.2099 58.4636 95.1563 58.6359 94.3413 58.1257C94.1293 57.9931 93.9503 57.8209 93.7383 57.6817C93.0624 57.2377 92.1811 57.1914 91.4059 57.41C90.6306 57.6287 89.9348 58.0793 89.2987 58.5763C88.8349 58.9407 88.371 59.3383 87.8078 59.5304C86.7807 59.8816 85.6542 59.4642 84.5742 59.5768C83.3417 59.7027 82.2218 60.584 81.8044 61.7502C81.3803 62.943 81.6454 64.3345 81.0291 65.4411C80.7111 66.0176 80.1743 66.4681 79.949 67.0844C79.6442 67.906 79.9623 68.8271 80.3864 69.6024C80.7773 70.3114 81.2478 70.9806 81.4731 71.7692C81.6387 72.3523 81.7249 72.9486 81.9237 73.5251C82.3014 74.645 82.9905 75.6522 84.2627 75.7648C84.7133 75.8046 85.2103 75.8311 85.5814 75.566C85.9458 75.301 86.0717 74.8239 86.1247 74.3799C86.2109 73.6576 86.1645 72.9155 85.9856 72.2065C86.4229 72.445 86.8337 72.8426 87.3241 72.7697C87.4831 72.7432 87.5958 72.6173 87.7084 72.5047C88.7686 71.4445 87.5626 69.7349 87.4433 68.6349C87.3042 67.4223 88.4439 66.2296 89.6565 66.3157C90.1866 66.3489 90.6968 66.5874 91.2269 66.541C92.2606 66.4549 92.9498 65.3748 93.957 65.1164C94.8846 64.8778 95.8653 65.1429 96.7996 65.1628C98.4165 65.1959 99.8809 63.7381 99.9471 62.1213C99.967 61.5051 99.8013 60.9087 99.4965 60.3786L99.5032 60.372Z" fill="#173789"/>
<path d="M86.5885 72.0408C86.2241 71.1463 85.588 70.0596 84.594 70.6692C84.2429 70.8879 84.0441 71.3451 83.9115 71.789C83.4543 73.2733 84.5211 75.5594 85.9723 75.3473C86.6813 75.2413 87.0723 74.3998 87.3638 73.7107" fill="#F49C84"/>
<path d="M93.8775 69.6223C93.8775 69.6223 95.2226 72.0541 94.9973 72.5577C94.6925 73.2336 93.4932 72.9155 93.4932 72.9155" stroke="#C45F47" stroke-width="0.49697" stroke-miterlimit="10"/>
<path d="M92.8105 74.6118L96.0309 74.2209C96.0309 74.2209 96.2695 76.5003 94.8249 76.8449C93.0491 77.269 92.8172 74.6052 92.8172 74.6052L92.8105 74.6118Z" fill="white"/>
<path d="M95.8786 69.1054C95.8985 69.2048 95.9184 69.3042 95.9383 69.4036C95.9582 69.503 95.9847 69.6024 96.0112 69.6951C96.031 69.7614 96.0708 69.8144 96.1304 69.8542C96.1834 69.8873 96.2696 69.9006 96.3292 69.8807C96.4684 69.8343 96.5479 69.7018 96.5148 69.556C96.4883 69.4566 96.4551 69.3638 96.422 69.2711C96.3889 69.1783 96.3557 69.0789 96.316 68.9861C96.2895 68.9265 96.2696 68.8801 96.21 68.847C96.1636 68.8205 96.0907 68.8072 96.0377 68.8271C95.9847 68.847 95.9317 68.8801 95.8985 68.9331C95.8654 68.9928 95.8654 69.0458 95.8786 69.1054Z" fill="#00276F"/>
<path d="M95.2556 67.9591C95.2556 67.9591 95.9315 67.0248 96.9321 67.7404" stroke="#00276F" stroke-width="0.331314" stroke-linecap="round" stroke-linejoin="round"/>
<path d="M90.5443 70.2716C90.5576 70.3909 90.5775 70.5102 90.5974 70.6294C90.6172 70.7288 90.6305 70.8349 90.657 70.9343C90.6769 71.0005 90.7232 71.0601 90.7763 71.0933C90.8293 71.1264 90.9154 71.1397 90.9751 71.1198C91.0347 71.0999 91.101 71.0601 91.1341 71.0005C91.1672 70.9343 91.1738 70.8746 91.1606 70.8017C91.1407 70.7023 91.1142 70.6096 91.0811 70.5102C91.0479 70.4108 91.0214 70.318 90.9883 70.2252C90.9485 70.1192 90.8558 70.0463 90.7365 70.0596C90.6901 70.0596 90.6371 70.0861 90.604 70.1192C90.5642 70.159 90.5311 70.2186 90.5377 70.2782L90.5443 70.2716Z" fill="#00276F"/>
<path d="M91.2269 68.456C91.2269 68.456 90.1269 68.0916 89.0071 69.4036" stroke="#00276F" stroke-width="0.331314" stroke-linecap="round" stroke-linejoin="round"/>
<path d="M98.3501 240.858L101.08 262.811L100.888 270.014L129.123 269.868C129.812 269.868 130.368 269.305 130.362 268.616C130.362 268.099 130.037 267.635 129.553 267.456L117.374 261.857L115.757 238.977" fill="#F49C84"/>
<path d="M131.515 269.563C131.223 268.662 130.693 267.642 130.163 267.417L117.255 261.857C110.138 264.739 100.928 262.54 100.928 262.54L99.2844 272.26C99.2844 272.585 99.5495 272.843 99.8675 272.837H131.303C131.932 272.837 131.528 269.597 131.521 269.57L131.515 269.563Z" fill="#2B88F7"/>
<path d="M120.044 262.414C119.322 263.355 118.706 264.382 118.222 265.468" stroke="#1340BF" stroke-width="0.49697" stroke-miterlimit="10"/>
<path d="M121.675 263.381C120.926 264.421 120.628 265.018 120.177 265.979" stroke="#1340BF" stroke-width="0.49697" stroke-miterlimit="10"/>
<path d="M123.046 264.097C122.536 264.779 122.039 265.727 121.641 266.482" stroke="#1340BF" stroke-width="0.49697" stroke-miterlimit="10"/>
<path d="M99.4502 270.736L131.647 270.571" stroke="#1340BF" stroke-width="0.49697" stroke-miterlimit="10"/>
<path d="M100.345 265.985C100.345 265.985 107.912 266.138 108.561 270.696" stroke="#1340BF" stroke-width="0.49697" stroke-miterlimit="10"/>
<path d="M127.519 266.277C127.519 266.277 125.432 269.239 125.021 270.61" stroke="#1340BF" stroke-width="0.49697" stroke-miterlimit="10"/>
<path d="M111.603 146.368C116.274 179.95 119.839 259.273 119.839 259.273H94.1623C94.1623 259.273 90.1203 200.902 85.9524 164.51C79.0147 150.913 76.225 141.55 77.4641 135.845" fill="#223082"/>
<path d="M97.4687 259.273C97.4687 259.273 93.4267 200.902 89.2588 164.51" stroke="#0D1735" stroke-width="0.49697" stroke-miterlimit="10"/>
<path d="M63.4295 240.858L61.826 262.811L61.6338 270.014L89.8683 269.868C90.5575 269.868 91.1141 269.305 91.1074 268.616C91.1074 268.099 90.7828 267.635 90.299 267.456L78.12 261.857L80.8367 238.977" fill="#F49C84"/>
<path d="M92.267 269.563C91.9755 268.662 91.4454 267.642 90.9153 267.417L78.0073 261.857C70.8907 264.739 61.6802 262.54 61.6802 262.54L60.0369 272.26C60.0369 272.585 60.3019 272.843 60.62 272.837H92.055C92.6845 272.837 92.2803 269.597 92.2737 269.57L92.267 269.563Z" fill="#2B88F7"/>
<path d="M80.7968 262.414C80.0746 263.355 79.4583 264.382 78.9746 265.468" stroke="#1340BF" stroke-width="0.49697" stroke-miterlimit="10"/>
<path d="M82.427 263.381C81.6782 264.421 81.38 265.018 80.9294 265.979" stroke="#1340BF" stroke-width="0.49697" stroke-miterlimit="10"/>
<path d="M83.7986 264.097C83.2883 264.779 82.7914 265.727 82.3938 266.482" stroke="#1340BF" stroke-width="0.49697" stroke-miterlimit="10"/>
<path d="M60.1958 270.736L92.3995 270.571" stroke="#1340BF" stroke-width="0.49697" stroke-miterlimit="10"/>
<path d="M61.0903 265.985C61.0903 265.985 68.6575 266.138 69.3069 270.696" stroke="#1340BF" stroke-width="0.49697" stroke-miterlimit="10"/>
<path d="M88.2713 266.277C88.2713 266.277 86.184 269.239 85.7732 270.61" stroke="#1340BF" stroke-width="0.49697" stroke-miterlimit="10"/>
<path d="M61.9917 143.26C59.8846 149.018 59.3876 159.19 61.6803 168.937C61.8327 169.593 61.9056 170.262 61.8724 170.931C59.8713 211.252 57.8105 259.273 57.8105 259.273H83.1759C83.1759 259.273 92.7443 159.11 94.6261 142.525" fill="#223082"/>
<path d="M65.9676 143.26C63.8604 149.018 63.3634 159.19 65.6561 168.937C65.8085 169.593 65.8814 170.262 65.8483 170.931C63.8471 211.252 61.7864 259.273 61.7864 259.273" stroke="#0D1735" stroke-width="0.49697" stroke-miterlimit="10"/>
<path d="M89.1926 196.9C89.1926 196.9 93.0624 157.593 94.2551 148.256" stroke="#0D1735" stroke-width="0.49697" stroke-miterlimit="10"/>
<path d="M64.397 161.144C64.397 161.144 71.5268 159.693 75.2309 152.418" stroke="#0D1735" stroke-width="0.49697" stroke-miterlimit="10"/>
<path d="M92.9827 159.561C92.9827 159.561 95.4675 159.163 95.7326 158.235C95.9976 157.308 97.3229 149.164 97.3229 149.164" stroke="#0D1735" stroke-width="0.49697" stroke-miterlimit="10"/>
<path d="M105.387 150.695C105.387 150.695 107.07 158.699 113.107 158.997" stroke="#0D1735" stroke-width="0.49697" stroke-miterlimit="10"/>
<path d="M58.0159 254.495H83.633" stroke="#0D1735" stroke-width="0.49697" stroke-miterlimit="10"/>
<path d="M93.8176 254.495H119.607" stroke="#0D1735" stroke-width="0.49697" stroke-miterlimit="10"/>
<path d="M117.831 101.342C117.831 101.342 123.523 110.069 125.631 110.301C128.977 110.665 145.238 98.3869 145.238 98.3869L153.501 107.869C153.501 107.869 137.916 126.244 125.041 127.059C114.916 127.702 102.79 111.646 102.79 111.646" fill="#F49C84"/>
<path d="M140.102 102.124C140.102 102.124 154.09 91.2637 154.793 91.4823C155.495 91.701 153.567 93.7618 154.176 93.8347C154.786 93.9076 159.219 89.3619 159.862 89.7728C160.737 90.3294 156.178 94.6629 156.178 94.6629C156.178 94.6629 161.479 90.2101 162.095 90.9059C162.532 91.4028 157.331 96.3725 157.331 96.3725C157.331 96.3725 162.585 92.5359 163.029 93.0594C163.467 93.5762 158.828 97.996 158.828 97.996C158.828 97.996 162.473 94.7955 163.062 95.3322C163.652 95.8689 155.899 105.782 149.167 112.488" fill="#F49C84"/>
<path d="M153.189 94.4377C153.189 94.4377 152.175 96.9689 150.896 98.917" stroke="#C45F47" stroke-width="0.49697" stroke-miterlimit="10"/>
<path d="M152.606 100.103C154.097 98.5791 156.078 98.314 157.94 98.4002" stroke="#C45F47" stroke-width="0.49697" stroke-miterlimit="10"/>
<path d="M82.6327 81.1983C82.6327 81.1983 84.667 83.7693 88.4705 84.094C92.274 84.4187 94.6263 82.3977 94.6263 82.3977C94.6263 82.3977 106.653 88.4607 110.052 113.727C113.452 138.993 113.776 152.212 113.776 152.212H60.0239C60.0239 152.212 53.285 88.9577 82.6327 81.205V81.1983Z" fill="#2B88F7"/>
<path d="M94.6262 82.3977C98.0321 82.3977 102.995 83.7428 106.229 86.0488C113.16 90.9854 115.28 96.7105 121.734 105.484L106.169 116.47L94.6262 82.3977Z" fill="#2B88F7"/>
<path d="M84.7729 167.081L61.4683 155.711L76.6822 124.269L99.9868 135.64L84.7729 167.081Z" fill="#FFEFAB"/>
<path d="M83.3315 125.702L95.4453 131.611C95.7133 131.741 95.8262 132.069 95.6954 132.337L94.8269 134.118L81.7304 127.73L82.599 125.95C82.7297 125.682 83.0575 125.569 83.3255 125.7L83.3315 125.702Z" fill="#173789"/>
<path d="M90.8092 125.733C89.7159 125.203 88.437 125.588 87.9401 126.602C87.4497 127.615 87.9334 128.861 89.0201 129.398C90.1135 129.928 91.3923 129.544 91.8893 128.53C92.3797 127.516 91.8959 126.27 90.8092 125.733ZM89.4906 128.43C88.9738 128.179 88.7418 127.589 88.9804 127.105C89.2123 126.628 89.8219 126.442 90.3388 126.694C90.8556 126.946 91.0875 127.536 90.849 128.02C90.6171 128.497 90.0075 128.682 89.4906 128.43Z" fill="#173789"/>
<path d="M70.659 113.979C70.659 113.979 66.0868 124.103 65.7886 126.946C65.4905 129.789 83.8983 138.343 83.8983 138.343L79.0942 149.701C79.0942 149.701 49.647 142.478 46.9502 133.625C44.2533 124.779 53.6758 106.431 53.6758 106.431" fill="#F49C84"/>
<path d="M74.5022 133.579C74.5022 133.579 91.8034 141.431 91.8697 142.346C91.9293 143.26 88.6692 141.955 88.8613 142.697C89.0535 143.439 96.6406 146.248 96.455 147.183C96.2099 148.442 90.0143 145.725 90.0143 145.725C90.0143 145.725 96.7069 149.071 96.1767 150.105C95.799 150.834 90.1137 148.535 87.8343 147.932C90.2264 148.906 93.9106 150.94 93.5064 151.689C93.1022 152.431 89.1993 150.953 86.1446 149.972C87.9933 150.761 91.2799 152.378 90.9354 153.087C90.5908 153.796 76.8545 149.217 67.7898 146.083" fill="#F49C84"/>
<path d="M82.6327 81.1983C74.9396 81.0724 67.3856 83.3983 63.0984 87.4734C56.6643 93.5895 50.7471 108.876 50.7471 108.876L71.2885 116.828L80.234 99.4206" fill="#2B88F7"/>
<path d="M69.8574 116.47L76.7819 104.476" stroke="#273B7A" stroke-width="0.49697" stroke-miterlimit="10"/>
<path d="M71.8119 113.084L52.0325 105.086" stroke="#273B7A" stroke-width="0.49697" stroke-miterlimit="10"/>
<path d="M110.132 113.554C109.244 106.478 107.309 97.4128 107.309 97.4128" stroke="#273B7A" stroke-width="0.49697" stroke-miterlimit="10"/>
<path d="M109.641 110.076L119.833 103.019" stroke="#273B7A" stroke-width="0.49697" stroke-miterlimit="10"/>
<path d="M374.474 194.13C372.572 193.52 370.392 193.321 368.557 194.083C367.543 194.508 366.701 195.197 365.82 195.806C364.216 196.913 362.089 197.827 360.207 197.145C358.485 196.515 357.63 194.607 358.087 193.01C358.544 191.413 360.082 190.167 361.824 189.584C363.574 189.001 365.502 189.014 367.351 189.253" fill="#86ADA8"/>
<path d="M384.314 210.861C374.666 210.987 374.388 197.947 370.399 192.831C368.57 190.485 366.144 189.054 363.01 189.246C364.375 188.339 375.753 187.398 378.204 188.67C380.948 190.095 382.372 191.837 383.658 194.362C385.122 197.244 390.456 207.946 384.314 210.861Z" fill="#BCDDCB"/>
<path d="M365.853 188.862C368.716 188.743 371.558 189.332 374.01 190.863C376.303 192.294 378.098 194.402 379.463 196.714C381.014 199.338 382.015 202.227 382.803 205.156C383.757 208.694 384.393 212.312 384.95 215.93C385.573 219.979 386.023 224.067 386.865 228.076C386.911 228.288 387.216 228.196 387.19 227.99C386.653 224.293 386.116 220.602 385.553 216.911C384.99 213.22 384.354 209.403 383.406 205.726C381.988 200.226 379.689 194.335 374.838 190.976C372.201 189.147 369.04 188.418 365.853 188.657C365.721 188.67 365.714 188.869 365.853 188.869V188.862Z" fill="#8EBCA1"/>
<path d="M388.661 200.69C385.076 199.332 383.075 195.435 382.405 191.658C381.2 184.833 380.305 177.929 378.456 171.236C376.475 164.073 372.996 157.95 369.232 151.609C367.569 148.806 365.886 144.983 368.126 142.617C369.014 141.683 370.332 141.272 371.618 141.166C376.111 140.788 380.371 143.704 382.876 147.454C385.381 151.205 386.474 155.698 387.521 160.084C388.23 163.053 388.939 166.028 389.648 168.996C392.133 179.4 394.79 194.249 388.654 200.683" fill="#D6E8DD"/>
<path d="M410.58 178.909C412.913 177.458 415.808 177.107 418.532 177.471C421.255 177.836 423.846 178.85 426.357 179.97C427.438 180.447 428.524 180.957 429.704 181.076C430.877 181.195 432.169 180.851 432.878 179.91C433.706 178.81 433.487 177.173 432.686 176.06C431.877 174.947 430.605 174.264 429.319 173.781C426.079 172.555 422.554 172.323 419.088 172.27" fill="#86ADA8"/>
<path d="M368.948 141.968C374.686 145.473 379.39 154.598 382.306 162.463C384.639 168.771 386.282 175.305 387.269 181.957C389.39 196.204 390.357 216.977 389.833 231.37" stroke="#8EBCA1" stroke-width="0.49697" stroke-miterlimit="10"/>
<path d="M399.859 197.403C405.259 195.289 405.465 187.338 410.057 181.414C413.847 176.524 418.949 173.688 427.948 173.138C424.032 171.793 419.95 170.766 415.808 170.719C411.667 170.673 407.426 171.647 404.027 174.013C399.143 177.405 391.477 193.096 399.859 197.403Z" fill="#D6E8DD"/>
<path d="M423.005 171.687C416.882 171.216 410.799 173.781 406.459 178.041C399.766 184.615 399.859 194.766 399.236 203.46C398.428 214.751 397.712 226.049 397.103 237.353" stroke="#8EBCA1" stroke-width="0.49697" stroke-miterlimit="10"/>
<path d="M397.341 185.045C392.557 182.706 393.021 176.093 393.259 171.978C393.829 161.999 396.062 150.052 401.999 141.55C406.585 134.984 413.383 131.313 421.381 133.864C424.025 134.705 428.332 137.932 426.636 141.219C425.509 143.406 420.665 144.844 418.684 146.62C416.146 148.899 414.119 151.682 412.462 154.644C409.089 160.694 407.254 167.466 405.465 174.112C404.12 179.108 402.861 184.25 397.341 185.039" fill="#BCDDCB"/>
<path d="M420.884 196.661C422.647 196.164 425.781 195.939 427.61 196.303C428.438 196.741 429.956 197.668 431.009 199.378C432.222 201.346 432.381 206.919 428.644 205.958C427.087 205.56 426.371 203.824 425.437 202.512C424.27 200.875 422.461 199.716 420.493 199.338C418.525 198.96 416.412 199.365 414.722 200.451" fill="#86ADA8"/>
<path d="M429.346 203.539C429.28 201.2 428.107 199.285 426.424 197.728C425.509 196.88 424.496 196.038 423.449 195.356C422.501 194.74 421.328 194.58 420.222 194.567C418.87 194.554 417.379 194.653 416.074 195.031C415.981 195.058 416.007 195.183 416.094 195.19C417.207 195.29 418.353 195.044 419.473 194.991C420.593 194.938 421.819 194.985 422.859 195.482C423.369 195.727 423.82 196.105 424.27 196.449C424.761 196.814 425.238 197.191 425.708 197.589C426.537 198.298 427.332 199.073 427.935 199.988C428.637 201.054 429.015 202.26 429.074 203.539C429.081 203.711 429.353 203.718 429.346 203.539Z" fill="#8EBCA1"/>
<path d="M428.809 197.039C424.423 196.224 418.731 198.424 415.616 201.69C414.152 203.228 412.741 205.209 410.653 205.395C408.493 205.587 405.77 205.786 405.697 201.266C405.637 197.834 407.711 196.953 409.533 195.747C411.356 194.547 413.556 194.117 415.716 193.951C418.247 193.759 424.953 192.878 428.803 197.032" fill="#BCDDCB"/>
<path d="M422.667 194.382C418.26 194.362 414.165 196.171 411.031 199.226C409.189 201.021 407.665 203.155 406.565 205.474C405.544 207.628 404.829 209.914 404.272 212.226C403.45 215.645 402.947 219.137 402.576 222.63C402.032 227.699 401.741 232.801 401.648 237.896C401.635 238.645 401.615 239.394 401.641 240.143C401.641 240.342 401.933 240.335 401.946 240.143C402.158 237.333 402.178 234.497 402.331 231.681C402.463 229.282 402.629 226.884 402.847 224.491C403.185 220.847 403.643 217.203 404.405 213.624C404.922 211.206 405.571 208.8 406.538 206.521C407.439 204.401 408.645 202.439 410.156 200.697C412.913 197.516 416.604 195.236 420.825 194.713C421.441 194.64 422.057 194.6 422.68 194.594C422.826 194.594 422.826 194.368 422.68 194.368L422.667 194.382Z" fill="#8EBCA1"/>
<path d="M415.722 137.621C413.271 138.907 411.303 140.901 409.613 143.074C407.897 145.288 406.419 147.68 405.147 150.178C402.576 155.24 400.853 160.694 399.627 166.227C398.282 172.29 397.454 178.485 396.745 184.648C395.983 191.234 395.479 197.847 395.221 204.473C394.962 211.1 394.942 217.839 395.221 224.511C395.254 225.34 395.313 226.168 395.38 226.996C395.393 227.142 395.605 227.142 395.605 226.996C395.466 220.396 395.287 213.803 395.472 207.197C395.658 200.59 396.082 194.123 396.745 187.616C397.407 181.109 398.189 174.967 399.408 168.738C400.489 163.198 402.006 157.712 404.305 152.55C405.452 149.972 406.803 147.494 408.374 145.155C409.944 142.816 411.74 140.51 414.026 138.807C414.583 138.396 415.166 138.025 415.769 137.694C415.822 137.667 415.769 137.588 415.722 137.614V137.621Z" fill="#8EBCA1"/>
<path d="M415.808 225.366V235.511C415.808 257.974 407.426 272.433 407.426 272.433H381.471C381.471 272.433 373.089 257.974 373.089 235.511V225.366H415.808Z" fill="#F2F5F9"/>
<path d="M-0.752496 209.291C-1.91209 210.325 -3.0982 211.391 -3.82709 212.763C-4.55598 214.135 -4.75476 215.904 -3.91323 217.209C-3.62167 217.666 -3.21747 218.044 -2.78014 218.375C-1.39525 219.429 0.387223 220.005 2.11668 219.774C3.83951 219.542 5.46957 218.442 6.17196 216.851C6.58279 215.917 6.66893 214.877 6.94061 213.896C7.75564 210.947 10.5652 208.542 13.6265 208.622" fill="#86ADA8"/>
<path d="M24.4805 219.402C21.9957 221.549 17.5958 221.384 14.9056 219.714C11.1684 217.395 9.20035 213.167 5.07881 211.259C3.54151 210.55 1.78555 210.219 0.162115 210.682C-1.48783 211.159 -2.82633 212.399 -4.34375 213.227C-1.23603 206.163 7.1197 203.248 10.413 203.261C16.5423 203.287 22.4927 207.382 24.951 213.28C25.7925 215.294 26.0973 217.998 24.4805 219.396V219.402Z" fill="#BCDDCB"/>
<path d="M53.4438 194.872C55.7299 194.044 58.3407 193.779 60.534 194.812C61.7532 195.389 62.7604 196.323 63.8206 197.151C65.7422 198.656 68.3 199.895 70.5529 198.96C72.6203 198.106 73.6407 195.521 73.0974 193.355C72.554 191.188 70.7053 189.498 68.6114 188.716C66.5175 187.928 64.1983 187.941 61.9851 188.266" fill="#86ADA8"/>
<path d="M35.9704 201.406C31.1862 199.066 31.6501 192.453 31.8886 188.339C32.2663 181.765 32.5181 175.079 34.0422 168.652C36.1096 159.958 41.775 151.563 51.4494 149.999C54.2788 149.542 57.2606 149.35 60.0105 150.224C62.7604 151.099 65.2188 153.259 65.5766 155.91C65.6627 156.532 65.623 157.202 65.2718 157.732C64.8543 158.361 64.079 158.686 63.3634 159.017C56.3396 162.205 50.9723 168.274 48.9711 175.298C47.5531 180.281 47.7718 185.595 46.4267 190.591C45.0815 195.588 41.4835 200.617 35.9638 201.406" fill="#BCDDCB"/>
<path d="M41.6492 217.554C49.5941 217.673 49.508 210.45 51.4495 207.979C54.8488 203.639 55.2132 197.642 58.3342 193.109C60.5275 189.929 63.4364 187.987 67.1935 188.246C65.5568 187.013 51.9133 185.741 48.9779 187.464C45.6846 189.399 43.975 191.758 42.4377 195.177C40.6818 199.08 34.2874 213.591 41.6492 217.541" fill="#D6E8DD"/>
<path d="M63.7876 187.484C60.2227 187.199 56.6975 188.054 53.7554 190.114C50.8134 192.175 48.6731 195.084 47.043 198.205C45.1082 201.903 43.8823 205.925 42.9281 209.973C41.795 214.777 41.0396 219.661 40.3704 224.544C39.7011 229.428 39.1313 234.318 38.4421 239.195C38.3626 239.739 38.303 240.282 38.2301 240.819C38.2036 241.004 38.5216 241.051 38.5548 240.865C39.4096 236.16 39.9132 231.403 40.536 226.665C41.1589 221.927 41.8679 216.964 42.8817 212.173C43.763 208.019 44.8497 203.864 46.6189 199.994C48.1032 196.747 50.0712 193.62 52.8145 191.287C55.8957 188.663 59.7655 187.47 63.7876 187.689C63.9201 187.696 63.9201 187.49 63.7876 187.477V187.484Z" fill="#BCDDCB"/>
<path d="M25.3486 198.841C22.3138 198.596 19.8952 196.065 18.6495 193.288C15.7604 186.868 16.3104 179.492 12.2286 173.529C10.1082 170.434 7.21916 167.936 4.93972 164.961C1.7061 160.753 0.12242 154.776 2.60065 149.853C6.33786 142.432 14.2563 145.798 19.0669 150.125C25.7197 156.115 31.2129 164.848 32.7369 173.37C33.7375 178.962 35.288 192.984 25.3553 198.848" fill="#D6E8DD"/>
<path d="M7.74905 152.345C9.68392 152.384 11.4134 153.71 12.7651 154.975C14.4813 156.585 15.9126 158.5 17.112 160.515C18.4107 162.695 19.2721 165.041 20.0474 167.453C20.9751 170.315 21.7239 173.231 22.3467 176.179C23.5991 182.13 24.3147 188.18 24.8382 194.236C25.3948 200.604 25.8189 206.985 26.1303 213.366C26.4418 219.747 26.6074 226.181 26.7466 232.589C26.7664 233.384 26.7797 234.179 26.793 234.974C26.793 235.213 27.164 235.213 27.164 234.974C27.1839 228.427 27.0116 221.881 26.7134 215.334C26.4153 208.787 25.9912 202.254 25.4412 195.733C24.9243 189.624 24.2683 183.515 23.0822 177.498C22.4925 174.496 21.7702 171.514 20.8691 168.592C20.0938 166.081 19.2655 163.543 17.9933 161.23C16.8668 159.17 15.4753 157.228 13.8452 155.532C12.5001 154.134 10.8568 152.716 8.92853 152.225C8.5442 152.126 8.14663 152.073 7.74242 152.073C7.55689 152.073 7.55689 152.351 7.74242 152.358L7.74905 152.345Z" fill="#BCDDCB"/>
<path d="M-1.4481 183.024C-4.39017 182.845 -9.393 183.495 -12.1429 184.581C-13.2959 185.469 -15.3765 187.292 -16.4632 190.101C-17.5499 192.911 -17.0132 196.442 -14.8067 198.437C-13.0971 199.981 -10.6785 200.445 -8.40569 200.306C-7.2991 200.239 -6.16601 200.027 -5.21182 199.444C-2.77998 197.966 -2.21675 194.686 -0.845112 192.149C1.03012 188.683 4.82698 186.41 8.6901 186.443" fill="#86ADA8"/>
<path d="M-10.3274 194.634C-10.2413 192.261 -10.016 189.803 -8.88951 187.669C-7.63715 185.297 -5.32458 183.521 -2.81985 182.633C-2.01144 182.348 -1.16991 182.143 -0.321744 182.037C0.526419 181.931 1.34808 181.938 2.17636 181.832C2.29563 181.818 2.32876 181.659 2.20287 181.62C0.778216 181.176 -0.911482 181.48 -2.303 181.891C-3.78066 182.322 -5.15892 183.031 -6.37153 183.972C-8.41905 185.562 -9.76418 187.709 -10.2877 190.254C-10.5858 191.691 -10.6654 193.169 -10.6985 194.64C-10.6985 194.872 -10.3473 194.872 -10.334 194.64L-10.3274 194.634Z" fill="#3F6D54"/>
<path d="M-12.1362 184.581C-6.7557 183.581 -1.0306 185.781 2.79276 189.79C4.59511 191.678 6.31794 194.11 8.88231 194.342C11.5328 194.58 14.8725 194.826 14.9652 189.273C15.0381 185.059 12.487 183.972 10.2539 182.501C8.01426 181.03 5.31074 180.493 2.66024 180.294C-0.447486 180.062 -7.98818 180.281 -12.1362 184.581Z" fill="#BCDDCB"/>
<path d="M-5.86775 181.056C-2.97207 181.089 -0.102894 181.726 2.50786 183.004C4.70778 184.084 6.68241 185.575 8.39861 187.311C10.5588 189.498 12.328 192.062 13.6135 194.852C14.8327 197.496 15.6676 200.306 16.3303 203.128C17.3109 207.316 17.9073 211.59 18.3513 215.864C18.9874 221.98 19.2723 228.123 19.5042 234.265C19.5374 235.173 19.5639 236.087 19.6235 236.995C19.6368 237.187 19.9283 237.194 19.9283 236.995C20.0012 233.457 19.7958 229.899 19.6103 226.367C19.4512 223.392 19.2458 220.416 18.9609 217.448C18.5302 212.975 17.9537 208.502 16.9995 204.109C16.3435 201.101 15.4954 198.119 14.2629 195.296C13.0966 192.639 11.5262 190.181 9.58471 188.02C6.17218 184.21 1.59343 181.5 -3.54193 180.944C-4.31058 180.857 -5.08585 180.824 -5.86113 180.831C-6.0069 180.831 -6.0069 181.056 -5.86113 181.056H-5.86775Z" fill="#8EBCA1"/>
<path d="M5.98647 205.998C8.92191 205.64 12.0164 205.799 14.6934 207.157C16.9397 208.297 18.7553 210.139 20.1004 212.253C21.3395 214.201 22.1214 216.354 22.7311 218.568C23.4202 221.066 23.9039 223.617 24.1623 226.194C24.5069 229.633 24.3678 233.033 23.9304 236.452C23.9105 236.584 24.1358 236.618 24.169 236.485C24.8846 233.43 24.8912 230.183 24.6394 227.069C24.4141 224.346 23.9437 221.642 23.2413 219.005C22.0088 214.36 19.789 209.695 15.4422 207.223C12.5597 205.587 9.18696 205.375 5.97322 205.878C5.90033 205.892 5.92021 206.011 5.9931 206.004L5.98647 205.998Z" fill="#8EBCA1"/>
<path d="M54.3517 153.988C51.9 155.273 49.932 157.268 48.2423 159.441C46.5526 161.615 45.0484 164.047 43.7762 166.545C41.2052 171.607 39.4824 177.061 38.2565 182.594C36.9114 188.657 36.0831 194.852 35.3741 201.021C34.612 207.608 34.1084 214.221 33.85 220.847C33.5916 227.52 33.5717 234.212 33.85 240.885C33.8832 241.713 33.9428 242.541 34.0091 243.37C34.0223 243.516 34.2343 243.516 34.2343 243.37C34.0952 236.77 33.9163 230.177 34.1018 223.57C34.2874 216.964 34.7114 210.497 35.3741 203.99C36.0367 197.483 36.8186 191.34 38.0378 185.112C39.1179 179.572 40.6353 174.085 42.9346 168.924C44.081 166.346 45.4327 163.868 47.0032 161.529C48.5736 159.19 50.3693 156.884 52.6554 155.181C53.212 154.77 53.7951 154.399 54.3981 154.067C54.4511 154.041 54.3981 153.961 54.3517 153.988Z" fill="#8EBCA1"/>
<path d="M10.9761 233.516V239.904C10.9761 265.23 19.8553 272.433 19.8553 272.433H39.3962C39.3962 272.433 48.2687 265.23 48.2687 239.904V233.516H10.9761Z" fill="#F2F5F9"/>
<path d="M2.26929 273.069H421.328" stroke="#91AFE5" stroke-width="0.662627" stroke-linecap="round" stroke-linejoin="round"/>
<path d="M294.839 81.629L295.747 87.4204C295.747 87.4204 295.86 90.9456 299.835 90.5414C304.023 90.1173 307.442 85.9693 307.442 85.9693L303.732 75.5793" fill="#AF5743"/>
<path d="M293.414 67.5813C290.903 70.3511 287.404 81.5694 292.169 83.4711C296.529 85.2139 302.658 83.5308 304.295 76.9641C306.011 70.0662 300.021 60.2925 293.421 67.5747L293.414 67.5813Z" fill="#AF5743"/>
<path d="M295.389 84.3127C295.389 84.3127 299.08 84.6705 301.923 81.8278" stroke="#752D21" stroke-width="0.49697" stroke-miterlimit="10"/>
<path d="M303.745 76.2089C303.745 76.2089 303.718 76.2489 303.705 76.2689C303.698 76.2823 303.705 76.309 303.718 76.3157C303.738 76.3223 303.752 76.3157 303.765 76.3023C303.778 76.2823 303.792 76.2623 303.805 76.2422C303.818 76.2289 303.805 76.2022 303.792 76.1955C303.772 76.1888 303.758 76.1955 303.745 76.2089Z" fill="#FF855A"/>
<path d="M293.805 74.36C293.805 74.36 292.241 76.5467 292.401 77.0569C292.613 77.7394 293.805 77.5671 293.805 77.5671" stroke="#752D21" stroke-width="0.49697" stroke-miterlimit="10"/>
<path d="M296.542 75.0624C296.489 75.301 296.595 75.5329 296.774 75.5726C296.959 75.6124 297.145 75.4534 297.205 75.2082C297.258 74.9697 297.152 74.7377 296.973 74.698C296.787 74.6582 296.602 74.8172 296.549 75.0624H296.542Z" fill="#4A1A1A"/>
<path d="M291.493 73.3594C291.44 73.598 291.546 73.8299 291.725 73.8697C291.91 73.9094 292.096 73.7504 292.149 73.5052C292.202 73.2667 292.096 73.0348 291.917 72.995C291.731 72.9552 291.546 73.1143 291.493 73.3594Z" fill="#4A1A1A"/>
<path d="M294.395 79.3629L291.334 78.5081C291.334 78.5081 290.949 80.6881 292.328 81.1188C294.017 81.6423 294.395 79.3695 294.395 79.3695V79.3629Z" fill="white"/>
<path d="M302.174 78.1238C298.629 74.5787 299.908 71.5306 299.908 71.5306C299.908 71.5306 291.897 71.2854 288.995 68.3831C288.995 68.3831 291.102 61.949 296.727 64.361C299.928 62.7044 305.004 64.3212 307.064 67.6807C310.285 72.9155 307.031 78.7731 305.11 79.8466" fill="#011E3B"/>
<path d="M304.255 66.985C303.725 66.0573 304.209 64.5863 304.692 63.9237C305.587 62.6912 307.416 62.2605 308.787 62.9363C310.152 63.6122 310.921 65.3019 310.563 66.7862C310.212 68.2705 308.794 69.4235 307.27 69.503C306.667 69.5361 305.985 69.3572 305.7 68.8337" fill="#011E3B"/>
<path d="M300.624 76.2684C300.624 76.0431 300.882 75.3937 301.558 75.1486C302.751 74.7179 303.48 76.2816 303.341 77.5274C303.254 78.3093 302.996 78.9189 302.492 79.5219C301.83 80.317 300.955 80.4893 300.478 79.5086" fill="#AF5743"/>
<path d="M296.529 72.9884C298.437 72.8625 298.795 74.7709 298.795 74.7709" stroke="#4A1A1A" stroke-width="0.331314" stroke-miterlimit="10" stroke-linecap="round"/>
<path d="M291.44 71.842C292.487 71.3649 293.54 72.1468 293.54 72.1468" stroke="#4A1A1A" stroke-width="0.331314" stroke-miterlimit="10" stroke-linecap="round"/>
<path d="M305.474 173.622L297.052 262.798L290.552 270.113C290.552 270.113 312.829 269.179 313.558 268.437C314.293 267.688 313.273 262.612 313.273 262.612L328.248 172.734L305.467 173.622H305.474Z" fill="#AF5743"/>
<path d="M309.947 268.39L313.975 265.057L313.492 263.315L307.654 268.404L305.156 268.424L295.011 264.11L284.151 270.127C283.051 270.822 283.548 272.525 284.853 272.519L300.345 272.426L304.434 269.557H305.6L305.62 272.386L313.982 272.326L313.956 268.364L309.947 268.39Z" fill="#011E3B"/>
<path d="M331.35 173.622L335.339 262.798L328.838 270.113C328.838 270.113 351.116 269.179 351.845 268.437C352.58 267.688 351.56 262.612 351.56 262.612L354.124 172.734L331.343 173.622H331.35Z" fill="#AF5743"/>
<path d="M348.24 268.39L352.269 265.057L351.785 263.315L345.947 268.404L343.449 268.424L333.304 264.11L322.444 270.127C321.344 270.822 321.841 272.525 323.146 272.519L338.638 272.426L342.727 269.557H343.893L343.913 272.386L352.275 272.326L352.249 268.364L348.24 268.39Z" fill="#011E3B"/>
<path d="M340.368 128.901C343.37 130.995 346.378 133.718 349.274 138.337C358.597 153.18 356.085 189.16 356.085 189.16H298.523C298.523 189.16 304.142 143.253 307.72 132.996" fill="#223082"/>
<path d="M328.838 123.534C328.838 123.534 339.679 131.578 346.186 141.67C353.779 153.451 353.19 189.167 353.19 189.167" stroke="#121E3A" stroke-width="0.49697" stroke-miterlimit="10"/>
<path d="M327.46 134.911C334.908 141.497 341.024 134.911 341.024 134.911" stroke="#121E3A" stroke-width="0.49697" stroke-miterlimit="10"/>
<path d="M289.001 113.647C289.001 113.647 275.576 130.339 268.009 128.371C260.442 126.403 249.018 101.276 249.018 101.276L257.871 97.4062C257.871 97.4062 267.883 110.506 269.334 110.573C270.786 110.639 280.341 100.077 280.341 100.077" fill="#AF5743"/>
<path d="M260.217 100.408C260.217 100.408 252.636 89.3288 252.066 89.3288C251.49 89.3288 252.444 91.31 251.974 91.2239C251.503 91.1377 249.27 86.718 248.694 86.8704C247.918 87.0758 250.052 91.0118 250.052 91.0118C250.052 91.0118 249.442 90.2631 248.819 90.6341C248.376 90.8992 248.74 92.0919 248.74 92.0919C248.74 92.0919 248.084 91.6347 247.633 91.9263C247.183 92.2112 247.534 93.2383 247.534 93.2383C247.534 93.2383 246.924 92.3835 246.408 93.013C245.924 93.6093 247.918 99.5266 251.351 106.093" fill="#AF5743"/>
<path d="M252.457 92.2046C252.457 92.2046 252.623 94.325 253.113 96.0743" stroke="#752D21" stroke-width="0.49697" stroke-miterlimit="10"/>
<path d="M246.5 94.3382C246.825 94.8286 247.156 95.3123 247.521 95.7761C247.7 96.0081 247.885 96.2334 248.091 96.4388C248.19 96.5382 248.296 96.6376 248.402 96.7104C248.515 96.8098 248.627 96.8032 248.627 96.7966C248.654 96.7701 248.667 96.6111 248.647 96.4852C248.627 96.3526 248.594 96.2135 248.561 96.0743C248.482 95.796 248.389 95.5243 248.283 95.2527C248.077 94.7093 247.832 94.1726 247.594 93.6491L247.978 93.4636C248.283 94.0467 248.607 94.6232 248.959 95.1732C249.138 95.4448 249.323 95.7165 249.522 95.9551C249.621 96.0677 249.734 96.187 249.827 96.24C249.88 96.2731 249.893 96.2532 249.833 96.2665C249.774 96.3129 249.807 96.2996 249.807 96.2334C249.833 95.9948 249.76 95.6502 249.694 95.3388C249.621 95.0208 249.535 94.7093 249.442 94.3913C249.257 93.7618 249.038 93.1323 248.813 92.5226L249.224 92.3504C249.489 92.9666 249.794 93.5762 250.105 94.1726C250.264 94.4708 250.43 94.7623 250.615 95.0274C250.708 95.1599 250.814 95.2858 250.92 95.3786C250.973 95.4183 251.026 95.4448 251.033 95.4448C251.019 95.4515 251.033 95.4581 251.059 95.3852C251.112 95.1135 251.046 94.7557 250.993 94.4376C250.933 94.1063 250.86 93.775 250.781 93.4503C250.615 92.7943 250.423 92.1383 250.231 91.489C250.503 92.1184 250.734 92.7546 250.953 93.4039C251.059 93.7286 251.165 94.0533 251.245 94.3913C251.311 94.7358 251.41 95.0539 251.357 95.4647C251.344 95.5575 251.265 95.743 251.079 95.7629C250.913 95.7761 250.814 95.7033 250.728 95.6503C250.569 95.5244 250.456 95.3918 250.344 95.2527C250.125 94.9744 249.939 94.6762 249.767 94.3846C249.416 93.7883 249.118 93.172 248.826 92.5492L249.237 92.3769C249.482 92.9997 249.707 93.6292 249.906 94.272C250.006 94.59 250.098 94.9147 250.178 95.246C250.251 95.584 250.337 95.902 250.291 96.3261C250.271 96.4255 250.257 96.5912 250.039 96.7171C249.827 96.8032 249.661 96.7171 249.575 96.6641C249.383 96.5448 249.27 96.4056 249.157 96.2731C248.932 96.0014 248.747 95.7165 248.568 95.4316C248.21 94.8551 247.898 94.272 247.594 93.669L247.978 93.4835C248.223 94.0268 248.429 94.5834 248.614 95.1466C248.707 95.4316 248.793 95.7165 248.859 96.0147C248.892 96.1605 248.919 96.3129 248.932 96.4719C248.932 96.6309 248.985 96.7966 248.819 97.0086C248.72 97.108 248.561 97.0948 248.482 97.0683C248.389 97.0351 248.316 96.9887 248.25 96.9357C248.117 96.8363 248.018 96.7237 247.918 96.6111C247.72 96.3791 247.554 96.1406 247.388 95.8888C247.064 95.3918 246.765 94.8816 246.494 94.3581L246.5 94.3382Z" fill="#752D21"/>
<path d="M295.846 86.4729C286.788 86.4729 275.609 103.41 275.609 103.41L289.419 116.324L308.721 95.9418" fill="#B9B5B2"/>
<path d="M308.681 84.6904C308.681 84.6904 316.653 84.3259 321.781 87.8842C331.303 94.4973 340.368 128.901 340.368 128.901C330.813 138.84 307.005 142.65 307.005 142.65C307.005 142.65 299.597 129.232 294.031 123.666C288.464 118.1 286.894 112.753 289.187 101.349L308.681 84.6904Z" fill="#B9B5B2"/>
<path d="M306.084 82.179L299.829 89.4282L303.698 93.5961C303.698 93.5961 306.442 88.9179 308.675 84.697L306.077 82.1856L306.084 82.179Z" fill="white"/>
<path d="M299.828 89.4282L296.171 93.5431C296.171 93.5431 294.196 90.1305 293.805 86.7313L295.468 85.6512L299.835 89.4348L299.828 89.4282Z" fill="white"/>
<path d="M288.59 115.257C287.424 110.288 289.425 101.647 289.425 101.647" stroke="#846A6A" stroke-width="0.49697" stroke-miterlimit="10"/>
<path d="M322.722 114.741C314.764 144.777 303.599 163.642 303.599 163.642L293.905 159.382C303.725 128.523 306.389 110.699 306.389 110.699" fill="#AF5743"/>
<path d="M307.336 97.3996L304.056 112.792L323.617 116.291C323.617 116.291 325.625 109.327 326.479 103.045" fill="#B9B5B2"/>
<path d="M323.345 116.318L325.903 106.08" stroke="#846A6A" stroke-width="0.49697" stroke-miterlimit="10"/>
<path d="M304.063 112.792L306.157 102.336" stroke="#846A6A" stroke-width="0.49697" stroke-miterlimit="10"/>
<path d="M308.728 153.637C308.728 153.637 303.937 165.438 301.922 165.438C299.908 165.438 282.229 165.551 277.12 165.551C277.22 164.636 281.447 162.808 285.032 161.708C287.172 161.052 293.911 159.382 293.911 159.382L297.668 147.063" fill="#AF5743"/>
</g>
<defs>
<linearGradient id="paint0_linear_483_4297" x1="256.95" y1="155.134" x2="256.95" y2="142.73" gradientUnits="userSpaceOnUse">
<stop stop-color="white" stop-opacity="0.1"/>
<stop offset="1" stop-color="white" stop-opacity="0.4"/>
</linearGradient>
<clipPath id="clip0_483_4297">
<rect width="451.004" height="273.4" fill="white" transform="translate(-17)"/>
</clipPath>
</defs>
</svg>
