<svg xmlns="http://www.w3.org/2000/svg" fill="none" viewBox="0 0 400.7180043383948 186.224" style="max-height: 500px" width="400.7180043383948" height="186.224">
<mask height="1015" width="1015" y="-563" x="-282" maskUnits="userSpaceOnUse" style="mask-type:luminance" id="mask0_483_4259">
<path stroke="white" fill="white" d="M89.5196 450.704L-281.317 -191.604L360.777 -562.317L731.613 79.9908L89.5196 450.704Z"/>
</mask>
<g mask="url(#mask0_483_4259)">
<path stroke-miterlimit="10" stroke-width="0.5" stroke="#D1DBF3" d="M-219.705 -184.824C-208.215 -141.746 -188.96 -84.7249 -155.307 -22.6626C-129.499 24.9327 -39.7152 190.516 28.8392 179.166C121.365 163.846 106.143 -195.102 154.962 -197.451C202.999 -199.763 234.447 146.422 305.887 148.812C372.835 151.053 429.103 -150.25 463.137 -144.09C496.013 -138.139 449.992 144.161 509.981 161.628C536.308 169.293 576.035 123.935 591.588 86.3884C612.579 35.7155 596.325 -16.1027 578.505 -72.9114C568.784 -103.9 557.431 -128.699 548.569 -146.003"/>
<path stroke-miterlimit="10" stroke-width="0.5" stroke="#D1DBF3" d="M-218.448 -176.305C-207.066 -135.125 -188.402 -80.3275 -155.278 -20.9255C-130.006 24.3984 -42.3854 183.703 24.5274 172.008C115.131 155.857 101.562 -192.605 149.983 -194.575C194.673 -196.394 224.312 80.0262 281.777 137.65C288.445 144.364 295.448 148.133 302.855 148.214C369.23 149.067 424.167 -148.52 460.397 -143.145C488.629 -138.958 463.854 52.5485 488.796 126.449C493.785 141.278 500.797 151.393 510.674 154.341C536.718 162.175 575.644 118.737 591.099 82.8679C612.108 34.6305 596.849 -14.6917 579.918 -68.9903C570.755 -98.4491 559.918 -122.008 551.424 -138.485"/>
<path stroke-miterlimit="10" stroke-width="0.5" stroke="#D1DBF3" d="M-217.192 -167.786C-205.918 -128.503 -187.848 -75.9214 -155.252 -19.1895C-130.512 23.8701 -45.0159 177.112 20.2142 164.85C108.952 148.169 96.9827 -190.085 145.003 -191.701C191.361 -193.26 221.033 81.959 278.785 137.676C285.487 144.141 292.461 147.701 299.822 147.613C365.622 147.079 419.212 -146.766 457.654 -142.203C486.726 -138.752 464.526 47.6366 489.677 119.726C494.686 134.178 501.651 144.058 511.363 147.054C537.142 155.005 575.109 113.475 590.607 79.3456C611.446 33.4579 597.371 -13.2825 581.327 -65.0714C572.724 -93.0007 562.401 -115.32 554.276 -130.969"/>
<path stroke-miterlimit="10" stroke-width="0.5" stroke="#D1DBF3" d="M-215.935 -159.267C-204.769 -121.882 -187.294 -71.505 -155.224 -17.4531C-131.015 23.3494 -47.6624 170.404 15.9018 157.692C102.75 140.323 92.4058 -187.545 140.023 -188.826C188.051 -190.118 217.69 83.9517 275.795 137.702C282.523 143.926 289.475 147.249 296.79 147.013C362.011 144.909 414.244 -144.987 454.914 -141.26C484.817 -138.52 465.202 42.7249 490.561 113.003C495.592 127.078 502.505 136.735 512.055 139.766C537.562 147.862 574.646 108.241 590.118 75.8239C610.88 32.3216 597.896 -11.8731 582.741 -61.1515C574.696 -87.5513 564.888 -108.63 557.132 -123.453"/>
<path stroke-miterlimit="10" stroke-width="0.5" stroke="#D1DBF3" d="M-214.677 -150.747C-203.62 -115.26 -186.742 -67.0792 -155.196 -15.7168C-131.515 22.8387 -50.308 163.692 11.5902 150.534C96.5522 132.473 87.8316 -184.986 135.044 -185.951C184.745 -186.967 214.343 85.9444 272.805 137.728C279.559 143.711 286.489 146.812 293.758 146.413C358.398 142.867 409.265 -143.184 452.173 -140.318C482.899 -138.265 466.016 37.7599 491.444 106.28C496.524 119.968 503.356 129.411 512.747 132.477C537.98 140.719 574.184 103.001 589.628 72.3005C610.315 31.1784 598.42 -10.4649 584.152 -57.2336C576.666 -82.1035 567.372 -101.943 559.986 -115.939"/>
<path stroke-miterlimit="10" stroke-width="0.5" stroke="#D1DBF3" d="M-213.421 -142.229C-202.473 -108.639 -186.194 -62.6409 -155.169 -13.9807C-132.014 22.3372 -52.9533 156.975 7.27664 143.375C90.3561 124.617 83.2574 -182.41 130.064 -183.077C181.439 -183.809 210.99 87.9371 269.813 137.755C276.592 143.496 283.501 146.375 290.724 145.813C354.781 140.831 404.278 -141.358 449.429 -139.375C480.974 -137.99 466.72 32.8339 492.325 99.5566C497.432 112.865 504.206 122.088 513.436 125.19C538.396 133.579 573.719 97.7586 589.136 68.7795C609.75 30.0317 598.83 -9.02047 585.563 -53.3131C578.576 -76.636 569.856 -95.2525 562.84 -108.421"/>
<path stroke-miterlimit="10" stroke-width="0.5" stroke="#D1DBF3" d="M-212.163 -133.709C-201.324 -102.017 -185.644 -58.1889 -155.141 -12.2443C-132.507 21.8477 -55.5965 150.253 2.96474 136.218C84.164 116.756 78.6862 -179.818 125.084 -180.202C178.136 -180.64 207.631 89.9315 266.823 137.781C273.627 143.281 280.515 145.938 287.692 145.213C351.164 138.799 399.288 -139.511 446.688 -138.432C479.048 -137.696 467.425 27.9073 493.207 92.8337C498.341 105.762 505.058 114.766 514.127 117.902C538.814 126.441 573.258 92.5106 588.646 65.2566C609.187 28.8761 599.326 -7.60414 586.974 -49.3939C580.532 -71.1837 572.34 -88.5636 565.693 -100.905"/>
<path stroke-miterlimit="10" stroke-width="0.5" stroke="#D1DBF3" d="M-210.906 -125.19C-200.175 -95.3959 -185.095 -53.7205 -155.113 -10.5072C-132.994 21.3733 -58.2366 143.527 -1.34653 129.061C77.9759 108.89 74.1152 -177.211 120.106 -177.326C174.835 -177.462 204.271 91.9287 263.835 137.809C270.662 143.068 277.53 145.503 284.662 144.614C347.547 136.772 394.297 -137.642 443.949 -137.489C477.123 -137.387 468.129 22.9809 494.092 86.1116C499.253 98.6609 505.912 107.444 514.82 110.615C539.235 119.303 572.8 87.2584 588.158 61.7354C608.63 27.7146 599.824 -6.18691 588.388 -45.4744C582.492 -65.731 574.828 -81.8744 568.55 -93.3895"/>
<path stroke-miterlimit="10" stroke-width="0.5" stroke="#D1DBF3" d="M-209.65 -116.671C-199.027 -88.7746 -184.546 -49.236 -155.086 -8.77115C-133.475 20.9123 -60.8774 136.793 -5.66109 121.902C71.787 101.016 69.5429 -174.594 115.125 -174.451C171.531 -174.275 200.899 93.9264 260.841 137.835C267.692 142.853 274.54 145.069 281.627 144.015C343.925 134.75 389.299 -135.755 441.205 -136.546C475.191 -137.063 468.827 18.0538 494.972 79.3887C500.159 91.5579 506.761 100.125 515.509 103.328C539.65 112.168 572.339 81.9994 587.665 58.2146C608.072 26.5444 600.313 -4.76732 589.797 -41.5531C584.444 -60.2765 577.31 -75.1842 571.402 -85.8717"/>
<path stroke-miterlimit="10" stroke-width="0.5" stroke="#D1DBF3" d="M-208.392 -108.152C-197.878 -82.1531 -183.992 -44.7296 -155.058 -7.03475C-133.946 20.4702 -63.5158 130.054 -9.97275 114.745C65.6037 93.1356 64.9733 -171.963 110.145 -171.576C168.231 -171.079 197.525 95.9273 257.851 137.862C264.724 142.64 271.553 144.634 278.595 143.415C340.304 132.733 384.305 -133.851 438.464 -135.602C473.262 -136.728 469.527 13.1269 495.855 72.6669C501.068 84.4566 507.612 92.8049 516.2 96.0407C540.067 105.035 571.884 76.7349 587.175 54.6928C607.522 25.3627 600.802 -3.34869 591.208 -37.6342C586.398 -54.8238 579.795 -68.4955 574.256 -78.3563"/>
<path stroke-miterlimit="10" stroke-width="0.5" stroke="#D1DBF3" d="M-207.135 -99.6329C-196.729 -75.5315 -183.432 -40.2004 -155.03 -5.2984C-134.404 20.0494 -66.1526 123.308 -14.285 107.586C59.4218 85.2463 60.4031 -169.322 105.166 -168.701C164.932 -167.873 194.145 97.93 254.862 137.889C261.757 142.427 268.566 144.199 275.564 142.815C336.683 130.72 379.312 -131.931 435.724 -134.659C471.336 -136.382 470.226 8.19989 496.739 65.9438C501.977 77.3538 508.466 85.4856 516.893 88.7534C540.487 97.9022 571.435 71.4625 586.686 51.1717C606.98 24.1716 601.288 -1.92885 592.622 -33.7132C588.353 -49.3698 582.281 -61.8043 577.112 -70.8387"/>
<path stroke-miterlimit="10" stroke-width="0.5" stroke="#D1DBF3" d="M-205.878 -91.1145C-195.581 -68.9108 -182.861 -35.6471 -155.003 -3.56286C-134.846 19.6512 -68.7897 116.553 -18.5973 100.428C53.243 77.3479 55.8341 -166.671 100.186 -165.827C161.632 -164.657 190.759 99.9363 251.871 137.915C258.787 142.213 265.577 143.765 272.531 142.214C333.06 128.712 374.318 -129.995 432.982 -133.718C469.407 -136.029 470.92 3.27065 497.621 59.2202C502.884 70.2504 509.316 78.1653 517.583 81.4643C540.903 90.769 570.991 66.18 586.196 47.6477C606.447 22.965 601.766 -0.511465 594.034 -29.7957C590.305 -43.9188 584.767 -55.117 579.967 -63.3235"/>
<path stroke-miterlimit="10" stroke-width="0.5" stroke="#D1DBF3" d="M-204.622 -82.5948C-194.433 -62.2888 -182.275 -31.0637 -154.976 -1.826C-135.267 19.2824 -71.4266 109.792 -22.9105 93.2701C47.0645 69.441 51.2633 -164.011 95.206 -162.952C158.332 -161.43 187.367 101.948 248.88 137.942C255.817 142.001 262.589 143.333 269.497 141.615C329.437 126.711 369.325 -128.044 430.239 -132.774C467.479 -135.665 471.611 -1.65626 498.501 52.4982C503.79 63.148 510.166 70.8485 518.272 74.1774C541.318 83.6407 570.554 60.8916 585.703 44.1271C605.925 21.7481 602.233 0.91037 595.442 -25.8751C592.25 -38.4653 587.248 -48.4275 582.818 -55.8064"/>
<path stroke-miterlimit="10" stroke-width="0.5" stroke="#D1DBF3" d="M-203.364 -74.0756C-193.284 -55.6672 -181.663 -26.4513 -154.947 -0.0888476C-135.658 18.9447 -74.0613 103.023 -27.2219 86.1133C40.8899 61.5245 46.6947 -161.342 90.2276 -160.076C155.033 -158.192 183.972 103.964 245.891 137.968C252.847 141.789 259.603 142.9 266.467 141.015C325.817 124.714 364.337 -126.082 427.499 -131.831C465.554 -135.295 472.302 -6.58438 499.386 45.7753C504.698 56.045 511.019 63.5309 518.965 66.8902C541.736 76.5141 570.134 55.5944 585.215 40.6057C605.426 20.518 602.695 2.33255 596.857 -21.9549C594.199 -33.0129 589.736 -41.7375 585.676 -48.2897"/>
<path stroke-miterlimit="10" stroke-width="0.5" stroke="#D1DBF3" d="M-202.107 -65.5572C-192.135 -49.0465 -181.015 -21.8094 -154.92 1.6467C-136.013 18.6414 -76.6976 96.2434 -31.5341 78.9548C34.715 53.5945 42.1251 -158.666 85.2482 -157.202C151.733 -154.944 180.571 105.985 242.9 137.995C249.876 141.577 256.616 142.469 263.434 140.416C322.196 122.723 359.35 -124.106 424.757 -130.887C463.63 -134.918 472.989 -11.5104 500.268 39.0536C505.603 48.9437 511.868 56.2152 519.656 59.6031C542.151 69.3892 569.729 50.2917 584.724 37.084C604.946 19.2743 603.135 3.75635 598.267 -18.0352C596.14 -27.5621 592.22 -35.0482 588.529 -40.7736"/>
<path stroke-miterlimit="10" stroke-width="0.5" stroke="#D1DBF3" d="M-200.851 -57.0376C-190.987 -42.4245 -180.317 -17.1395 -154.893 3.38351C-136.319 18.3764 -79.3352 89.4549 -35.8473 71.7968C28.5388 45.6537 37.5539 -155.983 80.2685 -154.327C148.432 -151.683 177.164 108.013 239.909 138.022C246.905 141.367 253.628 142.037 260.402 139.816C318.576 120.736 354.367 -122.12 422.016 -129.945C461.707 -134.536 473.673 -16.4377 501.151 32.3303C506.509 41.8407 512.72 48.8994 520.347 52.3148C542.567 62.2652 569.345 44.9834 584.234 33.562C604.496 18.0201 603.548 5.18016 599.679 -14.1157C598.076 -22.113 594.706 -28.3589 591.383 -33.2576"/>
<path stroke-miterlimit="10" stroke-width="0.5" stroke="#D1DBF3" d="M-199.593 -48.5183C-189.838 -35.8029 -175.978 -16.6119 -154.865 5.11993C-134.514 14.6383 -81.9732 82.6564 -40.16 64.6397C22.3623 37.6995 32.9829 -153.293 75.2881 -151.451C145.131 -148.411 173.753 110.048 236.918 138.049C243.932 141.158 250.64 141.607 257.369 139.216C314.956 118.754 349.385 -120.123 419.274 -129.002C459.786 -134.149 474.354 -21.364 502.033 25.6083C507.415 34.7396 513.569 41.5845 521.038 45.0285C542.982 55.1449 567.702 37.3406 583.744 30.0408C605.851 19.9815 603.915 6.60437 601.091 -10.1949C600.004 -16.6662 597.19 -21.6687 594.237 -25.7399"/>
<path stroke-miterlimit="10" stroke-width="0.5" stroke="#D1DBF3" d="M-198.336 -39.9992C-188.689 -29.1814 -175.166 -12.3544 -154.837 6.85625C-134.827 13.9942 -84.613 75.8472 -44.4721 57.4812C16.1842 29.7294 28.412 -150.597 70.3087 -148.576C141.829 -145.127 170.339 112.089 233.927 138.075C240.959 140.949 247.653 141.177 254.336 138.616C311.339 116.777 344.406 -118.116 416.532 -128.059C457.866 -133.757 475.03 -26.2897 502.915 18.8859C508.317 27.6377 514.418 34.2704 521.729 37.7406C543.395 48.0255 567.555 31.8404 583.253 26.5192C605.254 19.062 604.191 8.02329 602.502 -6.27576C601.917 -11.2321 599.675 -14.9798 597.091 -18.2242"/>
<path stroke-miterlimit="10" stroke-width="0.5" stroke="#D1DBF3" d="M-197.08 -31.4803C-187.542 -22.5601 -174.356 -8.09792 -154.81 8.59229C-135.142 13.3511 -87.2571 69.0257 -48.7855 50.3233C10.0011 21.7442 23.8397 -147.895 65.3285 -145.702C138.525 -141.832 166.921 114.137 230.936 138.101C237.986 140.74 244.666 140.747 251.303 138.015C307.725 114.803 339.429 -116.101 413.79 -127.117C455.947 -133.362 475.703 -31.2152 503.797 12.1617C509.22 20.5345 515.268 26.9555 522.419 30.4515C543.806 40.907 568.362 29.0928 582.762 22.9951C603.378 14.2673 604.266 9.40911 603.913 -2.35781C603.809 -5.82886 602.159 -8.29212 599.945 -10.7098"/>
<path stroke-miterlimit="10" stroke-width="0.5" stroke="#D1DBF3" d="M-195.822 -22.9611C-186.393 -15.9386 -173.543 -3.84036 -154.782 10.3294C-135.454 12.7078 -89.9027 62.1938 -53.0967 43.1665C3.81595 13.7436 19.2687 -145.187 60.3499 -142.826C135.223 -138.521 163.501 116.196 227.947 138.13C235.015 140.535 241.682 140.32 248.273 137.418C304.114 112.837 334.458 -114.075 411.05 -126.172C454.033 -132.961 476.374 -36.1347 504.681 5.44132C510.124 13.435 516.118 19.6447 523.111 23.1669C544.219 33.795 568.099 23.8404 582.273 19.4767C603.094 13.067 606.272 10.6835 605.326 1.56464C606.22 -0.361673 604.645 -1.59992 602.801 -3.19083"/>
<path stroke-miterlimit="10" stroke-width="0.5" stroke="#D1DBF3" d="M-194.565 -14.4419C-185.244 -9.31699 -172.732 0.416465 -154.753 12.0654C-135.767 12.0646 -91.3016 57.4669 -57.4083 36.0076C-4.33725 2.40561 14.6969 -142.476 55.3707 -139.952C131.918 -135.201 160.079 118.261 224.957 138.155C232.041 140.327 238.695 139.889 245.24 136.817C300.505 110.872 329.488 -112.045 408.31 -125.23C452.118 -132.559 477.04 -41.0557 505.565 -1.28247C511.027 6.33313 516.968 12.3318 523.804 15.8777C544.631 26.6805 567.862 18.6233 581.785 15.9533C602.847 11.9137 606.797 12.0916 606.74 5.48324C608.192 5.08642 607.132 5.0876 605.657 4.32423"/>
<path stroke-miterlimit="10" stroke-width="0.5" stroke="#D1DBF3" d="M-193.309 -5.92307C-184.096 -2.69584 -171.921 4.67363 -154.726 13.8013C-136.081 11.4209 -93.9366 50.5186 -61.7212 28.8496C-10.6034 -5.53355 10.1224 -139.759 50.3913 -137.077C128.611 -131.865 156.656 120.336 221.967 138.182C229.068 140.122 235.71 139.462 242.208 136.217C296.899 108.912 324.521 -110.005 405.567 -124.287C450.205 -132.153 477.699 -45.973 506.447 -8.00482C511.926 -0.766891 517.815 5.02156 524.494 8.5903C545.038 19.5709 567.632 13.4556 581.293 12.4315C602.612 10.833 607.319 13.502 608.15 9.40294C610.16 10.5353 609.615 11.7775 608.509 11.8409"/>
<path stroke-miterlimit="10" stroke-width="0.5" stroke="#D1DBF3" d="M-192.051 2.59617C-182.947 3.92575 -171.11 8.93089 -154.698 15.5377C-136.394 10.7769 -97.8766 41.6215 -66.0336 21.6912C-14.7961 -10.3769 5.54865 -137.039 45.4116 -134.202C125.304 -128.517 153.231 122.42 218.976 138.208C226.094 139.918 232.725 139.034 239.176 135.617C293.296 106.955 319.558 -107.96 402.826 -123.344C448.293 -131.745 478.356 -50.8873 507.329 -14.7277C512.826 -7.86702 518.662 -2.28957 525.184 1.30318C545.446 12.4632 567.399 8.33685 580.803 8.91018C602.373 9.83357 607.843 14.9118 609.561 13.3229C612.13 15.9847 612.1 18.4672 611.364 19.3573"/>
<path stroke-miterlimit="10" stroke-width="0.5" stroke="#D1DBF3" d="M-190.794 11.1154C-181.798 10.5473 -170.298 13.1877 -154.671 17.2741C-136.707 10.1341 -100.55 34.7382 -70.3455 14.5336C-21.0257 -18.4578 0.974459 -134.314 40.4321 -131.327C121.994 -125.154 149.809 124.514 215.986 138.235C223.121 139.714 229.74 138.606 236.144 135.017C289.697 105.002 314.597 -105.908 400.085 -122.402C446.384 -131.334 479.007 -55.798 508.212 -21.451C513.726 -14.9662 519.51 -9.60024 525.875 -5.98507C545.851 5.35779 567.144 3.2594 580.312 5.3874C602.097 8.90885 608.366 16.3206 610.973 17.2417C614.101 21.433 614.585 25.1557 614.218 26.8726"/>
<path stroke-miterlimit="10" stroke-width="0.5" stroke="#D1DBF3" d="M-189.538 19.6343C-180.65 17.1685 -169.487 17.4449 -154.644 19.0101C-137.022 9.4897 -103.237 27.842 -74.6598 7.37527C-27.2762 -26.5603 -3.60353 -131.585 35.4513 -128.452C118.681 -121.776 146.385 126.617 212.994 138.261C220.146 139.511 226.754 138.179 233.11 134.417C286.1 103.052 309.636 -103.851 397.342 -121.459C444.474 -130.922 479.652 -60.7034 509.093 -28.1741C514.622 -22.0645 520.355 -16.9092 526.565 -13.2737C546.255 -1.74557 566.851 -1.7882 579.821 1.86501C601.765 8.04483 609.29 17.3632 612.383 21.1605C616.681 26.4373 617.068 31.8435 617.071 34.3879"/>
<path stroke-miterlimit="10" stroke-width="0.5" stroke="#D1DBF3" d="M-188.28 28.1534C-179.501 23.7901 -168.676 21.7017 -154.615 20.7473C-137.334 8.84724 -105.934 20.9357 -78.9711 0.218406C-33.5471 -34.6836 -8.17928 -128.852 30.4722 -125.577C115.368 -118.382 142.965 128.73 210.004 138.288C217.174 139.311 223.77 137.753 230.078 133.818C282.508 101.105 304.682 -101.787 394.602 -120.515C442.568 -130.505 480.294 -65.6014 509.977 -34.8959C515.52 -29.1608 521.203 -24.2166 527.258 -20.5596C546.657 -8.84432 566.52 -6.81678 579.333 -1.6551C601.368 7.2226 609.734 18.9171 613.797 25.082C618.42 32.0976 619.556 38.5347 619.928 41.9059"/>
<path stroke-miterlimit="10" stroke-width="0.5" stroke="#D1DBF3" d="M-187.023 36.6727C-178.352 30.4112 -167.864 25.9593 -154.588 22.4837C-137.648 8.20366 -108.646 14.0174 -83.2832 -6.93918C-39.8444 -42.8305 -12.7558 -126.116 25.4937 -122.701C112.052 -114.974 139.55 130.852 207.015 138.315C214.202 139.11 220.788 137.328 227.047 133.218C278.922 99.1596 299.73 -99.7187 391.861 -119.572C440.664 -130.089 480.931 -70.4933 510.86 -41.6183C516.418 -36.2566 522.049 -31.5239 527.949 -27.8471C547.057 -15.9413 566.146 -11.846 578.842 -5.17709C600.902 6.40984 610.181 20.4033 615.209 29.0016C620.261 37.6416 622.041 45.2245 622.782 49.4224"/>
<path stroke-miterlimit="10" stroke-width="0.5" stroke="#D1DBF3" d="M-185.767 45.1915C-177.204 37.0324 -162.542 35.5481 -154.561 24.2197C-141.016 4.99362 -111.377 7.08874 -87.5966 -14.0979C-46.1761 -50.9994 -17.3361 -123.378 20.5131 -119.827C108.733 -111.55 136.136 132.982 204.023 138.342C211.229 138.911 217.805 136.902 224.013 132.619C275.336 97.2174 294.778 -97.6442 389.118 -118.628C438.757 -129.669 481.561 -75.3767 511.74 -48.3398C517.311 -43.3498 522.892 -38.8294 528.638 -35.134C547.452 -23.0343 565.733 -16.8835 578.351 -8.6982C600.375 5.59008 610.638 21.8628 616.619 32.9217C622.147 43.1435 624.524 51.9144 625.634 56.9391"/>
<path stroke-miterlimit="10" stroke-width="0.5" stroke="#D1DBF3" d="M-184.509 53.7107C-176.055 43.6539 -165.162 35.7876 -154.533 25.956C-136.154 8.95529 -114.126 0.152584 -91.9083 -21.2556C-52.5427 -59.187 -21.9148 -120.636 15.5336 -116.952C105.411 -108.11 132.727 135.121 201.033 138.369C208.258 138.712 214.822 136.476 220.981 132.019C271.757 95.276 289.83 -95.5671 386.376 -117.686C436.855 -129.25 482.189 -80.2515 512.624 -55.0631C518.206 -50.4431 523.736 -46.1359 529.33 -42.4216C547.847 -30.1262 565.294 -21.937 577.86 -12.2203C599.805 4.74725 611.106 23.3069 618.031 36.8412C624.06 48.6261 627.009 58.6028 628.489 64.455"/>
<path stroke-miterlimit="10" stroke-width="0.5" stroke="#D1DBF3" d="M-183.252 62.23C-174.907 50.2748 -164.625 39.4734 -154.505 27.6925C-137.117 7.44927 -116.896 -6.78911 -96.221 -28.4139C-58.952 -67.3931 -26.4959 -117.892 10.5546 -114.077C102.088 -104.653 129.325 137.267 198.043 138.395C205.287 138.514 211.85 136.062 217.949 131.419C268.255 93.4318 284.886 -93.4861 383.636 -116.744C434.954 -128.83 482.816 -85.1155 513.507 -61.7868C519.102 -57.5347 524.58 -53.4422 530.022 -49.7103C548.239 -37.2158 564.833 -27.0103 577.371 -15.7431C599.204 3.87585 611.585 24.7411 619.443 40.7596C625.987 54.0974 629.495 65.291 631.344 71.9699"/>
<path stroke-miterlimit="10" stroke-width="0.5" stroke="#D1DBF3" d="M-181.996 70.7488C-173.759 56.8959 -164.19 43.2984 -154.478 29.4285C-138.165 6.12932 -119.691 -13.7343 -100.534 -35.572C-65.4089 -75.6115 -31.0785 -115.145 5.57383 -111.203C98.759 -101.179 125.928 139.53 195.051 138.421C202.315 138.328 208.862 135.63 214.915 130.819C264.646 91.4444 279.971 -91.2771 380.893 -115.801C433.067 -128.345 483.437 -89.9675 514.388 -68.5101C519.994 -64.6235 525.421 -60.7477 530.712 -56.999C548.626 -44.3023 564.356 -32.1015 576.879 -19.2664C598.58 2.97341 612.03 26.1874 620.854 44.678C627.892 59.5767 631.979 71.979 634.198 79.4847"/>
<path stroke-miterlimit="10" stroke-width="0.5" stroke="#D1DBF3" d="M-180.738 79.268C-134.704 -9.92952 -67.0531 -115.917 0.594865 -108.327C95.4287 -97.6863 122.535 141.582 192.061 138.449C258.962 135.432 262.397 -86.1886 378.152 -114.857C431.153 -127.983 484.06 -94.804 515.271 -75.2313C599.195 -22.6018 628.673 60.0263 637.052 87.0041"/>
</g>
</svg>