<svg width="26" height="26" viewBox="0 0 26 26" fill="none" xmlns="http://www.w3.org/2000/svg">
<path d="M12.6 4.41666C13.0142 4.41666 13.35 4.08087 13.35 3.66666C13.35 3.25244 13.0142 2.91666 12.6 2.91666V4.41666ZM12.6 23.0833C13.0142 23.0833 13.35 22.7475 13.35 22.3333C13.35 21.9191 13.0142 21.5833 12.6 21.5833V23.0833ZM7.51666 18.8333C7.51666 18.4191 7.18088 18.0833 6.76666 18.0833C6.35245 18.0833 6.01666 18.4191 6.01666 18.8333H7.51666ZM6.01666 7.16666C6.01666 7.58087 6.35245 7.91666 6.76666 7.91666C7.18088 7.91666 7.51666 7.58087 7.51666 7.16666H6.01666ZM12.6 2.91666H10.2667V4.41666H12.6V2.91666ZM10.2667 23.0833H12.6V21.5833H10.2667V23.0833ZM7.51666 7.16666C7.51666 6.24666 7.78202 5.57786 8.2056 5.14198C8.6257 4.70969 9.28864 4.41666 10.2667 4.41666V2.91666C8.9809 2.91666 7.89383 3.31047 7.12988 4.0966C6.36941 4.87915 6.01666 5.96035 6.01666 7.16666H7.51666ZM10.2667 21.5833C9.34666 21.5833 8.67787 21.318 8.24199 20.8944C7.80969 20.4743 7.51666 19.8113 7.51666 18.8333H6.01666C6.01666 20.1191 6.41048 21.2062 7.19661 21.9701C7.97915 22.7306 9.06036 23.0833 10.2667 23.0833V21.5833Z" fill="#FFBF35"/>
<path d="M16.1 4.83333C16.1 3.18341 16.1 2.35845 16.698 1.84589C17.296 1.33333 18.2584 1.33333 20.1833 1.33333C22.1082 1.33333 23.0707 1.33333 23.6687 1.84589C24.2666 2.35845 24.2666 3.18341 24.2666 4.83333C24.2666 6.48324 24.2666 7.3082 23.6687 7.82077C23.0707 8.33333 22.1082 8.33333 20.1833 8.33333C18.2584 8.33333 17.296 8.33333 16.698 7.82077C16.1 7.3082 16.1 6.48324 16.1 4.83333Z" stroke="#FFBF35" stroke-width="1.5"/>
<path d="M16.1 21.1667C16.1 19.5167 16.1 18.6918 16.698 18.1792C17.296 17.6667 18.2584 17.6667 20.1833 17.6667C22.1082 17.6667 23.0707 17.6667 23.6687 18.1792C24.2666 18.6918 24.2666 19.5167 24.2666 21.1667C24.2666 22.8166 24.2666 23.6415 23.6687 24.1541C23.0707 24.6667 22.1082 24.6667 20.1833 24.6667C18.2584 24.6667 17.296 24.6667 16.698 24.1541C16.1 23.6415 16.1 22.8166 16.1 21.1667Z" stroke="#FFBF35" stroke-width="1.5"/>
<path d="M5.36363 12.537C5.077 12.238 4.60223 12.2279 4.30321 12.5146C4.00419 12.8012 3.99415 13.276 4.28078 13.575L5.36363 12.537ZM5.75186 14.0258L5.21043 14.5448L5.75186 14.0258ZM6.48515 14.0258L7.02658 14.5448L6.48515 14.0258ZM9.25252 12.2227C9.53916 11.9237 9.52912 11.4489 9.2301 11.1623C8.93107 10.8756 8.45631 10.8857 8.16967 11.1847L9.25252 12.2227ZM11.85 13C11.85 15.8074 9.5741 18.0833 6.76665 18.0833V19.5833C10.4025 19.5833 13.35 16.6359 13.35 13H11.85ZM6.76665 18.0833C3.9592 18.0833 1.68332 15.8074 1.68332 13H0.183319C0.183319 16.6359 3.13078 19.5833 6.76665 19.5833V18.0833ZM1.68332 13C1.68332 10.1925 3.9592 7.91666 6.76665 7.91666V6.41666C3.13078 6.41666 0.183319 9.36412 0.183319 13H1.68332ZM6.76665 7.91666C9.5741 7.91666 11.85 10.1925 11.85 13H13.35C13.35 9.36412 10.4025 6.41666 6.76665 6.41666V7.91666ZM4.28078 13.575L5.21043 14.5448L6.29328 13.5068L5.36363 12.537L4.28078 13.575ZM7.02658 14.5448L9.25252 12.2227L8.16967 11.1847L5.94373 13.5068L7.02658 14.5448ZM5.21043 14.5448C5.28198 14.6195 5.38713 14.7315 5.49266 14.8155C5.61406 14.9121 5.82495 15.0463 6.1185 15.0463V13.5463C6.2032 13.5463 6.27913 13.5654 6.33941 13.5916C6.39325 13.6151 6.42378 13.6395 6.42679 13.6419C6.4296 13.6441 6.42143 13.6378 6.39512 13.6117C6.36914 13.5859 6.33843 13.5539 6.29328 13.5068L5.21043 14.5448ZM5.94373 13.5068C5.89858 13.5539 5.86787 13.5859 5.84189 13.6117C5.81558 13.6378 5.8074 13.6441 5.81022 13.6419C5.81323 13.6395 5.84376 13.6151 5.8976 13.5916C5.95788 13.5654 6.03381 13.5463 6.1185 13.5463V15.0463C6.41206 15.0463 6.62295 14.9121 6.74435 14.8155C6.84988 14.7315 6.95503 14.6195 7.02658 14.5448L5.94373 13.5068Z" fill="#FFBF35"/>
</svg>
