<svg width="16" height="18" viewBox="0 0 16 18" fill="none" xmlns="http://www.w3.org/2000/svg">
<path d="M11 12.75L5.75 12.75" stroke="#FFC955" stroke-width="1.5" stroke-linecap="round" stroke-linejoin="round"/>
<path d="M11 9.75L8.75 9.75" stroke="#FFC955" stroke-width="1.5" stroke-linecap="round" stroke-linejoin="round"/>
<path d="M14.375 10.5C14.375 13.3284 14.375 14.7426 13.4414 15.6213C12.5078 16.5 11.0052 16.5 8 16.5H7.42046C4.97455 16.5 3.7516 16.5 2.9023 15.9016C2.65896 15.7302 2.44294 15.5269 2.26078 15.2978C1.625 14.4985 1.625 13.3475 1.625 11.0455V9.13636C1.625 6.91398 1.625 5.8028 1.9767 4.91531C2.54211 3.48857 3.73785 2.36316 5.25377 1.83101C6.19672 1.5 7.37736 1.5 9.73864 1.5C11.0879 1.5 11.7626 1.5 12.3014 1.68915C13.1677 1.99324 13.8509 2.63632 14.174 3.45161C14.375 3.95874 14.375 4.59371 14.375 5.86364V10.5Z" stroke="#FFC955" stroke-width="1.5" stroke-linejoin="round"/>
<path d="M1.625 9C1.625 7.61929 2.74429 6.5 4.125 6.5C4.62434 6.5 5.21303 6.58749 5.69852 6.45741C6.12989 6.34182 6.46682 6.00489 6.58241 5.57352C6.7125 5.08803 6.625 4.49934 6.625 4C6.625 2.61929 7.74429 1.5 9.125 1.5" stroke="#FFC955" stroke-width="1.5" stroke-linecap="round" stroke-linejoin="round"/>
</svg>
