<svg width="26" height="26" viewBox="0 0 26 26" fill="none" xmlns="http://www.w3.org/2000/svg">
<path d="M13 8.33333V13M13 13H9.49998C7.30009 13 6.20015 13 5.51673 13.6834C4.83331 14.3668 4.83331 15.4668 4.83331 17.6667M13 13H16.5C18.6999 13 19.7998 13 20.4832 13.6834C21.1666 14.3668 21.1666 15.4668 21.1666 17.6667" stroke="#3575FF" stroke-width="1.5" stroke-linecap="round" stroke-linejoin="round"/>
<path d="M1.33331 21.1667C1.33331 19.5167 1.33331 18.6918 1.84588 18.1792C2.35844 17.6667 3.1834 17.6667 4.83331 17.6667C6.48323 17.6667 7.30819 17.6667 7.82075 18.1792C8.33331 18.6918 8.33331 19.5167 8.33331 21.1667C8.33331 22.8166 8.33331 23.6415 7.82075 24.1541C7.30819 24.6667 6.48323 24.6667 4.83331 24.6667C3.1834 24.6667 2.35844 24.6667 1.84588 24.1541C1.33331 23.6415 1.33331 22.8166 1.33331 21.1667Z" stroke="#3575FF" stroke-width="1.5"/>
<path d="M17.6666 21.1667C17.6666 19.5167 17.6666 18.6918 18.1792 18.1792C18.6918 17.6667 19.5167 17.6667 21.1666 17.6667C22.8165 17.6667 23.6415 17.6667 24.1541 18.1792C24.6666 18.6918 24.6666 19.5167 24.6666 21.1667C24.6666 22.8166 24.6666 23.6415 24.1541 24.1541C23.6415 24.6667 22.8165 24.6667 21.1666 24.6667C19.5167 24.6667 18.6918 24.6667 18.1792 24.1541C17.6666 23.6415 17.6666 22.8166 17.6666 21.1667Z" stroke="#3575FF" stroke-width="1.5"/>
<path d="M11 1.33333H15C17.4203 1.33333 17.6666 2.62824 17.6666 4.83333C17.6666 7.03841 17.4203 8.33333 15 8.33333H11C8.57971 8.33333 8.33331 7.03841 8.33331 4.83333C8.33331 2.62824 8.57971 1.33333 11 1.33333Z" stroke="#3575FF" stroke-width="1.5"/>
</svg>
