<svg width="22" height="26" viewBox="0 0 22 26" fill="none" xmlns="http://www.w3.org/2000/svg">
<path d="M0.883259 10.6667C0.883259 6.26689 0.883259 4.067 2.33552 2.70016C3.78778 1.33333 6.12516 1.33333 10.7999 1.33333H11.7014C15.5062 1.33333 17.4085 1.33333 18.7297 2.26414C19.1082 2.53083 19.4442 2.84711 19.7276 3.20337C20.7166 4.44678 20.7166 6.23724 20.7166 9.81818V12.7879C20.7166 16.2449 20.7166 17.9734 20.1695 19.354C19.29 21.5733 17.4299 23.324 15.0718 24.1517C13.605 24.6667 11.7685 24.6667 8.09538 24.6667C5.99647 24.6667 4.94701 24.6667 4.10883 24.3724C2.76135 23.8994 1.69847 22.899 1.19588 21.6308C0.883259 20.842 0.883259 19.8542 0.883259 17.8788V10.6667Z" stroke="#4524F8" stroke-width="1.5" stroke-linejoin="round"/>
<path d="M20.7166 13C20.7166 15.1478 18.9755 16.8889 16.8277 16.8889C16.051 16.8889 15.1352 16.7528 14.38 16.9551C13.709 17.1349 13.1849 17.6591 13.0051 18.3301C12.8027 19.0853 12.9388 20.001 12.9388 20.7778C12.9388 22.9256 11.1977 24.6667 9.04993 24.6667" stroke="#4524F8" stroke-width="1.5" stroke-linecap="round" stroke-linejoin="round"/>
<path d="M6.13326 7.16666H14.2999" stroke="#4524F8" stroke-width="1.5" stroke-linecap="round" stroke-linejoin="round"/>
<path d="M6.13326 11.8333H9.63326" stroke="#4524F8" stroke-width="1.5" stroke-linecap="round" stroke-linejoin="round"/>
</svg>
