<svg width="26" height="26" viewBox="0 0 26 26" fill="none" xmlns="http://www.w3.org/2000/svg">
<path d="M3.60717 12.9327C2.50114 11.0042 1.9671 9.42939 1.64509 7.83308C1.16884 5.47217 2.25872 3.16594 4.06422 1.69438C4.8273 1.07244 5.70205 1.28493 6.15328 2.09446L7.17199 3.92205C7.97945 5.37065 8.38318 6.09495 8.3031 6.86285C8.22302 7.63075 7.67854 8.25617 6.58958 9.507L3.60717 12.9327ZM3.60717 12.9327C5.84587 16.8363 9.35909 20.3515 13.2672 22.5928M13.2672 22.5928C15.1958 23.6988 16.7706 24.2328 18.3669 24.5548C20.7278 25.0311 23.034 23.9412 24.5056 22.1357C25.1275 21.3726 24.915 20.4979 24.1055 20.0467L22.2779 19.0279C20.8293 18.2205 20.105 17.8168 19.3371 17.8968C18.5692 17.9769 17.9438 18.5214 16.6929 19.6104L13.2672 22.5928Z" stroke="#24D6A5" stroke-width="1.5" stroke-linejoin="round"/>
<path d="M13.2 7.16666H14.2C14.6714 7.16666 14.9071 7.16666 15.0535 7.30904C15.2 7.45141 15.2 7.68057 15.2 8.13888C15.2 9.0555 15.2 9.51381 14.9071 9.79857C14.6843 10.0151 14.3583 10.067 13.8002 10.0794C13.514 10.0858 13.3709 10.089 13.2854 10.174C13.2 10.259 13.2 10.3949 13.2 10.6667V12.0278C13.2 12.4861 13.2 12.7152 13.3464 12.8576C13.4928 13 13.7285 13 14.2 13H15.2M20.2 7.16666V10.0833M20.2 10.0833H18.5C18.1228 10.0833 17.9343 10.0833 17.8171 9.96942C17.7 9.85552 17.7 9.67219 17.7 9.30555V7.16666M20.2 10.0833V13" stroke="#24D6A5" stroke-width="1.5" stroke-linecap="round" stroke-linejoin="round"/>
<path d="M10.8666 4.0227C10.9705 3.90604 11.0783 3.79169 11.1902 3.67983C14.3189 0.551162 19.3914 0.551162 22.5201 3.67983C25.6488 6.8085 25.6488 11.8811 22.5201 15.0097C22.4082 15.1216 22.2939 15.2295 22.1772 15.3333" stroke="#24D6A5" stroke-width="1.5" stroke-linecap="round"/>
</svg>
