<svg width="28" height="22" viewBox="0 0 28 22" fill="none" xmlns="http://www.w3.org/2000/svg">
<path d="M24.6362 18C25.5104 18 26.2057 17.4499 26.83 16.6807C28.108 15.106 26.0097 13.8476 25.2094 13.2314C24.3958 12.6049 23.4875 12.25 22.5665 12.1667M21.3998 9.83333C23.0106 9.83333 24.3165 8.5275 24.3165 6.91667C24.3165 5.30584 23.0106 4 21.3998 4" stroke="#F36643" stroke-width="1.5" stroke-linecap="round"/>
<path d="M4.16345 18C3.28926 18 2.59394 17.4499 1.96963 16.6807C0.691601 15.106 2.78995 13.8476 3.59025 13.2314C4.4038 12.6049 5.31218 12.25 6.23316 12.1667M6.8165 9.83333C5.20567 9.83333 3.89983 8.5275 3.89983 6.91667C3.89983 5.30584 5.20567 4 6.8165 4" stroke="#F36643" stroke-width="1.5" stroke-linecap="round"/>
<path d="M9.83091 14.6297C8.63883 15.3668 5.51328 16.8719 7.41695 18.7553C8.34688 19.6754 9.38258 20.3333 10.6847 20.3333H18.1149C19.417 20.3333 20.4527 19.6754 21.3826 18.7553C23.2863 16.8719 20.1608 15.3668 18.9687 14.6297C16.1733 12.9012 12.6263 12.9012 9.83091 14.6297Z" stroke="#F36643" stroke-width="1.5" stroke-linecap="round" stroke-linejoin="round"/>
<path d="M18.4831 5.75C18.4831 8.00517 16.655 9.83334 14.3998 9.83334C12.1446 9.83334 10.3165 8.00517 10.3165 5.75C10.3165 3.49484 12.1446 1.66667 14.3998 1.66667C16.655 1.66667 18.4831 3.49484 18.4831 5.75Z" stroke="#F36643" stroke-width="1.5"/>
</svg>
