<svg width="18" height="19" viewBox="0 0 18 19" fill="none" xmlns="http://www.w3.org/2000/svg">
<path d="M1.10819 11.3922C0.930976 12.5538 1.72325 13.3602 2.6933 13.762C6.41226 15.3026 11.5876 15.3026 15.3065 13.762C16.2766 13.3602 17.0689 12.5538 16.8916 11.3922C16.7827 10.6782 16.2442 10.0837 15.8452 9.50323C15.3227 8.73353 15.2707 7.89399 15.2706 7.0008C15.2706 3.54903 12.4631 0.750805 8.99992 0.750805C5.53669 0.750805 2.72919 3.54903 2.72919 7.0008C2.72911 7.89399 2.67719 8.73353 2.15459 9.50323C1.75562 10.0837 1.2171 10.6782 1.10819 11.3922Z" stroke="#414345" stroke-width="1.5" stroke-linecap="round" stroke-linejoin="round"/>
<path d="M5.6665 14.9175C6.04858 16.3552 7.39611 17.4175 8.99984 17.4175C10.6036 17.4175 11.9511 16.3552 12.3332 14.9175" stroke="#414345" stroke-width="1.5" stroke-linecap="round" stroke-linejoin="round"/>
</svg>
