<svg width="16" height="16" viewBox="0 0 16 16" fill="none" xmlns="http://www.w3.org/2000/svg">
<path d="M3.33331 14C6.13997 10.8324 9.2941 6.63167 14 9.7823" stroke="#AAAAAA" stroke-width="1.5"/>
<path d="M9.33331 2.00154C9.01991 2 8.02043 2 7.66665 2C4.68108 2 3.1883 2 2.26081 2.9275C1.33331 3.85499 1.33331 5.34777 1.33331 8.33333C1.33331 11.3189 1.33331 12.8117 2.26081 13.7392C3.1883 14.6667 4.68108 14.6667 7.66665 14.6667C10.6522 14.6667 12.145 14.6667 13.0725 13.7392C13.9648 12.8469 13.9986 11.4313 13.9999 8.66667" stroke="#AAAAAA" stroke-width="1.5" stroke-linecap="round"/>
<path d="M11.3333 5.00001C11.661 5.33714 12.5332 6.66667 13 6.66667M14.6666 5.00001C14.339 5.33714 13.4668 6.66667 13 6.66667M13 6.66667V1.33334" stroke="#AAAAAA" stroke-width="1.5" stroke-linecap="round" stroke-linejoin="round"/>
</svg>
