<svg width="18" height="18" viewBox="0 0 18 18" fill="none" xmlns="http://www.w3.org/2000/svg">
<path d="M6.5 13.6875C6.56133 15.2308 7.84742 16.5412 9.5703 16.499C9.97113 16.4892 10.4666 16.3495 11.4574 16.07C13.842 15.3974 15.912 14.267 16.4087 11.7346C16.5 11.2691 16.5 10.7453 16.5 9.69771L16.5 8.30229C16.5 7.25468 16.5 6.73087 16.4087 6.26538C15.912 3.73304 13.842 2.60263 11.4574 1.93002C10.4666 1.65054 9.97113 1.5108 9.5703 1.50099C7.84743 1.45884 6.56134 2.76923 6.5 4.31251" stroke="#F9291F" stroke-width="1.5" stroke-linecap="round"/>
<path d="M1.49996 8.99999H10.6666M1.49996 8.99999C1.49996 8.41647 3.16188 7.32626 3.58329 6.91666M1.49996 8.99999C1.49996 9.58351 3.16188 10.6737 3.58329 11.0833" stroke="#F9291F" stroke-width="1.5" stroke-linecap="round" stroke-linejoin="round"/>
</svg>
