<svg width="18" height="19" viewBox="0 0 18 19" fill="none" xmlns="http://www.w3.org/2000/svg">
<path d="M16.7645 5.0353L16.3532 4.32146C16.0421 3.7816 15.8865 3.51167 15.6219 3.40404C15.3573 3.2964 15.0579 3.38133 14.4593 3.5512L13.4425 3.83762C13.0603 3.92575 12.6593 3.87576 12.3104 3.69646L12.0297 3.53448C11.7304 3.34283 11.5003 3.06025 11.3729 2.72809L11.0946 1.89693C10.9116 1.34692 10.8201 1.07191 10.6023 0.914611C10.3845 0.757313 10.0951 0.757313 9.51651 0.757313H8.58753C8.0089 0.757313 7.71958 0.757313 7.50177 0.914611C7.28396 1.07191 7.19247 1.34692 7.00949 1.89693L6.73119 2.72809C6.60379 3.06025 6.37363 3.34283 6.07439 3.53448L5.79366 3.69646C5.4447 3.87576 5.04374 3.92575 4.66157 3.83762L3.64471 3.5512C3.0461 3.38133 2.74679 3.2964 2.48214 3.40404C2.2175 3.51167 2.06196 3.7816 1.75088 4.32146L1.33956 5.0353C1.04797 5.54134 0.902171 5.79436 0.930467 6.06371C0.958764 6.33306 1.15394 6.55012 1.5443 6.98423L2.4035 7.94482C2.6135 8.21068 2.76259 8.67398 2.76259 9.09051C2.76259 9.50731 2.61355 9.97049 2.40352 10.2364L1.54431 11.197C1.15395 11.6311 0.958765 11.8482 0.930468 12.1175C0.902171 12.3869 1.04797 12.6399 1.33956 13.1459L1.75087 13.8597C2.06194 14.3996 2.2175 14.6695 2.48214 14.7772C2.7468 14.8848 3.04611 14.7999 3.64472 14.63L4.66154 14.3436C5.04377 14.2554 5.44481 14.3054 5.79381 14.4848L6.0745 14.6468C6.37367 14.8385 6.60379 15.121 6.73117 15.4531L7.00949 16.2844C7.19247 16.8344 7.28396 17.1094 7.50177 17.2667C7.71958 17.424 8.0089 17.424 8.58753 17.424H9.51651C10.0951 17.424 10.3845 17.424 10.6023 17.2667C10.8201 17.1094 10.9116 16.8344 11.0946 16.2844L11.3729 15.4531C11.5003 15.121 11.7304 14.8385 12.0295 14.6468L12.3102 14.4848C12.6592 14.3054 13.0603 14.2554 13.4425 14.3436L14.4593 14.63C15.0579 14.7999 15.3572 14.8848 15.6219 14.7772C15.8865 14.6695 16.0421 14.3996 16.3532 13.8597L16.3532 13.8597L16.7645 13.1459C17.0561 12.6399 17.2019 12.3869 17.1736 12.1175C17.1453 11.8482 16.9501 11.6311 16.5597 11.197L15.7005 10.2364C15.4905 9.97049 15.3415 9.50731 15.3415 9.09051C15.3415 8.67398 15.4905 8.21068 15.7005 7.94482L16.5597 6.98423C16.9501 6.55012 17.1453 6.33306 17.1736 6.06371C17.2019 5.79436 17.0561 5.54134 16.7645 5.0353Z" stroke="#414345" stroke-width="1.5" stroke-linecap="round"/>
<path d="M11.9329 9.08414C11.9329 10.695 10.6271 12.0008 9.01628 12.0008C7.40545 12.0008 6.09961 10.695 6.09961 9.08414C6.09961 7.47331 7.40545 6.16747 9.01628 6.16747C10.6271 6.16747 11.9329 7.47331 11.9329 9.08414Z" stroke="#414345" stroke-width="1.5"/>
</svg>
