<svg width="143" height="29" viewBox="0 0 143 29" fill="none" xmlns="http://www.w3.org/2000/svg">
<g clip-path="url(#clip0_2604_3246)">
<path d="M38.7132 14.041L30.8217 6.65188H35.9328L41.2395 11.65L46.5463 6.65188H51.6573L43.7658 14.041L52.4342 22.2067H47.4341L41.2395 16.4087L35.0449 22.2067H30.0448L38.7132 14.041Z" fill="white"/>
<path d="M54.3092 6.6548H57.5598V22.2067H54.3092V6.6548Z" fill="white"/>
<path d="M60.6727 8.43566C60.6727 8.16999 60.7165 7.92768 60.8012 7.70872C60.8859 7.48976 61.0086 7.30292 61.1663 7.14527C61.324 6.98762 61.5109 6.865 61.73 6.78033C61.949 6.69567 62.1914 6.65188 62.4572 6.65188H63.7744C63.9 6.65188 64.0256 6.6694 64.1482 6.70151C64.2709 6.73654 64.3906 6.78325 64.5045 6.84456C64.6184 6.90587 64.7207 6.97886 64.817 7.06352C64.9134 7.14818 64.9952 7.24161 65.0682 7.34671L71.8148 17.5619L78.5614 7.34671C78.6315 7.24161 78.7162 7.14818 78.8097 7.06352C78.9061 6.97886 79.0112 6.90587 79.1222 6.84456C79.2332 6.78325 79.3529 6.73654 79.4785 6.70151C79.6012 6.6694 79.7268 6.65188 79.8524 6.65188H81.1637C81.4295 6.65188 81.6719 6.69567 81.8909 6.78033C82.11 6.865 82.2969 6.98762 82.4546 7.14527C82.6123 7.30292 82.735 7.48976 82.8197 7.70872C82.9044 7.92768 82.9482 8.16999 82.9482 8.43566L82.9599 22.2067H79.7092V11.5653L73.2897 21.2083C73.2109 21.328 73.1203 21.4535 73.0152 21.5849C72.9101 21.7192 72.7932 21.8418 72.6676 21.9527C72.5421 22.0637 72.4077 22.1571 72.2617 22.2301C72.1157 22.303 71.9667 22.341 71.8061 22.341C71.6454 22.341 71.5023 22.303 71.3563 22.2301C71.2103 22.1571 71.0759 22.0637 70.9503 21.9527C70.8247 21.8418 70.7108 21.7192 70.6057 21.5849C70.5006 21.4506 70.41 21.325 70.3341 21.2083L63.9117 11.5536V22.2067H60.661L60.6727 8.43566Z" fill="white"/>
<path d="M90.005 6.65481H105.432V9.62681H90.0663C89.818 9.62681 89.6019 9.6706 89.4179 9.7611C89.2339 9.84869 89.082 9.96838 88.9623 10.1173C88.8426 10.2662 88.752 10.4326 88.6936 10.6194C88.6352 10.8063 88.606 10.9989 88.6089 11.1946C88.6089 11.3902 88.641 11.5828 88.7024 11.7697C88.7637 11.9565 88.8542 12.1259 88.9769 12.2718C89.0996 12.4207 89.2514 12.5375 89.4325 12.628C89.6136 12.7156 89.8239 12.7623 90.0663 12.7623L101.302 12.7798C101.825 12.7798 102.301 12.8411 102.733 12.9637C103.165 13.0864 103.551 13.2557 103.898 13.4717C104.243 13.6878 104.544 13.9447 104.801 14.2395C105.058 14.5373 105.271 14.8585 105.443 15.2088C105.613 15.5591 105.741 15.927 105.826 16.3153C105.911 16.7036 105.954 17.0948 105.954 17.4947C105.957 17.883 105.916 18.2684 105.832 18.6537C105.747 19.0362 105.619 19.404 105.449 19.7544C105.28 20.1047 105.067 20.4288 104.807 20.7295C104.55 21.0302 104.246 21.29 103.901 21.506C103.557 21.7221 103.165 21.8973 102.733 22.0228C102.298 22.1483 101.825 22.2126 101.305 22.2126H85.9132V19.2406H101.243C101.489 19.2406 101.702 19.1851 101.886 19.0712C102.07 18.9574 102.222 18.8143 102.345 18.645C102.467 18.4727 102.558 18.283 102.619 18.0786C102.68 17.8743 102.71 17.6786 102.71 17.4976C102.71 17.3312 102.68 17.159 102.619 16.9838C102.558 16.8087 102.467 16.6481 102.345 16.5079C102.222 16.3678 102.07 16.251 101.886 16.1605C101.702 16.07 101.489 16.0233 101.243 16.0233L90.0079 16.0058C89.3858 16.0058 88.825 15.9182 88.3285 15.746C87.832 15.5737 87.3939 15.3343 87.023 15.0365C86.6521 14.7358 86.3396 14.3855 86.0913 13.9885C85.8431 13.5914 85.6591 13.1652 85.5364 12.7156C85.4138 12.266 85.3524 11.8047 85.3524 11.3318C85.3524 10.8588 85.4167 10.3975 85.5423 9.94795C85.6679 9.49835 85.8548 9.07503 86.103 8.67507C86.3513 8.2751 86.6609 7.92769 87.0318 7.62698C87.4056 7.32628 87.8379 7.08981 88.3344 6.91464C88.8309 6.73947 89.3887 6.65481 90.0079 6.65481H90.005Z" fill="white"/>
<path d="M108.652 13.9566H116.012C116.29 13.9566 116.541 13.9916 116.772 14.0558C116.999 14.123 117.207 14.2135 117.391 14.3303C117.575 14.447 117.735 14.5842 117.873 14.7419C118.01 14.9025 118.124 15.0747 118.214 15.2586C118.305 15.4426 118.372 15.6382 118.419 15.8425C118.463 16.0469 118.486 16.2513 118.483 16.4585C118.483 16.6687 118.46 16.876 118.416 17.0833C118.372 17.2906 118.302 17.4862 118.214 17.6701C118.124 17.854 118.01 18.0263 117.873 18.1839C117.735 18.3416 117.578 18.4759 117.394 18.5927C117.213 18.7065 117.005 18.797 116.777 18.8612C116.55 18.9255 116.295 18.9576 116.018 18.9576H109.435V22.204H107.712V14.8995C107.712 14.7565 107.732 14.628 107.776 14.5142C107.82 14.4003 107.887 14.2981 107.969 14.2164C108.051 14.1317 108.153 14.0675 108.267 14.0237C108.381 13.9799 108.512 13.9566 108.652 13.9566ZM115.98 17.384C116.109 17.384 116.22 17.3577 116.316 17.3052C116.412 17.2526 116.494 17.1826 116.558 17.095C116.623 17.0074 116.672 16.911 116.704 16.8001C116.736 16.6892 116.754 16.5753 116.754 16.4585C116.754 16.3418 116.739 16.2279 116.71 16.117C116.681 16.006 116.631 15.9068 116.567 15.8221C116.503 15.7374 116.424 15.6644 116.325 15.6119C116.228 15.5593 116.111 15.5331 115.98 15.5331H109.429V17.384H115.98Z" fill="white"/>
<path d="M120.681 13.9563H128.04C128.318 13.9563 128.569 13.9914 128.8 14.0556C129.028 14.1227 129.235 14.2132 129.419 14.33C129.603 14.4468 129.764 14.584 129.901 14.7417C130.038 14.9022 130.152 15.0745 130.243 15.2584C130.333 15.4423 130.4 15.6379 130.447 15.8423C130.491 16.0466 130.514 16.251 130.511 16.4583C130.511 16.6685 130.488 16.8758 130.444 17.0831C130.4 17.2903 130.33 17.4859 130.243 17.6699C130.152 17.8538 130.038 18.026 129.901 18.1837C129.764 18.3413 129.606 18.4756 129.422 18.5924C129.241 18.7063 129.033 18.7968 128.806 18.861C128.578 18.9252 128.324 18.9573 128.046 18.9573H128.014L130.666 22.2038H128.528L125.876 18.9573H121.463V22.2038H119.74V14.8993C119.74 14.7563 119.761 14.6278 119.804 14.5139C119.848 14.4001 119.915 14.2979 119.997 14.2162C120.079 14.1315 120.181 14.0673 120.295 14.0235C120.409 13.9797 120.54 13.9563 120.681 13.9563ZM128.008 17.3838C128.137 17.3838 128.248 17.3575 128.344 17.3049C128.441 17.2524 128.522 17.1823 128.587 17.0947C128.651 17.0071 128.701 16.9108 128.733 16.7999C128.765 16.6889 128.782 16.5751 128.782 16.4583C128.782 16.3415 128.768 16.2277 128.739 16.1167C128.709 16.0058 128.66 15.9065 128.595 15.8218C128.531 15.7372 128.452 15.6642 128.353 15.6116C128.257 15.5591 128.14 15.5328 128.008 15.5328H121.457V17.3838H128.008Z" fill="white"/>
<path d="M132.462 21.3922C132.205 21.1441 132.004 20.855 131.863 20.531C131.72 20.2069 131.65 19.8537 131.65 19.477V16.6831C131.65 16.3065 131.72 15.9591 131.86 15.6409C132.001 15.3227 132.202 15.0307 132.465 14.768C132.728 14.5052 133.02 14.3038 133.338 14.1636C133.657 14.0235 134.004 13.9534 134.381 13.9534H139.486C139.86 13.9534 140.208 14.0235 140.529 14.1636C140.847 14.3038 141.139 14.5052 141.402 14.768C141.665 15.0307 141.866 15.3227 142.007 15.6409C142.147 15.9591 142.217 16.3065 142.217 16.6831V19.477C142.217 19.8537 142.147 20.204 142.004 20.531C141.861 20.855 141.662 21.1441 141.405 21.3922C141.282 21.5119 141.148 21.6228 141.002 21.7221C140.856 21.8214 140.701 21.9089 140.54 21.979C140.377 22.0491 140.21 22.1046 140.032 22.1454C139.857 22.1834 139.676 22.2038 139.489 22.2038H134.384C134.197 22.2038 134.016 22.1834 133.841 22.1454C133.665 22.1046 133.496 22.0491 133.332 21.979C133.169 21.906 133.017 21.8214 132.871 21.7221C132.725 21.6199 132.591 21.5119 132.468 21.3922H132.462ZM133.37 19.623C133.37 19.7544 133.4 19.877 133.455 19.9996C133.511 20.1193 133.587 20.2273 133.68 20.3208C133.773 20.4142 133.881 20.4901 134.001 20.5456C134.121 20.604 134.247 20.6302 134.378 20.6302H139.483C139.612 20.6302 139.737 20.601 139.86 20.5456C139.983 20.4901 140.088 20.4142 140.181 20.3208C140.275 20.2273 140.351 20.1193 140.406 19.9996C140.462 19.877 140.491 19.7544 140.491 19.623V16.5401C140.491 16.3999 140.465 16.2715 140.412 16.146C140.359 16.0233 140.289 15.9153 140.196 15.8248C140.102 15.7343 139.997 15.6613 139.875 15.6088C139.752 15.5562 139.62 15.5299 139.48 15.5299H134.375C134.235 15.5299 134.103 15.5562 133.981 15.6088C133.858 15.6613 133.75 15.7314 133.66 15.8248C133.569 15.9153 133.496 16.0233 133.443 16.146C133.391 16.2686 133.365 16.3999 133.365 16.5401V19.623H133.37Z" fill="white"/>
<path d="M19.4633 2.93562L15.9469 7.27393L14.5041 5.55145L14.2617 5.25951L17.4598 1.31825C17.8512 0.830701 18.5404 0.699326 19.0866 1.00879H19.0953C19.7875 1.40291 19.9598 2.31962 19.4633 2.93854V2.93562Z" fill="white"/>
<path d="M19.3261 27.9785C19.1246 28.0953 18.9027 28.1537 18.6778 28.1537C18.3068 28.1537 17.9447 27.9931 17.6935 27.6953L14.3669 23.7132L14.6035 23.4212L16.0142 21.6842L19.6649 26.0517C20.1731 26.6618 20.0125 27.5785 19.3261 27.9814V27.9785Z" fill="white"/>
<path d="M25.0647 22.8958L19.8689 16.6803L19.8105 16.7971C19.6411 17.1358 19.4308 17.4598 19.1855 17.7634L18.3181 18.832L23.0904 24.5395C23.4934 25.0212 24.1797 25.138 24.723 24.8256C25.4093 24.4227 25.57 23.5031 25.0618 22.8929L25.0647 22.8958ZM24.5536 4.0975H24.5448C23.9987 3.78512 23.3094 3.91649 22.9151 4.40404L18.3035 10.097L18.543 10.3831L19.13 11.0867C19.4104 11.4224 19.6469 11.7815 19.8222 12.1523C19.8368 12.1844 19.8543 12.2165 19.866 12.2486L24.9157 6.02141C25.4152 5.40541 25.2399 4.49162 24.5536 4.10042V4.0975Z" fill="white"/>
<path d="M18.0995 15.9388C17.9915 16.1578 17.8571 16.3651 17.6965 16.5636L17.0715 17.3343L16.4903 18.0525L14.7584 20.1895L14.1771 20.9048L13.1111 22.2186L12.5299 22.9367L8.68348 27.6838C8.29212 28.1713 7.60285 28.3027 7.0567 27.9932L7.04794 27.9874C6.35575 27.5991 6.18343 26.6795 6.67994 26.0664L10.8447 20.9282L11.4259 20.21L12.4949 18.8962L13.0732 18.181L14.9336 15.8863L15.4213 15.2849C15.6053 15.0542 15.7046 14.7944 15.7192 14.5229V14.4966C15.7222 14.4616 15.7222 14.4265 15.7163 14.3915C15.7192 14.3857 15.7163 14.3769 15.7163 14.3682C15.7017 14.1054 15.5936 13.8456 15.4067 13.6237L14.8898 13.0048L13.0702 10.8239L12.4803 10.1204L11.388 8.81244L10.798 8.10594L6.48718 2.94727C5.97899 2.33711 6.13962 1.41748 6.82597 1.01459C7.02749 0.897817 7.24946 0.839428 7.47142 0.839428C7.84234 0.839428 8.20742 0.999998 8.45859 1.3007L12.4452 6.06816L13.0352 6.77467L14.1304 8.08258L14.7204 8.78617L16.4903 10.9028L17.0802 11.6064L17.6614 12.3041C17.8425 12.5201 17.9973 12.7508 18.1083 12.9902C18.5873 13.9244 18.5844 14.9988 18.1054 15.9359L18.0995 15.9388Z" fill="white"/>
<path d="M18.0995 15.9388C17.9915 16.1578 17.8571 16.3651 17.6965 16.5636L17.0715 17.3343L16.4903 18.0525L14.7584 20.1895L14.1771 20.9048L13.1111 22.2186L12.5299 22.9367L8.68348 27.6838C8.29212 28.1713 7.60285 28.3027 7.0567 27.9932L7.04794 27.9874C6.35575 27.5991 6.18343 26.6795 6.67994 26.0664L10.8447 20.9282L11.4259 20.21L12.4949 18.8962L13.0732 18.181L14.9336 15.8863L15.4213 15.2849C15.6053 15.0542 15.7046 14.7944 15.7192 14.5229V14.4966C15.7222 14.4616 15.7222 14.4265 15.7163 14.3915C15.7192 14.3857 15.7163 14.3769 15.7163 14.3682C15.7017 14.1054 15.5936 13.8456 15.4067 13.6237L14.8898 13.0048L13.0702 10.8239L12.4803 10.1204L11.388 8.81244L10.798 8.10594L6.48718 2.94727C5.97899 2.33711 6.13962 1.41748 6.82597 1.01459C7.02749 0.897817 7.24946 0.839428 7.47142 0.839428C7.84234 0.839428 8.20742 0.999998 8.45859 1.3007L12.4452 6.06816L13.0352 6.77467L14.1304 8.08258L14.7204 8.78617L16.4903 10.9028L17.0802 11.6064L17.6614 12.3041C17.8425 12.5201 17.9973 12.7508 18.1083 12.9902C18.5873 13.9244 18.5844 14.9988 18.1054 15.9359L18.0995 15.9388Z" fill="white"/>
<path d="M18.0995 15.9388C17.9915 16.1578 17.8571 16.3651 17.6965 16.5636L17.0715 17.3343L16.4903 18.0525L14.7584 20.1895L14.1771 20.9048L13.1111 22.2186L12.5299 22.9367L8.68348 27.6838C8.29212 28.1713 7.60285 28.3027 7.0567 27.9932L7.04794 27.9874C6.35575 27.5991 6.18343 26.6795 6.67994 26.0664L10.8447 20.9282L11.4259 20.21L12.4949 18.8962L13.0732 18.181L14.9336 15.8863L15.4213 15.2849C15.6053 15.0542 15.7046 14.7944 15.7192 14.5229V14.4966C15.7222 14.4616 15.7222 14.4265 15.7163 14.3915C15.7192 14.3857 15.7163 14.3769 15.7163 14.3682C15.7017 14.1054 15.5936 13.8456 15.4067 13.6237L14.8898 13.0048L13.0702 10.8239L12.4803 10.1204L11.388 8.81244L10.798 8.10594L6.48718 2.94727C5.97899 2.33711 6.13962 1.41748 6.82597 1.01459C7.02749 0.897817 7.24946 0.839428 7.47142 0.839428C7.84234 0.839428 8.20742 0.999998 8.45859 1.3007L12.4452 6.06816L13.0352 6.77467L14.1304 8.08258L14.7204 8.78617L16.4903 10.9028L17.0802 11.6064L17.6614 12.3041C17.8425 12.5201 17.9973 12.7508 18.1083 12.9902C18.5873 13.9244 18.5844 14.9988 18.1054 15.9359L18.0995 15.9388Z" fill="white"/>
<path d="M10.4299 14.6308C10.4269 15.3257 10.1787 16.0205 9.69679 16.6132L9.07178 17.3839L3.23347 24.5949C2.83919 25.0796 2.14993 25.2109 1.60377 24.9044L1.59501 24.8985C0.905744 24.5103 0.730508 23.5906 1.23285 22.9776L7.42747 15.3315C7.71953 14.9695 7.7721 14.5053 7.56474 14.1199L7.46252 13.8981C7.28728 13.6061 6.75281 12.885 6.5951 12.6982L1.0839 6.10021C0.572794 5.48713 0.736349 4.57042 1.42269 4.16754C1.62714 4.05076 1.8491 3.99237 2.07107 3.99237C2.44199 3.99237 2.80414 4.15294 3.05532 4.45072L8.84689 11.3815C8.8761 11.4165 8.96079 11.5187 9.0747 11.6618C9.3726 12.0384 9.86618 12.7011 10.0794 13.1974C10.2955 13.6032 10.4123 14.0411 10.4299 14.479C10.4269 14.5287 10.4269 14.5783 10.4328 14.6279L10.4299 14.6308Z" fill="white"/>
</g>
<defs>
<clipPath id="clip0_2604_3246">
<rect width="141.428" height="27.3144" fill="white" transform="translate(0.786133 0.839275)"/>
</clipPath>
</defs>
</svg>
