<svg width="19" height="20" viewBox="0 0 19 20" fill="none" xmlns="http://www.w3.org/2000/svg">
<path d="M7.83335 4.99998C7.83335 3.15903 6.34097 1.66665 4.50002 1.66665C2.65907 1.66665 1.16669 3.15903 1.16669 4.99998C1.16669 6.84093 2.65907 8.33331 4.50002 8.33331C6.34097 8.33331 7.83335 6.84093 7.83335 4.99998Z" stroke="#677487" stroke-width="1.5"/>
<path d="M7.83335 15C7.83335 13.159 6.34097 11.6666 4.50002 11.6666C2.65907 11.6666 1.16669 13.159 1.16669 15C1.16669 16.8409 2.65907 18.3333 4.50002 18.3333C6.34097 18.3333 7.83335 16.8409 7.83335 15Z" stroke="#677487" stroke-width="1.5"/>
<path d="M17.8334 4.99998C17.8334 3.15903 16.341 1.66665 14.5 1.66665C12.6591 1.66665 11.1667 3.15903 11.1667 4.99998C11.1667 6.84093 12.6591 8.33331 14.5 8.33331C16.341 8.33331 17.8334 6.84093 17.8334 4.99998Z" stroke="#677487" stroke-width="1.5"/>
<path d="M17.8334 15C17.8334 13.159 16.341 11.6666 14.5 11.6666C12.6591 11.6666 11.1667 13.159 11.1667 15C11.1667 16.8409 12.6591 18.3333 14.5 18.3333C16.341 18.3333 17.8334 16.8409 17.8334 15Z" stroke="#677487" stroke-width="1.5"/>
</svg>
