<svg width="20" height="20" viewBox="0 0 20 20" fill="none" xmlns="http://www.w3.org/2000/svg">
<path d="M15 1.6665V3.33317M5 1.6665V3.33317" stroke="white" stroke-width="1.5" stroke-linecap="round" stroke-linejoin="round"/>
<path d="M17.9161 9.58309C17.9128 6.36112 17.8552 4.68978 16.8729 3.62779C15.8295 2.49976 14.1501 2.49976 10.7913 2.49976H9.20801C5.84925 2.49976 4.16987 2.49976 3.12644 3.62779C2.08301 4.75583 2.08301 6.57137 2.08301 10.2025V10.6304C2.08301 14.2615 2.08301 16.077 3.12644 17.2051C4.12578 18.2854 5.67023 18.3311 8.74967 18.333" stroke="white" stroke-width="1.5" stroke-linecap="round" stroke-linejoin="round"/>
<path d="M2.5 6.6665H17.5" stroke="white" stroke-width="1.5" stroke-linecap="round" stroke-linejoin="round"/>
<path d="M13.6984 17.0748V18M13.6984 17.0748C12.918 17.0748 12.2305 16.666 11.8273 16.0452M13.6984 17.0748C14.4787 17.0748 15.1662 16.666 15.5695 16.0452M13.6984 12.4491C14.4788 12.4491 15.1663 12.858 15.5696 13.4789M13.6984 12.4491C12.918 12.4491 12.2304 12.858 11.8272 13.4789M13.6984 12.4491V11.5239M16.3967 12.9117L15.5696 13.4789M11.0003 16.6123L11.8273 16.0452M11 12.9117L11.8272 13.4789M16.3964 16.6123L15.5695 16.0452M15.5696 13.4789C15.808 13.846 15.947 14.2873 15.947 14.762C15.947 15.2367 15.808 15.678 15.5695 16.0452M11.8272 13.4789C11.5887 13.846 11.4497 14.2873 11.4497 14.762C11.4497 15.2367 11.5888 15.678 11.8273 16.0452" stroke="white" stroke-linecap="round"/>
</svg>
