<svg width="19" height="20" viewBox="0 0 19 20" fill="none" xmlns="http://www.w3.org/2000/svg">
<path d="M14.5 1.66663V3.33329M4.5 1.66663V3.33329" stroke="#677487" stroke-width="1.5" stroke-linecap="round" stroke-linejoin="round"/>
<path d="M17.4166 9.58333C17.4133 6.36137 17.3557 4.69002 16.3734 3.62803C15.33 2.5 13.6506 2.5 10.2918 2.5H8.7085C5.34974 2.5 3.67036 2.5 2.62693 3.62803C1.5835 4.75607 1.5835 6.57161 1.5835 10.2027V10.6306C1.5835 14.2617 1.5835 16.0773 2.62693 17.2053C3.62627 18.2857 5.17072 18.3313 8.25016 18.3332" stroke="#677487" stroke-width="1.5" stroke-linecap="round" stroke-linejoin="round"/>
<path d="M2 6.66663H17" stroke="#677487" stroke-width="1.5" stroke-linecap="round" stroke-linejoin="round"/>
<path d="M13.0833 11.7708C11.9327 11.7708 11 12.4004 11 13.177C11 13.9537 11.9327 14.5833 13.0833 14.5833C14.2339 14.5833 15.1667 15.2129 15.1667 15.9895C15.1667 16.7662 14.2339 17.3958 13.0833 17.3958M13.0833 11.7708C13.9904 11.7708 14.7621 12.1621 15.0481 12.7083M13.0833 11.7708V10.8333M13.0833 17.3958C12.1762 17.3958 11.4045 17.0044 11.1185 16.4583M13.0833 17.3958V18.3333" stroke="#677487" stroke-width="1.5" stroke-linecap="round"/>
</svg>
