<svg width="19" height="20" viewBox="0 0 19 20" fill="none" xmlns="http://www.w3.org/2000/svg">
<path d="M17.8333 9.99992C17.8333 5.39755 14.1024 1.66659 9.49999 1.66659C4.89762 1.66659 1.16666 5.39755 1.16666 9.99992C1.16666 14.6023 4.89762 18.3333 9.49999 18.3333C14.1024 18.3333 17.8333 14.6023 17.8333 9.99992Z" stroke="#677487" stroke-width="1.5"/>
<path d="M9.5 1.66663V3.33329" stroke="#677487" stroke-width="1.5" stroke-linecap="round"/>
<path d="M17.8333 10L16.1666 10" stroke="#677487" stroke-width="1.5" stroke-linecap="round"/>
<path d="M9.5 16.6666L9.5 18.3333" stroke="#677487" stroke-width="1.5" stroke-linecap="round"/>
<path d="M2.83331 10H1.16665" stroke="#677487" stroke-width="1.5" stroke-linecap="round"/>
<path d="M9.49998 7.49996C8.57951 7.49996 7.83331 8.0596 7.83331 8.74996C7.83331 9.44032 8.57951 9.99996 9.49998 9.99996C10.4205 9.99996 11.1666 10.5596 11.1666 11.25C11.1666 11.9403 10.4205 12.5 9.49998 12.5M9.49998 7.49996C10.2257 7.49996 10.843 7.8478 11.0718 8.33329M9.49998 7.49996V6.66663M9.49998 12.5C8.7743 12.5 8.15695 12.1521 7.92815 11.6666M9.49998 12.5V13.3333" stroke="#677487" stroke-width="1.5" stroke-linecap="round"/>
</svg>
