<svg width="14" height="14" viewBox="0 0 14 14" fill="none" xmlns="http://www.w3.org/2000/svg">
<path fill-rule="evenodd" clip-rule="evenodd" d="M12.8334 6.16668H7.83337V1.16668C7.83337 0.705844 7.46004 0.333344 7.00004 0.333344C6.54004 0.333344 6.16671 0.705844 6.16671 1.16668V6.16668H1.16671C0.706707 6.16668 0.333374 6.53918 0.333374 7.00001C0.333374 7.46084 0.706707 7.83334 1.16671 7.83334H6.16671V12.8333C6.16671 13.2942 6.54004 13.6667 7.00004 13.6667C7.46004 13.6667 7.83337 13.2942 7.83337 12.8333V7.83334H12.8334C13.2934 7.83334 13.6667 7.46084 13.6667 7.00001C13.6667 6.53918 13.2934 6.16668 12.8334 6.16668Z" fill="white"/>
</svg>
