<svg width="16" height="18" viewBox="0 0 16 18" fill="none" xmlns="http://www.w3.org/2000/svg">
<path d="M14.75 8.25V7.5C14.75 4.67157 14.75 3.25736 13.8196 2.37868C12.8893 1.5 11.3919 1.5 8.39706 1.5L7.60294 1.5C4.60814 1.5 3.11073 1.5 2.18037 2.37868C1.25 3.25736 1.25 4.67157 1.25 7.5L1.25 10.5C1.25 13.3284 1.25 14.7426 2.18037 15.6213C3.11073 16.5 4.60814 16.5 7.60294 16.5H8" stroke="#898989" stroke-width="1.5" stroke-linecap="round"/>
<path d="M5 5.25H11" stroke="#898989" stroke-width="1.5" stroke-linecap="round"/>
<path d="M5 9H8.75" stroke="#898989" stroke-width="1.5" stroke-linecap="round"/>
<path d="M14.75 15.4853L14.75 12.75C14.75 11.6779 13.7426 10.5 12.5 10.5C11.2574 10.5 10.25 11.6779 10.25 12.75L10.25 15.375C10.25 15.9598 10.7995 16.5 11.4773 16.5C12.1551 16.5 12.7045 15.9598 12.7045 15.375L12.7045 13.3235" stroke="#898989" stroke-width="1.5" stroke-linecap="round"/>
</svg>
