<svg width="16" height="18" viewBox="0 0 16 18" fill="none" xmlns="http://www.w3.org/2000/svg">
<path d="M7.99865 1.5C5.74282 1.5 4.28014 3.01424 2.55029 3.56618C1.84692 3.7906 1.49523 3.90281 1.3529 4.06099C1.21057 4.21917 1.1689 4.45031 1.08554 4.9126C0.193576 9.8595 2.14317 14.433 6.79272 16.2131C7.29229 16.4044 7.54207 16.5 8.00111 16.5C8.46015 16.5 8.70992 16.4044 9.20946 16.2131C13.8587 14.433 15.8065 9.85948 14.9142 4.91259C14.8308 4.45023 14.7891 4.21905 14.6468 4.06086C14.5044 3.90268 14.1528 3.79054 13.4494 3.56624C11.7189 3.01436 10.2546 1.5 7.99865 1.5Z" stroke="#898989" stroke-width="1.5" stroke-linecap="round" stroke-linejoin="round"/>
<path d="M6.18523 11.893L5.88099 12.5785L5.88099 12.5785L6.18523 11.893ZM5.47491 11.1319L4.77536 11.4023L4.77536 11.4023L5.47491 11.1319ZM10.5251 11.1319L11.2246 11.4023V11.4023L10.5251 11.1319ZM9.81477 11.893L10.119 12.5785L10.119 12.5785L9.81477 11.893ZM9.81477 7.88829L10.119 7.20277V7.20277L9.81477 7.88829ZM10.5251 8.64935L11.2246 8.37891V8.37891L10.5251 8.64935ZM6.18523 7.88829L5.88099 7.20277H5.88099L6.18523 7.88829ZM5.47491 8.64935L4.77536 8.37891L5.47491 8.64935ZM5.9375 7.78125C5.9375 8.19546 6.27329 8.53125 6.6875 8.53125C7.10171 8.53125 7.4375 8.19546 7.4375 7.78125H5.9375ZM8.5625 7.78125C8.5625 8.19546 8.89829 8.53125 9.3125 8.53125C9.72671 8.53125 10.0625 8.19546 10.0625 7.78125H8.5625ZM7.34375 8.53125H8.65625V7.03125H7.34375V8.53125ZM8.65625 11.25H7.34375V12.75H8.65625V11.25ZM7.34375 11.25C7.02699 11.25 6.82965 11.2495 6.68029 11.2386C6.53876 11.2283 6.49853 11.2115 6.48946 11.2074L5.88099 12.5785C6.11312 12.6815 6.34639 12.7182 6.57093 12.7346C6.78764 12.7505 7.04896 12.75 7.34375 12.75V11.25ZM4.625 9.89062C4.625 10.2087 4.62465 10.4822 4.639 10.7077C4.65373 10.939 4.68612 11.1715 4.77536 11.4023L6.17445 10.8615C6.16379 10.8339 6.14622 10.7733 6.13597 10.6124C6.12535 10.4457 6.125 10.2278 6.125 9.89062H4.625ZM6.48946 11.2074C6.35924 11.1496 6.24003 11.0311 6.17445 10.8615L4.77536 11.4023C4.97621 11.9219 5.36802 12.3508 5.88099 12.5785L6.48946 11.2074ZM9.875 9.89062C9.875 10.2278 9.87465 10.4457 9.86403 10.6124C9.85378 10.7733 9.83621 10.8339 9.82555 10.8615L11.2246 11.4023C11.3139 11.1715 11.3463 10.939 11.361 10.7077C11.3754 10.4822 11.375 10.2087 11.375 9.89062H9.875ZM8.65625 12.75C8.95104 12.75 9.21236 12.7505 9.42907 12.7346C9.65361 12.7182 9.88688 12.6815 10.119 12.5785L9.51054 11.2074C9.50147 11.2115 9.46124 11.2283 9.31971 11.2386C9.17035 11.2495 8.97301 11.25 8.65625 11.25V12.75ZM9.82555 10.8615C9.75997 11.0311 9.64076 11.1496 9.51054 11.2074L10.119 12.5785C10.632 12.3508 11.0238 11.9219 11.2246 11.4023L9.82555 10.8615ZM8.65625 8.53125C8.97301 8.53125 9.17035 8.53172 9.31971 8.54263C9.46124 8.55298 9.50147 8.56979 9.51054 8.57382L10.119 7.20277C9.88688 7.09975 9.65361 7.06304 9.42907 7.04663C9.21236 7.03078 8.95104 7.03125 8.65625 7.03125V8.53125ZM11.375 9.89062C11.375 9.57259 11.3754 9.299 11.361 9.07352C11.3463 8.84224 11.3139 8.60976 11.2246 8.37891L9.82555 8.91979C9.83621 8.94737 9.85378 9.00792 9.86403 9.16885C9.87465 9.3356 9.875 9.55343 9.875 9.89062H11.375ZM9.51054 8.57382C9.64076 8.63161 9.75997 8.75017 9.82555 8.9198L11.2246 8.37891C11.0238 7.85939 10.632 7.43043 10.119 7.20277L9.51054 8.57382ZM7.34375 7.03125C7.04896 7.03125 6.78764 7.03078 6.57093 7.04663C6.34639 7.06304 6.11312 7.09975 5.88099 7.20277L6.48946 8.57382C6.49853 8.56979 6.53876 8.55298 6.68029 8.54263C6.82965 8.53172 7.02699 8.53125 7.34375 8.53125V7.03125ZM6.125 9.89062C6.125 9.55343 6.12535 9.3356 6.13597 9.16885C6.14622 9.00792 6.16379 8.94737 6.17445 8.91979L4.77536 8.37891C4.68612 8.60976 4.65373 8.84224 4.639 9.07352C4.62465 9.299 4.625 9.57259 4.625 9.89062H6.125ZM5.88099 7.20277C5.36802 7.43043 4.97621 7.85939 4.77536 8.37891L6.17445 8.91979C6.24003 8.75017 6.35924 8.63161 6.48946 8.57382L5.88099 7.20277ZM7.4375 7.78125V6.51562H5.9375V7.78125H7.4375ZM8.5625 6.51562V7.78125H10.0625V6.51563L8.5625 6.51562ZM8 6C8.3366 6 8.5625 6.25633 8.5625 6.51562L10.0625 6.51563C10.0625 5.37695 9.11314 4.5 8 4.5V6ZM7.4375 6.51562C7.4375 6.25633 7.6634 6 8 6V4.5C6.88686 4.5 5.9375 5.37695 5.9375 6.51562H7.4375Z" fill="#898989"/>
</svg>
