<svg width="36" height="40" viewBox="0 0 36 40" fill="none" xmlns="http://www.w3.org/2000/svg">
<path d="M27.3407 3.06969L22.1932 9.42283L20.0812 6.90039L19.7263 6.47286L24.4078 0.701158C24.9807 -0.0128225 25.9897 -0.205212 26.7892 0.247973H26.802C27.8152 0.825142 28.0675 2.1676 27.3407 3.07397V3.06969Z" fill="#254396"/>
<path d="M27.1399 39.7435C26.8449 39.9145 26.52 40 26.1908 40C25.6478 40 25.1177 39.7649 24.75 39.3288L19.8804 33.4972L20.2267 33.0697L22.2917 30.5259L27.6358 36.9218C28.3797 37.8153 28.1446 39.1578 27.1399 39.7478V39.7435Z" fill="#254396"/>
<path d="M35.5409 32.3001L27.9351 23.198L27.8496 23.369C27.6017 23.8649 27.2938 24.3395 26.9347 24.7841L25.6649 26.3489L32.6508 34.7071C33.2408 35.4126 34.2455 35.5836 35.0407 35.1261C36.0454 34.5361 36.2806 33.1894 35.5367 32.2959L35.5409 32.3001ZM34.7928 4.77128H34.7799C33.9804 4.31382 32.9715 4.50621 32.3943 5.22019L25.6436 13.5571L25.9941 13.9761L26.8535 15.0064C27.2639 15.4981 27.6102 16.0239 27.8667 16.5669C27.8881 16.6139 27.9138 16.661 27.9309 16.708L35.3229 7.58872C36.054 6.68663 35.7975 5.34845 34.7928 4.77555V4.77128Z" fill="#254396"/>
<path d="M25.3441 22.112C25.1859 22.4327 24.9892 22.7362 24.7541 23.0269L23.8392 24.1556L22.9884 25.2074L20.4531 28.3369L19.6023 29.3844L18.0418 31.3083L17.191 32.36L11.5604 39.3117C10.9875 40.0257 9.97854 40.218 9.17905 39.7649L9.16622 39.7563C8.15297 39.1877 7.90073 37.841 8.62753 36.9431L14.7242 29.4186L15.5749 28.3668L17.1397 26.4429L17.9862 25.3955L20.7096 22.0351L21.4236 21.1543C21.6929 20.8166 21.8383 20.4361 21.8597 20.0385V20C21.864 19.9487 21.864 19.8974 21.8554 19.8461C21.8597 19.8375 21.8554 19.8247 21.8554 19.8119C21.834 19.4271 21.6758 19.0466 21.4022 18.7217L20.6455 17.8153L17.982 14.6216L17.1183 13.5913L15.5194 11.6759L14.6557 10.6413L8.34536 3.08679C7.60145 2.19324 7.8366 0.846516 8.8413 0.25652C9.1363 0.0855066 9.46122 0 9.78615 0C10.3291 0 10.8635 0.235143 11.2312 0.675502L17.067 7.65712L17.9307 8.69175L19.5339 10.6071L20.3975 11.6375L22.9884 14.7371L23.852 15.7674L24.7028 16.7892C24.9678 17.1056 25.1944 17.4434 25.3569 17.7939C26.0581 19.162 26.0538 20.7354 25.3526 22.1077L25.3441 22.112Z" fill="#254396"/>
<path d="M25.3441 22.112C25.1859 22.4327 24.9892 22.7362 24.7541 23.0269L23.8392 24.1556L22.9884 25.2074L20.4531 28.3369L19.6023 29.3844L18.0418 31.3083L17.191 32.36L11.5604 39.3117C10.9875 40.0257 9.97854 40.218 9.17905 39.7649L9.16622 39.7563C8.15297 39.1877 7.90073 37.841 8.62753 36.9431L14.7242 29.4186L15.5749 28.3668L17.1397 26.4429L17.9862 25.3955L20.7096 22.0351L21.4236 21.1543C21.6929 20.8166 21.8383 20.4361 21.8597 20.0385V20C21.864 19.9487 21.864 19.8974 21.8554 19.8461C21.8597 19.8375 21.8554 19.8247 21.8554 19.8119C21.834 19.4271 21.6758 19.0466 21.4022 18.7217L20.6455 17.8153L17.982 14.6216L17.1183 13.5913L15.5194 11.6759L14.6557 10.6413L8.34536 3.08679C7.60145 2.19324 7.8366 0.846516 8.8413 0.25652C9.1363 0.0855066 9.46122 0 9.78615 0C10.3291 0 10.8635 0.235143 11.2312 0.675502L17.067 7.65712L17.9307 8.69175L19.5339 10.6071L20.3975 11.6375L22.9884 14.7371L23.852 15.7674L24.7028 16.7892C24.9678 17.1056 25.1944 17.4434 25.3569 17.7939C26.0581 19.162 26.0538 20.7354 25.3526 22.1077L25.3441 22.112Z" fill="#254396"/>
<path d="M25.3441 22.112C25.1859 22.4327 24.9892 22.7362 24.7541 23.0269L23.8392 24.1556L22.9884 25.2074L20.4531 28.3369L19.6023 29.3844L18.0418 31.3083L17.191 32.36L11.5604 39.3117C10.9875 40.0257 9.97854 40.218 9.17905 39.7649L9.16622 39.7563C8.15297 39.1877 7.90073 37.841 8.62753 36.9431L14.7242 29.4186L15.5749 28.3668L17.1397 26.4429L17.9862 25.3955L20.7096 22.0351L21.4236 21.1543C21.6929 20.8166 21.8383 20.4361 21.8597 20.0385V20C21.864 19.9487 21.864 19.8974 21.8554 19.8461C21.8597 19.8375 21.8554 19.8247 21.8554 19.8119C21.834 19.4271 21.6758 19.0466 21.4022 18.7217L20.6455 17.8153L17.982 14.6216L17.1183 13.5913L15.5194 11.6759L14.6557 10.6413L8.34536 3.08679C7.60145 2.19324 7.8366 0.846516 8.8413 0.25652C9.1363 0.0855066 9.46122 0 9.78615 0C10.3291 0 10.8635 0.235143 11.2312 0.675502L17.067 7.65712L17.9307 8.69175L19.5339 10.6071L20.3975 11.6375L22.9884 14.7371L23.852 15.7674L24.7028 16.7892C24.9678 17.1056 25.1944 17.4434 25.3569 17.7939C26.0581 19.162 26.0538 20.7354 25.3526 22.1077L25.3441 22.112Z" fill="#254396"/>
<path d="M14.1171 20.1967C14.1129 21.2142 13.7495 22.2317 13.044 23.0996L12.1291 24.2283L3.58272 34.7884C3.00555 35.4981 1.99658 35.6905 1.19709 35.2416L1.18426 35.233C0.175284 34.6644 -0.0812357 33.3177 0.654121 32.4198L9.7221 21.2227C10.1496 20.6926 10.2266 20.0128 9.92304 19.4485L9.7734 19.1236C9.51688 18.696 8.7345 17.64 8.50363 17.3664L0.436079 7.70414C-0.312104 6.80632 -0.072685 5.46387 0.932018 4.87387C1.23129 4.70286 1.55622 4.61736 1.88114 4.61736C2.42411 4.61736 2.95425 4.8525 3.32193 5.28858L11.7999 15.4382C11.8427 15.4895 11.9666 15.6392 12.1334 15.8487C12.5695 16.4002 13.292 17.3707 13.6041 18.0975C13.9205 18.6917 14.0915 19.333 14.1171 19.9743C14.1129 20.047 14.1129 20.1197 14.1214 20.1924L14.1171 20.1967Z" fill="#254396"/>
</svg>
