<svg width="18" height="20" viewBox="0 0 18 20" fill="none" xmlns="http://www.w3.org/2000/svg">
<path d="M1.10828 12.308C0.931067 13.4697 1.72334 14.276 2.69339 14.6779C6.41235 16.2185 11.5877 16.2185 15.3066 14.6779C16.2767 14.276 17.069 13.4697 16.8917 12.308C16.7828 11.5941 16.2443 10.9996 15.8453 10.4191C15.3227 9.64938 15.2708 8.80985 15.2707 7.91666C15.2707 4.46488 12.4632 1.66666 9.00001 1.66666C5.53678 1.66666 2.72928 4.46488 2.72928 7.91666C2.72921 8.80985 2.67728 9.64938 2.15468 10.4191C1.75571 10.9996 1.21719 11.5941 1.10828 12.308Z" stroke="#25282B" stroke-width="1.5" stroke-linecap="round" stroke-linejoin="round"/>
<path d="M5.66669 15.8333C6.04876 17.271 7.3963 18.3333 9.00002 18.3333C10.6037 18.3333 11.9513 17.271 12.3334 15.8333" stroke="#25282B" stroke-width="1.5" stroke-linecap="round" stroke-linejoin="round"/>
</svg>
