<svg width="22" height="22" viewBox="0 0 22 22" fill="none" xmlns="http://www.w3.org/2000/svg">
<path d="M21 15C21 11.6863 18.3137 9 15 9C11.6863 9 9 11.6863 9 15C9 18.3137 11.6863 21 15 21C18.3137 21 21 18.3137 21 15Z" stroke="#25282B" stroke-width="1.5"/>
<path d="M13 15.6667C13 15.6667 13.625 15.6667 14.25 17C14.25 17 16.2353 13.6667 18 13" stroke="#25282B" stroke-width="1.5" stroke-linecap="round" stroke-linejoin="round"/>
<path d="M2.5 10.5981L2.875 9.94856L2.875 9.94856L2.5 10.5981ZM1.40192 9.5L0.752405 9.875L0.752405 9.875L1.40192 9.5ZM19.5 1.40192L19.125 2.05144L19.125 2.05144L19.5 1.40192ZM20.5981 2.5L21.2476 2.125L21.2476 2.125L20.5981 2.5ZM2.5 1.40192L2.875 2.05144L2.875 2.05144L2.5 1.40192ZM1.40192 2.5L2.05144 2.875L2.05144 2.875L1.40192 2.5ZM20.1984 8.16939C20.1579 8.58162 20.4593 8.94861 20.8715 8.98907C21.2837 9.02954 21.6507 8.72817 21.6912 8.31594L20.1984 8.16939ZM6.93552 11.75C7.34973 11.75 7.68552 11.4142 7.68552 11C7.68552 10.5858 7.34973 10.25 6.93552 10.25V11.75ZM6 1.75H16V0.25H6V1.75ZM6 10.25C5.05158 10.25 4.39041 10.2493 3.87779 10.2028C3.37549 10.1573 3.0899 10.0726 2.875 9.94856L2.125 11.2476C2.60625 11.5254 3.13605 11.6417 3.7424 11.6967C4.33843 11.7507 5.07919 11.75 6 11.75V10.25ZM0.25 6C0.25 6.92081 0.249281 7.66157 0.303302 8.2576C0.358257 8.86395 0.474554 9.39375 0.752405 9.875L2.05144 9.125C1.92737 8.9101 1.8427 8.62451 1.79718 8.12221C1.75072 7.60959 1.75 6.94842 1.75 6H0.25ZM2.875 9.94856C2.53296 9.75108 2.24892 9.46704 2.05144 9.125L0.752405 9.875C1.08154 10.4451 1.55493 10.9185 2.125 11.2476L2.875 9.94856ZM16 1.75C16.9484 1.75 17.6096 1.75072 18.1222 1.79718C18.6245 1.8427 18.9101 1.92737 19.125 2.05144L19.875 0.752405C19.3937 0.474554 18.8639 0.358257 18.2576 0.303302C17.6616 0.249281 16.9208 0.25 16 0.25V1.75ZM21.75 6C21.75 5.07919 21.7507 4.33843 21.6967 3.7424C21.6417 3.13605 21.5254 2.60625 21.2476 2.125L19.9486 2.875C20.0726 3.0899 20.1573 3.37548 20.2028 3.87779C20.2493 4.39041 20.25 5.05158 20.25 6H21.75ZM19.125 2.05144C19.467 2.24892 19.7511 2.53296 19.9486 2.875L21.2476 2.125C20.9185 1.55493 20.4451 1.08154 19.875 0.752404L19.125 2.05144ZM6 0.25C5.07919 0.25 4.33843 0.249281 3.7424 0.303302C3.13605 0.358257 2.60625 0.474554 2.125 0.752405L2.875 2.05144C3.0899 1.92737 3.37549 1.8427 3.87779 1.79718C4.39041 1.75072 5.05158 1.75 6 1.75V0.25ZM1.75 6C1.75 5.05158 1.75072 4.39041 1.79718 3.87779C1.8427 3.37549 1.92737 3.0899 2.05144 2.875L0.752405 2.125C0.474554 2.60625 0.358257 3.13605 0.303302 3.7424C0.249281 4.33843 0.25 5.07919 0.25 6H1.75ZM2.125 0.752405C1.55493 1.08154 1.08154 1.55493 0.752405 2.125L2.05144 2.875C2.24892 2.53296 2.53296 2.24892 2.875 2.05144L2.125 0.752405ZM20.25 6C20.25 6.97971 20.2492 7.6521 20.1984 8.16939L21.6912 8.31594C21.7508 7.70828 21.75 6.94933 21.75 6H20.25ZM6.93552 10.25H6V11.75H6.93552V10.25Z" fill="#25282B"/>
<path d="M16 6H16.009" stroke="#25282B" stroke-width="2" stroke-linecap="round" stroke-linejoin="round"/>
<path d="M11 6H11.009" stroke="#25282B" stroke-width="2" stroke-linecap="round" stroke-linejoin="round"/>
<path d="M6 6H6.00898" stroke="#25282B" stroke-width="2" stroke-linecap="round" stroke-linejoin="round"/>
</svg>
