<svg width="19" height="20" viewBox="0 0 19 20" fill="none" xmlns="http://www.w3.org/2000/svg">
<path d="M9.50002 6.66667V10M9.50002 10H7.00002C5.42867 10 4.643 10 4.15484 10.4882C3.66669 10.9763 3.66669 11.762 3.66669 13.3333M9.50002 10H12C13.5714 10 14.357 10 14.8452 10.4882C15.3334 10.9763 15.3334 11.762 15.3334 13.3333" stroke="#677487" stroke-width="1.5" stroke-linecap="round" stroke-linejoin="round"/>
<path d="M1.16669 15.8333C1.16669 14.6548 1.16669 14.0656 1.5328 13.6995C1.89892 13.3333 2.48818 13.3333 3.66669 13.3333C4.8452 13.3333 5.43445 13.3333 5.80057 13.6995C6.16669 14.0656 6.16669 14.6548 6.16669 15.8333C6.16669 17.0119 6.16669 17.6011 5.80057 17.9672C5.43445 18.3333 4.8452 18.3333 3.66669 18.3333C2.48818 18.3333 1.89892 18.3333 1.5328 17.9672C1.16669 17.6011 1.16669 17.0119 1.16669 15.8333Z" stroke="#677487" stroke-width="1.5"/>
<path d="M12.8334 15.8333C12.8334 14.6548 12.8334 14.0656 13.1995 13.6995C13.5656 13.3333 14.1549 13.3333 15.3334 13.3333C16.5119 13.3333 17.1011 13.3333 17.4673 13.6995C17.8334 14.0656 17.8334 14.6548 17.8334 15.8333C17.8334 17.0119 17.8334 17.6011 17.4673 17.9672C17.1011 18.3333 16.5119 18.3333 15.3334 18.3333C14.1549 18.3333 13.5656 18.3333 13.1995 17.9672C12.8334 17.6011 12.8334 17.0119 12.8334 15.8333Z" stroke="#677487" stroke-width="1.5"/>
<path d="M8.07145 1.66667H10.9286C12.6574 1.66667 12.8334 2.59161 12.8334 4.16667C12.8334 5.74173 12.6574 6.66667 10.9286 6.66667H8.07145C6.34268 6.66667 6.16669 5.74173 6.16669 4.16667C6.16669 2.59161 6.34268 1.66667 8.07145 1.66667Z" stroke="#677487" stroke-width="1.5"/>
</svg>
