<svg width="93" height="17" viewBox="0 0 93 17" fill="none" xmlns="http://www.w3.org/2000/svg">
<g clip-path="url(#clip0_1888_4183)">
<path d="M25.1721 8.21654L20.0386 3.61768H23.3634L26.8155 6.72841L30.2675 3.61768H33.5923L28.4589 8.21654L34.0977 13.2987H30.8451L26.8155 9.69014L22.7858 13.2987H19.5332L25.1721 8.21654Z" fill="#52D3D8"/>
<path d="M35.3174 3.61951H37.432V13.2988H35.3174V3.61951Z" fill="#52D3D8"/>
<path d="M39.4568 4.72787C39.4568 4.56252 39.4853 4.41171 39.5404 4.27544C39.5955 4.13916 39.6753 4.02287 39.7779 3.92475C39.8805 3.82663 40.0021 3.75032 40.1446 3.69762C40.2871 3.64493 40.4448 3.61768 40.6176 3.61768H41.4745C41.5562 3.61768 41.6379 3.62858 41.7177 3.64857C41.7975 3.67037 41.8754 3.69944 41.9495 3.7376C42.0236 3.77576 42.0901 3.82118 42.1528 3.87387C42.2155 3.92657 42.2686 3.98471 42.3161 4.05013L46.7049 10.4079L51.0936 4.05013C51.1392 3.98471 51.1943 3.92657 51.2551 3.87387C51.3178 3.82118 51.3862 3.77576 51.4584 3.7376C51.5306 3.69944 51.6085 3.67037 51.6902 3.64857C51.77 3.62858 51.8517 3.61768 51.9334 3.61768H52.7864C52.9593 3.61768 53.117 3.64493 53.2595 3.69762C53.402 3.75032 53.5236 3.82663 53.6262 3.92475C53.7288 4.02287 53.8085 4.13916 53.8636 4.27544C53.9187 4.41171 53.9472 4.56252 53.9472 4.72787L53.9548 13.2987H51.8403V6.67571L47.6643 12.6773C47.613 12.7518 47.5541 12.8299 47.4857 12.9117C47.4173 12.9953 47.3413 13.0716 47.2596 13.1407C47.1779 13.2097 47.0906 13.2678 46.9956 13.3133C46.9006 13.3587 46.8037 13.3823 46.6992 13.3823C46.5947 13.3823 46.5016 13.3587 46.4066 13.3133C46.3116 13.2678 46.2242 13.2097 46.1425 13.1407C46.0608 13.0716 45.9867 12.9953 45.9183 12.9117C45.8499 12.8281 45.791 12.75 45.7416 12.6773L41.5638 6.66845V13.2987H39.4492L39.4568 4.72787Z" fill="#52D3D8"/>
<path d="M58.5382 3.61963H68.5734V5.46935H58.5781C58.4166 5.46935 58.2761 5.49661 58.1564 5.55293C58.0367 5.60744 57.9379 5.68194 57.86 5.77461C57.7821 5.86728 57.7232 5.97085 57.6852 6.08714C57.6472 6.20343 57.6282 6.32335 57.6301 6.44509C57.6301 6.56683 57.651 6.68675 57.6909 6.80304C57.7308 6.91933 57.7897 7.02472 57.8695 7.11557C57.9493 7.20824 58.0481 7.28092 58.1659 7.33724C58.2837 7.39175 58.4204 7.42083 58.5781 7.42083L65.887 7.43173C66.2271 7.43173 66.5367 7.46989 66.8179 7.5462C67.0991 7.62251 67.3499 7.7279 67.576 7.86236C67.8002 7.99682 67.9959 8.15672 68.1631 8.34024C68.3302 8.52557 68.4689 8.72544 68.581 8.94349C68.6912 9.16153 68.7748 9.39047 68.8299 9.63213C68.885 9.8738 68.9135 10.1173 68.9135 10.3662C68.9154 10.6079 68.8888 10.8477 68.8337 11.0876C68.7786 11.3256 68.695 11.5545 68.5848 11.7726C68.4746 11.9906 68.3359 12.1923 68.1669 12.3795C67.9997 12.5666 67.8021 12.7283 67.5779 12.8628C67.3537 12.9972 67.0991 13.1063 66.8179 13.1844C66.5348 13.2625 66.2271 13.3025 65.8889 13.3025H55.8765V11.4528H65.849C66.0086 11.4528 66.1473 11.4183 66.267 11.3474C66.3867 11.2765 66.4855 11.1875 66.5653 11.0821C66.645 10.9749 66.7039 10.8568 66.7438 10.7296C66.7837 10.6024 66.8027 10.4807 66.8027 10.368C66.8027 10.2645 66.7837 10.1573 66.7438 10.0482C66.7039 9.93921 66.645 9.83927 66.5653 9.75206C66.4855 9.66484 66.3867 9.59216 66.267 9.53583C66.1473 9.4795 66.0086 9.45043 65.849 9.45043L58.5401 9.43953C58.1355 9.43953 57.7707 9.38502 57.4477 9.27782C57.1247 9.17061 56.8397 9.02162 56.5985 8.83628C56.3572 8.64913 56.1539 8.43109 55.9924 8.18397C55.8309 7.93686 55.7112 7.67157 55.6314 7.39175C55.5516 7.11193 55.5117 6.82484 55.5117 6.53049C55.5117 6.23613 55.5535 5.94904 55.6352 5.66922C55.7169 5.3894 55.8385 5.12594 56 4.877C56.1615 4.62807 56.3629 4.41185 56.6042 4.2247C56.8473 4.03754 57.1285 3.89036 57.4515 3.78134C57.7745 3.67232 58.1374 3.61963 58.5401 3.61963H58.5382Z" fill="#52D3D8"/>
<path d="M70.6684 8.16388H75.4561C75.6366 8.16388 75.8 8.18568 75.9501 8.22566C76.0983 8.26745 76.2332 8.32378 76.3529 8.39646C76.4726 8.46914 76.577 8.55454 76.6663 8.65266C76.7556 8.75259 76.8297 8.8598 76.8886 8.97427C76.9475 9.08874 76.9912 9.21048 77.0216 9.33767C77.0501 9.46486 77.0653 9.59205 77.0634 9.72106C77.0634 9.85189 77.0482 9.98089 77.0197 10.1099C76.9912 10.2389 76.9456 10.3607 76.8886 10.4751C76.8297 10.5896 76.7556 10.6968 76.6663 10.7949C76.577 10.893 76.4745 10.9766 76.3548 11.0493C76.237 11.1202 76.1021 11.1765 75.9539 11.2165C75.8057 11.2564 75.6404 11.2764 75.4599 11.2764H71.1776V13.2969H70.0566V8.75078C70.0566 8.66174 70.0699 8.58179 70.0984 8.51093C70.1269 8.44007 70.1706 8.37647 70.2238 8.32559C70.277 8.2729 70.3435 8.23293 70.4176 8.20567C70.4917 8.17842 70.5772 8.16388 70.6684 8.16388ZM75.4352 10.2971C75.5188 10.2971 75.591 10.2807 75.6537 10.248C75.7164 10.2153 75.7696 10.1717 75.8114 10.1172C75.8532 10.0627 75.8855 10.0027 75.9064 9.93365C75.9273 9.86461 75.9387 9.79374 75.9387 9.72106C75.9387 9.64838 75.9292 9.57752 75.9102 9.50847C75.8912 9.43942 75.8589 9.37765 75.8171 9.32495C75.7753 9.27226 75.724 9.22683 75.6594 9.19413C75.5967 9.16142 75.5207 9.14507 75.4352 9.14507H71.1738V10.2971H75.4352Z" fill="#52D3D8"/>
<path d="M78.4926 8.16406H83.2803C83.4608 8.16406 83.6242 8.18587 83.7743 8.22584C83.9225 8.26763 84.0574 8.32396 84.1771 8.39664C84.2968 8.46932 84.4013 8.55472 84.4906 8.65284C84.5798 8.75278 84.6539 8.85998 84.7128 8.97445C84.7717 9.08892 84.8154 9.21066 84.8458 9.33785C84.8743 9.46505 84.8895 9.59224 84.8876 9.72124C84.8876 9.85207 84.8724 9.98108 84.8439 10.1101C84.8154 10.2391 84.7698 10.3608 84.7128 10.4753C84.6539 10.5898 84.5798 10.697 84.4906 10.7951C84.4013 10.8932 84.2987 10.9768 84.179 11.0495C84.0612 11.1203 83.9263 11.1767 83.7781 11.2166C83.6299 11.2566 83.4646 11.2766 83.2841 11.2766H83.2632L84.9883 13.2971H83.5976L81.8725 11.2766H79.0018V13.2971H77.8809V8.75096C77.8809 8.66192 77.8942 8.58198 77.9227 8.51111C77.9512 8.44025 77.9949 8.37665 78.0481 8.32578C78.1012 8.27308 78.1677 8.23311 78.2418 8.20585C78.3159 8.1786 78.4014 8.16406 78.4926 8.16406ZM83.2594 10.2972C83.343 10.2972 83.4152 10.2809 83.4779 10.2482C83.5406 10.2155 83.5938 10.1719 83.6356 10.1174C83.6774 10.0628 83.7097 10.0029 83.7306 9.93384C83.7515 9.86479 83.7629 9.79393 83.7629 9.72124C83.7629 9.64856 83.7534 9.5777 83.7344 9.50865C83.7154 9.43961 83.6831 9.37783 83.6413 9.32514C83.5995 9.27244 83.5482 9.22702 83.4836 9.19431C83.4209 9.1616 83.3449 9.14525 83.2594 9.14525H78.998V10.2972H83.2594Z" fill="#52D3D8"/>
<path d="M86.1561 12.7919C85.9889 12.6374 85.8578 12.4575 85.7666 12.2558C85.6735 12.0542 85.6279 11.8343 85.6279 11.5999V9.86102C85.6279 9.62662 85.6735 9.4104 85.7647 9.21235C85.8559 9.01429 85.987 8.83259 86.158 8.66906C86.329 8.50553 86.519 8.38015 86.7261 8.29293C86.9332 8.20572 87.1592 8.16211 87.4043 8.16211H90.7253C90.9685 8.16211 91.1946 8.20572 91.4036 8.29293C91.6107 8.38015 91.8007 8.50553 91.9716 8.66906C92.1426 8.83259 92.2737 9.01429 92.3649 9.21235C92.4561 9.4104 92.5017 9.62662 92.5017 9.86102V11.5999C92.5017 11.8343 92.4561 12.0523 92.363 12.2558C92.2699 12.4575 92.1407 12.6374 91.9735 12.7919C91.8937 12.8664 91.8064 12.9354 91.7114 12.9972C91.6164 13.059 91.5157 13.1135 91.4112 13.1571C91.3048 13.2007 91.1965 13.2352 91.0806 13.2607C90.9666 13.2843 90.8488 13.297 90.7272 13.297H87.4062C87.2846 13.297 87.1668 13.2843 87.0528 13.2607C86.9388 13.2352 86.8287 13.2007 86.7223 13.1571C86.6159 13.1117 86.5171 13.059 86.4221 12.9972C86.3271 12.9336 86.2397 12.8664 86.1599 12.7919H86.1561ZM86.747 11.6908C86.747 11.7725 86.766 11.8488 86.8021 11.9251C86.8382 11.9996 86.8875 12.0669 86.9483 12.125C87.0091 12.1832 87.0794 12.2304 87.1573 12.2649C87.2352 12.3013 87.3169 12.3176 87.4024 12.3176H90.7234C90.807 12.3176 90.8887 12.2995 90.9685 12.2649C91.0483 12.2304 91.1167 12.1832 91.1775 12.125C91.2383 12.0669 91.2877 11.9996 91.3238 11.9251C91.3599 11.8488 91.3789 11.7725 91.3789 11.6908V9.77199C91.3789 9.68477 91.3618 9.60482 91.3276 9.52669C91.2934 9.45037 91.2478 9.38314 91.187 9.32682C91.1262 9.27049 91.0578 9.22506 90.978 9.19236C90.8982 9.15965 90.8127 9.1433 90.7215 9.1433H87.4005C87.3093 9.1433 87.2238 9.15965 87.144 9.19236C87.0642 9.22506 86.9939 9.26867 86.9351 9.32682C86.8762 9.38314 86.8287 9.45037 86.7945 9.52669C86.7603 9.603 86.7432 9.68477 86.7432 9.77199V11.6908H86.747Z" fill="#52D3D8"/>
<path d="M12.6493 1.3045L10.3619 4.00459L9.42332 2.93255L9.26562 2.75085L11.346 0.297875C11.6006 -0.00556705 12.049 -0.0873328 12.4042 0.105271H12.4099C12.8602 0.350568 12.9723 0.921111 12.6493 1.30632V1.3045Z" fill="#52D3D8"/>
<path d="M12.56 16.8911C12.4289 16.9638 12.2845 17.0001 12.1382 17.0001C11.8969 17.0001 11.6613 16.9002 11.498 16.7149L9.33398 14.2365L9.48788 14.0548L10.4055 12.9736L12.7804 15.6919C13.111 16.0716 13.0065 16.6422 12.56 16.8929V16.8911Z" fill="#52D3D8"/>
<path d="M16.2937 13.7275L12.9138 9.8591L12.8758 9.93178C12.7657 10.1426 12.6289 10.3442 12.4693 10.5332L11.905 11.1982L15.0094 14.7505C15.2716 15.0503 15.7181 15.123 16.0715 14.9286C16.5179 14.6778 16.6224 14.1055 16.2918 13.7257L16.2937 13.7275ZM15.9613 2.02776H15.9556C15.6003 1.83334 15.1519 1.91511 14.8954 2.21855L11.8955 5.76173L12.0513 5.9398L12.4332 6.3777C12.6156 6.58666 12.7695 6.81015 12.8834 7.04091C12.8929 7.0609 12.9043 7.08088 12.9119 7.10087L16.1968 3.22518C16.5217 2.84179 16.4077 2.27306 15.9613 2.02958V2.02776Z" fill="#52D3D8"/>
<path d="M11.7624 9.39761C11.6921 9.53388 11.6047 9.66289 11.5002 9.78645L11.0937 10.2661L10.7156 10.7131L9.58895 12.0432L9.21088 12.4884L8.51742 13.306L8.13934 13.753L5.63719 16.7075C5.38261 17.0109 4.93424 17.0927 4.57896 16.9001L4.57326 16.8964C4.12298 16.6548 4.01089 16.0824 4.33387 15.7008L7.04311 12.5029L7.42118 12.0559L8.11654 11.2382L8.49272 10.7931L9.70295 9.3649L10.0202 8.99059C10.1399 8.84705 10.2045 8.68534 10.214 8.51635V8.5C10.2159 8.4782 10.2159 8.45639 10.2121 8.43459C10.214 8.43095 10.2121 8.4255 10.2121 8.42005C10.2026 8.25652 10.1323 8.09481 10.0107 7.95671L9.67445 7.5715L8.49082 6.21419L8.10704 5.77629L7.39649 4.96227L7.01271 4.52255L4.20848 1.31189C3.8779 0.932129 3.98239 0.359769 4.42887 0.109021C4.55996 0.0363403 4.70435 0 4.84874 0C5.09003 0 5.32751 0.0999359 5.4909 0.287089L8.08424 3.25428L8.46802 3.69399L9.18048 4.50802L9.56425 4.94592L10.7156 6.26325L11.0994 6.70115L11.4774 7.13542C11.5952 7.26988 11.6959 7.41342 11.7681 7.56242C12.0797 8.14386 12.0778 8.81253 11.7662 9.39579L11.7624 9.39761Z" fill="#52D3D8"/>
<path d="M11.7624 9.39761C11.6921 9.53388 11.6047 9.66289 11.5002 9.78645L11.0937 10.2661L10.7156 10.7131L9.58895 12.0432L9.21088 12.4884L8.51742 13.306L8.13934 13.753L5.63719 16.7075C5.38261 17.0109 4.93424 17.0927 4.57896 16.9001L4.57326 16.8964C4.12298 16.6548 4.01089 16.0824 4.33387 15.7008L7.04311 12.5029L7.42118 12.0559L8.11654 11.2382L8.49272 10.7931L9.70295 9.3649L10.0202 8.99059C10.1399 8.84705 10.2045 8.68534 10.214 8.51635V8.5C10.2159 8.4782 10.2159 8.45639 10.2121 8.43459C10.214 8.43095 10.2121 8.4255 10.2121 8.42005C10.2026 8.25652 10.1323 8.09481 10.0107 7.95671L9.67445 7.5715L8.49082 6.21419L8.10704 5.77629L7.39649 4.96227L7.01271 4.52255L4.20848 1.31189C3.8779 0.932129 3.98239 0.359769 4.42887 0.109021C4.55996 0.0363403 4.70435 0 4.84874 0C5.09003 0 5.32751 0.0999359 5.4909 0.287089L8.08424 3.25428L8.46802 3.69399L9.18048 4.50802L9.56425 4.94592L10.7156 6.26325L11.0994 6.70115L11.4774 7.13542C11.5952 7.26988 11.6959 7.41342 11.7681 7.56242C12.0797 8.14386 12.0778 8.81253 11.7662 9.39579L11.7624 9.39761Z" fill="#52D3D8"/>
<path d="M11.7624 9.39761C11.6921 9.53388 11.6047 9.66289 11.5002 9.78645L11.0937 10.2661L10.7156 10.7131L9.58895 12.0432L9.21088 12.4884L8.51742 13.306L8.13934 13.753L5.63719 16.7075C5.38261 17.0109 4.93424 17.0927 4.57896 16.9001L4.57326 16.8964C4.12298 16.6548 4.01089 16.0824 4.33387 15.7008L7.04311 12.5029L7.42118 12.0559L8.11654 11.2382L8.49272 10.7931L9.70295 9.3649L10.0202 8.99059C10.1399 8.84705 10.2045 8.68534 10.214 8.51635V8.5C10.2159 8.4782 10.2159 8.45639 10.2121 8.43459C10.214 8.43095 10.2121 8.4255 10.2121 8.42005C10.2026 8.25652 10.1323 8.09481 10.0107 7.95671L9.67445 7.5715L8.49082 6.21419L8.10704 5.77629L7.39649 4.96227L7.01271 4.52255L4.20848 1.31189C3.8779 0.932129 3.98239 0.359769 4.42887 0.109021C4.55996 0.0363403 4.70435 0 4.84874 0C5.09003 0 5.32751 0.0999359 5.4909 0.287089L8.08424 3.25428L8.46802 3.69399L9.18048 4.50802L9.56425 4.94592L10.7156 6.26325L11.0994 6.70115L11.4774 7.13542C11.5952 7.26988 11.6959 7.41342 11.7681 7.56242C12.0797 8.14386 12.0778 8.81253 11.7662 9.39579L11.7624 9.39761Z" fill="#52D3D8"/>
<path d="M6.77331 8.58361C6.77141 9.01606 6.60992 9.44851 6.29644 9.81736L5.88986 10.2971L2.09199 14.7851C1.83551 15.0867 1.38714 15.1685 1.03186 14.9777L1.02616 14.9741C0.577785 14.7324 0.463792 14.16 0.790572 13.7785L4.82023 9.01969C5.01022 8.79438 5.04441 8.50548 4.90952 8.26563L4.84303 8.12754C4.72903 7.94584 4.38135 7.49703 4.27876 7.38074L0.693678 3.27429C0.361198 2.89271 0.467591 2.32217 0.914064 2.07142C1.04706 1.99874 1.19145 1.9624 1.33584 1.9624C1.57712 1.9624 1.81271 2.06234 1.9761 2.24767L5.74357 6.56127C5.76257 6.58307 5.81767 6.64667 5.89176 6.7357C6.08555 6.9701 6.40663 7.38256 6.54532 7.69145C6.68591 7.94402 6.76191 8.21657 6.77331 8.48912C6.77141 8.52001 6.77141 8.5509 6.77521 8.58179L6.77331 8.58361Z" fill="#52D3D8"/>
</g>
<defs>
<clipPath id="clip0_1888_4183">
<rect width="92" height="17" fill="white" transform="translate(0.5)"/>
</clipPath>
</defs>
</svg>
