<svg width="18" height="20" viewBox="0 0 18 20" fill="none" xmlns="http://www.w3.org/2000/svg">
<path d="M16.7646 5.95117L16.3533 5.23734C16.0422 4.69748 15.8866 4.42755 15.622 4.31991C15.3573 4.21227 15.058 4.29721 14.4594 4.46708L13.4426 4.75349C13.0604 4.84162 12.6594 4.79163 12.3105 4.61234L12.0297 4.45036C11.7305 4.25871 11.5003 3.97612 11.3729 3.64396L11.0946 2.81281C10.9117 2.26279 10.8202 1.98778 10.6024 1.83049C10.3846 1.67319 10.0952 1.67319 9.5166 1.67319H8.58762C8.00899 1.67319 7.71968 1.67319 7.50186 1.83049C7.28405 1.98778 7.19256 2.26279 7.00958 2.81281L6.73129 3.64396C6.60388 3.97612 6.37372 4.25871 6.07448 4.45036L5.79375 4.61234C5.44479 4.79163 5.04383 4.84162 4.66166 4.75349L3.6448 4.46708C3.04619 4.29721 2.74688 4.21227 2.48224 4.31991C2.21759 4.42755 2.06205 4.69748 1.75097 5.23734L1.33965 5.95117C1.04806 6.45721 0.902263 6.71023 0.930558 6.97958C0.958855 7.24893 1.15403 7.46599 1.54439 7.90011L2.4036 8.8607C2.61359 9.12655 2.76268 9.58985 2.76268 10.0064C2.76268 10.4232 2.61364 10.8864 2.40362 11.1523L1.5444 12.1129C1.15404 12.547 0.958857 12.764 0.93056 13.0334C0.902263 13.3027 1.04806 13.5558 1.33965 14.0618L1.75096 14.7756C2.06203 15.3155 2.21759 15.5854 2.48224 15.6931C2.74689 15.8007 3.0462 15.7157 3.64482 15.5459L4.66163 15.2594C5.04387 15.1713 5.4449 15.2213 5.7939 15.4007L6.07459 15.5627C6.37377 15.7543 6.60388 16.0369 6.73126 16.369L7.00958 17.2002C7.19256 17.7502 7.28405 18.0253 7.50186 18.1826C7.71968 18.3399 8.00899 18.3399 8.58762 18.3399H9.5166C10.0952 18.3399 10.3846 18.3399 10.6024 18.1826C10.8202 18.0253 10.9117 17.7502 11.0946 17.2002L11.373 16.369C11.5003 16.0369 11.7305 15.7543 12.0296 15.5627L12.3103 15.4007C12.6593 15.2213 13.0604 15.1713 13.4426 15.2594L14.4594 15.5459C15.058 15.7157 15.3573 15.8007 15.622 15.6931C15.8866 15.5854 16.0422 15.3155 16.3533 14.7756L16.3533 14.7756L16.7646 14.0618C17.0562 13.5558 17.202 13.3027 17.1737 13.0334C17.1454 12.764 16.9502 12.547 16.5598 12.1129L15.7006 11.1523C15.4906 10.8864 15.3415 10.4232 15.3415 10.0064C15.3415 9.58985 15.4906 9.12655 15.7006 8.8607L16.5598 7.90011C16.9502 7.46599 17.1454 7.24893 17.1737 6.97958C17.202 6.71023 17.0562 6.45721 16.7646 5.95117Z" stroke="#25282B" stroke-width="1.5" stroke-linecap="round"/>
<path d="M11.9329 10C11.9329 11.6108 10.6271 12.9167 9.01628 12.9167C7.40545 12.9167 6.09961 11.6108 6.09961 10C6.09961 8.38918 7.40545 7.08334 9.01628 7.08334C10.6271 7.08334 11.9329 8.38918 11.9329 10Z" stroke="#25282B" stroke-width="1.5"/>
</svg>
