<svg width="15" height="16" viewBox="0 0 15 16" fill="none" xmlns="http://www.w3.org/2000/svg">
<path d="M12.5 3.70996L12.0868 10.3934C11.9813 12.1009 11.9285 12.9547 11.5005 13.5685C11.2889 13.872 11.0164 14.1282 10.7005 14.3206C10.0614 14.71 9.20599 14.71 7.49516 14.71C5.78208 14.71 4.92554 14.71 4.28604 14.3199C3.96987 14.1271 3.69733 13.8705 3.48579 13.5665C3.05792 12.9517 3.0063 12.0967 2.90307 10.3867L2.5 3.70996" stroke="#AAAAAA" stroke-width="1.5" stroke-linecap="round"/>
<path d="M5.5 7.86621H9.5" stroke="#AAAAAA" stroke-width="1.5" stroke-linecap="round"/>
<path d="M6.5 10.4795H8.5" stroke="#AAAAAA" stroke-width="1.5" stroke-linecap="round"/>
<path d="M1.5 3.7098H13.5M10.2037 3.7098L9.74858 2.77095C9.44626 2.1473 9.2951 1.83548 9.03435 1.641C8.97651 1.59786 8.91527 1.55949 8.85122 1.52627C8.56248 1.37646 8.21595 1.37646 7.52289 1.37646C6.81243 1.37646 6.45719 1.37646 6.16366 1.53254C6.09861 1.56714 6.03653 1.60706 5.97807 1.65191C5.7143 1.85426 5.56696 2.1775 5.27228 2.82397L4.86849 3.7098" stroke="#AAAAAA" stroke-width="1.5" stroke-linecap="round"/>
</svg>
