<svg width="15" height="16" viewBox="0 0 15 16" fill="none" xmlns="http://www.w3.org/2000/svg">
<path d="M8.81119 2.63343C9.30798 2.09519 9.55638 1.82606 9.82033 1.66908C10.4572 1.2903 11.2414 1.27853 11.889 1.63801C12.1573 1.787 12.4133 2.04855 12.9254 2.57164C13.4375 3.09473 13.6935 3.35628 13.8394 3.63042C14.1913 4.29188 14.1797 5.09299 13.8089 5.7436C13.6553 6.01324 13.3918 6.26698 12.8649 6.77447L6.59581 12.8127C5.59731 13.7744 5.09805 14.2552 4.47409 14.499C3.85014 14.7427 3.16419 14.7247 1.7923 14.6889L1.60564 14.684C1.18799 14.6731 0.979167 14.6676 0.857779 14.5298C0.73639 14.3921 0.752962 14.1794 0.786107 13.7539L0.804105 13.5229C0.897393 12.3255 0.944037 11.7268 1.17786 11.1886C1.41168 10.6504 1.81501 10.2134 2.62167 9.33947L8.81119 2.63343Z" stroke="#AAAAAA" stroke-width="1.5" stroke-linejoin="round"/>
<path d="M8.0954 2.70996L12.7621 7.37663" stroke="#AAAAAA" stroke-width="1.5" stroke-linejoin="round"/>
<path d="M8.76205 14.71L14.0954 14.71" stroke="#AAAAAA" stroke-width="1.5" stroke-linecap="round" stroke-linejoin="round"/>
</svg>
