<svg width="13" height="16" viewBox="0 0 13 16" fill="none" xmlns="http://www.w3.org/2000/svg">
<path d="M6.49998 11.0003V9.66699" stroke="#AAAAAA" stroke-width="1.5" stroke-linecap="round"/>
<path d="M1.3452 12.5632C1.49512 13.6767 2.41741 14.549 3.53976 14.6006C4.48417 14.644 5.44352 14.6667 6.49999 14.6667C7.55645 14.6667 8.51581 14.644 9.46022 14.6006C10.5826 14.549 11.5049 13.6767 11.6548 12.5632C11.7526 11.8365 11.8333 11.0917 11.8333 10.3333C11.8333 9.57492 11.7526 8.83021 11.6548 8.1035C11.5049 6.99001 10.5826 6.11766 9.46022 6.06606C8.51581 6.02265 7.55645 6 6.49999 6C5.44352 6 4.48417 6.02265 3.53976 6.06606C2.41741 6.11766 1.49512 6.99001 1.3452 8.1035C1.24735 8.83021 1.16666 9.57492 1.16666 10.3333C1.16666 11.0917 1.24735 11.8365 1.3452 12.5632Z" stroke="#AAAAAA" stroke-width="1.5"/>
<path d="M3.5 6.00016V4.3335C3.5 2.67664 4.84315 1.3335 6.5 1.3335C8.15685 1.3335 9.5 2.67664 9.5 4.3335V6.00016" stroke="#AAAAAA" stroke-width="1.5" stroke-linecap="round" stroke-linejoin="round"/>
</svg>
