<?xml version="1.0" standalone="no"?>
<!DOCTYPE svg PUBLIC "-//W3C//DTD SVG 20010904//EN"
 "http://www.w3.org/TR/2001/REC-SVG-20010904/DTD/svg10.dtd">
<svg version="1.0" xmlns="http://www.w3.org/2000/svg"
 width="512.000000pt" height="512.000000pt" viewBox="0 0 512.000000 512.000000"
 preserveAspectRatio="xMidYMid meet">

<g transform="translate(0.000000,512.000000) scale(0.100000,-0.100000)"
fill="#000000" stroke="none">
<path d="M1020 5102 c-47 -23 -76 -71 -85 -137 l-6 -55 -80 0 c-94 0 -210 -22
-293 -56 -203 -82 -372 -276 -426 -490 -19 -75 -20 -118 -20 -1679 0 -1561 1
-1604 20 -1679 32 -125 91 -228 190 -327 98 -99 190 -155 315 -191 l80 -23
1845 0 1845 0 80 23 c243 70 443 275 505 518 19 75 20 118 20 1679 0 1561 -1
1604 -20 1679 -41 160 -147 313 -287 412 -120 87 -275 134 -438 134 l-85 0 0
54 c0 122 -119 193 -224 133 -49 -28 -76 -77 -76 -139 l0 -48 -139 0 -138 0
-6 51 c-4 28 -14 65 -24 81 -80 137 -283 76 -283 -86 l0 -46 -139 0 -138 0 -6
57 c-10 95 -65 148 -152 148 -88 0 -145 -56 -153 -150 l-4 -55 -138 0 -138 0
-4 55 c-8 94 -65 150 -153 150 -88 0 -145 -56 -153 -150 l-4 -55 -138 0 -138
0 -4 55 c-8 94 -65 150 -153 150 -87 0 -140 -54 -152 -154 l-6 -51 -138 0
-139 0 0 45 c0 122 -116 200 -220 147z m120 -82 c19 -19 20 -33 20 -550 0
-517 -1 -531 -20 -550 -27 -27 -81 -26 -106 1 -18 20 -19 44 -19 551 l0 530
24 19 c30 25 76 24 101 -1z m590 0 c19 -19 20 -33 20 -550 0 -517 -1 -531 -20
-550 -30 -30 -83 -27 -109 6 -21 26 -21 36 -21 544 0 508 0 518 21 544 26 33
79 36 109 6z m587 -2 l23 -21 0 -527 c0 -516 0 -527 -20 -548 -27 -29 -76 -29
-107 0 l-23 21 0 526 0 525 22 23 c28 30 74 30 105 1z m590 0 l23 -21 0 -526
0 -525 -22 -23 c-28 -30 -80 -31 -108 -1 -20 21 -20 32 -20 547 l0 525 22 23
c28 30 74 30 105 1z m592 -4 c21 -26 21 -36 21 -544 0 -508 0 -518 -21 -544
-26 -33 -79 -36 -109 -6 -19 19 -20 33 -20 550 0 517 1 531 20 550 30 30 83
27 109 -6z m582 7 l24 -19 0 -530 c0 -507 -1 -531 -19 -551 -22 -24 -73 -28
-101 -7 -12 9 -21 31 -24 62 -3 27 -4 271 -1 542 5 474 6 494 24 508 28 20 69
17 97 -5z m-3141 -669 l0 -189 -34 -44 c-62 -81 -72 -160 -32 -244 43 -91 116
-138 218 -138 110 -1 204 76 228 186 11 45 10 62 -4 110 -9 31 -30 72 -46 91
l-30 34 0 191 0 191 140 0 140 0 0 -194 c0 -193 0 -195 -25 -224 -79 -95 -74
-222 13 -312 36 -37 60 -52 105 -65 218 -63 389 190 251 371 l-34 44 0 190 0
190 140 0 140 0 0 -191 c0 -187 0 -191 -25 -223 -77 -101 -73 -237 11 -320
153 -151 404 -47 404 166 0 60 -30 139 -64 167 -14 11 -16 43 -16 207 l0 194
140 0 140 0 0 -194 c0 -164 -2 -196 -16 -207 -34 -28 -64 -107 -64 -166 1
-137 100 -237 235 -236 202 0 306 224 180 389 -25 32 -25 36 -25 223 l0 191
140 0 140 0 0 -191 0 -191 -27 -32 c-38 -46 -55 -93 -55 -157 0 -132 102 -233
237 -232 199 0 308 232 180 385 -25 29 -25 31 -25 224 l0 194 140 0 140 0 0
-190 0 -190 -34 -44 c-119 -157 -12 -380 182 -379 102 0 175 47 218 138 39 82
29 164 -27 237 l-29 37 0 197 0 197 95 -5 c80 -4 105 -10 159 -37 107 -53 175
-147 195 -271 13 -80 15 -2982 2 -3082 -17 -127 -86 -225 -199 -280 l-67 -33
-1815 0 -1815 0 -67 33 c-74 36 -133 96 -170 170 l-23 47 0 1600 0 1600 25 50
c29 58 101 135 151 161 56 28 119 42 202 43 l77 1 0 -188z"/>
<path d="M1850 2725 l0 -275 280 0 280 0 0 275 0 275 -280 0 -280 0 0 -275z"/>
<path d="M2710 2725 l0 -275 280 0 280 0 0 275 0 275 -280 0 -280 0 0 -275z"/>
<path d="M3570 2725 l0 -275 280 0 280 0 0 275 0 275 -280 0 -280 0 0 -275z"/>
<path d="M990 1865 l0 -275 280 0 280 0 0 275 0 275 -280 0 -280 0 0 -275z"/>
<path d="M1850 1865 l0 -275 280 0 280 0 0 275 0 275 -280 0 -280 0 0 -275z"/>
<path d="M2710 1865 l0 -275 280 0 280 0 0 275 0 275 -280 0 -280 0 0 -275z"/>
<path d="M3570 1865 l0 -275 280 0 280 0 0 275 0 275 -280 0 -280 0 0 -275z"/>
<path d="M110 668 c0 -9 7 -49 15 -89 54 -256 238 -461 490 -547 l80 -27 1865
0 1865 0 80 27 c44 15 109 44 145 65 79 46 213 178 259 256 41 70 87 203 96
277 l6 55 -22 -30 c-91 -122 -259 -245 -409 -297 -144 -50 -62 -48 -2020 -48
-1958 0 -1876 -2 -2020 48 -150 52 -324 179 -408 297 -15 21 -21 25 -22 13z"/>
</g>
</svg>
