<svg width="16" height="20" viewBox="0 0 16 20" fill="none" xmlns="http://www.w3.org/2000/svg">
<path d="M0.916585 10.8333V10.1635C0.916585 7.69071 0.916585 6.45431 1.30737 5.46682C1.9356 3.87929 3.2642 2.62707 4.94855 2.03496C5.99627 1.66664 7.30809 1.66664 9.93174 1.66664C11.431 1.66664 12.1806 1.66664 12.7793 1.87711C13.7418 2.21546 14.501 2.93102 14.8599 3.83817C15.0833 4.40245 15.0833 5.10897 15.0833 6.522V10.0118V10.8333" stroke="white" stroke-width="1.5" stroke-linecap="round" stroke-linejoin="round"/>
<path d="M0.916667 10C0.916667 8.46588 2.16032 7.22222 3.69444 7.22222C4.24926 7.22222 4.90336 7.31944 5.4428 7.1749C5.9221 7.04647 6.29647 6.6721 6.4249 6.1928C6.56944 5.65336 6.47222 4.99926 6.47222 4.44444C6.47222 2.91032 7.71588 1.66667 9.25 1.66667" stroke="white" stroke-width="1.5" stroke-linecap="round" stroke-linejoin="round"/>
<path d="M4.24996 14.3496C4.20377 13.3577 3.51791 13.3333 2.5875 13.3333C1.15425 13.3333 0.916626 13.6717 0.916626 15V16.6666C0.916626 17.9949 1.15425 18.3333 2.5875 18.3333C3.51791 18.3333 4.20377 18.309 4.24996 17.317M15.0833 13.3333L13.6023 17.2456C13.3279 17.9707 13.1906 18.3333 12.9733 18.3333C12.7559 18.3333 12.6187 17.9707 12.3442 17.2456L10.8632 13.3333M8.72992 13.3333H7.74584C7.35258 13.3333 7.15595 13.3333 7.00085 13.3968C6.47264 13.6128 6.47982 14.1206 6.47982 14.5833C6.47982 15.046 6.47264 15.5539 7.00085 15.7699C7.15595 15.8333 7.35259 15.8333 7.74584 15.8333C8.1391 15.8333 8.33574 15.8333 8.49084 15.8968C9.01905 16.1128 9.01186 16.6206 9.01186 17.0833C9.01186 17.546 9.01905 18.0539 8.49084 18.2699C8.33574 18.3333 8.13911 18.3333 7.74584 18.3333H6.67402" stroke="white" stroke-width="1.5" stroke-linecap="round"/>
</svg>
