<svg width="22" height="22" viewBox="0 0 22 22" fill="none" xmlns="http://www.w3.org/2000/svg">
<path d="M4.32171 8.68293C6.73539 4.41199 7.94222 2.27651 9.59826 1.72681C10.5093 1.4244 11.4907 1.4244 12.4017 1.72681C14.0578 2.27651 15.2646 4.41199 17.6783 8.68293C20.092 12.9539 21.2988 15.0893 20.9368 16.8293C20.7376 17.7866 20.2469 18.6549 19.535 19.3097C18.241 20.5 15.8274 20.5 11 20.5C6.17265 20.5 3.75897 20.5 2.46496 19.3097C1.75308 18.6549 1.26239 17.7866 1.06322 16.8293C0.701194 15.0893 1.90803 12.9539 4.32171 8.68293Z" stroke="#5B5B5B" stroke-width="1.5"/>
<path d="M10.992 15H11.001" stroke="#5B5B5B" stroke-width="2" stroke-linecap="round" stroke-linejoin="round"/>
<path d="M11 12L11 8" stroke="#5B5B5B" stroke-width="1.5" stroke-linecap="round" stroke-linejoin="round"/>
</svg>
