<svg width="23" height="22" viewBox="0 0 23 22" fill="none" xmlns="http://www.w3.org/2000/svg">
<path d="M9.57715 5.25C9.57715 3.04086 7.78629 1.25 5.57715 1.25C3.36801 1.25 1.57715 3.04086 1.57715 5.25C1.57715 7.45914 3.36801 9.25 5.57715 9.25C7.78629 9.25 9.57715 7.45914 9.57715 5.25Z" stroke="#5B5B5B" stroke-width="1.5"/>
<path d="M9.57715 17.25C9.57715 15.0409 7.78629 13.25 5.57715 13.25C3.36801 13.25 1.57715 15.0409 1.57715 17.25C1.57715 19.4591 3.36801 21.25 5.57715 21.25C7.78629 21.25 9.57715 19.4591 9.57715 17.25Z" stroke="#5B5B5B" stroke-width="1.5"/>
<path d="M21.5771 5.25C21.5771 3.04086 19.7863 1.25 17.5771 1.25C15.368 1.25 13.5771 3.04086 13.5771 5.25C13.5771 7.45914 15.368 9.25 17.5771 9.25C19.7863 9.25 21.5771 7.45914 21.5771 5.25Z" stroke="#5B5B5B" stroke-width="1.5"/>
<path d="M21.5771 17.25C21.5771 15.0409 19.7863 13.25 17.5771 13.25C15.368 13.25 13.5771 15.0409 13.5771 17.25C13.5771 19.4591 15.368 21.25 17.5771 21.25C19.7863 21.25 21.5771 19.4591 21.5771 17.25Z" stroke="#5B5B5B" stroke-width="1.5"/>
</svg>
