<svg width="22" height="22" viewBox="0 0 22 22" fill="none" xmlns="http://www.w3.org/2000/svg">
<path d="M1 10C3.3317 7.55783 6.64323 7.44283 9 10M7.49509 3.5C7.49509 4.88071 6.37421 6 4.99153 6C3.60885 6 2.48797 4.88071 2.48797 3.5C2.48797 2.11929 3.60885 1 4.99153 1C6.37421 1 7.49509 2.11929 7.49509 3.5Z" stroke="#5B5B5B" stroke-width="1.5" stroke-linecap="round"/>
<path d="M13 21C15.3317 18.5578 18.6432 18.4428 21 21M19.4951 14.5C19.4951 15.8807 18.3742 17 16.9915 17C15.6089 17 14.488 15.8807 14.488 14.5C14.488 13.1193 15.6089 12 16.9915 12C18.3742 12 19.4951 13.1193 19.4951 14.5Z" stroke="#5B5B5B" stroke-width="1.5" stroke-linecap="round"/>
<path d="M2 13C2 16.87 5.13 20 9 20L8 18" stroke="#5B5B5B" stroke-width="1.5" stroke-linecap="round" stroke-linejoin="round"/>
<path d="M14 2H20M14 5H20M14 8H17.5" stroke="#5B5B5B" stroke-width="1.5" stroke-linecap="round" stroke-linejoin="round"/>
</svg>
