<svg width="22" height="22" viewBox="0 0 22 22" fill="none" xmlns="http://www.w3.org/2000/svg">
<path d="M2.78879 8.03708C2.0814 8.42 0.226682 9.20187 1.35633 10.1803C1.90815 10.6582 2.52275 11 3.29543 11H7.70457C8.47725 11 9.09185 10.6582 9.64367 10.1803C10.7733 9.20187 8.9186 8.42 8.21121 8.03708C6.55241 7.13915 4.44759 7.13915 2.78879 8.03708Z" stroke="#5B5B5B" stroke-width="1.5"/>
<path d="M7.75 3.27273C7.75 4.52792 6.74264 5.54545 5.5 5.54545C4.25736 5.54545 3.25 4.52792 3.25 3.27273C3.25 2.01753 4.25736 1 5.5 1C6.74264 1 7.75 2.01753 7.75 3.27273Z" stroke="#5B5B5B" stroke-width="1.5"/>
<path d="M3 14C3 17.3171 5.68286 20 9 20L8.14286 18.2857" stroke="#5B5B5B" stroke-width="1.5" stroke-linecap="round" stroke-linejoin="round"/>
<path d="M19 8C19 4.68286 16.3171 2 13 2L13.8571 3.71429" stroke="#5B5B5B" stroke-width="1.5" stroke-linecap="round" stroke-linejoin="round"/>
<path d="M13.7888 18.0371C13.0814 18.42 11.2267 19.2019 12.3563 20.1803C12.9082 20.6582 13.5227 21 14.2954 21H18.7046C19.4773 21 20.0918 20.6582 20.6437 20.1803C21.7733 19.2019 19.9186 18.42 19.2112 18.0371C17.5524 17.1392 15.4476 17.1392 13.7888 18.0371Z" stroke="#5B5B5B" stroke-width="1.5"/>
<path d="M18.75 13.2727C18.75 14.5279 17.7426 15.5455 16.5 15.5455C15.2574 15.5455 14.25 14.5279 14.25 13.2727C14.25 12.0175 15.2574 11 16.5 11C17.7426 11 18.75 12.0175 18.75 13.2727Z" stroke="#5B5B5B" stroke-width="1.5"/>
</svg>
