<svg width="22" height="21" viewBox="0 0 22 21" fill="none" xmlns="http://www.w3.org/2000/svg">
<path d="M4.18007 14.2964C2.92249 15.0335 -0.374787 16.5386 1.63348 18.422C2.6145 19.342 3.7071 20 5.08077 20H12.9192C14.2929 20 15.3855 19.342 16.3665 18.422C18.3748 16.5386 15.0775 15.0335 13.8199 14.2964C10.8709 12.5679 7.12906 12.5679 4.18007 14.2964Z" stroke="#5B5B5B" stroke-width="1.5" stroke-linecap="round" stroke-linejoin="round"/>
<path d="M13 6C13 8.20914 11.2091 10 9 10C6.79086 10 5 8.20914 5 6C5 3.79086 6.79086 2 9 2C11.2091 2 13 3.79086 13 6Z" stroke="#5B5B5B" stroke-width="1.5"/>
<path d="M18.5 6.14286V7M18.5 6.14286C17.777 6.14286 17.14 5.76405 16.7664 5.18888M18.5 6.14286C19.223 6.14286 19.86 5.76405 20.2336 5.18888M18.5 1.85714C19.223 1.85714 19.8601 2.236 20.2336 2.81125M18.5 1.85714C17.777 1.85714 17.1399 2.236 16.7664 2.81125M18.5 1.85714V1M21 2.28571L20.2336 2.81125M16.0003 5.71429L16.7664 5.18888M16 2.28571L16.7664 2.81125M20.9997 5.71429L20.2336 5.18888M20.2336 2.81125C20.4545 3.15141 20.5833 3.56023 20.5833 4C20.5833 4.43982 20.4545 4.84869 20.2336 5.18888M16.7664 2.81125C16.5455 3.15141 16.4167 3.56023 16.4167 4C16.4167 4.43982 16.5455 4.84869 16.7664 5.18888" stroke="#5B5B5B" stroke-width="1.5" stroke-linecap="round"/>
</svg>
