<svg width="22" height="22" viewBox="0 0 22 22" fill="none" xmlns="http://www.w3.org/2000/svg">
<path d="M12 1.04725C11.6711 1.016 11.3375 1 11 1C5.47778 1 1 5.28357 1 10.5667C1 13.1051 2.03333 15.4115 3.71889 17.1231C4.09 17.5 4.33778 18.0148 4.23778 18.5448C4.07275 19.4112 3.69874 20.2194 3.15111 20.893C4.59195 21.161 6.09014 20.9197 7.37499 20.2364C7.82918 19.9949 8.05627 19.8741 8.21653 19.8496C8.37678 19.8251 8.60633 19.8682 9.06542 19.9545C9.70324 20.0742 10.3507 20.1343 11 20.1334C15.83 20.1334 20.0653 16.8565 21 12.5" stroke="#5B5B5B" stroke-width="1.5" stroke-linecap="round" stroke-linejoin="round"/>
<path d="M15.3913 7.06671L14.9657 6.44912H14.9657L15.3913 7.06671ZM19.6087 7.06671L20.0343 6.44912H20.0343L19.6087 7.06671ZM14.2771 9.18845L13.7216 9.69235H13.7216L14.2771 9.18845ZM20.7229 9.18845L20.1673 8.68456L20.7229 9.18845ZM15.8168 7.68431C16.8508 6.9719 18.1492 6.9719 19.1832 7.68431L20.0343 6.44912C18.4878 5.38363 16.5122 5.38363 14.9657 6.44912L15.8168 7.68431ZM15.7853 10.75H19.2147V9.25H15.7853V10.75ZM14.8327 8.68456C14.7223 8.5629 14.7535 8.53349 14.7499 8.57215C14.7492 8.57905 14.7535 8.5242 14.8606 8.4029C15.0995 8.13236 15.4622 7.92863 15.8168 7.68431L14.9657 6.44912C14.7702 6.58388 14.1365 6.95673 13.7362 7.41013C13.5237 7.65081 13.2977 7.99478 13.2565 8.43108C13.2123 8.89913 13.3927 9.32971 13.7216 9.69235L14.8327 8.68456ZM19.1832 7.68431C19.5378 7.92863 19.9005 8.13236 20.1394 8.4029C20.2465 8.5242 20.2508 8.57905 20.2501 8.57215C20.2465 8.53349 20.2777 8.5629 20.1673 8.68456L21.2784 9.69235C21.6073 9.32971 21.7877 8.89913 21.7435 8.43108C21.7023 7.99478 21.4763 7.65081 21.2638 7.41013C20.8635 6.95673 20.2298 6.58388 20.0343 6.44912L19.1832 7.68431ZM20.1673 8.68456C19.7916 9.09873 19.5007 9.25 19.2147 9.25V10.75C20.1306 10.75 20.7957 10.2245 21.2784 9.69235L20.1673 8.68456ZM13.7216 9.69235C14.2043 10.2245 14.8694 10.75 15.7853 10.75V9.25C15.4993 9.25 15.2083 9.09873 14.8327 8.68456L13.7216 9.69235ZM18.5 2.8C18.5 3.39996 18.0325 3.85 17.5 3.85V5.35C18.9005 5.35 20 4.18827 20 2.8H18.5ZM17.5 3.85C16.9675 3.85 16.5 3.39996 16.5 2.8H15C15 4.18827 16.0995 5.35 17.5 5.35V3.85ZM16.5 2.8C16.5 2.20004 16.9675 1.75 17.5 1.75V0.25C16.0995 0.25 15 1.41173 15 2.8H16.5ZM17.5 1.75C18.0325 1.75 18.5 2.20004 18.5 2.8H20C20 1.41173 18.9005 0.25 17.5 0.25V1.75Z" fill="#5B5B5B"/>
<path d="M10.9955 11H11.0045M7 11H7.00897" stroke="#5B5B5B" stroke-width="2" stroke-linecap="round" stroke-linejoin="round"/>
</svg>
