<svg width="22" height="22" viewBox="0 0 22 22" fill="none" xmlns="http://www.w3.org/2000/svg">
<path d="M1 9C1.77968 5.18409 4.66918 2.12932 8.40618 1.08977C8.71987 1.00251 8.87671 0.958878 8.96119 1.05236C9.04568 1.14584 8.98344 1.30042 8.85897 1.60956L8 3.5M13 1C16.8159 1.77968 19.8707 4.66918 20.9102 8.40618C20.9975 8.71987 21.0411 8.87671 20.9476 8.96119C20.8542 9.04568 20.6996 8.98344 20.3904 8.85897L18.5 8M21 13C20.2203 16.8159 17.3308 19.8707 13.5938 20.9102C13.2801 20.9975 13.1233 21.0411 13.0388 20.9476C12.9543 20.8542 13.0166 20.6996 13.141 20.3904L14 18.5M9 21C5.18409 20.2203 2.12932 17.3308 1.08977 13.5938C1.00251 13.2801 0.958878 13.1233 1.05236 13.0388C1.14584 12.9543 1.30042 13.0166 1.60956 13.141L3.5 14" stroke="#5B5B5B" stroke-width="1.5" stroke-linecap="round"/>
<path d="M10.9999 10.0989C9.68745 10.9991 8.09867 12.7795 7.5 15.5M8.37498 13.1035C6.3031 8.3095 10.4826 6.69267 13.6638 6.51291C14.0477 6.49122 14.2397 6.48037 14.3775 6.62024C14.5154 6.76011 14.5074 6.9595 14.4915 7.35828C14.3595 10.6742 13.0376 15.2363 8.37498 13.1035Z" stroke="#5B5B5B" stroke-width="1.5" stroke-linecap="round" stroke-linejoin="round"/>
</svg>
