<svg width="23" height="22" viewBox="0 0 23 22" fill="none" xmlns="http://www.w3.org/2000/svg">
<path d="M3.375 14L3.375 18" stroke="#5B5B5B" stroke-width="1.5" stroke-linecap="round" stroke-linejoin="round"/>
<path d="M11.375 8L11.375 18" stroke="#5B5B5B" stroke-width="1.5" stroke-linecap="round" stroke-linejoin="round"/>
<path d="M21.375 21L1.375 21" stroke="#5B5B5B" stroke-width="1.5" stroke-linecap="round" stroke-linejoin="round"/>
<path d="M19.375 12L19.375 18" stroke="#5B5B5B" stroke-width="1.5" stroke-linecap="round" stroke-linejoin="round"/>
<path d="M4.97509 7.79993C4.61021 7.31419 4.0293 7 3.375 7C2.27043 7 1.375 7.89543 1.375 9C1.375 10.1046 2.27043 11 3.375 11C4.47957 11 5.375 10.1046 5.375 9C5.375 8.54973 5.2262 8.13421 4.97509 7.79993ZM4.97509 7.79993L9.77491 4.20007M9.77491 4.20007C10.1398 4.68581 10.7207 5 11.375 5C12.158 5 12.8359 4.55006 13.1642 3.89462M9.77491 4.20007C9.5238 3.86579 9.375 3.45027 9.375 3C9.375 1.89543 10.2704 1 11.375 1C12.4796 1 13.375 1.89543 13.375 3C13.375 3.32158 13.2991 3.62543 13.1642 3.89462M13.1642 3.89462L17.5858 6.10538M17.5858 6.10538C17.4509 6.37457 17.375 6.67842 17.375 7C17.375 8.10457 18.2704 9 19.375 9C20.4796 9 21.375 8.10457 21.375 7C21.375 5.89543 20.4796 5 19.375 5C18.592 5 17.9141 5.44994 17.5858 6.10538Z" stroke="#5B5B5B" stroke-width="1.5"/>
</svg>
