<svg width="23" height="20" viewBox="0 0 23 20" fill="none" xmlns="http://www.w3.org/2000/svg">
<path d="M9.875 6H17.875M9.875 10H12.375M17.875 10H15.375M9.875 14H12.375M17.875 14H15.375" stroke="#5B5B5B" stroke-width="1.5" stroke-linecap="round" stroke-linejoin="round"/>
<path d="M6.375 5.5H5.375C3.48938 5.5 2.54657 5.5 1.96079 6.08579C1.375 6.67157 1.375 7.61438 1.375 9.5V16C1.375 17.3807 2.49429 18.5 3.875 18.5C5.25571 18.5 6.375 17.3807 6.375 16V5.5Z" stroke="#5B5B5B" stroke-width="1.5" stroke-linecap="round" stroke-linejoin="round"/>
<path d="M15.375 1.5H10.375C9.44503 1.5 8.98004 1.5 8.59854 1.60222C7.56327 1.87962 6.75462 2.68827 6.47722 3.72354C6.375 4.10504 6.375 4.57003 6.375 5.5V16C6.375 17.3807 5.25571 18.5 3.875 18.5H15.375C18.2034 18.5 19.6176 18.5 20.4963 17.6213C21.375 16.7426 21.375 15.3284 21.375 12.5V7.5C21.375 4.67157 21.375 3.25736 20.4963 2.37868C19.6176 1.5 18.2034 1.5 15.375 1.5Z" stroke="#5B5B5B" stroke-width="1.5" stroke-linecap="round" stroke-linejoin="round"/>
</svg>
