<svg width="22" height="22" viewBox="0 0 22 22" fill="none" xmlns="http://www.w3.org/2000/svg">
<path d="M5.5 16.5L5.5 13.5M10.5 16.5L10.5 7.5M15.5 16.5V12.5" stroke="#5B5B5B" stroke-width="1.5" stroke-linecap="round"/>
<path d="M20.5 4.5C20.5 6.15685 19.1569 7.5 17.5 7.5C15.8431 7.5 14.5 6.15685 14.5 4.5C14.5 2.84315 15.8431 1.5 17.5 1.5C19.1569 1.5 20.5 2.84315 20.5 4.5Z" stroke="#5B5B5B" stroke-width="1.5"/>
<path d="M20.4955 10C20.4955 10 20.5 10.3395 20.5 11C20.5 15.4784 20.5 17.7175 19.1088 19.1088C17.7175 20.5 15.4783 20.5 11 20.5C6.52166 20.5 4.28249 20.5 2.89124 19.1088C1.5 17.7175 1.5 15.4784 1.5 11C1.5 6.52169 1.5 4.28252 2.89124 2.89127C4.28249 1.50003 6.52166 1.50003 11 1.50003L12 1.5" stroke="#5B5B5B" stroke-width="1.5" stroke-linecap="round" stroke-linejoin="round"/>
</svg>
