<svg width="22" height="22" viewBox="0 0 22 22" fill="none" xmlns="http://www.w3.org/2000/svg">
<path d="M1 9C1.77968 5.18409 4.66918 2.12932 8.40618 1.08977C8.71987 1.00251 8.87671 0.958878 8.96119 1.05236C9.04568 1.14584 8.98344 1.30042 8.85897 1.60956L8 3.5M13 1C16.8159 1.77968 19.8707 4.66918 20.9102 8.40618C20.9975 8.71987 21.0411 8.87671 20.9476 8.96119C20.8542 9.04568 20.6996 8.98344 20.3904 8.85897L18.5 8M21 13C20.2203 16.8159 17.3308 19.8707 13.5938 20.9102C13.2801 20.9975 13.1233 21.0411 13.0388 20.9476C12.9543 20.8542 13.0166 20.6996 13.141 20.3904L14 18.5M9 21C5.18409 20.2203 2.12932 17.3308 1.08977 13.5938C1.00251 13.2801 0.958878 13.1233 1.05236 13.0388C1.14584 12.9543 1.30042 13.0166 1.60956 13.141L3.5 14" stroke="#5B5B5B" stroke-width="1.5" stroke-linecap="round"/>
<path d="M14 11C14 12.6569 12.6569 14 11 14M14 11C14 9.34315 12.6569 8 11 8M14 11H15.5M11 14C9.34315 14 8 12.6569 8 11M11 14V15.5M8 11C8 9.34315 9.34315 8 11 8M8 11L6.5 11M11 8V6.5M13.1213 8.87869L14.182 7.81803M8.87868 13.1213L7.81802 14.182M13.1213 13.1213L14.182 14.182M8.87868 8.87869L7.81802 7.81803" stroke="#5B5B5B" stroke-width="1.5" stroke-linecap="round" stroke-linejoin="round"/>
</svg>
