<svg width="15" height="13" viewBox="0 0 15 13" fill="none" xmlns="http://www.w3.org/2000/svg">
<path d="M2.24365 10.3606C2.15034 10.2963 2.06354 10.2241 1.98223 10.1428C1.25 9.41053 1.25 8.23202 1.25 5.875C1.25 3.51798 1.25 2.33947 1.98223 1.60723C2.71447 0.875 3.89298 0.875 6.25 0.875H8.75C11.107 0.875 12.2855 0.875 13.0178 1.60723C13.75 2.33947 13.75 3.51798 13.75 5.875C13.75 8.23202 13.75 9.41053 13.0178 10.1428C12.9365 10.2241 12.8497 10.2963 12.7564 10.3606" stroke="white" stroke-width="1.5" stroke-linecap="round"/>
<path d="M5.42893 9.57874C4.88857 9.90781 3.47177 10.5797 4.3347 11.4205C4.75623 11.8313 5.22571 12.125 5.81596 12.125H9.18404C9.77429 12.125 10.2438 11.8313 10.6653 11.4205C11.5282 10.5797 10.1114 9.90781 9.57107 9.57874C8.30392 8.80709 6.69608 8.80709 5.42893 9.57874Z" stroke="white" stroke-width="1.5" stroke-linecap="round" stroke-linejoin="round"/>
<path d="M9.0625 5.875C9.0625 6.73794 8.36294 7.4375 7.5 7.4375C6.63706 7.4375 5.9375 6.73794 5.9375 5.875C5.9375 5.01206 6.63706 4.3125 7.5 4.3125C8.36294 4.3125 9.0625 5.01206 9.0625 5.875Z" stroke="white" stroke-width="1.5"/>
</svg>
