<svg width="16" height="15" viewBox="0 0 16 15" fill="none" xmlns="http://www.w3.org/2000/svg">
<path d="M2.0625 5C2.0625 3.23223 2.0625 2.34835 2.61167 1.79917C3.16085 1.25 4.04473 1.25 5.8125 1.25H10.1875C11.9553 1.25 12.8392 1.25 13.3883 1.79917C13.9375 2.34835 13.9375 3.23223 13.9375 5V6.875C13.9375 8.64277 13.9375 9.52665 13.3883 10.0758C12.8392 10.625 11.9553 10.625 10.1875 10.625H5.8125C4.04473 10.625 3.16085 10.625 2.61167 10.0758C2.0625 9.52665 2.0625 8.64277 2.0625 6.875V5Z" stroke="white" stroke-width="1.5"/>
<path d="M5.5 6.07792L5.93534 5.50635C6.48451 4.78534 7.45569 4.8428 7.94116 5.62503C8.41027 6.38092 9.3392 6.46486 9.90013 5.80205L10.5 5.09323" stroke="white" stroke-width="1.5" stroke-linecap="round" stroke-linejoin="round"/>
<path d="M7.25 13.75C7.25 14.1642 7.58579 14.5 8 14.5C8.41421 14.5 8.75 14.1642 8.75 13.75L7.25 13.75ZM7.25 10.625L7.25 13.75L8.75 13.75L8.75 10.625L7.25 10.625Z" fill="white"/>
<path d="M5.8125 13.75L6.01763 13.5448C6.37893 13.1835 6.55958 13.0028 6.7893 12.9077C7.01903 12.8125 7.27453 12.8125 7.78551 12.8125H8.21435C8.72529 12.8125 8.98076 12.8125 9.21047 12.9077C9.44018 13.0028 9.62083 13.1834 9.98212 13.5447L10.1874 13.75" stroke="white" stroke-width="1.5" stroke-linecap="round" stroke-linejoin="round"/>
</svg>
