<svg width="16" height="15" viewBox="0 0 16 15" fill="none" xmlns="http://www.w3.org/2000/svg">
<path d="M8 11.25V13.75" stroke="white" stroke-width="1.5" stroke-linecap="round" stroke-linejoin="round"/>
<path d="M5.8125 13.75L6.01763 13.5448C6.37893 13.1835 6.55958 13.0028 6.7893 12.9077C7.01903 12.8125 7.27453 12.8125 7.78551 12.8125H8.21435C8.72529 12.8125 8.98076 12.8125 9.21047 12.9077C9.44018 13.0028 9.62083 13.1834 9.98212 13.5447L10.1874 13.75" stroke="white" stroke-width="1.5" stroke-linecap="round" stroke-linejoin="round"/>
<path d="M2.0625 7.5C2.0625 9.26777 2.0625 10.1517 2.61167 10.7008C3.16085 11.25 4.04473 11.25 5.8125 11.25H10.1875C11.9553 11.25 12.8392 11.25 13.3883 10.7008C13.9375 10.1517 13.9375 9.26777 13.9375 7.5V5C13.9375 3.23223 13.9375 2.34835 13.3883 1.79917C12.8392 1.25 11.9553 1.25 10.1875 1.25H5.8125C4.04473 1.25 3.16085 1.25 2.61167 1.79917C2.0625 2.34835 2.0625 3.23223 2.0625 5V7.5Z" stroke="white" stroke-width="1.5"/>
<path d="M5.5 8.125V6.25M8 8.125V4.375M10.5 8.125V6.875" stroke="white" stroke-width="1.5" stroke-linecap="round"/>
</svg>
