<svg width="15" height="16" viewBox="0 0 15 16" fill="none" xmlns="http://www.w3.org/2000/svg">
<path d="M11.3688 1.22806L9.36473 3.76874L8.54245 2.75999L8.4043 2.58902L10.2269 0.280863C10.45 -0.00466362 10.8428 -0.0816021 11.1541 0.0996307H11.1591C11.5536 0.330446 11.6518 0.867305 11.3688 1.22977V1.22806Z" fill="white"/>
<path d="M11.2913 15.8944C11.1764 15.9628 11.0499 15.997 10.9217 15.997C10.7103 15.997 10.5039 15.9029 10.3608 15.7285L8.4649 13.3964L8.59973 13.2255L9.40369 12.2082L11.4843 14.7659C11.774 15.1233 11.6824 15.6601 11.2913 15.8961V15.8944Z" fill="white"/>
<path d="M14.5623 12.9171L11.6011 9.2771L11.5678 9.34549C11.4713 9.54382 11.3515 9.7336 11.2116 9.91141L10.7173 10.5372L13.4371 13.8797C13.6668 14.1618 14.058 14.2302 14.3676 14.0473C14.7587 13.8113 14.8503 13.2728 14.5607 12.9154L14.5623 12.9171ZM14.271 1.90811H14.266C13.9548 1.72516 13.5619 1.8021 13.3372 2.08763L10.709 5.42163L10.8454 5.58918L11.18 6.00123C11.3398 6.19785 11.4746 6.40815 11.5745 6.62529C11.5828 6.64409 11.5928 6.6629 11.5995 6.68171L14.4774 3.03483C14.7621 2.67407 14.6622 2.13892 14.271 1.90982V1.90811Z" fill="white"/>
<path d="M10.5985 8.84279C10.5369 8.97102 10.4603 9.09241 10.3688 9.20868L10.0126 9.66005L9.68135 10.0806L8.69429 11.3322L8.36305 11.7511L7.7555 12.5205L7.42426 12.941L5.23209 15.7211C5.00904 16.0066 4.61621 16.0836 4.30495 15.9023L4.29995 15.8989C3.90546 15.6715 3.80726 15.1329 4.09022 14.7739L6.46383 11.7647L6.79507 11.3441L7.40428 10.5748L7.73386 10.1559L8.79416 8.81202L9.07213 8.45981C9.177 8.32474 9.23359 8.17257 9.24192 8.01357V7.99818C9.24358 7.97766 9.24358 7.95714 9.24025 7.93663C9.24192 7.93321 9.24025 7.92808 9.24025 7.92295C9.23193 7.76907 9.17034 7.61691 9.06381 7.48697L8.76919 7.1245L7.7322 5.84732L7.39596 5.43527L6.77343 4.66931L6.4372 4.25555L3.98037 1.23443C3.69074 0.877098 3.78229 0.338529 4.17345 0.102585C4.2883 0.0341949 4.41481 0 4.54131 0C4.7527 0 4.96077 0.0940359 5.10392 0.270139L7.37599 3.06215L7.71222 3.47591L8.33642 4.24187L8.67265 4.65392L9.68135 5.89349L10.0176 6.30553L10.3488 6.71416C10.452 6.84068 10.5402 6.97575 10.6035 7.11595C10.8765 7.66307 10.8748 8.29225 10.6018 8.84108L10.5985 8.84279Z" fill="white"/>
<path d="M10.5985 8.84279C10.5369 8.97102 10.4603 9.09241 10.3688 9.20868L10.0126 9.66005L9.68135 10.0806L8.69429 11.3322L8.36305 11.7511L7.7555 12.5205L7.42426 12.941L5.23209 15.7211C5.00904 16.0066 4.61621 16.0836 4.30495 15.9023L4.29995 15.8989C3.90546 15.6715 3.80726 15.1329 4.09022 14.7739L6.46383 11.7647L6.79507 11.3441L7.40428 10.5748L7.73386 10.1559L8.79416 8.81202L9.07213 8.45981C9.177 8.32474 9.23359 8.17257 9.24192 8.01357V7.99818C9.24358 7.97766 9.24358 7.95714 9.24025 7.93663C9.24192 7.93321 9.24025 7.92808 9.24025 7.92295C9.23193 7.76907 9.17034 7.61691 9.06381 7.48697L8.76919 7.1245L7.7322 5.84732L7.39596 5.43527L6.77343 4.66931L6.4372 4.25555L3.98037 1.23443C3.69074 0.877098 3.78229 0.338529 4.17345 0.102585C4.2883 0.0341949 4.41481 0 4.54131 0C4.7527 0 4.96077 0.0940359 5.10392 0.270139L7.37599 3.06215L7.71222 3.47591L8.33642 4.24187L8.67265 4.65392L9.68135 5.89349L10.0176 6.30553L10.3488 6.71416C10.452 6.84068 10.5402 6.97575 10.6035 7.11595C10.8765 7.66307 10.8748 8.29225 10.6018 8.84108L10.5985 8.84279Z" fill="white"/>
<path d="M10.5985 8.84279C10.5369 8.97102 10.4603 9.09241 10.3688 9.20868L10.0126 9.66005L9.68135 10.0806L8.69429 11.3322L8.36305 11.7511L7.7555 12.5205L7.42426 12.941L5.23209 15.7211C5.00904 16.0066 4.61621 16.0836 4.30495 15.9023L4.29995 15.8989C3.90546 15.6715 3.80726 15.1329 4.09022 14.7739L6.46383 11.7647L6.79507 11.3441L7.40428 10.5748L7.73386 10.1559L8.79416 8.81202L9.07213 8.45981C9.177 8.32474 9.23359 8.17257 9.24192 8.01357V7.99818C9.24358 7.97766 9.24358 7.95714 9.24025 7.93663C9.24192 7.93321 9.24025 7.92808 9.24025 7.92295C9.23193 7.76907 9.17034 7.61691 9.06381 7.48697L8.76919 7.1245L7.7322 5.84732L7.39596 5.43527L6.77343 4.66931L6.4372 4.25555L3.98037 1.23443C3.69074 0.877098 3.78229 0.338529 4.17345 0.102585C4.2883 0.0341949 4.41481 0 4.54131 0C4.7527 0 4.96077 0.0940359 5.10392 0.270139L7.37599 3.06215L7.71222 3.47591L8.33642 4.24187L8.67265 4.65392L9.68135 5.89349L10.0176 6.30553L10.3488 6.71416C10.452 6.84068 10.5402 6.97575 10.6035 7.11595C10.8765 7.66307 10.8748 8.29225 10.6018 8.84108L10.5985 8.84279Z" fill="white"/>
<path d="M6.22747 8.07692C6.22581 8.48383 6.08433 8.89075 5.80968 9.23783L5.45347 9.6892L2.1261 13.9123C1.90139 14.1961 1.50856 14.273 1.19729 14.0935L1.1923 14.0901C0.799473 13.8627 0.699602 13.3241 0.985899 12.9651L4.51635 8.48725C4.6828 8.27525 4.71276 8.0034 4.59458 7.77771L4.53632 7.64777C4.43645 7.4768 4.13184 7.05449 4.04196 6.94507L0.901009 3.08105C0.609717 2.722 0.702931 2.18514 1.09409 1.9492C1.21061 1.88081 1.33711 1.84661 1.46362 1.84661C1.67501 1.84661 1.88141 1.94065 2.02456 2.11504L5.3253 6.17397C5.34195 6.19449 5.39022 6.25433 5.45514 6.33811C5.62492 6.55866 5.90622 6.94678 6.02773 7.23743C6.15091 7.47509 6.21749 7.73155 6.22747 7.98801C6.22581 8.01708 6.22581 8.04614 6.22914 8.07521L6.22747 8.07692Z" fill="white"/>
</svg>
